<svg width="230" height="180" viewBox="0 0 230 180" fill="none" xmlns="http://www.w3.org/2000/svg">
<rect width="230" height="180" rx="10" fill="white"/>
<path d="M16.0469 143.015H12.8037L12.7861 141.652H15.7305C16.2168 141.652 16.6416 141.57 17.0049 141.406C17.3682 141.242 17.6494 141.008 17.8486 140.703C18.0537 140.393 18.1562 140.023 18.1562 139.596C18.1562 139.127 18.0654 138.746 17.8838 138.453C17.708 138.154 17.4355 137.938 17.0664 137.803C16.7031 137.662 16.2402 137.592 15.6777 137.592H13.1816V149H11.4854V136.203H15.6777C16.334 136.203 16.9199 136.271 17.4355 136.405C17.9512 136.534 18.3877 136.739 18.7451 137.021C19.1084 137.296 19.3838 137.647 19.5713 138.075C19.7588 138.503 19.8525 139.016 19.8525 139.613C19.8525 140.141 19.7178 140.618 19.4482 141.046C19.1787 141.468 18.8037 141.813 18.3232 142.083C17.8486 142.353 17.292 142.525 16.6533 142.602L16.0469 143.015ZM15.9678 149H12.1357L13.0938 147.62H15.9678C16.5068 147.62 16.9639 147.526 17.3389 147.339C17.7197 147.151 18.0098 146.888 18.209 146.548C18.4082 146.202 18.5078 145.795 18.5078 145.326C18.5078 144.852 18.4229 144.441 18.2529 144.096C18.083 143.75 17.8164 143.483 17.4531 143.296C17.0898 143.108 16.6211 143.015 16.0469 143.015H13.6299L13.6475 141.652H16.9521L17.3125 142.145C17.9277 142.197 18.4492 142.373 18.877 142.672C19.3047 142.965 19.6299 143.34 19.8525 143.797C20.0811 144.254 20.1953 144.758 20.1953 145.309C20.1953 146.105 20.0195 146.779 19.668 147.33C19.3223 147.875 18.833 148.291 18.2002 148.578C17.5674 148.859 16.8232 149 15.9678 149ZM24.2207 139.49V149H22.5859V139.49H24.2207ZM22.4629 136.968C22.4629 136.704 22.542 136.481 22.7002 136.3C22.8643 136.118 23.1045 136.027 23.4209 136.027C23.7314 136.027 23.9688 136.118 24.1328 136.3C24.3027 136.481 24.3877 136.704 24.3877 136.968C24.3877 137.22 24.3027 137.437 24.1328 137.618C23.9688 137.794 23.7314 137.882 23.4209 137.882C23.1045 137.882 22.8643 137.794 22.7002 137.618C22.542 137.437 22.4629 137.22 22.4629 136.968ZM26.4004 144.351V144.148C26.4004 143.463 26.5 142.827 26.6992 142.241C26.8984 141.649 27.1855 141.137 27.5605 140.703C27.9355 140.264 28.3896 139.924 28.9229 139.684C29.4561 139.438 30.0537 139.314 30.7158 139.314C31.3838 139.314 31.9844 139.438 32.5176 139.684C33.0566 139.924 33.5137 140.264 33.8887 140.703C34.2695 141.137 34.5596 141.649 34.7588 142.241C34.958 142.827 35.0576 143.463 35.0576 144.148V144.351C35.0576 145.036 34.958 145.672 34.7588 146.258C34.5596 146.844 34.2695 147.356 33.8887 147.796C33.5137 148.229 33.0596 148.569 32.5264 148.815C31.999 149.056 31.4014 149.176 30.7334 149.176C30.0654 149.176 29.4648 149.056 28.9316 148.815C28.3984 148.569 27.9414 148.229 27.5605 147.796C27.1855 147.356 26.8984 146.844 26.6992 146.258C26.5 145.672 26.4004 145.036 26.4004 144.351ZM28.0264 144.148V144.351C28.0264 144.825 28.082 145.273 28.1934 145.695C28.3047 146.111 28.4717 146.48 28.6943 146.803C28.9229 147.125 29.207 147.38 29.5469 147.567C29.8867 147.749 30.2822 147.84 30.7334 147.84C31.1787 147.84 31.5684 147.749 31.9023 147.567C32.2422 147.38 32.5234 147.125 32.7461 146.803C32.9688 146.48 33.1357 146.111 33.2471 145.695C33.3643 145.273 33.4229 144.825 33.4229 144.351V144.148C33.4229 143.68 33.3643 143.237 33.2471 142.821C33.1357 142.399 32.9658 142.027 32.7373 141.705C32.5146 141.377 32.2334 141.119 31.8936 140.932C31.5596 140.744 31.167 140.65 30.7158 140.65C30.2705 140.65 29.8779 140.744 29.5381 140.932C29.2041 141.119 28.9229 141.377 28.6943 141.705C28.4717 142.027 28.3047 142.399 28.1934 142.821C28.082 143.237 28.0264 143.68 28.0264 144.148ZM38.8633 135.5V149H37.2285V135.5H38.8633ZM41.043 144.351V144.148C41.043 143.463 41.1426 142.827 41.3418 142.241C41.541 141.649 41.8281 141.137 42.2031 140.703C42.5781 140.264 43.0322 139.924 43.5654 139.684C44.0986 139.438 44.6963 139.314 45.3584 139.314C46.0264 139.314 46.627 139.438 47.1602 139.684C47.6992 139.924 48.1562 140.264 48.5312 140.703C48.9121 141.137 49.2021 141.649 49.4014 142.241C49.6006 142.827 49.7002 143.463 49.7002 144.148V144.351C49.7002 145.036 49.6006 145.672 49.4014 146.258C49.2021 146.844 48.9121 147.356 48.5312 147.796C48.1562 148.229 47.7021 148.569 47.1689 148.815C46.6416 149.056 46.0439 149.176 45.376 149.176C44.708 149.176 44.1074 149.056 43.5742 148.815C43.041 148.569 42.584 148.229 42.2031 147.796C41.8281 147.356 41.541 146.844 41.3418 146.258C41.1426 145.672 41.043 145.036 41.043 144.351ZM42.6689 144.148V144.351C42.6689 144.825 42.7246 145.273 42.8359 145.695C42.9473 146.111 43.1143 146.48 43.3369 146.803C43.5654 147.125 43.8496 147.38 44.1895 147.567C44.5293 147.749 44.9248 147.84 45.376 147.84C45.8213 147.84 46.2109 147.749 46.5449 147.567C46.8848 147.38 47.166 147.125 47.3887 146.803C47.6113 146.48 47.7783 146.111 47.8896 145.695C48.0068 145.273 48.0654 144.825 48.0654 144.351V144.148C48.0654 143.68 48.0068 143.237 47.8896 142.821C47.7783 142.399 47.6084 142.027 47.3799 141.705C47.1572 141.377 46.876 141.119 46.5361 140.932C46.2021 140.744 45.8096 140.65 45.3584 140.65C44.9131 140.65 44.5205 140.744 44.1807 140.932C43.8467 141.119 43.5654 141.377 43.3369 141.705C43.1143 142.027 42.9473 142.399 42.8359 142.821C42.7246 143.237 42.6689 143.68 42.6689 144.148ZM57.9004 139.49H59.377V148.798C59.377 149.636 59.207 150.351 58.8672 150.942C58.5273 151.534 58.0527 151.982 57.4434 152.287C56.8398 152.598 56.1426 152.753 55.3516 152.753C55.0234 152.753 54.6367 152.7 54.1914 152.595C53.752 152.495 53.3184 152.322 52.8906 152.076C52.4688 151.836 52.1143 151.511 51.8271 151.101L52.6797 150.134C53.0781 150.614 53.4941 150.948 53.9277 151.136C54.3672 151.323 54.8008 151.417 55.2285 151.417C55.7441 151.417 56.1895 151.32 56.5645 151.127C56.9395 150.934 57.2295 150.646 57.4346 150.266C57.6455 149.891 57.751 149.428 57.751 148.877V141.582L57.9004 139.49ZM51.3525 144.351V144.166C51.3525 143.439 51.4375 142.78 51.6074 142.188C51.7832 141.591 52.0322 141.078 52.3545 140.65C52.6826 140.223 53.0781 139.895 53.541 139.666C54.0039 139.432 54.5254 139.314 55.1055 139.314C55.7031 139.314 56.2246 139.42 56.6699 139.631C57.1211 139.836 57.502 140.138 57.8125 140.536C58.1289 140.929 58.3779 141.403 58.5596 141.96C58.7412 142.517 58.8672 143.146 58.9375 143.85V144.658C58.873 145.355 58.7471 145.982 58.5596 146.539C58.3779 147.096 58.1289 147.57 57.8125 147.963C57.502 148.355 57.1211 148.657 56.6699 148.868C56.2188 149.073 55.6914 149.176 55.0879 149.176C54.5195 149.176 54.0039 149.056 53.541 148.815C53.084 148.575 52.6914 148.238 52.3633 147.805C52.0352 147.371 51.7832 146.861 51.6074 146.275C51.4375 145.684 51.3525 145.042 51.3525 144.351ZM52.9785 144.166V144.351C52.9785 144.825 53.0254 145.271 53.1191 145.687C53.2188 146.103 53.3682 146.469 53.5674 146.785C53.7725 147.102 54.0332 147.351 54.3496 147.532C54.666 147.708 55.0439 147.796 55.4834 147.796C56.0225 147.796 56.4678 147.682 56.8193 147.453C57.1709 147.225 57.4492 146.923 57.6543 146.548C57.8652 146.173 58.0293 145.766 58.1465 145.326V143.208C58.082 142.886 57.9824 142.575 57.8477 142.276C57.7188 141.972 57.5488 141.702 57.3379 141.468C57.1328 141.228 56.8779 141.037 56.5732 140.896C56.2686 140.756 55.9111 140.686 55.501 140.686C55.0557 140.686 54.6719 140.779 54.3496 140.967C54.0332 141.148 53.7725 141.4 53.5674 141.723C53.3682 142.039 53.2188 142.408 53.1191 142.83C53.0254 143.246 52.9785 143.691 52.9785 144.166ZM64.5186 148.016L67.1641 139.49H68.9043L65.0898 150.468C65.002 150.702 64.8848 150.954 64.7383 151.224C64.5977 151.499 64.416 151.76 64.1934 152.006C63.9707 152.252 63.7012 152.451 63.3848 152.604C63.0742 152.762 62.7021 152.841 62.2686 152.841C62.1396 152.841 61.9756 152.823 61.7764 152.788C61.5771 152.753 61.4365 152.724 61.3545 152.7L61.3457 151.382C61.3926 151.388 61.4658 151.394 61.5654 151.399C61.6709 151.411 61.7441 151.417 61.7852 151.417C62.1543 151.417 62.4678 151.367 62.7256 151.268C62.9834 151.174 63.2002 151.013 63.376 150.784C63.5576 150.562 63.7129 150.254 63.8418 149.861L64.5186 148.016ZM62.5762 139.49L65.0459 146.873L65.4678 148.587L64.2988 149.185L60.8008 139.49H62.5762Z" fill="#14B1A1"/>
<path d="M16.2988 168.109V169H10.7148V168.221L13.5098 165.109C13.8535 164.727 14.1191 164.402 14.3066 164.137C14.498 163.867 14.6309 163.627 14.7051 163.416C14.7832 163.201 14.8223 162.982 14.8223 162.76C14.8223 162.479 14.7637 162.225 14.6465 161.998C14.5332 161.768 14.3652 161.584 14.1426 161.447C13.9199 161.311 13.6504 161.242 13.334 161.242C12.9551 161.242 12.6387 161.316 12.3848 161.465C12.1348 161.609 11.9473 161.812 11.8223 162.074C11.6973 162.336 11.6348 162.637 11.6348 162.977H10.5508C10.5508 162.496 10.6562 162.057 10.8672 161.658C11.0781 161.26 11.3906 160.943 11.8047 160.709C12.2188 160.471 12.7285 160.352 13.334 160.352C13.873 160.352 14.334 160.447 14.7168 160.639C15.0996 160.826 15.3926 161.092 15.5957 161.436C15.8027 161.775 15.9062 162.174 15.9062 162.631C15.9062 162.881 15.8633 163.135 15.7773 163.393C15.6953 163.646 15.5801 163.9 15.4316 164.154C15.2871 164.408 15.1172 164.658 14.9219 164.904C14.7305 165.15 14.5254 165.393 14.3066 165.631L12.0215 168.109H16.2988ZM22.8145 164.055V165.355C22.8145 166.055 22.752 166.645 22.627 167.125C22.502 167.605 22.3223 167.992 22.0879 168.285C21.8535 168.578 21.5703 168.791 21.2383 168.924C20.9102 169.053 20.5391 169.117 20.125 169.117C19.7969 169.117 19.4941 169.076 19.2168 168.994C18.9395 168.912 18.6895 168.781 18.4668 168.602C18.248 168.418 18.0605 168.18 17.9043 167.887C17.748 167.594 17.6289 167.238 17.5469 166.82C17.4648 166.402 17.4238 165.914 17.4238 165.355V164.055C17.4238 163.355 17.4863 162.77 17.6113 162.297C17.7402 161.824 17.9219 161.445 18.1562 161.16C18.3906 160.871 18.6719 160.664 19 160.539C19.332 160.414 19.7031 160.352 20.1133 160.352C20.4453 160.352 20.75 160.393 21.0273 160.475C21.3086 160.553 21.5586 160.68 21.7773 160.855C21.9961 161.027 22.1816 161.258 22.334 161.547C22.4902 161.832 22.6094 162.182 22.6914 162.596C22.7734 163.01 22.8145 163.496 22.8145 164.055ZM21.7246 165.531V163.873C21.7246 163.49 21.7012 163.154 21.6543 162.865C21.6113 162.572 21.5469 162.322 21.4609 162.115C21.375 161.908 21.2656 161.74 21.1328 161.611C21.0039 161.482 20.8535 161.389 20.6816 161.33C20.5137 161.268 20.3242 161.236 20.1133 161.236C19.8555 161.236 19.627 161.285 19.4277 161.383C19.2285 161.477 19.0605 161.627 18.9238 161.834C18.791 162.041 18.6895 162.312 18.6191 162.648C18.5488 162.984 18.5137 163.393 18.5137 163.873V165.531C18.5137 165.914 18.5352 166.252 18.5781 166.545C18.625 166.838 18.6934 167.092 18.7832 167.307C18.873 167.518 18.9824 167.691 19.1113 167.828C19.2402 167.965 19.3887 168.066 19.5566 168.133C19.7285 168.195 19.918 168.227 20.125 168.227C20.3906 168.227 20.623 168.176 20.8223 168.074C21.0215 167.973 21.1875 167.814 21.3203 167.6C21.457 167.381 21.5586 167.102 21.625 166.762C21.6914 166.418 21.7246 166.008 21.7246 165.531ZM29.5645 164.055V165.355C29.5645 166.055 29.502 166.645 29.377 167.125C29.252 167.605 29.0723 167.992 28.8379 168.285C28.6035 168.578 28.3203 168.791 27.9883 168.924C27.6602 169.053 27.2891 169.117 26.875 169.117C26.5469 169.117 26.2441 169.076 25.9668 168.994C25.6895 168.912 25.4395 168.781 25.2168 168.602C24.998 168.418 24.8105 168.18 24.6543 167.887C24.498 167.594 24.3789 167.238 24.2969 166.82C24.2148 166.402 24.1738 165.914 24.1738 165.355V164.055C24.1738 163.355 24.2363 162.77 24.3613 162.297C24.4902 161.824 24.6719 161.445 24.9062 161.16C25.1406 160.871 25.4219 160.664 25.75 160.539C26.082 160.414 26.4531 160.352 26.8633 160.352C27.1953 160.352 27.5 160.393 27.7773 160.475C28.0586 160.553 28.3086 160.68 28.5273 160.855C28.7461 161.027 28.9316 161.258 29.084 161.547C29.2402 161.832 29.3594 162.182 29.4414 162.596C29.5234 163.01 29.5645 163.496 29.5645 164.055ZM28.4746 165.531V163.873C28.4746 163.49 28.4512 163.154 28.4043 162.865C28.3613 162.572 28.2969 162.322 28.2109 162.115C28.125 161.908 28.0156 161.74 27.8828 161.611C27.7539 161.482 27.6035 161.389 27.4316 161.33C27.2637 161.268 27.0742 161.236 26.8633 161.236C26.6055 161.236 26.377 161.285 26.1777 161.383C25.9785 161.477 25.8105 161.627 25.6738 161.834C25.541 162.041 25.4395 162.312 25.3691 162.648C25.2988 162.984 25.2637 163.393 25.2637 163.873V165.531C25.2637 165.914 25.2852 166.252 25.3281 166.545C25.375 166.838 25.4434 167.092 25.5332 167.307C25.623 167.518 25.7324 167.691 25.8613 167.828C25.9902 167.965 26.1387 168.066 26.3066 168.133C26.4785 168.195 26.668 168.227 26.875 168.227C27.1406 168.227 27.373 168.176 27.5723 168.074C27.7715 167.973 27.9375 167.814 28.0703 167.6C28.207 167.381 28.3086 167.102 28.375 166.762C28.4414 166.418 28.4746 166.008 28.4746 165.531ZM36.5547 164.424V165.443H30.707V164.424H36.5547ZM34.1758 161.934V168.145H33.0918V161.934H34.1758ZM47.3301 164.752V167.875C47.2246 168.031 47.0566 168.207 46.8262 168.402C46.5957 168.594 46.2773 168.762 45.8711 168.906C45.4688 169.047 44.9492 169.117 44.3125 169.117C43.793 169.117 43.3145 169.027 42.877 168.848C42.4434 168.664 42.0664 168.398 41.7461 168.051C41.4297 167.699 41.1836 167.273 41.0078 166.773C40.8359 166.27 40.75 165.699 40.75 165.062V164.4C40.75 163.764 40.8242 163.195 40.9727 162.695C41.125 162.195 41.3477 161.771 41.6406 161.424C41.9336 161.072 42.293 160.807 42.7188 160.627C43.1445 160.443 43.6328 160.352 44.1836 160.352C44.8359 160.352 45.3809 160.465 45.8184 160.691C46.2598 160.914 46.6035 161.223 46.8496 161.617C47.0996 162.012 47.2598 162.461 47.3301 162.965H46.1992C46.1484 162.656 46.0469 162.375 45.8945 162.121C45.7461 161.867 45.5332 161.664 45.2559 161.512C44.9785 161.355 44.6211 161.277 44.1836 161.277C43.7891 161.277 43.4473 161.35 43.1582 161.494C42.8691 161.639 42.6309 161.846 42.4434 162.115C42.2559 162.385 42.1152 162.711 42.0215 163.094C41.9316 163.477 41.8867 163.908 41.8867 164.389V165.062C41.8867 165.555 41.9434 165.994 42.0566 166.381C42.1738 166.768 42.3398 167.098 42.5547 167.371C42.7695 167.641 43.0254 167.846 43.3223 167.986C43.623 168.127 43.9551 168.197 44.3184 168.197C44.7207 168.197 45.0469 168.164 45.2969 168.098C45.5469 168.027 45.7422 167.945 45.8828 167.852C46.0234 167.754 46.1309 167.662 46.2051 167.576V165.666H44.2305V164.752H47.3301ZM50.125 163.656V169H49.041V162.66H50.0957L50.125 163.656ZM52.1055 162.625L52.0996 163.633C52.0098 163.613 51.9238 163.602 51.8418 163.598C51.7637 163.59 51.6738 163.586 51.5723 163.586C51.3223 163.586 51.1016 163.625 50.9102 163.703C50.7188 163.781 50.5566 163.891 50.4238 164.031C50.291 164.172 50.1855 164.34 50.1074 164.535C50.0332 164.727 49.9844 164.938 49.9609 165.168L49.6562 165.344C49.6562 164.961 49.6934 164.602 49.7676 164.266C49.8457 163.93 49.9648 163.633 50.125 163.375C50.2852 163.113 50.4883 162.91 50.7344 162.766C50.9844 162.617 51.2812 162.543 51.625 162.543C51.7031 162.543 51.793 162.553 51.8945 162.572C51.9961 162.588 52.0664 162.605 52.1055 162.625ZM56.6113 167.916V164.652C56.6113 164.402 56.5605 164.186 56.459 164.002C56.3613 163.814 56.2129 163.67 56.0137 163.568C55.8145 163.467 55.5684 163.416 55.2754 163.416C55.002 163.416 54.7617 163.463 54.5547 163.557C54.3516 163.65 54.1914 163.773 54.0742 163.926C53.9609 164.078 53.9043 164.242 53.9043 164.418H52.8203C52.8203 164.191 52.8789 163.967 52.9961 163.744C53.1133 163.521 53.2812 163.32 53.5 163.141C53.7227 162.957 53.9883 162.812 54.2969 162.707C54.6094 162.598 54.957 162.543 55.3398 162.543C55.8008 162.543 56.207 162.621 56.5586 162.777C56.9141 162.934 57.1914 163.17 57.3906 163.486C57.5938 163.799 57.6953 164.191 57.6953 164.664V167.617C57.6953 167.828 57.7129 168.053 57.748 168.291C57.7871 168.529 57.8438 168.734 57.918 168.906V169H56.7871C56.7324 168.875 56.6895 168.709 56.6582 168.502C56.627 168.291 56.6113 168.096 56.6113 167.916ZM56.7988 165.156L56.8105 165.918H55.7148C55.4062 165.918 55.1309 165.943 54.8887 165.994C54.6465 166.041 54.4434 166.113 54.2793 166.211C54.1152 166.309 53.9902 166.432 53.9043 166.58C53.8184 166.725 53.7754 166.895 53.7754 167.09C53.7754 167.289 53.8203 167.471 53.9102 167.635C54 167.799 54.1348 167.93 54.3145 168.027C54.498 168.121 54.7227 168.168 54.9883 168.168C55.3203 168.168 55.6133 168.098 55.8672 167.957C56.1211 167.816 56.3223 167.645 56.4707 167.441C56.623 167.238 56.7051 167.041 56.7168 166.85L57.1797 167.371C57.1523 167.535 57.0781 167.717 56.957 167.916C56.8359 168.115 56.6738 168.307 56.4707 168.49C56.2715 168.67 56.0332 168.82 55.7559 168.941C55.4824 169.059 55.1738 169.117 54.8301 169.117C54.4004 169.117 54.0234 169.033 53.6992 168.865C53.3789 168.697 53.1289 168.473 52.9492 168.191C52.7734 167.906 52.6855 167.588 52.6855 167.236C52.6855 166.896 52.752 166.598 52.8848 166.34C53.0176 166.078 53.209 165.861 53.459 165.689C53.709 165.514 54.0098 165.381 54.3613 165.291C54.7129 165.201 55.1055 165.156 55.5391 165.156H56.7988ZM63.3965 167.77V160H64.4863V169H63.4902L63.3965 167.77ZM59.1309 165.9V165.777C59.1309 165.293 59.1895 164.854 59.3066 164.459C59.4277 164.061 59.5977 163.719 59.8164 163.434C60.0391 163.148 60.3027 162.93 60.6074 162.777C60.916 162.621 61.2598 162.543 61.6387 162.543C62.0371 162.543 62.3848 162.613 62.6816 162.754C62.9824 162.891 63.2363 163.092 63.4434 163.357C63.6543 163.619 63.8203 163.936 63.9414 164.307C64.0625 164.678 64.1465 165.098 64.1934 165.566V166.105C64.1504 166.57 64.0664 166.988 63.9414 167.359C63.8203 167.73 63.6543 168.047 63.4434 168.309C63.2363 168.57 62.9824 168.771 62.6816 168.912C62.3809 169.049 62.0293 169.117 61.627 169.117C61.2559 169.117 60.916 169.037 60.6074 168.877C60.3027 168.717 60.0391 168.492 59.8164 168.203C59.5977 167.914 59.4277 167.574 59.3066 167.184C59.1895 166.789 59.1309 166.361 59.1309 165.9ZM60.2207 165.777V165.9C60.2207 166.217 60.252 166.514 60.3145 166.791C60.3809 167.068 60.4824 167.312 60.6191 167.523C60.7559 167.734 60.9297 167.9 61.1406 168.021C61.3516 168.139 61.6035 168.197 61.8965 168.197C62.2559 168.197 62.5508 168.121 62.7812 167.969C63.0156 167.816 63.2031 167.615 63.3438 167.365C63.4844 167.115 63.5938 166.844 63.6719 166.551V165.139C63.625 164.924 63.5566 164.717 63.4668 164.518C63.3809 164.314 63.2676 164.135 63.127 163.979C62.9902 163.818 62.8203 163.691 62.6172 163.598C62.418 163.504 62.1816 163.457 61.9082 163.457C61.6113 163.457 61.3555 163.52 61.1406 163.645C60.9297 163.766 60.7559 163.934 60.6191 164.148C60.4824 164.359 60.3809 164.605 60.3145 164.887C60.252 165.164 60.2207 165.461 60.2207 165.777ZM70.0527 167.535V162.66H71.1426V169H70.1055L70.0527 167.535ZM70.2578 166.199L70.709 166.188C70.709 166.609 70.6641 167 70.5742 167.359C70.4883 167.715 70.3477 168.023 70.1523 168.285C69.957 168.547 69.7012 168.752 69.3848 168.9C69.0684 169.045 68.6836 169.117 68.2305 169.117C67.9219 169.117 67.6387 169.072 67.3809 168.982C67.127 168.893 66.9082 168.754 66.7246 168.566C66.541 168.379 66.3984 168.135 66.2969 167.834C66.1992 167.533 66.1504 167.172 66.1504 166.75V162.66H67.2344V166.762C67.2344 167.047 67.2656 167.283 67.3281 167.471C67.3945 167.654 67.4824 167.801 67.5918 167.91C67.7051 168.016 67.8301 168.09 67.9668 168.133C68.1074 168.176 68.252 168.197 68.4004 168.197C68.8613 168.197 69.2266 168.109 69.4961 167.934C69.7656 167.754 69.959 167.514 70.0762 167.213C70.1973 166.908 70.2578 166.57 70.2578 166.199ZM76.5332 167.916V164.652C76.5332 164.402 76.4824 164.186 76.3809 164.002C76.2832 163.814 76.1348 163.67 75.9355 163.568C75.7363 163.467 75.4902 163.416 75.1973 163.416C74.9238 163.416 74.6836 163.463 74.4766 163.557C74.2734 163.65 74.1133 163.773 73.9961 163.926C73.8828 164.078 73.8262 164.242 73.8262 164.418H72.7422C72.7422 164.191 72.8008 163.967 72.918 163.744C73.0352 163.521 73.2031 163.32 73.4219 163.141C73.6445 162.957 73.9102 162.812 74.2188 162.707C74.5312 162.598 74.8789 162.543 75.2617 162.543C75.7227 162.543 76.1289 162.621 76.4805 162.777C76.8359 162.934 77.1133 163.17 77.3125 163.486C77.5156 163.799 77.6172 164.191 77.6172 164.664V167.617C77.6172 167.828 77.6348 168.053 77.6699 168.291C77.709 168.529 77.7656 168.734 77.8398 168.906V169H76.709C76.6543 168.875 76.6113 168.709 76.5801 168.502C76.5488 168.291 76.5332 168.096 76.5332 167.916ZM76.7207 165.156L76.7324 165.918H75.6367C75.3281 165.918 75.0527 165.943 74.8105 165.994C74.5684 166.041 74.3652 166.113 74.2012 166.211C74.0371 166.309 73.9121 166.432 73.8262 166.58C73.7402 166.725 73.6973 166.895 73.6973 167.09C73.6973 167.289 73.7422 167.471 73.832 167.635C73.9219 167.799 74.0566 167.93 74.2363 168.027C74.4199 168.121 74.6445 168.168 74.9102 168.168C75.2422 168.168 75.5352 168.098 75.7891 167.957C76.043 167.816 76.2441 167.645 76.3926 167.441C76.5449 167.238 76.627 167.041 76.6387 166.85L77.1016 167.371C77.0742 167.535 77 167.717 76.8789 167.916C76.7578 168.115 76.5957 168.307 76.3926 168.49C76.1934 168.67 75.9551 168.82 75.6777 168.941C75.4043 169.059 75.0957 169.117 74.752 169.117C74.3223 169.117 73.9453 169.033 73.6211 168.865C73.3008 168.697 73.0508 168.473 72.8711 168.191C72.6953 167.906 72.6074 167.588 72.6074 167.236C72.6074 166.896 72.6738 166.598 72.8066 166.34C72.9395 166.078 73.1309 165.861 73.3809 165.689C73.6309 165.514 73.9316 165.381 74.2832 165.291C74.6348 165.201 75.0273 165.156 75.4609 165.156H76.7207ZM81.9766 162.66V163.492H78.5488V162.66H81.9766ZM79.709 161.119H80.793V167.43C80.793 167.645 80.8262 167.807 80.8926 167.916C80.959 168.025 81.0449 168.098 81.1504 168.133C81.2559 168.168 81.3691 168.186 81.4902 168.186C81.5801 168.186 81.6738 168.178 81.7715 168.162C81.873 168.143 81.9492 168.127 82 168.115L82.0059 169C81.9199 169.027 81.8066 169.053 81.666 169.076C81.5293 169.104 81.3633 169.117 81.168 169.117C80.9023 169.117 80.6582 169.064 80.4355 168.959C80.2129 168.854 80.0352 168.678 79.9023 168.432C79.7734 168.182 79.709 167.846 79.709 167.424V161.119ZM85.8789 169.117C85.4375 169.117 85.0371 169.043 84.6777 168.895C84.3223 168.742 84.0156 168.529 83.7578 168.256C83.5039 167.982 83.3086 167.658 83.1719 167.283C83.0352 166.908 82.9668 166.498 82.9668 166.053V165.807C82.9668 165.291 83.043 164.832 83.1953 164.43C83.3477 164.023 83.5547 163.68 83.8164 163.398C84.0781 163.117 84.375 162.904 84.707 162.76C85.0391 162.615 85.3828 162.543 85.7383 162.543C86.1914 162.543 86.582 162.621 86.9102 162.777C87.2422 162.934 87.5137 163.152 87.7246 163.434C87.9355 163.711 88.0918 164.039 88.1934 164.418C88.2949 164.793 88.3457 165.203 88.3457 165.648V166.135H83.6113V165.25H87.2617V165.168C87.2461 164.887 87.1875 164.613 87.0859 164.348C86.9883 164.082 86.832 163.863 86.6172 163.691C86.4023 163.52 86.1094 163.434 85.7383 163.434C85.4922 163.434 85.2656 163.486 85.0586 163.592C84.8516 163.693 84.6738 163.846 84.5254 164.049C84.377 164.252 84.2617 164.5 84.1797 164.793C84.0977 165.086 84.0566 165.424 84.0566 165.807V166.053C84.0566 166.354 84.0977 166.637 84.1797 166.902C84.2656 167.164 84.3887 167.395 84.5488 167.594C84.7129 167.793 84.9102 167.949 85.1406 168.062C85.375 168.176 85.6406 168.232 85.9375 168.232C86.3203 168.232 86.6445 168.154 86.9102 167.998C87.1758 167.842 87.4082 167.633 87.6074 167.371L88.2637 167.893C88.127 168.1 87.9531 168.297 87.7422 168.484C87.5312 168.672 87.2715 168.824 86.9629 168.941C86.6582 169.059 86.2969 169.117 85.8789 169.117ZM93.6074 167.77V160H94.6973V169H93.7012L93.6074 167.77ZM89.3418 165.9V165.777C89.3418 165.293 89.4004 164.854 89.5176 164.459C89.6387 164.061 89.8086 163.719 90.0273 163.434C90.25 163.148 90.5137 162.93 90.8184 162.777C91.127 162.621 91.4707 162.543 91.8496 162.543C92.248 162.543 92.5957 162.613 92.8926 162.754C93.1934 162.891 93.4473 163.092 93.6543 163.357C93.8652 163.619 94.0312 163.936 94.1523 164.307C94.2734 164.678 94.3574 165.098 94.4043 165.566V166.105C94.3613 166.57 94.2773 166.988 94.1523 167.359C94.0312 167.73 93.8652 168.047 93.6543 168.309C93.4473 168.57 93.1934 168.771 92.8926 168.912C92.5918 169.049 92.2402 169.117 91.8379 169.117C91.4668 169.117 91.127 169.037 90.8184 168.877C90.5137 168.717 90.25 168.492 90.0273 168.203C89.8086 167.914 89.6387 167.574 89.5176 167.184C89.4004 166.789 89.3418 166.361 89.3418 165.9ZM90.4316 165.777V165.9C90.4316 166.217 90.4629 166.514 90.5254 166.791C90.5918 167.068 90.6934 167.312 90.8301 167.523C90.9668 167.734 91.1406 167.9 91.3516 168.021C91.5625 168.139 91.8145 168.197 92.1074 168.197C92.4668 168.197 92.7617 168.121 92.9922 167.969C93.2266 167.816 93.4141 167.615 93.5547 167.365C93.6953 167.115 93.8047 166.844 93.8828 166.551V165.139C93.8359 164.924 93.7676 164.717 93.6777 164.518C93.5918 164.314 93.4785 164.135 93.3379 163.979C93.2012 163.818 93.0312 163.691 92.8281 163.598C92.6289 163.504 92.3926 163.457 92.1191 163.457C91.8223 163.457 91.5664 163.52 91.3516 163.645C91.1406 163.766 90.9668 163.934 90.8301 164.148C90.6934 164.359 90.5918 164.605 90.5254 164.887C90.4629 165.164 90.4316 165.461 90.4316 165.777ZM104.072 166.844C104.072 166.645 104.041 166.469 103.979 166.316C103.92 166.16 103.814 166.02 103.662 165.895C103.514 165.77 103.307 165.65 103.041 165.537C102.779 165.424 102.447 165.309 102.045 165.191C101.623 165.066 101.242 164.928 100.902 164.775C100.562 164.619 100.271 164.441 100.029 164.242C99.7871 164.043 99.6016 163.814 99.4727 163.557C99.3438 163.299 99.2793 163.004 99.2793 162.672C99.2793 162.34 99.3477 162.033 99.4844 161.752C99.6211 161.471 99.8164 161.227 100.07 161.02C100.328 160.809 100.635 160.645 100.99 160.527C101.346 160.41 101.742 160.352 102.18 160.352C102.82 160.352 103.363 160.475 103.809 160.721C104.258 160.963 104.6 161.281 104.834 161.676C105.068 162.066 105.186 162.484 105.186 162.93H104.061C104.061 162.609 103.992 162.326 103.855 162.08C103.719 161.83 103.512 161.635 103.234 161.494C102.957 161.35 102.605 161.277 102.18 161.277C101.777 161.277 101.445 161.338 101.184 161.459C100.922 161.58 100.727 161.744 100.598 161.951C100.473 162.158 100.41 162.395 100.41 162.66C100.41 162.84 100.447 163.004 100.521 163.152C100.6 163.297 100.719 163.432 100.879 163.557C101.043 163.682 101.25 163.797 101.5 163.902C101.754 164.008 102.057 164.109 102.408 164.207C102.893 164.344 103.311 164.496 103.662 164.664C104.014 164.832 104.303 165.021 104.529 165.232C104.76 165.439 104.93 165.676 105.039 165.941C105.152 166.203 105.209 166.5 105.209 166.832C105.209 167.18 105.139 167.494 104.998 167.775C104.857 168.057 104.656 168.297 104.395 168.496C104.133 168.695 103.818 168.85 103.451 168.959C103.088 169.064 102.682 169.117 102.232 169.117C101.838 169.117 101.449 169.062 101.066 168.953C100.688 168.844 100.342 168.68 100.029 168.461C99.7207 168.242 99.4727 167.973 99.2852 167.652C99.1016 167.328 99.0098 166.953 99.0098 166.527H100.135C100.135 166.82 100.191 167.072 100.305 167.283C100.418 167.49 100.572 167.662 100.768 167.799C100.967 167.936 101.191 168.037 101.441 168.104C101.695 168.166 101.959 168.197 102.232 168.197C102.627 168.197 102.961 168.143 103.234 168.033C103.508 167.924 103.715 167.768 103.855 167.564C104 167.361 104.072 167.121 104.072 166.844ZM109.141 162.66V163.492H105.713V162.66H109.141ZM106.873 161.119H107.957V167.43C107.957 167.645 107.99 167.807 108.057 167.916C108.123 168.025 108.209 168.098 108.314 168.133C108.42 168.168 108.533 168.186 108.654 168.186C108.744 168.186 108.838 168.178 108.936 168.162C109.037 168.143 109.113 168.127 109.164 168.115L109.17 169C109.084 169.027 108.971 169.053 108.83 169.076C108.693 169.104 108.527 169.117 108.332 169.117C108.066 169.117 107.822 169.064 107.6 168.959C107.377 168.854 107.199 168.678 107.066 168.432C106.938 168.182 106.873 167.846 106.873 167.424V161.119ZM114.291 167.535V162.66H115.381V169H114.344L114.291 167.535ZM114.496 166.199L114.947 166.188C114.947 166.609 114.902 167 114.812 167.359C114.727 167.715 114.586 168.023 114.391 168.285C114.195 168.547 113.939 168.752 113.623 168.9C113.307 169.045 112.922 169.117 112.469 169.117C112.16 169.117 111.877 169.072 111.619 168.982C111.365 168.893 111.146 168.754 110.963 168.566C110.779 168.379 110.637 168.135 110.535 167.834C110.438 167.533 110.389 167.172 110.389 166.75V162.66H111.473V166.762C111.473 167.047 111.504 167.283 111.566 167.471C111.633 167.654 111.721 167.801 111.83 167.91C111.943 168.016 112.068 168.09 112.205 168.133C112.346 168.176 112.49 168.197 112.639 168.197C113.1 168.197 113.465 168.109 113.734 167.934C114.004 167.754 114.197 167.514 114.314 167.213C114.436 166.908 114.496 166.57 114.496 166.199ZM121.029 167.77V160H122.119V169H121.123L121.029 167.77ZM116.764 165.9V165.777C116.764 165.293 116.822 164.854 116.939 164.459C117.061 164.061 117.23 163.719 117.449 163.434C117.672 163.148 117.936 162.93 118.24 162.777C118.549 162.621 118.893 162.543 119.271 162.543C119.67 162.543 120.018 162.613 120.314 162.754C120.615 162.891 120.869 163.092 121.076 163.357C121.287 163.619 121.453 163.936 121.574 164.307C121.695 164.678 121.779 165.098 121.826 165.566V166.105C121.783 166.57 121.699 166.988 121.574 167.359C121.453 167.73 121.287 168.047 121.076 168.309C120.869 168.57 120.615 168.771 120.314 168.912C120.014 169.049 119.662 169.117 119.26 169.117C118.889 169.117 118.549 169.037 118.24 168.877C117.936 168.717 117.672 168.492 117.449 168.203C117.23 167.914 117.061 167.574 116.939 167.184C116.822 166.789 116.764 166.361 116.764 165.9ZM117.854 165.777V165.9C117.854 166.217 117.885 166.514 117.947 166.791C118.014 167.068 118.115 167.312 118.252 167.523C118.389 167.734 118.562 167.9 118.773 168.021C118.984 168.139 119.236 168.197 119.529 168.197C119.889 168.197 120.184 168.121 120.414 167.969C120.648 167.816 120.836 167.615 120.977 167.365C121.117 167.115 121.227 166.844 121.305 166.551V165.139C121.258 164.924 121.189 164.717 121.1 164.518C121.014 164.314 120.9 164.135 120.76 163.979C120.623 163.818 120.453 163.691 120.25 163.598C120.051 163.504 119.814 163.457 119.541 163.457C119.244 163.457 118.988 163.52 118.773 163.645C118.562 163.766 118.389 163.934 118.252 164.148C118.115 164.359 118.014 164.605 117.947 164.887C117.885 165.164 117.854 165.461 117.854 165.777ZM126.438 169.117C125.996 169.117 125.596 169.043 125.236 168.895C124.881 168.742 124.574 168.529 124.316 168.256C124.062 167.982 123.867 167.658 123.73 167.283C123.594 166.908 123.525 166.498 123.525 166.053V165.807C123.525 165.291 123.602 164.832 123.754 164.43C123.906 164.023 124.113 163.68 124.375 163.398C124.637 163.117 124.934 162.904 125.266 162.76C125.598 162.615 125.941 162.543 126.297 162.543C126.75 162.543 127.141 162.621 127.469 162.777C127.801 162.934 128.072 163.152 128.283 163.434C128.494 163.711 128.65 164.039 128.752 164.418C128.854 164.793 128.904 165.203 128.904 165.648V166.135H124.17V165.25H127.82V165.168C127.805 164.887 127.746 164.613 127.645 164.348C127.547 164.082 127.391 163.863 127.176 163.691C126.961 163.52 126.668 163.434 126.297 163.434C126.051 163.434 125.824 163.486 125.617 163.592C125.41 163.693 125.232 163.846 125.084 164.049C124.936 164.252 124.82 164.5 124.738 164.793C124.656 165.086 124.615 165.424 124.615 165.807V166.053C124.615 166.354 124.656 166.637 124.738 166.902C124.824 167.164 124.947 167.395 125.107 167.594C125.271 167.793 125.469 167.949 125.699 168.062C125.934 168.176 126.199 168.232 126.496 168.232C126.879 168.232 127.203 168.154 127.469 167.998C127.734 167.842 127.967 167.633 128.166 167.371L128.822 167.893C128.686 168.1 128.512 168.297 128.301 168.484C128.09 168.672 127.83 168.824 127.521 168.941C127.217 169.059 126.855 169.117 126.438 169.117ZM131.254 164.014V169H130.17V162.66H131.195L131.254 164.014ZM130.996 165.59L130.545 165.572C130.549 165.139 130.613 164.738 130.738 164.371C130.863 164 131.039 163.678 131.266 163.404C131.492 163.131 131.762 162.92 132.074 162.771C132.391 162.619 132.74 162.543 133.123 162.543C133.436 162.543 133.717 162.586 133.967 162.672C134.217 162.754 134.43 162.887 134.605 163.07C134.785 163.254 134.922 163.492 135.016 163.785C135.109 164.074 135.156 164.428 135.156 164.846V169H134.066V164.834C134.066 164.502 134.018 164.236 133.92 164.037C133.822 163.834 133.68 163.688 133.492 163.598C133.305 163.504 133.074 163.457 132.801 163.457C132.531 163.457 132.285 163.514 132.062 163.627C131.844 163.74 131.654 163.896 131.494 164.096C131.338 164.295 131.215 164.523 131.125 164.781C131.039 165.035 130.996 165.305 130.996 165.59ZM139.457 162.66V163.492H136.029V162.66H139.457ZM137.189 161.119H138.273V167.43C138.273 167.645 138.307 167.807 138.373 167.916C138.439 168.025 138.525 168.098 138.631 168.133C138.736 168.168 138.85 168.186 138.971 168.186C139.061 168.186 139.154 168.178 139.252 168.162C139.354 168.143 139.43 168.127 139.48 168.115L139.486 169C139.4 169.027 139.287 169.053 139.146 169.076C139.01 169.104 138.844 169.117 138.648 169.117C138.383 169.117 138.139 169.064 137.916 168.959C137.693 168.854 137.516 168.678 137.383 168.432C137.254 168.182 137.189 167.846 137.189 167.424V161.119ZM144.42 167.318C144.42 167.162 144.385 167.018 144.314 166.885C144.248 166.748 144.109 166.625 143.898 166.516C143.691 166.402 143.379 166.305 142.961 166.223C142.609 166.148 142.291 166.061 142.006 165.959C141.725 165.857 141.484 165.734 141.285 165.59C141.09 165.445 140.939 165.275 140.834 165.08C140.729 164.885 140.676 164.656 140.676 164.395C140.676 164.145 140.73 163.908 140.84 163.686C140.953 163.463 141.111 163.266 141.314 163.094C141.521 162.922 141.77 162.787 142.059 162.689C142.348 162.592 142.67 162.543 143.025 162.543C143.533 162.543 143.967 162.633 144.326 162.812C144.686 162.992 144.961 163.232 145.152 163.533C145.344 163.83 145.439 164.16 145.439 164.523H144.355C144.355 164.348 144.303 164.178 144.197 164.014C144.096 163.846 143.945 163.707 143.746 163.598C143.551 163.488 143.311 163.434 143.025 163.434C142.725 163.434 142.48 163.48 142.293 163.574C142.109 163.664 141.975 163.779 141.889 163.92C141.807 164.061 141.766 164.209 141.766 164.365C141.766 164.482 141.785 164.588 141.824 164.682C141.867 164.771 141.941 164.855 142.047 164.934C142.152 165.008 142.301 165.078 142.492 165.145C142.684 165.211 142.928 165.277 143.225 165.344C143.744 165.461 144.172 165.602 144.508 165.766C144.844 165.93 145.094 166.131 145.258 166.369C145.422 166.607 145.504 166.896 145.504 167.236C145.504 167.514 145.445 167.768 145.328 167.998C145.215 168.229 145.049 168.428 144.83 168.596C144.615 168.76 144.357 168.889 144.057 168.982C143.76 169.072 143.426 169.117 143.055 169.117C142.496 169.117 142.023 169.018 141.637 168.818C141.25 168.619 140.957 168.361 140.758 168.045C140.559 167.729 140.459 167.395 140.459 167.043H141.549C141.564 167.34 141.65 167.576 141.807 167.752C141.963 167.924 142.154 168.047 142.381 168.121C142.607 168.191 142.832 168.227 143.055 168.227C143.352 168.227 143.6 168.188 143.799 168.109C144.002 168.031 144.156 167.924 144.262 167.787C144.367 167.65 144.42 167.494 144.42 167.318Z" fill="#3F3F3F"/>
<path d="M173.015 24.8051C154.829 15.3253 131.147 17.6311 115.132 30.4402C107.902 36.2229 101.65 44.1736 92.5986 46.1164C84.585 47.8367 76.5062 44.3478 68.4927 42.625C60.8154 40.9725 52.318 41.0741 45.6788 45.2696C37.2612 50.5878 33.6923 61.7975 35.8336 71.5217C37.9749 81.2458 45.0182 89.3876 53.4745 94.6428C61.9308 99.8981 71.7348 102.569 81.5243 104.398C100.172 107.88 119.429 108.526 138.134 105.369C150.973 103.203 163.767 99.1238 174.166 91.2869C184.566 83.45 192.323 71.4418 192.855 58.4319C193.387 45.422 185.811 31.4782 173.015 24.8051Z" fill="#C2F2C2"/>
<path d="M108.548 47.5436V36.6701L98.8309 31.2334L89.1143 36.6701V47.5436L98.8309 52.9803L108.548 47.5436Z" stroke="#80C965" stroke-miterlimit="10" stroke-linecap="round" stroke-linejoin="round"/>
<path d="M132.233 48.7335V35.4792L120.389 28.8545L108.548 36.5438V47.5189L120.389 55.3582L132.233 48.7335Z" stroke="#80C965" stroke-miterlimit="10" stroke-linecap="round" stroke-linejoin="round"/>
<path d="M120.374 28.891V22.5566" stroke="#80C965" stroke-miterlimit="10" stroke-linecap="round" stroke-linejoin="round"/>
<path d="M91.8135 38.7821L99.5926 34.3398" stroke="#80C965" stroke-miterlimit="10" stroke-linecap="round" stroke-linejoin="round"/>
<path d="M132.08 48.708L137.112 52.5551" stroke="#80C965" stroke-miterlimit="10" stroke-linecap="round" stroke-linejoin="round"/>
<path d="M56.8623 37.98V46.3027L64.299 50.4624L71.736 46.3027V37.98L64.299 33.8203L56.8623 37.98Z" stroke="#80C965" stroke-miterlimit="10" stroke-linecap="round" stroke-linejoin="round"/>
<path d="M38.7354 37.0697V47.2124L47.797 52.2821L56.8623 46.3982V38L47.797 32L38.7354 37.0697Z" stroke="#80C965" stroke-miterlimit="10" stroke-linecap="round" stroke-linejoin="round"/>
<path d="M47.8105 52.2559V57.1032" stroke="#80C965" stroke-miterlimit="10" stroke-linecap="round" stroke-linejoin="round"/>
<path d="M69.6669 44.6846L63.7148 48.0848" stroke="#80C965" stroke-miterlimit="10" stroke-linecap="round" stroke-linejoin="round"/>
<path d="M38.8519 37.0908L35 34.1455" stroke="#80C965" stroke-miterlimit="10" stroke-linecap="round" stroke-linejoin="round"/>
<path d="M161.619 57.1138L161.392 46.6808L151.844 41.665L142.521 47.08L142.747 57.5106L152.296 62.5264L161.619 57.1138Z" stroke="#80C965" stroke-miterlimit="10" stroke-linecap="round" stroke-linejoin="round"/>
<path d="M184.642 57.7679L184.368 45.0556L172.73 38.9414L161.39 46.5606L161.617 57.088L173.28 64.3684L184.642 57.7679Z" stroke="#80C965" stroke-miterlimit="10" stroke-linecap="round" stroke-linejoin="round"/>
<path d="M172.714 38.9788L172.583 32.9033" stroke="#80C965" stroke-miterlimit="10" stroke-linecap="round" stroke-linejoin="round"/>
<path d="M145.187 49.0543L152.649 44.6338" stroke="#80C965" stroke-miterlimit="10" stroke-linecap="round" stroke-linejoin="round"/>
<path d="M184.492 57.75L189.46 61.3358" stroke="#80C965" stroke-miterlimit="10" stroke-linecap="round" stroke-linejoin="round"/>
<path d="M149.776 110.916C147.702 101.192 149.551 90.6716 154.787 82.3944C160.022 74.1171 168.578 68.1892 177.983 66.3262C178.534 75.6608 176.093 85.1333 171.135 92.8952C166.178 100.655 158.73 106.665 149.776 110.916Z" fill="#9BD376"/>
<path d="M176.818 67.4558C175.33 68.9026 173.888 70.4052 172.487 71.9464C172.48 71.9319 172.47 71.9126 172.461 71.8884C172.395 71.7432 172.361 71.5738 172.313 71.4238C172.103 70.756 171.892 70.0906 171.682 69.4228C171.616 69.2123 171.309 69.343 171.377 69.5535C171.594 70.2358 171.812 70.9157 172.028 71.598C172.083 71.7698 172.122 72.0432 172.248 72.2077C169.743 74.9805 167.38 77.8937 165.168 80.9205C164.471 78.83 163.438 76.9259 161.96 75.3072C161.817 75.1523 161.561 75.3507 161.703 75.508C163.177 77.1243 164.343 79.1131 164.924 81.2593C164.723 81.5351 164.522 81.8109 164.326 82.0892C162.11 85.2031 160.056 88.4429 158.166 91.7819C157.305 89.5389 156.061 87.4654 154.481 85.6822C154.333 85.5152 154.062 85.7257 154.212 85.8951C155.834 87.7243 157.099 89.8559 157.943 92.1714C156.748 94.3055 155.621 96.483 154.566 98.6969C154.15 99.5704 153.748 100.449 153.356 101.332C152.509 99.8825 151.529 98.5324 150.387 97.3081C150.232 97.1412 149.952 97.3589 150.109 97.5283C151.287 98.7937 152.335 100.207 153.177 101.738C152.156 104.066 151.215 106.43 150.351 108.825C150.276 109.031 150.581 109.169 150.656 108.963C151.498 106.638 152.42 104.347 153.414 102.087C153.47 102.113 153.533 102.113 153.595 102.072C154.779 101.288 156.049 100.659 157.397 100.233C158.069 100.02 158.759 99.8631 159.456 99.7567C160.155 99.6502 160.852 99.6454 161.553 99.5873C161.735 99.5728 161.742 99.2607 161.556 99.2486C160.847 99.2026 160.111 99.3018 159.412 99.4083C158.703 99.5172 158.001 99.6817 157.314 99.8873C156.015 100.279 154.767 100.858 153.624 101.608C154.992 98.5372 156.492 95.5297 158.12 92.5997C158.168 92.6432 158.243 92.6577 158.301 92.6335C161.435 91.2471 164.779 90.6156 168.19 90.6665C168.374 90.6689 168.376 90.3374 168.193 90.3301C164.825 90.1898 161.42 90.8721 158.33 92.2271C158.33 92.2246 158.33 92.2246 158.328 92.2222C158.48 91.9512 158.628 91.6778 158.783 91.4068C160.767 87.9396 162.932 84.5886 165.27 81.3681C167.629 80.1898 170.368 80.1705 172.79 81.2351C172.981 81.3197 173.104 81.0197 172.916 80.9302C170.66 79.8608 167.992 79.8438 165.708 80.7802C166.992 79.0333 168.326 77.3227 169.71 75.658C170.648 74.5281 171.611 73.4248 172.596 72.3384C172.758 72.3166 172.928 72.2271 173.066 72.1787C174.254 71.7746 175.478 71.9222 176.617 72.4255C176.811 72.5102 176.925 72.2174 176.743 72.1206C175.785 71.6053 174.602 71.4891 173.559 71.7021C173.39 71.7359 173.223 71.7843 173.058 71.8351C174.345 70.4318 175.669 69.0623 177.021 67.7219C177.171 67.5791 176.973 67.3057 176.818 67.4558Z" fill="#5CB24D"/>
<path d="M150.911 109.953C153.936 101.313 160.817 94.1048 169.307 90.6835C177.797 87.2623 187.754 87.6857 195.924 91.8135C185.285 104.407 167.696 110.71 150.911 109.953Z" fill="#6CBC5C"/>
<path d="M193.89 91.8492C192.1 91.9049 190.314 92.0573 188.541 92.2896C188.952 91.6774 189.313 91.0314 189.603 90.3515C189.68 90.1725 189.402 90.0539 189.325 90.233C189.003 90.983 188.599 91.6895 188.115 92.3476C185.635 92.6912 183.179 93.2042 180.762 93.8598C181.398 92.3984 181.776 90.8378 181.86 89.2458C181.87 89.0498 181.568 89.0038 181.558 89.2022C181.473 90.8209 181.091 92.4033 180.416 93.8792C180.404 93.9034 180.404 93.9324 180.406 93.9591C178.954 94.3631 177.517 94.818 176.097 95.3237C174.51 95.8899 172.944 96.5189 171.405 97.2012C171.655 95.0575 171.623 92.8945 171.275 90.7604C171.243 90.5668 170.941 90.6031 170.972 90.7991C171.321 92.9695 171.357 95.1833 171.05 97.3609C168.449 98.5296 165.918 99.8603 163.467 101.319C163.46 101.3 163.448 101.285 163.44 101.266C163.358 101.029 163.373 100.743 163.346 100.494C163.29 99.991 163.213 99.4877 163.114 98.9893C162.896 97.9053 162.569 96.848 162.148 95.8269C162.076 95.6503 161.797 95.7616 161.872 95.9407C162.26 96.8867 162.564 97.8618 162.773 98.8611C162.877 99.3571 162.956 99.8603 163.012 100.364C163.051 100.719 163.022 101.152 163.177 101.494C162.037 102.178 160.909 102.89 159.806 103.628C159.165 104.056 158.529 104.496 157.9 104.941C157.75 104.663 157.658 104.317 157.554 104.058C157.217 103.216 156.888 102.372 156.557 101.527C156.487 101.351 156.216 101.462 156.283 101.641C156.615 102.486 156.951 103.328 157.278 104.174C157.396 104.479 157.488 104.828 157.641 105.125C155.528 106.63 153.484 108.23 151.512 109.914C151.323 110.076 151.558 110.385 151.747 110.223C153.709 108.537 155.741 106.937 157.841 105.428C158.04 105.638 158.318 105.769 158.563 105.919C159.209 106.318 159.816 106.78 160.372 107.296C160.951 107.83 161.427 108.43 161.923 109.038C162.054 109.197 162.289 109.016 162.177 108.844C161.389 107.642 160.203 106.611 159.013 105.825C158.725 105.636 158.371 105.483 158.12 105.249C158.117 105.246 158.115 105.241 158.112 105.239C159.823 104.02 161.575 102.863 163.375 101.779C163.595 102.006 163.902 102.149 164.164 102.314C164.536 102.548 164.897 102.798 165.245 103.066C165.945 103.601 166.593 104.201 167.179 104.857C167.844 105.599 168.405 106.408 168.921 107.259C169.01 107.407 169.269 107.259 169.184 107.107C168.376 105.633 167.256 104.317 165.978 103.231C165.323 102.672 164.611 102.217 163.89 101.75C163.818 101.702 163.745 101.651 163.68 101.593C164.725 100.971 165.782 100.373 166.857 99.7998C168.265 99.0498 169.7 98.3433 171.156 97.6876C173.796 99.1635 175.903 101.489 177.154 104.237C177.239 104.424 177.534 104.305 177.449 104.114C176.225 101.356 174.127 99.0474 171.534 97.5182C174.522 96.1899 177.602 95.0696 180.755 94.201C183 95.2462 184.582 97.4359 184.844 99.9111C184.865 100.11 185.17 100.071 185.148 99.8724C184.894 97.448 183.358 95.2172 181.209 94.0776C182.071 93.8478 182.937 93.6348 183.81 93.4437C185.219 93.1364 186.637 92.8824 188.062 92.6815C188.083 92.7009 188.11 92.7154 188.139 92.7227C188.722 92.8751 189.233 93.1412 189.707 93.5187C190.169 93.8865 190.549 94.3268 190.963 94.743C191.091 94.8712 191.297 94.6607 191.185 94.5228C190.793 94.0365 190.319 93.5768 189.825 93.1969C189.509 92.9525 189.158 92.7348 188.78 92.5823C190.488 92.3646 192.209 92.2242 193.931 92.1686C194.135 92.1565 194.094 91.8419 193.89 91.8492Z" fill="#3D9B4E"/>
<path d="M148.165 110.05C141.518 104.882 137.066 96.977 136.091 88.6126C135.116 80.2482 137.63 71.533 142.909 64.9736C147.678 71.5983 151.978 78.7892 153.647 86.7786C155.317 94.7679 154.003 103.723 148.165 110.05Z" fill="#6CBC5C"/>
<path d="M153.064 94.8595C150.139 95.4401 147.426 97.1217 145.394 99.2848C145.036 97.3298 144.733 95.3627 144.457 93.3956C144.329 92.481 144.208 91.564 144.097 90.6446C144.119 90.6325 144.138 90.6156 144.157 90.5938C144.617 90.0034 145.217 89.4929 145.798 89.0259C146.374 88.5614 146.986 88.1404 147.625 87.7678C148.934 87.0032 150.364 86.4467 151.842 86.1225C152.062 86.0741 152.021 85.7232 151.798 85.7716C150.293 86.1031 148.849 86.6572 147.513 87.4242C146.85 87.8065 146.216 88.2347 145.619 88.7138C145.053 89.1663 144.557 89.6792 144.039 90.1801C143.644 86.9016 143.352 83.611 143.165 80.3156C143.219 80.318 143.269 80.301 143.315 80.2527C144.119 79.3744 144.987 78.5711 145.96 77.8791C146.94 77.1823 147.983 76.6621 149.076 76.1757C149.294 76.0789 149.159 75.7475 148.934 75.8322C147.806 76.258 146.722 76.9016 145.742 77.5936C144.799 78.2614 143.915 79.038 143.146 79.9042C143.083 78.7574 143.03 77.6105 142.994 76.4636C142.945 74.9684 142.923 73.4707 142.921 71.9754C143.115 71.8907 143.279 71.6391 143.422 71.5012C143.64 71.2907 143.867 71.0923 144.107 70.906C144.6 70.5212 145.132 70.214 145.694 69.9406C145.892 69.8438 145.766 69.5317 145.563 69.6236C145.057 69.8486 144.571 70.1365 144.124 70.4583C143.891 70.6253 143.666 70.8043 143.451 70.9931C143.332 71.0995 143.216 71.206 143.102 71.3197C143.042 71.3778 142.982 71.4625 142.919 71.5278C142.921 69.9454 142.945 68.363 142.994 66.783C142.998 66.5895 142.698 66.5435 142.694 66.7395C142.643 68.3267 142.619 69.9115 142.616 71.4987C142.611 71.4939 142.606 71.4891 142.604 71.4866C142.505 71.4044 142.398 71.3294 142.29 71.2616C142.079 71.131 141.859 71.0269 141.627 70.9422C141.126 70.7584 140.601 70.6616 140.078 70.5721C139.858 70.5333 139.81 70.8745 140.027 70.9132C140.576 71.01 141.133 71.1116 141.651 71.327C141.917 71.4383 142.169 71.581 142.389 71.7649C142.464 71.8278 142.536 71.9052 142.619 71.956C142.621 74.5595 142.686 77.1629 142.815 79.7615C141.239 79.0114 139.539 78.6558 137.782 78.8034C137.569 78.8203 137.61 79.1493 137.823 79.1324C139.529 78.9945 141.327 79.3308 142.836 80.1631C142.902 81.4068 142.979 82.6504 143.073 83.8917C143.228 85.9386 143.427 87.9855 143.664 90.0252C141.91 88.9485 139.623 88.4186 137.608 88.6412C137.363 88.6678 137.417 89.0235 137.654 89.0138C138.75 88.9751 139.814 89.0332 140.881 89.3066C141.9 89.5679 142.824 90.0058 143.724 90.5357C144.085 93.5481 144.542 96.5459 145.087 99.5292C143.666 98.9896 142.142 98.7888 140.627 98.9485C140.39 98.9727 140.436 99.3405 140.673 99.3163C142.193 99.1541 143.719 99.3695 145.137 99.9405C145.147 99.9429 145.154 99.9453 145.164 99.9478C145.222 100.262 145.278 100.577 145.338 100.891C145.636 102.425 145.984 103.947 146.432 105.435C146.175 105.283 145.904 105.155 145.624 105.053C145.07 104.852 144.443 104.717 143.853 104.758C143.615 104.775 143.606 105.167 143.848 105.181C144.508 105.218 145.118 105.283 145.737 105.547C145.994 105.655 146.243 105.866 146.507 105.936C146.536 105.943 146.565 105.948 146.591 105.951C146.988 107.192 147.458 108.411 148.034 109.594C148.138 109.807 148.481 109.667 148.375 109.454C147.789 108.278 147.317 107.047 146.923 105.791C146.967 105.743 147.008 105.692 147.051 105.639C147.842 104.676 149.197 104.218 150.325 103.797C150.535 103.717 150.402 103.393 150.189 103.473C149.093 103.88 147.946 104.31 147.075 105.118C146.981 105.205 146.892 105.3 146.8 105.392C146.437 104.182 146.137 102.95 145.878 101.721C145.74 101.066 145.609 100.407 145.486 99.7469C146.475 98.6485 147.632 97.7097 148.902 96.9548C150.24 96.1612 151.673 95.641 153.17 95.2442C153.376 95.1788 153.281 94.8159 153.064 94.8595Z" fill="#3D9B4E"/>
<g opacity="0.7216">
<path d="M127.57 101.91C128.312 98.7999 126.392 95.6767 123.282 94.9345C120.171 94.1923 117.048 96.1122 116.306 99.2226C115.564 102.333 117.483 105.456 120.594 106.198C123.704 106.941 126.827 105.021 127.57 101.91Z" fill="#FEFFFE"/>
<path d="M123.386 84.9014H120.49V100.57H123.386V84.9014Z" fill="#FEFFFE"/>
<path d="M119.129 85.0427V84.0773C119.129 83.9684 119.218 83.8789 119.327 83.8789H124.549C124.658 83.8789 124.747 83.9684 124.747 84.0773V85.0427C124.747 85.1516 124.658 85.2411 124.549 85.2411H119.327C119.218 85.2435 119.129 85.154 119.129 85.0427Z" fill="#FEFFFE"/>
<path d="M126.026 100.571C126.026 102.826 124.194 104.658 121.939 104.658C119.684 104.658 117.853 102.826 117.853 100.571C117.853 99.7535 118.092 98.9986 118.513 98.3574H125.368C125.789 98.9986 126.026 99.7535 126.026 100.571Z" fill="#36D6C1"/>
<path d="M108.924 106.361C112.121 106.361 114.714 103.769 114.714 100.571C114.714 97.3735 112.121 94.7812 108.924 94.7812C105.726 94.7812 103.134 97.3735 103.134 100.571C103.134 103.769 105.726 106.361 108.924 106.361Z" fill="#FEFFFE"/>
<path d="M110.373 84.9023H107.477V100.571H110.373V84.9023Z" fill="#FEFFFE"/>
<path d="M106.114 85.0427V84.0773C106.114 83.9684 106.204 83.8789 106.313 83.8789H111.534C111.643 83.8789 111.732 83.9684 111.732 84.0773V85.0427C111.732 85.1516 111.643 85.2411 111.534 85.2411H106.313C106.204 85.2435 106.114 85.154 106.114 85.0427Z" fill="#FEFFFE"/>
<path d="M113.013 100.571C113.013 102.826 111.181 104.658 108.926 104.658C106.671 104.658 104.84 102.826 104.84 100.571C104.84 100.436 104.847 100.305 104.859 100.177H112.994C113.006 100.305 113.013 100.436 113.013 100.571Z" fill="#F59E42"/>
<path d="M135.41 106.361C138.608 106.361 141.2 103.769 141.2 100.571C141.2 97.3735 138.608 94.7812 135.41 94.7812C132.212 94.7812 129.62 97.3735 129.62 100.571C129.62 103.769 132.212 106.361 135.41 106.361Z" fill="#FEFFFE"/>
<path d="M136.857 84.9023H133.961V100.571H136.857V84.9023Z" fill="#FEFFFE"/>
<path d="M132.599 85.0427V84.0773C132.599 83.9684 132.688 83.8789 132.797 83.8789H138.018C138.127 83.8789 138.217 83.9684 138.217 84.0773V85.0427C138.217 85.1516 138.127 85.2411 138.018 85.2411H132.797C132.688 85.2435 132.599 85.154 132.599 85.0427Z" fill="#FEFFFE"/>
<path d="M139.264 101.922C138.713 103.516 137.193 104.661 135.408 104.661C133.622 104.661 132.102 103.516 131.551 101.922H139.264Z" fill="#ED644C"/>
</g>
<path d="M143.578 98.0234H100.752V99.2647H143.578V98.0234Z" fill="#012C34"/>
<path d="M115.807 98.8506H114.979V108.913H115.807V98.8506Z" fill="#012C34"/>
<path d="M129.047 99.2637H128.22V109.327H129.047V99.2637Z" fill="#012C34"/>
<path d="M142.909 99.2637H142.081V109.327H142.909V99.2637Z" fill="#012C34"/>
<path d="M102.152 99.2637H101.324V109.327H102.152V99.2637Z" fill="#012C34"/>
<path d="M78.7057 108.429C81.7374 99.4526 80.5228 89.1405 75.4877 81.1125C70.4527 73.0844 61.6988 67.5025 52.2988 66.3242C51.5584 74.7079 53.465 83.307 57.6823 90.5898C61.8998 97.8751 68.4082 103.81 78.7057 108.429Z" fill="#9BD376"/>
<path d="M78.446 107.918C77.6984 106.043 76.9338 104.175 76.1474 102.317C76.1523 102.31 76.1571 102.307 76.1595 102.3C76.7886 101.112 77.8097 100.164 79.0146 99.5732C79.2033 99.4812 79.0654 99.186 78.8767 99.278C77.6766 99.8683 76.6846 100.793 75.9853 101.93C74.9425 99.474 73.8561 97.0375 72.702 94.6349C73.8658 91.6903 75.5885 88.8352 77.8919 86.6383C78.0444 86.4931 77.8242 86.2415 77.6839 86.3915C76.5709 87.5843 75.5208 88.8231 74.6231 90.1902C73.786 91.4653 73.0771 92.8226 72.506 94.2381C71.8528 92.8904 71.1825 91.5524 70.4833 90.2265C69.7332 88.8062 68.9517 87.4029 68.1412 86.0165C68.8525 83.4542 70.1929 81.0757 72.0028 79.128C72.1431 78.9756 71.935 78.7264 71.7947 78.8788C70.0042 80.8072 68.688 83.113 67.9113 85.6196C66.2346 82.7815 64.4223 80.0257 62.4407 77.3932C62.4625 77.369 62.4794 77.34 62.4867 77.3012C62.8811 75.2809 63.665 73.43 64.7514 71.6903C64.8579 71.521 64.6111 71.3419 64.4973 71.5089C63.365 73.1759 62.6101 75.1261 62.2181 77.098C61.6689 76.377 61.11 75.6632 60.5341 74.9615C59.4768 73.6695 58.3735 72.4162 57.2242 71.2064C57.2532 70.708 57.3258 70.2144 57.4492 69.7305C57.5726 69.249 57.7589 68.799 57.9452 68.3393C58.0202 68.1505 57.7468 68.0634 57.6597 68.2328C57.2363 69.0409 57.0209 69.9966 56.9411 70.9112C55.862 69.7886 54.7442 68.7022 53.5828 67.6618C53.4449 67.5384 53.2803 67.7731 53.4158 67.8965C54.5119 68.8788 55.5668 69.9023 56.5878 70.9596C55.6273 70.8048 54.6498 70.8265 53.6941 71.0346C53.5005 71.0758 53.5562 71.3782 53.7497 71.3371C54.8022 71.1072 55.891 71.1024 56.9435 71.3347C58.6953 73.1783 60.3381 75.1261 61.8818 77.1488C59.2711 77.2867 56.9363 78.6538 54.7442 79.9821C54.582 80.0813 54.7079 80.3523 54.8724 80.2531C57.0814 78.9151 59.4598 77.4997 62.1141 77.4513C63.1182 78.7796 64.0812 80.1418 65.0006 81.5282C65.9781 82.9993 66.9048 84.4994 67.7952 86.0213C67.7928 86.0285 67.7903 86.0334 67.7903 86.0406C64.2578 85.5083 60.8559 87.4053 58.0057 89.2635C57.8146 89.3869 58.0444 89.6579 58.2331 89.5345C61.0979 87.6666 64.357 85.8834 67.8968 86.3963C67.9307 86.4012 67.9694 86.3915 68.0008 86.3721C69.5179 88.9949 70.9164 91.6879 72.2302 94.4195C69.184 94.3832 66.1499 95.0631 63.4182 96.4157C63.2464 96.5003 63.3723 96.7713 63.5465 96.6866C66.2902 95.3365 69.334 94.6687 72.3899 94.751C72.9125 95.8471 73.4255 96.948 73.9239 98.0537C74.5094 99.3554 75.078 100.664 75.6345 101.978C74.824 101.804 73.9941 101.748 73.1666 101.799C72.1988 101.86 71.168 102.048 70.2873 102.467C70.0913 102.561 70.2317 102.835 70.4276 102.767C71.318 102.462 72.1867 102.206 73.1303 102.143C74.0279 102.08 74.928 102.169 75.8039 102.375C76.6023 104.265 77.3766 106.166 78.1363 108.073C78.2137 108.276 78.5307 108.126 78.446 107.918Z" fill="#5CB24D"/>
<path d="M78.1498 108.346C68.6458 93.633 51.0702 87.1777 35.2246 92.5829C44.905 107.04 61.5272 114.347 78.1498 108.346Z" fill="#6CBC5C"/>
<path d="M77.2934 107.712C75.261 106.858 73.2213 106.023 71.1768 105.198C70.9203 104.199 70.7292 103.183 70.6203 102.154C70.5042 101.058 70.509 99.9719 70.5308 98.871C70.5332 98.6726 70.2356 98.6411 70.2211 98.8444C70.059 100.903 70.3251 103.047 70.8211 105.053C68.8274 104.25 66.8313 103.456 64.8328 102.665C64.8328 102.658 64.8328 102.653 64.8328 102.648C64.2908 100.642 64.24 98.4475 64.4771 96.3934C64.4989 96.2022 64.2037 96.1756 64.1795 96.3667C64.0537 97.412 64.015 98.4669 64.0682 99.5194C64.119 100.536 64.2835 101.523 64.4674 102.52C63.5165 102.142 62.5657 101.767 61.6148 101.39C60.238 100.845 58.8637 100.301 57.487 99.7565C57.5088 99.713 57.5088 99.6573 57.4919 99.6138C56.6958 97.3442 56.3474 94.8061 56.6789 92.4132C56.7079 92.2075 56.3716 92.1761 56.3547 92.3842C56.2531 93.6302 56.2192 94.869 56.3619 96.1151C56.4999 97.3104 56.7781 98.4838 57.1676 99.621C57.1652 99.6234 57.1628 99.6259 57.1604 99.6259C54.2618 98.4863 51.3583 97.3636 48.4282 96.3111C48.4137 96.2579 48.3992 96.2022 48.3799 96.1417C48.2444 95.6796 48.1403 95.2078 48.0653 94.7335C47.9177 93.7948 47.8959 92.8415 47.9855 91.8954C48.0048 91.697 47.6975 91.6704 47.6782 91.8688C47.5935 92.7398 47.6056 93.6157 47.7169 94.4843C47.775 94.9271 47.8572 95.3675 47.9661 95.8006C47.9976 95.9264 48.046 96.0595 48.0871 96.1901C47.3927 95.9433 46.6959 95.6989 45.999 95.4594C44.6465 94.9973 43.2867 94.5569 41.9173 94.148C41.7261 93.7391 41.5567 93.3181 41.4261 92.8874C41.2882 92.4374 41.2132 91.9801 41.114 91.5228C41.0704 91.3317 40.8018 91.3849 40.8164 91.576C40.8865 92.4059 41.172 93.2576 41.5156 94.0295C40.03 93.5939 38.5323 93.1947 37.0225 92.8439C36.8265 92.7979 36.7152 93.0931 36.9112 93.1391C38.4162 93.4851 39.909 93.8843 41.3874 94.3174C40.5212 94.736 39.7639 95.3457 39.1662 96.103C39.0404 96.2627 39.2969 96.4417 39.4227 96.2845C40.0639 95.4739 40.8986 94.8473 41.8519 94.4529C43.969 95.0844 46.0644 95.7933 48.1452 96.5434C48.1137 96.7369 47.908 96.8434 47.758 96.9692C47.1023 97.5088 46.4854 98.0919 45.9071 98.7137C45.3482 99.3137 44.7699 99.9501 44.3392 100.649C44.2231 100.836 44.4771 101.015 44.615 100.845C45.1885 100.148 45.7111 99.4275 46.3353 98.7718C46.9426 98.133 47.6177 97.591 48.2661 97.0007C48.3944 96.8845 48.4476 96.7756 48.4645 96.6595C49.863 97.1652 51.2543 97.6902 52.6431 98.2225C54.0489 98.7621 55.4522 99.3065 56.8555 99.8557C54.8642 101.375 53.2431 103.337 52.1181 105.576C52.0309 105.75 52.314 105.851 52.4011 105.682C53.5335 103.439 55.186 101.489 57.1991 99.9888C59.5388 100.903 61.8761 101.83 64.2085 102.762C62.2656 104.017 60.8381 106.074 59.5944 107.971C59.4807 108.145 59.7372 108.327 59.8582 108.157C60.555 107.172 61.218 106.168 62.0019 105.246C62.7665 104.344 63.623 103.567 64.6077 102.919C65.8466 103.415 67.0878 103.908 68.3266 104.409C69.142 104.738 69.9525 105.072 70.7655 105.406C69.592 106.478 68.554 107.69 67.6806 109.019C67.5741 109.183 67.8209 109.357 67.9298 109.195C68.8226 107.843 69.8824 106.618 71.0873 105.537C73.1197 106.369 75.1497 107.204 77.1845 108.029C77.3784 108.111 77.4943 107.797 77.2934 107.712Z" fill="#3D9B4E"/>
<path d="M127.658 45.834L137.288 53.0358" stroke="#40A0C6" stroke-width="4" stroke-miterlimit="10"/>
<path d="M140.693 26.4941L152.601 36.0963" stroke="#40A0C6" stroke-width="4" stroke-miterlimit="10"/>
<path d="M138.896 30.9541L148.597 38.7767" stroke="#40A0C6" stroke-width="4" stroke-miterlimit="10"/>
<path d="M133.975 37.1523L143.148 44.5516" stroke="#40A0C6" stroke-width="4" stroke-miterlimit="10"/>
<path d="M129.548 40.2861L141.455 49.8886" stroke="#40A0C6" stroke-width="4" stroke-miterlimit="10"/>
<path d="M122.154 52.8252L130.486 59.9515" stroke="#40A0C6" stroke-width="4" stroke-miterlimit="10"/>
<path d="M153.829 34.4873C153.829 34.4873 149.462 41.27 142.231 38.4101C134.999 35.5502 131.565 37.8597 129.487 40.4394C125.493 45.3961 128.86 51.0157 129.657 53.3314C131.247 57.9465 131.21 62.9772 126.872 67.9341" stroke="#71C9B8" stroke-width="8" stroke-miterlimit="10" stroke-linecap="round" stroke-linejoin="round"/>
<path d="M142.001 24.958C142.001 24.958 136.303 30.6684 140.633 37.1269C144.964 43.5856 143.438 47.4312 141.36 50.0088C137.366 54.9654 131.159 52.8699 128.726 52.5834C123.878 52.0095 118.971 53.1157 115.05 58.407" stroke="#2A8FA0" stroke-width="8" stroke-miterlimit="10" stroke-linecap="round" stroke-linejoin="round"/>
<path d="M143.696 94.8948C147.822 94.4205 151.981 94.2197 156.133 94.2923C155.063 92.0397 154.502 89.55 154.5 87.0579C154.5 86.7361 154.48 86.3562 154.209 86.1796C153.991 86.0392 153.704 86.0973 153.452 86.1578C150.331 86.9079 147.05 86.9877 143.895 86.3901C144.824 88.9741 145.102 91.7905 143.696 94.8948Z" fill="#6F788C"/>
<path d="M144.853 109.22L144.906 105.722L147.616 105.734L147.219 108.787L144.853 109.22Z" fill="#FEA483"/>
<path d="M141.625 110.795C141.744 111.148 147.5 110.996 147.766 110.705C147.829 110.635 147.848 110.521 147.836 110.381C147.788 109.803 147.364 108.794 147.347 108.729C146.08 108.83 145.714 108.801 144.553 108.835C144.178 109.026 142.02 109.67 141.652 110.471C141.599 110.577 141.587 110.686 141.625 110.795Z" fill="#1A132E"/>
<path d="M141.625 110.796C141.744 111.149 147.5 110.996 147.766 110.706C147.829 110.636 147.848 110.522 147.836 110.382C147.2 110.479 145.811 110.67 144.63 110.672C143.532 110.672 142.31 110.549 141.654 110.471C141.598 110.578 141.586 110.687 141.625 110.796Z" fill="#5C6491"/>
<path d="M153.011 109.043L152.493 105.876L155.055 105.278L155.372 108.586L153.011 109.043Z" fill="#FEA483"/>
<path d="M149.794 110.648C149.918 110.999 155.671 110.796 155.933 110.503C155.995 110.433 156.012 110.319 156 110.179C155.947 109.601 155.514 108.597 155.497 108.531C154.232 108.645 153.864 108.618 152.702 108.662C152.33 108.858 150.179 109.521 149.818 110.324C149.765 110.431 149.755 110.539 149.794 110.648Z" fill="#1A132E"/>
<path d="M149.794 110.648C149.918 110.999 155.671 110.796 155.933 110.503C155.995 110.433 156.012 110.319 156 110.179C155.364 110.28 153.978 110.484 152.797 110.498C151.698 110.51 150.474 110.396 149.818 110.324C149.765 110.43 149.755 110.539 149.794 110.648Z" fill="#5C6491"/>
<path d="M144.912 79.4649L144.218 108.369L147.89 108.282L149.415 89.9875L152.226 108.139H156.006L153.722 79.0391L144.912 79.4649Z" fill="#1A132E"/>
<path d="M134.561 67.8291L135.792 69.397L134.628 71.3447L133.607 69.7962L134.561 67.8291Z" fill="#E8AA80"/>
<path d="M145.883 69.7962L145.477 68.1533C145.477 68.1533 144.451 68.5042 143.633 69.472C142.968 70.2607 139.365 72.9368 139.365 72.9368L135.794 68.6251L133.691 71.7004C133.691 71.7004 136.977 78.0275 138.702 78.0275C140.427 78.0275 144.95 75.7483 144.95 75.7483L145.883 69.7962Z" fill="#EDE6E7"/>
<path d="M134.33 73.353L137.057 69.7551L135.852 68.5381L133.271 71.4682L134.33 73.353Z" fill="#A3B3E3"/>
<path d="M125.502 61.6475L138.11 72.7774" stroke="#40A0C6" stroke-width="4" stroke-miterlimit="10"/>
<path d="M134.33 67.3599C133.653 66.7526 132.9 66.7235 131.768 66.7695C131.625 66.7744 131.243 66.83 131.274 67.0744C131.296 67.2413 131.565 67.3696 131.712 67.4155C132.104 67.5389 132.47 67.5486 132.929 67.5341C133.007 67.7688 133.476 68.2769 133.924 68.4076C134.158 68.9084 134.526 69.1092 135.208 69.1092C135.511 68.5406 135.008 67.9648 134.33 67.3599Z" fill="#E8AA80"/>
<path d="M130.74 68.563C130.696 68.7952 130.834 68.9598 131.011 69.0227C131.514 69.1969 132.407 68.3863 132.499 68.004C132.603 67.5685 132.131 67.6242 131.748 67.7573C131.589 67.8153 130.819 68.1468 130.74 68.563Z" fill="#E8AA80"/>
<path d="M131.488 68.9546C131.444 69.1868 131.582 69.3514 131.759 69.4143C132.262 69.5885 133.155 68.7779 133.247 68.3956C133.351 67.9601 132.879 68.0158 132.497 68.1489C132.337 68.2045 131.567 68.5384 131.488 68.9546Z" fill="#E8AA80"/>
<path d="M132.148 69.4839C132.104 69.7161 132.242 69.8807 132.419 69.9436C132.922 70.1178 133.815 69.3072 133.907 68.9249C134.011 68.4894 133.539 68.5451 133.157 68.6782C132.997 68.7338 132.228 69.0653 132.148 69.4839Z" fill="#E8AA80"/>
<path d="M132.61 70.0766C132.566 70.3089 132.704 70.4734 132.881 70.5363C133.384 70.7106 134.277 69.9 134.369 69.5177C134.473 69.0822 134.001 69.1379 133.619 69.2709C133.459 69.3266 132.69 69.6605 132.61 70.0766Z" fill="#E8AA80"/>
<path d="M131.564 68.9629C131.85 68.7548 132.116 68.5177 132.356 68.2588" stroke="#CF5953" stroke-width="0.5" stroke-miterlimit="10" stroke-linecap="round" stroke-linejoin="round"/>
<path d="M132.254 69.3661C132.539 69.1918 132.808 68.9862 133.05 68.7539" stroke="#CF5953" stroke-width="0.5" stroke-miterlimit="10" stroke-linecap="round" stroke-linejoin="round"/>
<path d="M132.752 69.9569C133.083 69.7827 133.388 69.5626 133.654 69.2988" stroke="#CF5953" stroke-width="0.5" stroke-miterlimit="10" stroke-linecap="round" stroke-linejoin="round"/>
<path d="M146.322 67.8997C146.322 67.8997 149.037 70.5805 149.342 70.5951C149.809 70.6193 153.76 68.5046 153.76 68.5046C153.76 68.5046 152.536 67.7884 152.149 67.4545C151.894 67.2367 151.73 66.0439 151.653 65.3737C151.594 64.8583 151.565 64.4543 151.565 64.4543L148.771 64.0938C148.771 64.0938 148.541 66.627 148.495 66.9319C148.466 67.1303 148.437 67.2803 148.41 67.348C148.256 67.74 146.322 67.8997 146.322 67.8997Z" fill="#E8AA80"/>
<path d="M148.493 66.9338C150.199 67.2508 151.232 66.0241 151.651 65.3756C151.593 64.8603 151.564 64.4562 151.564 64.4562L148.769 64.0957C148.769 64.0957 148.706 64.9546 148.626 65.7966C148.585 66.2152 148.539 66.6314 148.493 66.9338Z" fill="#D68163"/>
<path d="M145.613 62.2123C145.79 61.8317 146.344 61.7141 146.85 61.9493C147.357 62.1847 147.625 62.6838 147.448 63.0644C147.271 63.445 146.717 63.5626 146.21 63.3274C145.704 63.092 145.436 62.5929 145.613 62.2123Z" fill="#D68163"/>
<path d="M152.638 62.7466C153.085 60.5908 152.386 58.5293 150.668 58.1736C148.95 57.818 147.426 58.1688 146.749 61.4303C146.318 63.5087 146.463 65.575 148.396 66.1097C150.489 66.5428 152.19 64.9024 152.638 62.7466Z" fill="#E8AA80"/>
<path d="M151.788 62.9528C151.684 62.6528 151.587 62.1931 151.473 61.9172C150.968 61.6995 150.619 61.1551 150.665 60.6083C150.285 60.8913 149.83 61.0801 149.361 61.1478C149.199 61.172 149.022 61.1793 148.882 61.0946C148.698 60.9857 148.628 60.722 148.742 60.5478C148.217 60.705 147.665 60.7655 147.135 60.7075C146.82 61.3027 146.629 61.9608 146.579 62.631C146.564 61.8156 146.666 60.9954 146.845 60.2066C148.299 59.7372 149.78 59.3549 151.224 59.0791C151.814 59.6162 152.361 60.1994 152.819 60.8333C152.569 61.4575 152.211 62.2221 151.788 62.9528Z" fill="#D68163"/>
<path d="M152.881 63.6366C152.518 63.7962 152.271 63.8471 151.869 63.9971C151.727 63.2857 151.676 62.5816 151.582 61.8654C151.19 61.5799 150.732 60.5395 150.936 60.058C150.106 60.8734 149.409 61.0331 149.111 60.8613C148.77 60.6629 149.225 60.1887 149.295 60.1185C148.632 60.4403 147.768 60.5855 147.03 60.5952C146.822 61.1807 146.592 61.9671 146.561 62.9421C146.319 62.2598 146.396 61.1517 146.549 60.4815C146.234 60.4161 146.019 60.1572 145.959 59.908C145.939 59.8258 145.937 59.7435 145.954 59.6709C146.021 59.3782 146.375 59.0443 146.89 59.0176C146.305 58.5386 146.312 58.1079 146.827 57.6651C147.756 56.8667 149.813 56.932 151.02 57.8587C151.008 57.7329 150.752 57.3506 151.027 57.3288C151.33 57.3046 151.84 57.4933 152.172 57.9482C152.346 58.1853 152.472 58.495 152.494 58.8846C153.057 58.9475 153.788 59.5185 153.834 60.3508C153.88 61.2267 153.706 61.8606 152.881 63.6366Z" fill="#1D0100"/>
<path d="M152.171 57.9482C152.164 57.9409 152.157 57.9361 152.15 57.9313C151.968 57.7909 151.717 57.6772 151.516 57.7861C151.397 57.8514 151.322 57.9845 151.31 58.12C151.296 58.2555 151.329 58.391 151.375 58.5507C150.381 57.7546 149.041 57.4111 147.785 57.624C147.417 57.6869 147.006 57.8417 146.885 58.195C146.757 58.5724 147.03 58.9668 147.403 59.2717C146.972 59.1773 146.498 59.3104 146.183 59.6201C146.096 59.7048 146.021 59.804 145.96 59.908C145.941 59.8258 145.939 59.7435 145.956 59.6709C146.023 59.3782 146.377 59.0443 146.892 59.0176C146.306 58.5386 146.314 58.1079 146.829 57.6651C147.758 56.8667 149.815 56.932 151.022 57.8587C151.01 57.7329 150.754 57.3506 151.029 57.3288C151.329 57.3046 151.84 57.4933 152.171 57.9482Z" fill="#42170D"/>
<path d="M152.335 63.019C152.903 62.9639 153.398 63.2753 153.44 63.7139C153.483 64.1528 153.057 64.5533 152.489 64.6084C151.921 64.6636 151.426 64.3524 151.384 63.9135C151.341 63.4744 151.767 63.074 152.335 63.019Z" fill="#E8AA80"/>
<path d="M150.812 61.8224C150.456 61.3941 149.965 61.2925 149.554 61.4667" stroke="#1D0100" stroke-width="0.5" stroke-miterlimit="10" stroke-linecap="round"/>
<path d="M147.033 61.2726C147.432 60.9967 147.815 61.079 148.049 61.3839" stroke="#1D0100" stroke-width="0.5" stroke-miterlimit="10" stroke-linecap="round"/>
<path d="M149.126 63.011C149.154 62.8763 149.26 62.7843 149.364 62.8059C149.467 62.8274 149.528 62.9539 149.5 63.0887C149.472 63.2235 149.366 63.3154 149.262 63.2939C149.159 63.2726 149.098 63.1458 149.126 63.011Z" fill="#262E4A"/>
<path d="M146.849 62.5394C146.877 62.4046 146.983 62.3126 147.086 62.3342C147.19 62.3557 147.251 62.4823 147.223 62.617C147.195 62.7518 147.088 62.8437 146.985 62.8222C146.882 62.8007 146.821 62.6741 146.849 62.5394Z" fill="#262E4A"/>
<path d="M148.272 62.959C148.236 63.2034 148.074 63.426 147.837 63.5421C147.864 63.7066 147.931 63.8615 148.03 63.9897" stroke="#CF5953" stroke-width="0.5" stroke-miterlimit="10" stroke-linecap="round" stroke-linejoin="round"/>
<path d="M148.2 64.59C148.2 64.59 148.732 64.7787 149.553 64.3359" stroke="#CF5953" stroke-width="0.5" stroke-miterlimit="10" stroke-linecap="round" stroke-linejoin="round"/>
<path d="M149.867 61.917C150.389 61.917 150.813 62.3407 150.813 62.863C150.813 63.3854 150.39 63.8091 149.867 63.8091C149.345 63.8091 148.921 63.3854 148.921 62.863C148.921 62.3407 149.344 61.917 149.867 61.917Z" stroke="#332C4A" stroke-width="0.5" stroke-miterlimit="10"/>
<path d="M146.331 62.5635C146.376 62.0431 146.799 61.6542 147.278 61.6954C147.755 61.7365 148.107 62.1919 148.062 62.7123C148.017 63.233 147.593 63.6216 147.115 63.5804C146.637 63.5393 146.286 63.0842 146.331 62.5635Z" stroke="#332C4A" stroke-width="0.5" stroke-miterlimit="10"/>
<path d="M149.021 62.4522C148.745 62.2731 148.382 62.232 148.075 62.3457" stroke="#332C4A" stroke-width="0.5" stroke-miterlimit="10"/>
<path d="M150.808 62.6992C151.074 62.7549 151.483 62.9242 151.766 63.096" stroke="#332C4A" stroke-width="0.5" stroke-miterlimit="10" stroke-linecap="round"/>
<path d="M153.622 68.2625L152.488 67.4883L149.442 70.4716C149.037 69.9151 148.254 68.9957 148.104 67.5536L146.342 68.0303L145.778 81.0789L153.514 80.8514L153.622 68.2625Z" fill="#53AEDB"/>
<path d="M149.437 70.4713C150.467 69.4406 151.692 68.0034 152.074 67.2969L152.621 67.4856L152.151 70.4786C151.498 70.089 150.523 70.0043 149.437 70.4713Z" fill="#78C8E3"/>
<path d="M149.437 70.4735C149.11 69.8589 148.469 68.3346 148.273 67.4297L147.37 67.7394L147.293 70.3331C147.293 70.3331 147.883 70.0476 148.367 70.142C148.854 70.2339 149.437 70.4735 149.437 70.4735Z" fill="#78C8E3"/>
<path d="M149.413 70.5967C148.738 74.0711 148.314 76.7762 148.314 80.8483" stroke="#4484B8" stroke-miterlimit="10" stroke-linecap="round"/>
<path d="M143.718 77.3262C144.502 77.5415 145.286 77.7569 146.072 77.9698" stroke="#BFD2FF" stroke-width="0.5" stroke-miterlimit="10" stroke-linecap="round"/>
<path d="M148.161 67.3516C148.161 67.3516 147.496 69.9429 147.067 72.1302C146.6 74.4989 146.104 77.4653 145.783 81.5107C145.219 88.6 145.783 94.8957 145.783 94.8957H143.075C143.075 94.8957 143.472 70.2986 144.624 68.7331C145.209 67.9371 148.161 67.3516 148.161 67.3516Z" fill="#FEFFFE"/>
<path d="M148.268 67.3008C148.268 67.3008 147.399 71.1333 147.128 72.5343C146.857 73.9352 146.473 75.6627 146.473 75.6627C146.473 75.6627 144.907 73.715 145.067 73.3956C145.229 73.0787 146.238 72.3649 146.238 72.3649C146.238 72.3649 144.786 71.3148 144.982 71.0269C145.18 70.7365 146.371 67.9395 146.884 67.5863C147.177 67.3879 148.268 67.3008 148.268 67.3008Z" fill="#BFD2FF"/>
<path d="M143.016 91.3206L144.47 90.7617V90.0576L143.073 90.406L143.016 91.3206Z" fill="#BFD2FF"/>
<path d="M140.168 73.0413C140.035 72.5163 139.897 71.9816 139.619 71.5146C139.341 71.0476 138.893 70.6557 138.356 70.5734C137.867 70.4984 137.34 70.7113 137.054 71.1444C137.199 71.2872 137.342 71.4299 137.497 71.609C136.977 71.6186 136.457 71.6888 135.953 71.8195C135.733 71.8751 135.484 71.9792 135.431 72.1993C135.394 72.3493 135.474 72.5115 135.593 72.6107C135.711 72.7099 135.866 72.7558 135.982 72.7849C135.924 72.9833 135.97 73.2083 136.103 73.368C136.234 73.5277 136.447 73.6148 136.679 73.6462C136.643 73.864 136.74 74.0963 136.919 74.2269C137.098 74.3552 137.349 74.3769 137.543 74.2995C137.599 74.6334 137.964 74.8439 138.303 74.8439C138.641 74.8439 139.084 74.5608 139.408 74.4398C139.747 73.9825 139.968 73.6511 140.168 73.0413Z" fill="#E8AA80"/>
<path d="M138.977 74.222L140.467 75.3132L140.888 72.8501L139.852 72.3613L138.977 74.222Z" fill="#E8AA80"/>
<path d="M155.566 69.775C155.148 68.2966 152.247 67.2949 152.247 67.2949C152.247 67.2949 150.064 69.3927 149.704 73.1454C149.208 78.3087 151.214 94.8923 151.214 94.8923L156.992 94.4979C156.992 94.4979 156.588 73.3898 155.566 69.775Z" fill="#FEFFFE"/>
<path d="M152.182 89.8378L152.097 90.5244L155.695 90.9723L155.781 90.2856L152.182 89.8378Z" fill="#BFD2FF"/>
<path d="M149.519 75.1321C149.519 75.1321 149.374 72.2892 150.376 70.0148C150.98 68.6381 152.018 67.167 152.018 67.167L153.555 67.8179C153.555 67.8179 152.207 70.8762 152.137 71.6988C152.115 71.9649 150.768 72.4295 150.768 72.4295L151.876 73.9369L149.519 75.1321Z" fill="#BFD2FF"/>
<path d="M155.246 69.3988C154.929 68.8472 154.036 67.9568 153.308 68.373C152.117 69.0504 148.038 74.1871 148.038 74.1871L140.774 72.8854L140.218 76.1615C140.218 76.1615 147.329 78.7092 148.87 78.2761C150.409 77.843 154.498 74.4315 155.11 72.8394C155.717 71.2474 155.671 70.1465 155.246 69.3988Z" fill="#FEFFFE"/>
<path d="M149.831 77.8018C151.532 76.7832 153.422 75.7743 154.622 74.4072" stroke="#BFD2FF" stroke-width="0.5" stroke-miterlimit="10" stroke-linecap="round"/>
<path d="M152.33 76.3425C153.08 76.3425 154.157 76.0546 154.621 75.7207" stroke="#BFD2FF" stroke-width="0.5" stroke-miterlimit="10" stroke-linecap="round"/>
<path d="M141.502 72.793V77.3563L139.722 76.6546L140.169 72.418L141.502 72.793Z" fill="#BFD2FF"/>
<path d="M72.8291 33.7747L73.4633 31.6746C73.4633 31.6746 74.9056 32.3663 75.3626 33.0704C75.8199 33.7745 78.3367 35.956 78.773 35.8217C79.2092 35.6874 79.3725 31.459 79.3725 31.459L81.6955 32.6896C81.6955 32.6896 81.6926 38.7413 80.283 39.0769C78.8736 39.4125 73.1313 37.3051 73.1313 37.3051L72.8291 33.7747Z" fill="#BFD2FF"/>
<path d="M109.908 90.314L104.422 93.5391L106.034 96.282L111.52 93.0569L109.908 90.314Z" fill="#242323"/>
<path d="M106.304 91.1009L101.259 82.7946L104.46 80.9219L109.381 89.2911L106.304 91.1009Z" fill="#242323"/>
<path d="M122.302 66.7828L98.167 80.9707L100.044 84.1642L124.179 69.9763L122.302 66.7828Z" fill="#126D97"/>
<path d="M109.257 96.034C103.392 99.6972 80.8175 97.8656 77.2535 79.811C75.4195 70.5199 82.1071 62.5693 82.9249 59.1142C83.583 56.3414 80.4763 51.3112 80.4763 51.3112L82.9467 49.5957L90.4787 62.4701C90.4787 62.4701 79.448 73.7766 89.1673 82.7653C94.7807 87.9552 99.7504 86.2276 102.047 84.0525L109.257 96.034Z" fill="#9AB2A8"/>
<path d="M107.043 68.0901L101.594 71.6123L104.011 75.3529L109.461 71.8307L107.043 68.0901Z" fill="#F2F2F2"/>
<path d="M111.503 65.209L108.433 67.1934L110.228 69.9708L113.298 67.9865L111.503 65.209Z" fill="#F2F2F2"/>
<path d="M100.435 72.3624L98.084 73.8818L99.8792 76.6593L102.23 75.1399L100.435 72.3624Z" fill="#F2F2F2"/>
<path d="M81.0908 31.0947L76.1758 34.2715L84.3259 46.8811L89.241 43.7042L81.0908 31.0947Z" fill="#126D97"/>
<path d="M78.5903 32.6893L76.1318 34.2783L82.8806 44.7198L85.3391 43.1308L78.5903 32.6893Z" fill="#0F5985"/>
<path d="M87.8019 39.9173L81.3916 44.0605L82.2899 45.4504L88.7003 41.3071L87.8019 39.9173Z" fill="#33A8B5"/>
<path d="M80.8415 29.4233L74.6445 33.4287L75.5428 34.8186L81.7398 30.8132L80.8415 29.4233Z" fill="#33A8B5"/>
<path d="M88.99 40.7717L81.6836 45.4941L97.8446 70.4979L105.151 65.7754L88.99 40.7717Z" fill="#F2F2F2"/>
<path d="M85.3368 43.1329L81.6836 45.4941L97.8446 70.4979L101.498 68.1367L85.3368 43.1329Z" fill="#CFCFCF"/>
<path d="M86.1237 46.7918L82.2217 49.3135L94.3783 68.1239L98.2802 65.6022L86.1237 46.7918Z" fill="#126D97"/>
<path d="M111.914 61.4063L95.7793 71.835L97.8529 75.0432L113.988 64.6146L111.914 61.4063Z" fill="#414046"/>
<path d="M88.3062 60.1194C89.9318 59.4524 90.7089 57.5939 90.0418 55.9683C89.3748 54.3427 87.5162 53.5656 85.8907 54.2327C84.2651 54.8997 83.488 56.7582 84.155 58.3838C84.8221 60.0094 86.6806 60.7865 88.3062 60.1194Z" fill="#212126"/>
<path d="M88.068 59.5063C89.357 58.9762 89.9723 57.5015 89.4423 56.2125C88.9123 54.9234 87.4376 54.3081 86.1485 54.8381C84.8594 55.3682 84.2441 56.8428 84.7742 58.1319C85.3042 59.421 86.7789 60.0363 88.068 59.5063Z" fill="#414046"/>
<path d="M89.7545 85.6107L78.3633 107.919H103.558L98.7504 86.7358C97.7538 82.3419 91.8065 81.5967 89.7545 85.6107Z" fill="#F2F2F2"/>
<path d="M118.305 109.414V110.738H73.5146V109.414C73.5146 108.4 74.0082 107.488 74.7994 106.847C75.5229 106.261 76.4883 105.903 77.5553 105.903H114.265C116.495 105.901 118.305 107.474 118.305 109.414Z" fill="white"/>
<path d="M116.825 110.176V110.735H73.5146V109.412C73.5146 108.398 74.0082 107.486 74.7994 106.845C75.2011 106.728 75.6269 106.663 76.0721 106.663H112.786C115.017 106.666 116.825 108.238 116.825 110.176Z" fill="#CFD2D1"/>
<path d="M97.212 90.428C97.6431 88.58 96.4945 86.7324 94.6465 86.3013C92.7986 85.8702 90.951 87.0188 90.5199 88.8668C90.0887 90.7148 91.2373 92.5624 93.0853 92.9935C94.9333 93.4246 96.7809 92.276 97.212 90.428Z" fill="#212126"/>
<path d="M96.5159 90.2721C96.8574 88.8067 95.9464 87.3419 94.481 87.0003C93.0156 86.6588 91.5508 87.5698 91.2093 89.0352C90.8677 90.5006 91.7787 91.9654 93.2441 92.3069C94.7095 92.6485 96.1743 91.7374 96.5159 90.2721Z" fill="#414046"/>
<path d="M46.1355 109.644L70.3501 61.6931C70.556 61.2871 71.0452 61.1271 71.4468 61.3328L71.4996 61.3606C71.9012 61.5687 72.0592 62.0635 71.856 62.4695L47.6412 110.42C47.4355 110.826 46.9461 110.986 46.5444 110.78L46.4917 110.752C46.0905 110.547 45.9298 110.05 46.1355 109.644Z" fill="#8E3A23"/>
<path d="M49.8418 103.691V103.648C49.8418 103.314 50.1365 103.043 50.4994 103.043H61.6557C62.0186 103.043 62.3133 103.314 62.3133 103.648V103.691C62.3133 104.025 62.0186 104.296 61.6557 104.296H50.4994C50.1363 104.296 49.8418 104.025 49.8418 103.691Z" fill="#682211"/>
<path d="M54.8799 93.7363V93.6928C54.8799 93.3589 55.1683 93.0879 55.5237 93.0879H67.1521C67.5075 93.0879 67.7959 93.3589 67.7959 93.6928V93.7363C67.7959 94.0702 67.5075 94.3412 67.1521 94.3412H55.5237C55.1683 94.3412 54.8799 94.0702 54.8799 93.7363Z" fill="#682211"/>
<path d="M59.3291 84.1865V84.143C59.3291 83.8091 59.6001 83.5381 59.934 83.5381H70.8582C71.1921 83.5381 71.4631 83.8091 71.4631 84.143V84.1865C71.4631 84.5204 71.1921 84.7914 70.8582 84.7914H59.934C59.6001 84.7914 59.3291 84.5204 59.3291 84.1865Z" fill="#682211"/>
<path d="M63.5244 75.835V75.7914C63.5244 75.4575 63.7954 75.1865 64.1293 75.1865H75.0535C75.3874 75.1865 75.6584 75.4575 75.6584 75.7914V75.835C75.6584 76.1689 75.3874 76.4398 75.0535 76.4398H64.1293C63.7954 76.4398 63.5244 76.1689 63.5244 75.835Z" fill="#682211"/>
<path d="M67.9639 67.9043V67.8607C67.9639 67.5268 68.2349 67.2559 68.5688 67.2559H79.493C79.8269 67.2559 80.0979 67.5268 80.0979 67.8607V67.9043C80.0979 68.2382 79.8269 68.5092 79.493 68.5092H68.5688C68.2324 68.5092 67.9639 68.2382 67.9639 67.9043Z" fill="#682211"/>
<path d="M58.5454 109.687L81.6271 62.1105C81.8234 61.7077 82.2898 61.549 82.6726 61.7529L82.7229 61.7808C83.1057 61.9871 83.2565 62.4781 83.0626 62.8809L59.9807 110.457C59.7844 110.86 59.318 111.018 58.9352 110.815L58.8849 110.787C58.5023 110.583 58.3516 110.089 58.5454 109.687Z" fill="#8D3B26"/>
<path d="M62.4688 57.9601C62.4688 57.9601 69.7639 55.28 76.4975 56.8188C77.3323 57.01 78.1237 52.0922 78.1237 52.0922L69.5706 46.4111L63.6403 48.9081L62.4688 57.9601Z" fill="#6F788C"/>
<path d="M75.5703 66.0561L76.498 63.6823L73.9996 62.7822L73.2207 65.5415L75.5703 66.0561Z" fill="#FEA483"/>
<path d="M78.7456 67.7384C78.6142 68.0861 72.8671 67.7432 72.6108 67.443C72.5494 67.3709 72.5341 67.2552 72.5518 67.1163C72.6191 66.539 73.0764 65.5463 73.0952 65.4824C74.3592 65.6266 74.7241 65.6094 75.8852 65.6808C76.2532 65.8838 78.387 66.6 78.7279 67.4123C78.779 67.5214 78.7865 67.63 78.7456 67.7384Z" fill="#3D3C73"/>
<path d="M78.7456 67.7383C78.6142 68.086 72.8671 67.7431 72.6108 67.4429C72.5494 67.3707 72.5341 67.2551 72.5518 67.1162C73.1847 67.2343 74.5668 67.4697 75.7461 67.5135C76.8429 67.5517 78.0693 67.4673 78.7279 67.4121C78.779 67.5212 78.7865 67.6299 78.7456 67.7383Z" fill="#9992AD"/>
<path d="M65.2755 73.3997L65.9191 70.4842L63.4802 69.7607L62.9141 72.9449L65.2755 73.3997Z" fill="#FEA483"/>
<path d="M68.4881 75.0058C68.3647 75.3566 62.611 75.1534 62.3497 74.8606C62.2868 74.7904 62.2699 74.6767 62.282 74.5364C62.3352 73.9581 62.7683 72.954 62.7852 72.8887C64.0506 73.0024 64.4184 72.9758 65.5798 73.0193C65.9524 73.2153 68.1034 73.8783 68.4639 74.6816C68.5171 74.7904 68.5268 74.8969 68.4881 75.0058Z" fill="#3D3C73"/>
<path d="M68.4881 75.0045C68.3647 75.3554 62.611 75.1521 62.3497 74.8594C62.2868 74.7892 62.2699 74.6755 62.282 74.5352C62.9183 74.6368 64.3047 74.84 65.4854 74.8545C66.5839 74.8666 67.8082 74.7529 68.4639 74.6803C68.5171 74.7892 68.5268 74.8957 68.4881 75.0045Z" fill="#9992AD"/>
<path d="M73.4109 42.9111C73.4109 42.9111 73.5827 44.4693 73.798 45.0645C74.2166 46.2186 80.8244 50.7989 80.9115 51.636C81.0518 52.974 76.462 64.9967 76.462 64.9967C76.1353 64.8927 73.7037 64.1475 73.2948 63.5692C73.2948 63.5692 75.7796 54.7911 75.4119 53.8402C75.0998 53.0297 70.4712 51.186 70.4712 51.186C70.4712 51.186 69.634 57.5324 68.8162 61.9868C68.1242 65.7565 66.0434 72.011 66.0434 72.011C65.2812 71.9675 63.573 71.7013 62.4697 71.1327C62.4697 71.1327 63.8368 65.0717 64.3594 59.5455C64.8264 54.6048 64.9957 43.2039 64.9957 43.2039L73.4109 42.9111Z" fill="#1A132E"/>
<path d="M71.5021 32.2042C71.2638 32.482 70.0134 34.9148 68.9013 34.5761C67.9156 34.2748 66.6262 32.3317 66.1963 31.0026C67.9195 30.4082 68.0535 28.2761 68.0823 27.7021C68.2495 27.7438 68.6693 27.8577 68.8174 27.8962C69.5379 28.0786 70.0968 28.2301 70.8636 28.4445C70.9553 28.4691 71.0489 28.4965 71.1472 28.5246L71.1467 28.527C71.1428 28.5362 71.1411 28.5456 71.1372 28.5548C70.9715 29.0353 70.8179 29.4566 70.7557 29.932C70.7385 30.0542 70.7276 30.1824 70.7235 30.314C70.7172 30.5654 70.7489 30.8255 70.8186 31.0769C70.8469 31.1747 70.8805 31.2707 70.9192 31.3651C71.0424 31.6668 71.2318 31.9497 71.5021 32.2042Z" fill="#FEA483"/>
<path d="M70.8191 31.0765C68.9705 29.9253 69.2287 27.7961 69.2241 27.4448C69.2239 27.4153 68.8157 27.8467 68.8174 27.837C69.7835 28.0763 70.017 28.1949 70.8638 28.4441C70.9502 28.4702 71.0439 28.4976 71.1472 28.5266C71.1433 28.5358 71.1416 28.5452 71.1377 28.5544C70.9739 29.0231 70.7571 29.4709 70.7562 29.9316C70.739 30.0538 70.7281 30.182 70.724 30.3137C70.7177 30.5653 70.7494 30.8252 70.8191 31.0765Z" fill="#EB8173"/>
<path d="M74.949 25.5862C74.9415 25.5987 74.9313 25.6108 74.9185 25.6225C74.6506 25.9743 74.2971 25.75 74.2596 25.7275C74.2671 25.7836 74.3806 26.4739 74.0878 26.5719C73.7813 26.6706 70.5703 24.8799 70.5703 24.8799L70.8328 22.9803L70.8374 22.7316C70.8374 22.7316 71.0629 22.4553 71.4989 22.2869L71.5016 22.2874C71.8118 22.1673 72.2304 22.1059 72.7455 22.244C73.8077 22.5279 75.0813 23.8826 75.0944 24.3454C75.1065 24.6793 74.5345 24.5513 74.5345 24.5513C74.5345 24.5513 75.2393 25.164 74.949 25.5862Z" fill="#27334F"/>
<path d="M74.9486 25.5862C74.9411 25.5987 74.9309 25.6108 74.9181 25.6225C74.7219 25.0202 73.9225 24.2111 73.9225 24.2111C73.9225 24.2111 74.3294 24.2385 74.5837 24.2438C74.8383 24.2465 73.9152 23.1349 72.9595 22.6488C72.4802 22.4069 71.9321 22.3186 71.501 22.2874C71.8112 22.1673 72.2297 22.1059 72.7449 22.244C73.807 22.5279 75.0807 23.8826 75.0938 24.3454C75.1059 24.6793 74.5339 24.5513 74.5339 24.5513C74.5339 24.5513 75.2389 25.164 74.9486 25.5862Z" fill="#3A5B70"/>
<path d="M73.9373 28.2371C73.9035 28.4355 73.6736 28.5783 73.5986 28.7138C73.5212 28.8517 72.534 30.7535 71.7186 30.618C70.8113 30.4728 69.6753 29.3388 69.2204 28.1604C68.0252 27.7685 67.165 27.1846 67.3755 25.7015C67.6538 23.7078 69.2991 22.3262 71.046 22.6141C72.1662 22.7956 73.0905 23.5916 73.5333 24.6659C73.6881 25.0385 73.7849 25.4474 73.8115 25.8732C73.8285 26.1321 73.8188 26.3983 73.7801 26.6693C73.7293 27.0225 73.5623 27.5016 73.497 27.6806C73.48 27.7242 73.4921 27.7726 73.5284 27.804C73.6542 27.9202 73.9446 28.1936 73.9373 28.2371Z" fill="#FEA483"/>
<path d="M73.2958 25.5083C73.3635 26.3164 72.4344 25.622 72.4344 25.622C72.0594 26.4229 70.4746 27.0955 70.4746 27.0955L70.6416 25.9583L72.6643 24.1025L73.5329 24.6663C73.6878 25.0389 73.7845 25.4478 73.8112 25.8736C73.5982 25.7865 73.2958 25.5083 73.2958 25.5083Z" fill="#EB8173"/>
<path d="M74.0258 25.5879C73.8291 25.7865 73.0394 24.9022 73.0394 24.9022C73.0394 24.9022 73.1514 25.3975 72.9438 25.5122C72.8054 25.5886 72.6017 25.457 72.3169 25.2163C71.6092 26.5777 69.7989 27.8187 69.7989 27.8187L67.9428 28.9182C67.8758 28.9595 67.7906 28.9102 67.7919 28.8335L67.8439 28.052L67.5121 28.3907C67.5121 28.3907 67.4403 28.105 67.2765 26.2985C67.1127 24.4921 68.0529 23.1681 69.0619 22.6946C69.7502 22.3723 70.8378 22.2269 71.6406 22.6745L71.8802 22.5843L73.4267 23.3851C73.4267 23.3847 74.2223 25.389 74.0258 25.5879Z" fill="#27334F"/>
<path d="M70.0954 26.5439C70.5856 26.8677 70.7736 27.4191 70.5152 27.7753C70.2568 28.1316 69.65 28.1578 69.1598 27.834C68.6696 27.5103 68.4816 26.9591 68.74 26.6027C68.9984 26.2466 69.6052 26.2202 70.0954 26.5439Z" fill="#FEA483"/>
<path d="M72.926 27.1936C73.0024 27.2187 73.0228 27.3525 72.971 27.4921C72.9192 27.6318 72.8152 27.7244 72.7387 27.6993C72.6623 27.6741 72.6419 27.5403 72.6937 27.4007C72.7455 27.2611 72.8493 27.1684 72.926 27.1936Z" fill="#2E3252"/>
<path d="M73.4652 26.6413C73.2143 26.4177 72.8013 26.4049 72.5371 26.6125" stroke="#27334F" stroke-width="0.5" stroke-miterlimit="10" stroke-linecap="round"/>
<path d="M73.1344 29.3002C72.8126 29.2607 72.51 29.0853 72.3154 28.8262" stroke="#27334F" stroke-width="0.5" stroke-miterlimit="10" stroke-linecap="round"/>
<path d="M67.7169 30.6602C67.7169 30.6602 69.4819 33.0555 69.9586 32.949C71.0648 32.7047 71.4454 31.0279 71.4454 31.0279L73.6917 32.1443L74.7348 43.2321C72.7628 44.0572 69.0196 44.258 66.5207 43.3652C67.4156 40.3287 66.7079 36.8735 65.6455 32.5329L67.7169 30.6602Z" fill="#748BE9"/>
<path d="M70.0127 33.0703C70.523 36.4795 70.8283 40.2056 70.5375 43.8494" stroke="#323B99" stroke-width="0.5" stroke-miterlimit="10" stroke-linecap="round"/>
<path d="M67.618 30.335C67.618 30.335 69.2841 32.3371 69.5413 32.5718C69.7378 32.7509 69.9868 32.9444 69.9868 32.9444C69.9868 32.9444 70.2294 32.5622 70.2607 32.5138C70.2899 32.4654 71.3524 31.0088 71.3524 31.0088L71.8646 31.1733L71.8897 32.9904C71.8897 32.9904 71.3294 32.6904 70.9947 32.7606C70.6601 32.8307 70.0265 33.0678 70.0265 33.0678C70.0265 33.0678 69.1982 32.7968 68.8868 32.7751C68.5752 32.7533 68.0608 33.063 68.0608 33.063L67.3604 31.0112L67.618 30.335Z" fill="#92C4F7"/>
<path d="M69.8674 39.92C69.8674 41.333 69.0504 44.2205 68.7648 47.5135C68.5955 49.4685 67.2986 59.2072 67.1389 59.7056C66.8873 60.4871 62.8708 59.6451 62.3022 58.4353C62.0046 57.799 64.1992 45.8585 63.887 41.3872C63.7346 39.2145 63.3419 35.0141 64.1249 33.1634C64.8832 31.3713 66.9103 30.3359 66.9103 30.3359C67.099 30.3555 69.8674 34.7301 69.8674 39.92Z" fill="#FEFFFE"/>
<path d="M70.1905 38.5475C70.1929 35.6198 69.2127 32.3024 67.5982 29.6182C67.249 29.8882 66.7603 30.3363 66.5469 30.5478C67.0511 31.5628 66.9766 34.2572 67.0613 34.3806C67.1387 34.4919 68.1065 34.8161 68.7429 35.0193C68.4332 35.7573 68.1331 36.367 68.1573 36.7662C68.1813 37.0955 69.6872 38.1628 70.1905 38.5475Z" fill="#BFD2FF"/>
<path d="M63.5433 55.7283C65.0289 55.5928 66.2701 55.1403 67.146 54.2402C67.146 54.2402 67.3613 54.7653 67.2234 54.9371C66.6911 55.6049 64.3587 56.4807 63.6739 56.2218C63.4901 56.1517 63.5433 55.7283 63.5433 55.7283Z" fill="#BFD2FF"/>
<path d="M79.7684 50.4433C79.737 50.5376 75.4786 47.0462 73.9301 45.4953C72.0186 43.5839 71.3871 39.686 71.3605 39.2335C71.1815 36.3228 70.9443 30.8447 70.9443 30.8447C70.9443 30.8447 72.9891 31.2875 74.037 31.9974C74.487 32.445 74.6656 35.7252 74.7309 37.76C74.743 38.1326 74.939 42.6644 75.3165 44.2057C75.7232 45.8655 80.0491 49.6231 79.7684 50.4433Z" fill="#FEFFFE"/>
<path d="M70.7549 30.5635C70.917 33.2347 71.0861 36.4212 71.3111 39.0779C71.8749 38.4391 72.8282 37.3334 72.8596 37.193C72.9419 36.8253 72.3588 35.9324 71.8531 35.4268C71.8459 35.4147 71.841 35.4026 71.8338 35.3881C72.6709 34.9743 73.7258 34.5848 73.692 34.442C73.4984 33.6218 72.0738 31.2247 71.6262 30.9029C71.4227 30.7578 71.2315 30.6094 70.7549 30.5635Z" fill="#BFD2FF"/>
<path d="M82.9675 36.2065C82.9603 36.4437 82.1449 36.2912 81.9876 36.3324C81.7771 36.3856 81.1069 36.7268 81.1069 36.7268C81.1069 36.7268 80.9013 37.4986 80.052 37.9486C79.9963 37.9777 79.9407 38.0091 79.8826 38.0406C79.0939 38.4737 78.3535 38.9963 78.3535 38.9963L77.7002 37.0147L79.1205 36.3493C79.1205 36.3493 79.164 36.2259 79.2342 36.042C79.435 35.5073 79.8488 34.4548 80.0375 34.2999C80.2286 34.1451 80.8311 33.9515 81.0488 33.891C81.3344 33.8112 82.3748 33.8548 82.4377 34.0604C82.5151 34.3096 81.4747 34.283 81.2884 34.3508C81.0827 34.4258 80.7174 34.6459 80.6641 34.6798C80.7391 34.6629 81.3465 34.5153 81.6174 34.508C81.8618 34.5032 82.6699 34.5734 82.7159 34.7887C82.7788 35.079 81.7916 34.9677 81.6949 35.004C81.5981 35.0403 80.9254 35.2871 80.9254 35.2871C80.9254 35.2871 81.4432 35.2194 81.8618 35.1758C82.3119 35.1323 82.9845 35.4081 82.9603 35.5992C82.9337 35.8339 82.2175 35.6549 81.9417 35.696C81.7336 35.7251 81.1432 35.9477 81.0634 35.9791C81.1456 35.9622 81.8183 35.8267 81.9973 35.8243C82.1788 35.8218 82.9724 36.0009 82.9675 36.2065Z" fill="#FEA483"/>
<path d="M79.8826 38.0405C79.0939 38.4736 78.3535 38.9963 78.3535 38.9963L77.7002 37.0147L79.1205 36.3493C79.1205 36.3493 79.164 36.2259 79.2342 36.042L79.8826 38.0405Z" fill="#EB8173"/>
<path d="M66.7648 31.1564C67.847 32.6868 71.839 38.5275 72.4589 38.3572C73.1787 38.1598 78.8078 36.2578 78.8078 36.2578L79.3733 39.8544C79.3733 39.8544 72.4584 42.6415 71.1463 42.6877C69.8342 42.7339 66.5937 39.3395 65.4028 38.0555C64.2119 36.7714 64.2985 34.8472 64.7258 33.2769C65.074 31.9972 66.6143 30.9435 66.7648 31.1564Z" fill="#FEFFFE"/>
<path d="M64.8486 37.8398C64.8486 37.8398 66.6357 39.7888 69.5348 41.9381" stroke="#BFD2FF" stroke-width="0.5" stroke-miterlimit="10" stroke-linecap="round"/>
<path d="M72.2236 42.4587L74.9163 41.5605" stroke="#BFD2FF" stroke-width="0.5" stroke-miterlimit="10" stroke-linecap="round"/>
<path d="M72.1816 38.2134C72.1816 38.2134 72.3225 38.3426 72.5494 38.332C72.7367 38.3233 74.653 37.6504 74.653 37.6504" stroke="#BFD2FF" stroke-width="0.5" stroke-miterlimit="10" stroke-linecap="round"/>
</svg>
