<svg width="230" height="180" viewBox="0 0 230 180" fill="none" xmlns="http://www.w3.org/2000/svg">
<rect width="230" height="180" rx="10" fill="white"/>
<path d="M157.414 68.0296C174.819 68.0296 188.929 53.9199 188.929 36.5148C188.929 19.1097 174.819 5 157.414 5C140.009 5 125.899 19.1097 125.899 36.5148C125.899 53.9199 140.009 68.0296 157.414 68.0296Z" fill="#E5F1FF"/>
<path d="M89.2378 115.975C96.4311 108.782 96.4311 97.1189 89.2378 89.9256C82.0446 82.7323 70.3819 82.7323 63.1887 89.9256C55.9954 97.1189 55.9954 108.782 63.1887 115.975C70.3819 123.168 82.0446 123.168 89.2378 115.975Z" fill="#E5F1FF"/>
<path d="M75.9691 15.5049C66.6689 15.5049 59.1299 23.0443 59.1299 32.3445C59.1299 41.6447 66.6693 49.1841 75.9691 49.1841C85.2693 49.1841 92.8087 41.6447 92.8087 32.3445C92.8083 23.0443 85.2689 15.5049 75.9691 15.5049ZM75.9691 43.1106C70.0231 43.1106 65.203 38.2905 65.203 32.3445C65.203 26.3985 70.0231 21.5783 75.9691 21.5783C81.9151 21.5783 86.7352 26.3985 86.7352 32.3445C86.7352 38.2905 81.9148 43.1106 75.9691 43.1106Z" fill="#A9CCEA"/>
<path d="M139.589 123.168C139.589 124.235 138.724 125.1 137.656 125.1H88.7946C87.7275 125.1 86.8623 124.235 86.8623 123.168C86.8623 122.1 87.7275 121.235 88.7946 121.235H106.14L108.533 116.818H112.673H113.778H117.918L120.311 121.235H137.656C138.724 121.235 139.589 122.1 139.589 123.168Z" fill="#0F3157"/>
<path d="M116.825 112.815H108.819V115.162H116.825V112.815Z" fill="#FF4D6B"/>
<path d="M116.825 108.951H108.819V111.298H116.825V108.951Z" fill="#FF4D6B"/>
<path d="M176.563 101.01C175.171 101.545 173.658 101.837 172.078 101.837C165.164 101.837 159.559 96.2325 159.559 89.3181C159.559 82.4037 165.163 76.7988 172.078 76.7988C178.992 76.7988 184.597 82.4037 184.597 89.3181C184.597 91.1707 184.194 92.9293 183.472 94.5113" stroke="#FF4D6B" stroke-width="1.1276" stroke-miterlimit="10" stroke-linecap="round" stroke-linejoin="round"/>
<path d="M141.215 30.5442H139.216C138.801 28.7683 138.102 27.1022 137.167 25.597L138.58 24.1839C139.189 23.5747 139.189 22.5869 138.58 21.9777L135.44 18.8379C134.831 18.2287 133.843 18.2287 133.234 18.8379L131.821 20.2506C130.316 19.3153 128.65 18.6169 126.874 18.2023V16.2035C126.874 15.342 126.176 14.6436 125.314 14.6436H120.874C120.013 14.6436 119.314 15.342 119.314 16.2035V18.2023C117.538 18.6169 115.872 19.3157 114.367 20.2506L112.954 18.8379C112.345 18.2287 111.357 18.2287 110.748 18.8379L107.608 21.9777C106.999 22.5869 106.999 23.5747 107.608 24.1839L109.022 25.597C108.086 27.1018 107.388 28.7679 106.973 30.5442H104.974C104.113 30.5442 103.414 31.2426 103.414 32.1041V36.5442C103.414 37.4057 104.113 38.1041 104.974 38.1041H106.973C107.387 39.88 108.086 41.5461 109.021 43.0513L107.608 44.4644C106.999 45.0736 106.999 46.0614 107.608 46.6706L110.748 49.8103C111.357 50.4196 112.345 50.4196 112.954 49.8103L114.367 48.3976C115.872 49.333 117.538 50.0314 119.314 50.4464V52.4451C119.314 53.3066 120.013 54.0051 120.874 54.0051H125.314C126.176 54.0051 126.874 53.3066 126.874 52.4451V50.4464C128.65 50.0314 130.316 49.333 131.821 48.3976L133.234 49.8103C133.844 50.4196 134.832 50.4196 135.441 49.8103L138.58 46.6706C139.19 46.0614 139.19 45.0736 138.58 44.4644L137.167 43.0513C138.103 41.5464 138.801 39.8804 139.216 38.1041H141.215C142.076 38.1041 142.775 37.4057 142.775 36.5442V32.1041C142.774 31.2422 142.076 30.5442 141.215 30.5442ZM123.094 42.2441C118.721 42.2441 115.175 38.6983 115.175 34.324C115.175 29.95 118.721 26.4041 123.094 26.4041C127.468 26.4041 131.015 29.95 131.015 34.324C131.015 38.6983 127.469 42.2441 123.094 42.2441Z" fill="#289DF2"/>
<path d="M58.2256 107.896C55.9 107.896 54.0146 106.011 54.0146 103.685V37.7826C54.0146 35.4566 55.9 33.5713 58.2259 33.5713H168.226C170.551 33.5713 172.437 35.4566 172.437 37.7822V103.685C172.437 106.01 170.552 107.896 168.226 107.896H58.2256V107.896Z" fill="#0F3775"/>
<path d="M74.865 42.7666H62.6494V45.4583H74.865V42.7666Z" fill="#284D89"/>
<path d="M89.5642 42.7666H77.3486V45.4583H89.5642V42.7666Z" fill="#284D89"/>
<path d="M126.832 42.7666H114.616V45.4583H126.832V42.7666Z" fill="#284D89"/>
<path d="M164.099 42.7666H151.884V45.4583H164.099V42.7666Z" fill="#284D89"/>
<path d="M113.064 42.7666H91.2207V45.4583H113.064V42.7666Z" fill="#FF4D6B"/>
<path d="M150.124 42.7666H128.281V45.4583H150.124V42.7666Z" fill="#2889DB"/>
<path d="M64.8582 40.627H62.7188V41.9383H64.8582V40.627Z" fill="#2889DB"/>
<path d="M85.0426 47.666H62.7168V48.9774H85.0426V47.666Z" fill="white"/>
<path d="M69.3422 49.9775H62.7168V51.2889H69.3422V49.9775Z" fill="white"/>
<path d="M86.3556 98.4601H65.6514C64.1076 98.4601 62.8564 97.2086 62.8564 95.6652V58.1904C62.8564 56.6466 64.1079 55.3955 65.6514 55.3955H86.3556C87.8994 55.3955 89.1505 56.647 89.1505 58.1904V95.6652C89.1505 97.2086 87.8994 98.4601 86.3556 98.4601Z" fill="#284D89"/>
<path d="M74.9683 61.7109H66.1689V63.0568H74.9683V61.7109Z" fill="white"/>
<path d="M74.9683 64.7129H66.1689V66.0587H74.9683V64.7129Z" fill="white"/>
<path d="M74.9683 67.7148H66.1689V69.0607H74.9683V67.7148Z" fill="white"/>
<path d="M71.552 80.2412H66.1689V81.5871H71.552V80.2412Z" fill="white"/>
<path d="M71.552 83.2432H66.1689V84.589H71.552V83.2432Z" fill="white"/>
<path d="M80.8001 83.2432H75.417V84.589H80.8001V83.2432Z" fill="white"/>
<path d="M69.5507 76.8252H66.1689V78.1711H69.5507V76.8252Z" fill="white"/>
<path d="M82.4563 76.8252H80.6621V78.1711H82.4563V76.8252Z" fill="white"/>
<path d="M79.9707 76.8252H70.7227V78.1711H79.9707V76.8252Z" fill="#FF4D6B"/>
<path d="M67.463 71.752H66.1689V73.0978H67.463V71.752Z" fill="#2889DB"/>
<path d="M67.463 74.1328H66.1689V75.4787H67.463V74.1328Z" fill="#FF4D6B"/>
<path d="M73.3456 84.8652H72.8623L74.0183 83.1396H74.5016L73.3456 84.8652Z" fill="white"/>
<path d="M86.1486 87.1768H66.1689V88.3155H86.1486V87.1768Z" fill="#282E5C"/>
<path d="M86.1486 89.7656H66.1689V90.9044H86.1486V89.7656Z" fill="#282E5C"/>
<path d="M182.25 73.2013H127.315C125.942 73.2013 124.83 72.089 124.83 70.7167V55.8098C124.83 54.4375 125.942 53.3252 127.315 53.3252H182.25C183.622 53.3252 184.735 54.4375 184.735 55.8098V70.7167C184.734 72.089 183.622 73.2013 182.25 73.2013Z" fill="#289DF2"/>
<path d="M142.637 66.1626C142.637 66.1626 145.673 58.7092 154.369 60.5034C163.065 62.2976 167.482 72.0976 178.662 64.0922" stroke="white" stroke-width="1.1276" stroke-miterlimit="10"/>
<path d="M170.793 66.5762H169.551V67.8185H170.793V66.5762Z" fill="#289DF2" stroke="white" stroke-width="1.1276" stroke-miterlimit="10"/>
<path d="M144.154 60.1572H159.889" stroke="white" stroke-width="0.5638" stroke-miterlimit="10"/>
<path d="M162.306 67.543H178.041" stroke="white" stroke-width="0.5638" stroke-miterlimit="10"/>
<path d="M152.023 59.5361H150.78V60.7784H152.023V59.5361Z" fill="#289DF2" stroke="white" stroke-width="1.1276" stroke-miterlimit="10"/>
<path d="M135.32 78.3092H123.45C122.458 78.3092 121.655 77.5058 121.655 76.515V58.7093C121.655 57.7181 122.459 56.915 123.45 56.915H135.32C136.311 56.915 137.114 57.7185 137.114 58.7093V76.515C137.114 77.5058 136.311 78.3092 135.32 78.3092Z" fill="#284D89"/>
<path d="M132.87 59.9512H124.07V61.1645H132.87V59.9512Z" fill="white"/>
<path d="M132.87 62.6572H124.07V63.8705H132.87V62.6572Z" fill="white"/>
<path d="M127.383 65.3643H124.07V66.5776H127.383V65.3643Z" fill="white"/>
<path d="M129.799 68.1641H124.07V69.3774H129.799V68.1641Z" fill="#289DF2"/>
<path d="M127.935 70.8701H124.07V72.0834H127.935V70.8701Z" fill="#289DF2"/>
<path d="M127.935 73.5771H124.07V74.7904H127.935V73.5771Z" fill="white"/>
<path d="M175.072 50.6338H181.284" stroke="#284D89" stroke-width="2.2552" stroke-miterlimit="10" stroke-linecap="round" stroke-linejoin="round"/>
<path d="M161.117 85.68L158.973 87.3579L155.897 87.9171C155.897 87.9171 153.008 87.7306 152.728 87.7306C152.449 87.7306 150.492 86.146 150.492 86.146L146.856 84.8413L144.34 85.7733L141.357 85.1208L136.883 84.841L132.596 86.5188L129.054 87.0781L125.885 88.1033L122.343 88.3831L118.522 85.4006L114.98 84.748L111.345 86.7986L108.456 87.7306L105.176 87.6373L101.041 90.1539H98.5763L94.4131 91.6139" stroke="#FF5C66" stroke-width="1.0152" stroke-miterlimit="10"/>
<path d="M94.4746 91.6768H161.209" stroke="#F7F7F7" stroke-width="0.2538" stroke-miterlimit="10"/>
<path d="M94.5057 90.8369H93.8223V92.5147H94.5057V90.8369Z" fill="#F7F7F7"/>
<path d="M161.489 90.8369H160.806V92.5147H161.489V90.8369Z" fill="#F7F7F7"/>
<path d="M161.147 91.6763V86.0527" stroke="#F7F7F7" stroke-width="0.2538" stroke-miterlimit="10"/>
<path d="M161.52 85.7732C161.52 86.0648 161.284 86.3012 160.992 86.3012C160.7 86.3012 160.464 86.0648 160.464 85.7732C160.464 85.4816 160.7 85.2451 160.992 85.2451C161.284 85.2451 161.52 85.4816 161.52 85.7732Z" fill="#F7F7F7"/>
<path d="M94.2642 96V93.8182H94.5156V94.6236H94.5369C94.5554 94.5952 94.581 94.5589 94.6136 94.5149C94.647 94.4702 94.6946 94.4304 94.7564 94.3956C94.8189 94.3601 94.9034 94.3423 95.0099 94.3423C95.1477 94.3423 95.2692 94.3768 95.3743 94.4457C95.4794 94.5146 95.5614 94.6122 95.6204 94.7386C95.6793 94.8651 95.7088 95.0142 95.7088 95.1861C95.7088 95.3594 95.6793 95.5096 95.6204 95.6367C95.5614 95.7631 95.4798 95.8612 95.3754 95.9308C95.271 95.9996 95.1506 96.0341 95.0142 96.0341C94.9091 96.0341 94.8249 96.0167 94.7617 95.9819C94.6985 95.9464 94.6499 95.9062 94.6158 95.8615C94.5817 95.8161 94.5554 95.7784 94.5369 95.7486H94.5071V96H94.2642ZM94.5114 95.1818C94.5114 95.3054 94.5295 95.4144 94.5657 95.5089C94.6019 95.6026 94.6548 95.6761 94.7244 95.7294C94.794 95.782 94.8793 95.8082 94.9801 95.8082C95.0852 95.8082 95.1729 95.7805 95.2433 95.7251C95.3143 95.669 95.3675 95.5937 95.4031 95.4993C95.4393 95.4041 95.4574 95.2983 95.4574 95.1818C95.4574 95.0668 95.4396 94.9631 95.4041 94.8707C95.3693 94.7777 95.3164 94.7042 95.2454 94.6502C95.1751 94.5955 95.0866 94.5682 94.9801 94.5682C94.8778 94.5682 94.7919 94.5941 94.7223 94.646C94.6527 94.6971 94.6001 94.7688 94.5646 94.8612C94.5291 94.9528 94.5114 95.0597 94.5114 95.1818ZM96.7795 96.0341C96.6218 96.0341 96.4858 95.9993 96.3714 95.9297C96.2578 95.8594 96.1701 95.7614 96.1083 95.6357C96.0472 95.5092 96.0167 95.3622 96.0167 95.1946C96.0167 95.027 96.0472 94.8793 96.1083 94.7514C96.1701 94.6229 96.256 94.5227 96.3661 94.451C96.4769 94.3786 96.6062 94.3423 96.7539 94.3423C96.8391 94.3423 96.9233 94.3565 97.0064 94.3849C97.0895 94.4134 97.1651 94.4595 97.2333 94.5234C97.3015 94.5866 97.3558 94.6705 97.3963 94.7749C97.4368 94.8793 97.457 95.0078 97.457 95.1605V95.267H96.1957V95.0497H97.2013C97.2013 94.9574 97.1829 94.875 97.146 94.8026C97.1097 94.7301 97.0579 94.6729 96.9904 94.631C96.9237 94.5891 96.8448 94.5682 96.7539 94.5682C96.6538 94.5682 96.5671 94.593 96.494 94.6428C96.4215 94.6918 96.3658 94.7557 96.3267 94.8345C96.2876 94.9134 96.2681 94.9979 96.2681 95.0881V95.233C96.2681 95.3565 96.2894 95.4613 96.332 95.5472C96.3754 95.6325 96.4354 95.6974 96.5121 95.7422C96.5888 95.7862 96.6779 95.8082 96.7795 95.8082C96.8455 95.8082 96.9052 95.799 96.9585 95.7805C97.0124 95.7614 97.0589 95.733 97.098 95.6953C97.1371 95.657 97.1673 95.6094 97.1886 95.5526L97.4315 95.6207C97.4059 95.7031 97.3629 95.7756 97.3026 95.8381C97.2422 95.8999 97.1676 95.9482 97.0788 95.983C96.9901 96.017 96.8903 96.0341 96.7795 96.0341ZM98.5511 94.3636V94.5767H97.7031V94.3636H98.5511ZM97.9503 93.9716H98.2017V95.5312C98.2017 95.6023 98.212 95.6555 98.2326 95.6911C98.2539 95.7259 98.2809 95.7493 98.3136 95.7614C98.3469 95.7727 98.3821 95.7784 98.419 95.7784C98.4467 95.7784 98.4695 95.777 98.4872 95.7741C98.505 95.7706 98.5192 95.7678 98.5298 95.7656L98.581 95.9915C98.5639 95.9979 98.5401 96.0043 98.5096 96.0107C98.479 96.0178 98.4403 96.0213 98.3935 96.0213C98.3224 96.0213 98.2528 96.006 98.1847 95.9755C98.1172 95.945 98.0611 95.8984 98.0163 95.8359C97.9723 95.7734 97.9503 95.6946 97.9503 95.5994V93.9716ZM99.4109 96.0384C99.3072 96.0384 99.2131 96.0188 99.1286 95.9798C99.044 95.94 98.9769 95.8828 98.9272 95.8082C98.8775 95.733 98.8526 95.642 98.8526 95.5355C98.8526 95.4418 98.8711 95.3658 98.908 95.3075C98.945 95.2486 98.9943 95.2024 99.0561 95.169C99.1179 95.1357 99.1861 95.1108 99.2607 95.0945C99.3359 95.0774 99.4116 95.0639 99.4876 95.054C99.587 95.0412 99.6676 95.0316 99.7294 95.0252C99.7919 95.0181 99.8374 95.0064 99.8658 94.9901C99.8949 94.9737 99.9094 94.9453 99.9094 94.9048V94.8963C99.9094 94.7912 99.8807 94.7095 99.8232 94.6513C99.7663 94.593 99.68 94.5639 99.5643 94.5639C99.4442 94.5639 99.3501 94.5902 99.282 94.6428C99.2138 94.6953 99.1658 94.7514 99.1381 94.8111L98.8995 94.7259C98.9421 94.6264 98.9989 94.549 99.07 94.4936C99.1417 94.4375 99.2198 94.3984 99.3043 94.3764C99.3896 94.3537 99.4734 94.3423 99.5558 94.3423C99.6083 94.3423 99.6687 94.3487 99.7369 94.3615C99.8058 94.3736 99.8722 94.3988 99.9361 94.4371C100.001 94.4755 100.054 94.5334 100.097 94.6108C100.14 94.6882 100.161 94.7919 100.161 94.9219V96H99.9094V95.7784H99.8967C99.8796 95.8139 99.8512 95.8519 99.8114 95.8924C99.7717 95.9329 99.7188 95.9673 99.6527 95.9957C99.5866 96.0241 99.506 96.0384 99.4109 96.0384ZM99.4492 95.8125C99.5487 95.8125 99.6325 95.793 99.7006 95.7539C99.7695 95.7148 99.8214 95.6644 99.8562 95.6026C99.8917 95.5408 99.9094 95.4759 99.9094 95.4077V95.1776C99.8988 95.1903 99.8754 95.2021 99.8391 95.2127C99.8036 95.2227 99.7624 95.2315 99.7156 95.2393C99.6694 95.2464 99.6243 95.2528 99.5803 95.2585C99.5369 95.2635 99.5018 95.2678 99.4748 95.2713C99.4094 95.2798 99.3484 95.2937 99.2915 95.3129C99.2354 95.3313 99.19 95.3594 99.1552 95.397C99.1211 95.4339 99.104 95.4844 99.104 95.5483C99.104 95.6357 99.1364 95.7017 99.201 95.7464C99.2663 95.7905 99.3491 95.8125 99.4492 95.8125ZM102.175 94.3636V94.5767H101.327V94.3636H102.175ZM101.574 93.9716H101.826V95.5312C101.826 95.6023 101.836 95.6555 101.857 95.6911C101.878 95.7259 101.905 95.7493 101.938 95.7614C101.971 95.7727 102.006 95.7784 102.043 95.7784C102.071 95.7784 102.093 95.777 102.111 95.7741C102.129 95.7706 102.143 95.7678 102.154 95.7656L102.205 95.9915C102.188 95.9979 102.164 96.0043 102.134 96.0107C102.103 96.0178 102.064 96.0213 102.017 96.0213C101.946 96.0213 101.877 96.006 101.809 95.9755C101.741 95.945 101.685 95.8984 101.64 95.8359C101.596 95.7734 101.574 95.6946 101.574 95.5994V93.9716ZM103.222 96.0341C103.064 96.0341 102.928 95.9993 102.814 95.9297C102.7 95.8594 102.612 95.7614 102.551 95.6357C102.49 95.5092 102.459 95.3622 102.459 95.1946C102.459 95.027 102.49 94.8793 102.551 94.7514C102.612 94.6229 102.698 94.5227 102.809 94.451C102.919 94.3786 103.049 94.3423 103.196 94.3423C103.282 94.3423 103.366 94.3565 103.449 94.3849C103.532 94.4134 103.608 94.4595 103.676 94.5234C103.744 94.5866 103.798 94.6705 103.839 94.7749C103.879 94.8793 103.899 95.0078 103.899 95.1605V95.267H102.638V95.0497H103.644C103.644 94.9574 103.625 94.875 103.588 94.8026C103.552 94.7301 103.5 94.6729 103.433 94.631C103.366 94.5891 103.287 94.5682 103.196 94.5682C103.096 94.5682 103.009 94.593 102.936 94.6428C102.864 94.6918 102.808 94.7557 102.769 94.8345C102.73 94.9134 102.71 94.9979 102.71 95.0881V95.233C102.71 95.3565 102.732 95.4613 102.774 95.5472C102.818 95.6325 102.878 95.6974 102.954 95.7422C103.031 95.7862 103.12 95.8082 103.222 95.8082C103.288 95.8082 103.348 95.799 103.401 95.7805C103.455 95.7614 103.501 95.733 103.54 95.6953C103.579 95.657 103.61 95.6094 103.631 95.5526L103.874 95.6207C103.848 95.7031 103.805 95.7756 103.745 95.8381C103.685 95.8999 103.61 95.9482 103.521 95.983C103.432 96.017 103.333 96.0341 103.222 96.0341ZM105.441 94.7301L105.215 94.794C105.201 94.7564 105.18 94.7198 105.152 94.6843C105.125 94.6481 105.088 94.6183 105.041 94.5948C104.995 94.5714 104.935 94.5597 104.861 94.5597C104.761 94.5597 104.678 94.5827 104.611 94.6289C104.545 94.6744 104.512 94.7322 104.512 94.8026C104.512 94.8651 104.535 94.9144 104.58 94.9506C104.626 94.9869 104.697 95.017 104.793 95.0412L105.036 95.1009C105.182 95.1364 105.291 95.1907 105.363 95.2638C105.435 95.3363 105.471 95.4297 105.471 95.544C105.471 95.6378 105.444 95.7216 105.39 95.7955C105.337 95.8693 105.262 95.9276 105.166 95.9702C105.07 96.0128 104.959 96.0341 104.832 96.0341C104.665 96.0341 104.527 95.9979 104.417 95.9254C104.308 95.853 104.239 95.7472 104.209 95.608L104.448 95.5483C104.471 95.6364 104.514 95.7024 104.577 95.7464C104.641 95.7905 104.724 95.8125 104.827 95.8125C104.945 95.8125 105.038 95.7876 105.106 95.7379C105.176 95.6875 105.211 95.6271 105.211 95.5568C105.211 95.5 105.191 95.4524 105.151 95.4141C105.111 95.375 105.05 95.3459 104.968 95.3267L104.695 95.2628C104.545 95.2273 104.435 95.1722 104.365 95.0977C104.295 95.0224 104.261 94.9283 104.261 94.8153C104.261 94.723 104.286 94.6413 104.338 94.5703C104.391 94.4993 104.462 94.4435 104.552 94.4031C104.643 94.3626 104.746 94.3423 104.861 94.3423C105.023 94.3423 105.15 94.3778 105.243 94.4489C105.336 94.5199 105.402 94.6136 105.441 94.7301ZM106.561 94.3636V94.5767H105.713V94.3636H106.561ZM105.96 93.9716H106.211V95.5312C106.211 95.6023 106.222 95.6555 106.242 95.6911C106.264 95.7259 106.291 95.7493 106.323 95.7614C106.357 95.7727 106.392 95.7784 106.429 95.7784C106.456 95.7784 106.479 95.777 106.497 95.7741C106.515 95.7706 106.529 95.7678 106.54 95.7656L106.591 95.9915C106.574 95.9979 106.55 96.0043 106.519 96.0107C106.489 96.0178 106.45 96.0213 106.403 96.0213C106.332 96.0213 106.263 96.006 106.194 95.9755C106.127 95.945 106.071 95.8984 106.026 95.8359C105.982 95.7734 105.96 95.6946 105.96 95.5994V93.9716Z" fill="#F7F7F7"/>
<path d="M151.392 94.1006H109.885V94.846H151.392V94.1006Z" fill="#28385E"/>
<path d="M135.361 94.1006H109.885V94.846H135.361V94.1006Z" fill="#FF4D6B"/>
<path d="M130.297 95.5283H109.885V96.2738H130.297V95.5283Z" fill="#28385E"/>
<path d="M96.9457 97.75H99.4623L99.7887 97.0508H94.709V98.216H96.4797L96.9457 97.75Z" fill="#FF4D6B"/>
<path d="M102.162 97.043H101.882V97.3224H102.162V97.043Z" fill="#F7F7F7"/>
<path d="M103.897 97.043H103.617V97.3224H103.897V97.043Z" fill="#F7F7F7"/>
<path d="M105.633 97.043H105.354V97.3224H105.633V97.043Z" fill="#F7F7F7"/>
<path d="M158.21 84.0398C158.044 84.0398 157.893 84.0066 157.76 83.9403C157.626 83.8741 157.519 83.7831 157.439 83.6676C157.358 83.5521 157.314 83.4205 157.307 83.2727H157.648C157.661 83.4044 157.721 83.5133 157.827 83.5994C157.934 83.6847 158.062 83.7273 158.21 83.7273C158.33 83.7273 158.436 83.6993 158.528 83.6435C158.622 83.5876 158.696 83.5109 158.749 83.4134C158.803 83.3149 158.83 83.2036 158.83 83.0795C158.83 82.9527 158.802 82.8395 158.746 82.7401C158.691 82.6397 158.615 82.5606 158.518 82.5028C158.422 82.4451 158.312 82.4157 158.188 82.4148C158.098 82.4138 158.007 82.4276 157.913 82.456C157.82 82.4834 157.742 82.5189 157.682 82.5625L157.352 82.5227L157.528 81.0909H159.04V81.4034H157.824L157.722 82.2614H157.739C157.798 82.214 157.873 82.1747 157.963 82.1435C158.053 82.1122 158.147 82.0966 158.244 82.0966C158.422 82.0966 158.581 82.1392 158.72 82.2244C158.86 82.3087 158.97 82.4242 159.05 82.571C159.13 82.7178 159.17 82.8854 159.17 83.0739C159.17 83.2595 159.129 83.4252 159.045 83.571C158.963 83.7159 158.849 83.8305 158.705 83.9148C158.56 83.9981 158.395 84.0398 158.21 84.0398ZM160.684 84.0398C160.47 84.0398 160.287 83.9815 160.137 83.8651C159.986 83.7476 159.871 83.5777 159.792 83.3551C159.712 83.1316 159.672 82.8617 159.672 82.5455C159.672 82.2311 159.712 81.9626 159.792 81.7401C159.872 81.5166 159.988 81.3461 160.138 81.2287C160.29 81.1103 160.471 81.0511 160.684 81.0511C160.896 81.0511 161.077 81.1103 161.228 81.2287C161.379 81.3461 161.495 81.5166 161.574 81.7401C161.655 81.9626 161.695 82.2311 161.695 82.5455C161.695 82.8617 161.655 83.1316 161.576 83.3551C161.496 83.5777 161.381 83.7476 161.23 83.8651C161.08 83.9815 160.898 84.0398 160.684 84.0398ZM160.684 83.7273C160.896 83.7273 161.06 83.625 161.178 83.4205C161.295 83.2159 161.354 82.9242 161.354 82.5455C161.354 82.2936 161.327 82.0791 161.273 81.902C161.22 81.7249 161.143 81.59 161.043 81.4972C160.944 81.4044 160.824 81.358 160.684 81.358C160.473 81.358 160.309 81.4616 160.191 81.669C160.072 81.8755 160.013 82.1676 160.013 82.5455C160.013 82.7973 160.04 83.0114 160.093 83.1875C160.146 83.3636 160.222 83.4976 160.321 83.5895C160.422 83.6813 160.542 83.7273 160.684 83.7273ZM163.184 84.0398C162.97 84.0398 162.787 83.9815 162.637 83.8651C162.486 83.7476 162.371 83.5777 162.292 83.3551C162.212 83.1316 162.172 82.8617 162.172 82.5455C162.172 82.2311 162.212 81.9626 162.292 81.7401C162.372 81.5166 162.488 81.3461 162.638 81.2287C162.79 81.1103 162.971 81.0511 163.184 81.0511C163.396 81.0511 163.577 81.1103 163.728 81.2287C163.879 81.3461 163.995 81.5166 164.074 81.7401C164.155 81.9626 164.195 82.2311 164.195 82.5455C164.195 82.8617 164.155 83.1316 164.076 83.3551C163.996 83.5777 163.881 83.7476 163.73 83.8651C163.58 83.9815 163.398 84.0398 163.184 84.0398ZM163.184 83.7273C163.396 83.7273 163.56 83.625 163.678 83.4205C163.795 83.2159 163.854 82.9242 163.854 82.5455C163.854 82.2936 163.827 82.0791 163.773 81.902C163.72 81.7249 163.643 81.59 163.543 81.4972C163.444 81.4044 163.324 81.358 163.184 81.358C162.973 81.358 162.809 81.4616 162.691 81.669C162.572 81.8755 162.513 82.1676 162.513 82.5455C162.513 82.7973 162.54 83.0114 162.593 83.1875C162.646 83.3636 162.722 83.4976 162.821 83.5895C162.922 83.6813 163.042 83.7273 163.184 83.7273Z" fill="#F7F7F7"/>
<path d="M154.376 96.3363H153.754L152.76 94.0996H153.381L154.376 96.3363Z" fill="#28385E"/>
<path d="M155.991 96.3363H155.37L154.376 94.0996H154.997L155.991 96.3363Z" fill="#28385E"/>
<path d="M157.606 96.3363H156.984L155.99 94.0996H156.612L157.606 96.3363Z" fill="#28385E"/>
<path d="M159.222 96.3363H158.601L157.606 94.0996H158.228L159.222 96.3363Z" fill="#28385E"/>
<path d="M160.807 96.3363H160.185L159.191 94.0996H159.813L160.807 96.3363Z" fill="#28385E"/>
<path d="M158.107 19.3232H148.004V21.1329H158.107V19.3232Z" fill="#A9CCEA"/>
<path d="M163.238 22.5615H148.004V24.3708H163.238V22.5615Z" fill="#A9CCEA"/>
<path d="M166.79 25.7988H148.004V27.6085H166.79V25.7988Z" fill="#A9CCEA"/>
<path d="M155.187 29.0371H148.004V30.8468H155.187V29.0371Z" fill="#A9CCEA"/>
<path d="M52.1033 41.1299H42V42.9395H52.1033V41.1299Z" fill="#2889DB"/>
<path d="M57.2337 44.3682H42V46.1775H57.2337V44.3682Z" fill="#A9CCEA"/>
<path d="M60.7859 47.6055H42V49.4151H60.7859V47.6055Z" fill="#A9CCEA"/>
<path d="M49.1828 50.8438H42V52.6534H49.1828V50.8438Z" fill="#A9CCEA"/>
<path d="M110.269 104.672H67.2041V110.262H110.269V104.672Z" stroke="#289DF2" stroke-width="1.1276" stroke-miterlimit="10"/>
<path d="M90.0469 60.6416H87.9766V73.3401H90.0469V60.6416Z" stroke="#289DF2" stroke-width="1.1276" stroke-miterlimit="10"/>
<path d="M173.205 96.3609C177.096 95.7335 179.741 92.0708 179.114 88.18C178.486 84.2893 174.824 81.6438 170.933 82.2712C167.043 82.8986 164.397 86.5613 165.025 90.4521C165.652 94.3428 169.315 96.9883 173.205 96.3609Z" fill="#FF4D6B"/>
<path d="M171.56 88.6498L168.726 89.6883L171.56 90.7183V91.7825L167.509 90.2416V89.1352L171.56 87.5947V88.6498Z" fill="#F9FBFC"/>
<path d="M172.485 87.5938L176.537 89.1342V90.2407L172.485 91.7815V90.7173L175.32 89.6873L172.485 88.6488V87.5938Z" fill="#F9FBFC"/>
<path d="M183.976 95.1475C183.976 95.6619 183.558 96.0791 183.044 96.0791C182.529 96.0791 182.112 95.6619 182.112 95.1475C182.112 94.633 182.529 94.2158 183.044 94.2158C183.558 94.2158 183.976 94.633 183.976 95.1475Z" stroke="#FF4D6B" stroke-width="1.1276" stroke-miterlimit="10"/>
<path d="M98.6736 27.6523H64.9258V31.1721H98.6736V27.6523Z" stroke="#289DF2" stroke-width="1.1276" stroke-miterlimit="10"/>
<path d="M87.2873 28.791H66.376V29.8262H87.2873V28.791Z" fill="#289DF2"/>
<path d="M118.343 55.1201H93.6357V56.3624H118.343V55.1201Z" fill="#284D89"/>
<path d="M104.833 55.1201H93.6357V56.3624H104.833V55.1201Z" fill="#2889DB"/>
<path d="M118.343 58.3281H93.6357V59.5704H118.343V58.3281Z" fill="#284D89"/>
<path d="M110.837 58.3281H93.6357V59.5704H110.837V58.3281Z" fill="#FF4D6B"/>
<path d="M118.343 61.5381H93.6357V62.7804H118.343V61.5381Z" fill="#284D89"/>
<path d="M98.6736 61.5381H93.6357V62.7804H98.6736V61.5381Z" fill="#1AE5FF"/>
<path d="M94.2235 52.9463H93.7402V53.4295H94.2235V52.9463Z" fill="#284D89"/>
<path d="M95.8797 52.9463H95.3965V53.4295H95.8797V52.9463Z" fill="#284D89"/>
<path d="M97.536 52.9463H97.0527V53.4295H97.536V52.9463Z" fill="#284D89"/>
<path d="M140.519 69.8662H139.714V70.6715H140.519V69.8662Z" fill="white"/>
<path d="M143.28 69.8662H142.475V70.6715H143.28V69.8662Z" fill="white"/>
<path d="M146.041 69.8662H145.235V70.6715H146.041V69.8662Z" fill="white"/>
<path d="M152.846 37.8711H151.336V39.3807H152.846V37.8711Z" fill="white"/>
<path d="M158.021 37.8711H156.512V39.3807H158.021V37.8711Z" fill="white"/>
<path d="M163.198 37.8711H161.688V39.3807H163.198V37.8711Z" fill="white"/>
<path d="M131.452 100.26H129.942V101.769H131.452V100.26Z" fill="white"/>
<path d="M136.628 100.26H135.118V101.769H136.628V100.26Z" fill="white"/>
<path d="M141.804 100.26H140.294V101.769H141.804V100.26Z" fill="white"/>
<path d="M67.4114 58.4551H66.6064V59.2604H67.4114V58.4551Z" fill="white"/>
<path d="M70.1715 58.4551H69.3662V59.2604H70.1715V58.4551Z" fill="white"/>
<path d="M72.9332 58.4551H72.1279V59.2604H72.9332V58.4551Z" fill="white"/>
<path d="M179.49 57.4668H166.102V58.7781H179.49V57.4668Z" fill="white"/>
<path d="M170.075 59.7783H166.102V61.0897H170.075V59.7783Z" fill="#287DD1"/>
<path d="M58.0941 60.1582H55.1957V57.2598H52.5039V60.1582H49.6055V62.8499H52.5039V65.7484H55.1957V62.8499H58.0941V60.1582Z" fill="#1AE5FF"/>
<path d="M50.3375 68.2323H48.57V66.4648H46.9289V68.2323H45.1611V69.8734H46.9289V71.6408H48.57V69.8734H50.3375V68.2323Z" fill="#2889DB"/>
<path d="M98.7126 66.6895C96.2093 66.6895 94.1797 68.7191 94.1797 71.2224C94.1797 73.7261 96.2093 75.7554 98.7126 75.7554C101.216 75.7554 103.246 73.7258 103.246 71.2224C103.246 68.7191 101.216 66.6895 98.7126 66.6895ZM98.7126 73.5847C97.4079 73.5847 96.3507 72.5271 96.3507 71.2224C96.3507 69.9177 97.4083 68.8601 98.7126 68.8601C100.017 68.8601 101.075 69.9177 101.075 71.2224C101.075 72.5271 100.017 73.5847 98.7126 73.5847Z" fill="#284D89"/>
<path d="M95.6269 70.7755C96.0481 70.7755 96.4172 70.5251 96.6089 70.1498C96.9992 69.3845 97.7946 68.8601 98.7127 68.8601C99.6311 68.8601 100.426 69.3845 100.817 70.1498C101.008 70.5251 101.378 70.7755 101.799 70.7755C102.592 70.7755 103.135 69.9445 102.786 69.2317C102.049 67.7261 100.502 66.6895 98.7131 66.6895C96.924 66.6895 95.3772 67.7261 94.6402 69.2321C94.291 69.9445 94.8334 70.7755 95.6269 70.7755Z" fill="#289DF2"/>
<path d="M106.326 71.2224C106.326 73.7258 108.356 75.7554 110.859 75.7554C113.363 75.7554 115.392 73.7258 115.392 71.2224C115.392 68.7187 113.362 66.6895 110.859 66.6895C108.356 66.6895 106.326 68.7191 106.326 71.2224ZM113.221 71.2224C113.221 72.5268 112.164 73.5844 110.859 73.5844C109.554 73.5844 108.497 72.5268 108.497 71.2224C108.497 69.9177 109.554 68.8601 110.859 68.8601C112.164 68.8601 113.221 69.9177 113.221 71.2224Z" fill="#284D89"/>
<path d="M110.413 74.3087C110.413 73.8875 110.162 73.5184 109.787 73.3268C109.022 72.9364 108.497 72.141 108.497 71.223C108.497 70.3045 109.022 69.5095 109.787 69.1188C110.162 68.9275 110.413 68.558 110.413 68.1368C110.413 67.3436 109.582 66.8009 108.869 67.1498C107.363 67.8868 106.326 69.4335 106.326 71.223C106.326 73.0121 107.363 74.5588 108.869 75.2958C109.581 75.6446 110.413 75.1023 110.413 74.3087Z" fill="#FF4D6B"/>
<path d="M85.7679 53.3262H77.4863V73.2023H85.7679V53.3262Z" stroke="#289DF2" stroke-width="1.1276" stroke-miterlimit="10"/>
<path d="M81.0757 57.1562H78.6602V57.8701H81.0757V57.1562Z" fill="#1AE5FF"/>
<path d="M81.0757 58.749H78.6602V59.4629H81.0757V58.749Z" fill="#1AE5FF"/>
<path d="M81.0757 60.3408H78.6602V61.0547H81.0757V60.3408Z" fill="#1AE5FF"/>
<path d="M81.0757 68.623H78.6602V69.3369H81.0757V68.623Z" fill="#1AE5FF"/>
<path d="M82.18 62.6768H78.6602V63.3906H82.18V62.6768Z" fill="#1AE5FF"/>
<path d="M82.18 64.2695H78.6602V64.9834H82.18V64.2695Z" fill="white"/>
<path d="M82.18 65.8613H78.6602V66.5752H82.18V65.8613Z" fill="white"/>
<path d="M58.3015 78.1709H47.8115V88.6609H58.3015V78.1709Z" fill="#289DF2"/>
<path d="M52.78 80.6553H42.29V91.1453H52.78V80.6553Z" stroke="#289DF2" stroke-width="1.1276" stroke-miterlimit="10"/>
<path d="M177.006 108.536H172.589V112.953H177.006V108.536Z" stroke="#289DF2" stroke-width="1.1276" stroke-miterlimit="10"/>
<path d="M119.584 101.567H123.311L125.381 103.637H146.914L150.226 100.324H161.821" stroke="white" stroke-width="1.1276" stroke-miterlimit="10"/>
<path d="M118.497 102.706C119.097 102.706 119.584 102.22 119.584 101.619C119.584 101.019 119.097 100.532 118.497 100.532C117.897 100.532 117.41 101.019 117.41 101.619C117.41 102.22 117.897 102.706 118.497 102.706Z" stroke="white" stroke-width="1.1276" stroke-miterlimit="10"/>
<path d="M162.942 101.359C163.543 101.359 164.029 100.873 164.029 100.273C164.029 99.6722 163.543 99.1855 162.942 99.1855C162.342 99.1855 161.855 99.6722 161.855 100.273C161.855 100.873 162.342 101.359 162.942 101.359Z" stroke="white" stroke-width="1.1276" stroke-miterlimit="10"/>
<path d="M177.558 43.1118C177.558 43.8742 176.94 44.4922 176.177 44.4922C175.415 44.4922 174.797 43.8742 174.797 43.1118C174.797 42.3495 175.415 41.7314 176.177 41.7314C176.94 41.7314 177.558 42.3495 177.558 43.1118Z" fill="#289DF2"/>
<path d="M50.0195 96.9429C50.0195 97.7052 49.4015 98.3233 48.6392 98.3233C47.8768 98.3233 47.2588 97.7052 47.2588 96.9429C47.2588 96.1805 47.8768 95.5625 48.6392 95.5625C49.4019 95.5625 50.0195 96.1805 50.0195 96.9429Z" fill="#FF4D6B"/>
<path d="M56.3682 102.049C56.3682 103.383 55.2868 104.465 53.9527 104.465C52.6186 104.465 51.5371 103.383 51.5371 102.049C51.5371 100.715 52.6186 99.6338 53.9527 99.6338C55.2868 99.6338 56.3682 100.715 56.3682 102.049Z" fill="#FF4D6B"/>
<path d="M138.633 110.193H128.971V112.402H138.633V110.193Z" stroke="#289DF2" stroke-width="1.1276" stroke-miterlimit="10"/>
<path d="M150.158 114.334H128.971V116.542H150.158V114.334Z" stroke="#289DF2" stroke-width="1.1276" stroke-miterlimit="10"/>
<path d="M69.7812 112.308L67.4395 114.649" stroke="#289DF2" stroke-width="1.1276" stroke-miterlimit="10" stroke-linecap="round" stroke-linejoin="round"/>
<path d="M72.0322 112.308L69.6904 114.649" stroke="#289DF2" stroke-width="1.1276" stroke-miterlimit="10" stroke-linecap="round" stroke-linejoin="round"/>
<path d="M74.2841 112.308L71.9424 114.649" stroke="#289DF2" stroke-width="1.1276" stroke-miterlimit="10" stroke-linecap="round" stroke-linejoin="round"/>
<path d="M76.5361 112.308L74.1943 114.649" stroke="#289DF2" stroke-width="1.1276" stroke-miterlimit="10" stroke-linecap="round" stroke-linejoin="round"/>
<path d="M78.7871 112.308L76.4453 114.649" stroke="#289DF2" stroke-width="1.1276" stroke-miterlimit="10" stroke-linecap="round" stroke-linejoin="round"/>
<path d="M13.6562 136.203V149H11.4502V136.203H13.6562ZM18.2881 141.521V149H16.1699V139.49H18.165L18.2881 141.521ZM17.9102 143.894L17.2246 143.885C17.2305 143.211 17.3242 142.593 17.5059 142.03C17.6934 141.468 17.9512 140.984 18.2793 140.58C18.6133 140.176 19.0117 139.865 19.4746 139.648C19.9375 139.426 20.4531 139.314 21.0215 139.314C21.4785 139.314 21.8916 139.379 22.2607 139.508C22.6357 139.631 22.9551 139.833 23.2188 140.114C23.4883 140.396 23.6934 140.762 23.834 141.213C23.9746 141.658 24.0449 142.206 24.0449 142.856V149H21.918V142.848C21.918 142.391 21.8506 142.03 21.7158 141.767C21.5869 141.497 21.3965 141.307 21.1445 141.195C20.8984 141.078 20.5908 141.02 20.2217 141.02C19.8584 141.02 19.5332 141.096 19.2461 141.248C18.959 141.4 18.7158 141.608 18.5166 141.872C18.3232 142.136 18.1738 142.44 18.0684 142.786C17.9629 143.132 17.9102 143.501 17.9102 143.894ZM29.0723 149H26.9541V138.576C26.9541 137.867 27.0859 137.272 27.3496 136.792C27.6191 136.306 28.0029 135.939 28.501 135.693C28.999 135.441 29.5879 135.315 30.2676 135.315C30.4785 135.315 30.6865 135.33 30.8916 135.359C31.0967 135.383 31.2959 135.421 31.4893 135.474L31.4365 137.108C31.3193 137.079 31.1904 137.059 31.0498 137.047C30.915 137.035 30.7686 137.029 30.6104 137.029C30.2881 137.029 30.0098 137.091 29.7754 137.214C29.5469 137.331 29.3711 137.504 29.248 137.732C29.1309 137.961 29.0723 138.242 29.0723 138.576V149ZM31.0322 139.49V141.037H25.4951V139.49H31.0322ZM32.166 144.351V144.148C32.166 143.463 32.2656 142.827 32.4648 142.241C32.6641 141.649 32.9512 141.137 33.3262 140.703C33.707 140.264 34.1699 139.924 34.7148 139.684C35.2656 139.438 35.8867 139.314 36.5781 139.314C37.2754 139.314 37.8965 139.438 38.4414 139.684C38.9922 139.924 39.458 140.264 39.8389 140.703C40.2197 141.137 40.5098 141.649 40.709 142.241C40.9082 142.827 41.0078 143.463 41.0078 144.148V144.351C41.0078 145.036 40.9082 145.672 40.709 146.258C40.5098 146.844 40.2197 147.356 39.8389 147.796C39.458 148.229 38.9951 148.569 38.4502 148.815C37.9053 149.056 37.2871 149.176 36.5957 149.176C35.8984 149.176 35.2744 149.056 34.7236 148.815C34.1787 148.569 33.7158 148.229 33.335 147.796C32.9541 147.356 32.6641 146.844 32.4648 146.258C32.2656 145.672 32.166 145.036 32.166 144.351ZM34.2842 144.148V144.351C34.2842 144.778 34.3281 145.183 34.416 145.563C34.5039 145.944 34.6416 146.278 34.8291 146.565C35.0166 146.853 35.2568 147.078 35.5498 147.242C35.8428 147.406 36.1914 147.488 36.5957 147.488C36.9883 147.488 37.3281 147.406 37.6152 147.242C37.9082 147.078 38.1484 146.853 38.3359 146.565C38.5234 146.278 38.6611 145.944 38.749 145.563C38.8428 145.183 38.8896 144.778 38.8896 144.351V144.148C38.8896 143.727 38.8428 143.328 38.749 142.953C38.6611 142.572 38.5205 142.235 38.3271 141.942C38.1396 141.649 37.8994 141.421 37.6064 141.257C37.3193 141.087 36.9766 141.002 36.5781 141.002C36.1797 141.002 35.834 141.087 35.541 141.257C35.2539 141.421 35.0166 141.649 34.8291 141.942C34.6416 142.235 34.5039 142.572 34.416 142.953C34.3281 143.328 34.2842 143.727 34.2842 144.148ZM44.9102 141.301V149H42.792V139.49H44.8135L44.9102 141.301ZM47.8193 139.429L47.8018 141.397C47.6729 141.374 47.5322 141.356 47.3799 141.345C47.2334 141.333 47.0869 141.327 46.9404 141.327C46.5771 141.327 46.2578 141.38 45.9824 141.485C45.707 141.585 45.4756 141.731 45.2881 141.925C45.1064 142.112 44.9658 142.341 44.8662 142.61C44.7666 142.88 44.708 143.182 44.6904 143.516L44.207 143.551C44.207 142.953 44.2656 142.399 44.3828 141.89C44.5 141.38 44.6758 140.932 44.9102 140.545C45.1504 140.158 45.4492 139.856 45.8066 139.64C46.1699 139.423 46.5889 139.314 47.0635 139.314C47.1924 139.314 47.3301 139.326 47.4766 139.35C47.6289 139.373 47.7432 139.399 47.8193 139.429ZM51.2646 141.424V149H49.1465V139.49H51.1416L51.2646 141.424ZM50.9219 143.894L50.2012 143.885C50.2012 143.229 50.2832 142.622 50.4473 142.065C50.6113 141.509 50.8516 141.025 51.168 140.615C51.4844 140.199 51.877 139.88 52.3457 139.657C52.8203 139.429 53.3682 139.314 53.9893 139.314C54.4229 139.314 54.8184 139.379 55.1758 139.508C55.5391 139.631 55.8525 139.827 56.1162 140.097C56.3857 140.366 56.5908 140.712 56.7314 141.134C56.8779 141.556 56.9512 142.065 56.9512 142.663V149H54.833V142.848C54.833 142.385 54.7627 142.021 54.6221 141.758C54.4873 141.494 54.291 141.307 54.0332 141.195C53.7812 141.078 53.4795 141.02 53.1279 141.02C52.7295 141.02 52.3896 141.096 52.1084 141.248C51.833 141.4 51.6074 141.608 51.4316 141.872C51.2559 142.136 51.127 142.44 51.0449 142.786C50.9629 143.132 50.9219 143.501 50.9219 143.894ZM56.8193 143.331L55.8262 143.551C55.8262 142.977 55.9053 142.435 56.0635 141.925C56.2275 141.409 56.4648 140.958 56.7754 140.571C57.0918 140.179 57.4814 139.871 57.9443 139.648C58.4072 139.426 58.9375 139.314 59.5352 139.314C60.0215 139.314 60.4551 139.382 60.8359 139.517C61.2227 139.646 61.5508 139.851 61.8203 140.132C62.0898 140.413 62.2949 140.779 62.4355 141.23C62.5762 141.676 62.6465 142.215 62.6465 142.848V149H60.5195V142.839C60.5195 142.358 60.4492 141.986 60.3086 141.723C60.1738 141.459 59.9805 141.277 59.7285 141.178C59.4766 141.072 59.1748 141.02 58.8232 141.02C58.4951 141.02 58.2051 141.081 57.9531 141.204C57.707 141.321 57.499 141.488 57.3291 141.705C57.1592 141.916 57.0303 142.159 56.9424 142.435C56.8604 142.71 56.8193 143.009 56.8193 143.331ZM70.1875 147.093V142.558C70.1875 142.218 70.126 141.925 70.0029 141.679C69.8799 141.433 69.6924 141.242 69.4404 141.107C69.1943 140.973 68.8838 140.905 68.5088 140.905C68.1631 140.905 67.8643 140.964 67.6123 141.081C67.3604 141.198 67.1641 141.356 67.0234 141.556C66.8828 141.755 66.8125 141.98 66.8125 142.232H64.7031C64.7031 141.857 64.7939 141.494 64.9756 141.143C65.1572 140.791 65.4209 140.478 65.7666 140.202C66.1123 139.927 66.5254 139.71 67.0059 139.552C67.4863 139.394 68.0254 139.314 68.623 139.314C69.3379 139.314 69.9707 139.435 70.5215 139.675C71.0781 139.915 71.5146 140.278 71.8311 140.765C72.1533 141.245 72.3145 141.849 72.3145 142.575V146.803C72.3145 147.236 72.3438 147.626 72.4023 147.972C72.4668 148.312 72.5576 148.607 72.6748 148.859V149H70.5039C70.4043 148.771 70.3252 148.481 70.2666 148.13C70.2139 147.772 70.1875 147.427 70.1875 147.093ZM70.4951 143.217L70.5127 144.526H68.9922C68.5996 144.526 68.2539 144.564 67.9551 144.641C67.6562 144.711 67.4072 144.816 67.208 144.957C67.0088 145.098 66.8594 145.268 66.7598 145.467C66.6602 145.666 66.6104 145.892 66.6104 146.144C66.6104 146.396 66.6689 146.627 66.7861 146.838C66.9033 147.043 67.0732 147.204 67.2959 147.321C67.5244 147.438 67.7998 147.497 68.1221 147.497C68.5557 147.497 68.9336 147.409 69.2559 147.233C69.584 147.052 69.8418 146.832 70.0293 146.574C70.2168 146.311 70.3164 146.062 70.3281 145.827L71.0137 146.768C70.9434 147.008 70.8232 147.266 70.6533 147.541C70.4834 147.816 70.2607 148.08 69.9854 148.332C69.7158 148.578 69.3906 148.78 69.0098 148.938C68.6348 149.097 68.2012 149.176 67.709 149.176C67.0879 149.176 66.5342 149.053 66.0479 148.807C65.5615 148.555 65.1807 148.218 64.9053 147.796C64.6299 147.368 64.4922 146.885 64.4922 146.346C64.4922 145.842 64.5859 145.396 64.7734 145.01C64.9668 144.617 65.248 144.289 65.6172 144.025C65.9922 143.762 66.4492 143.562 66.9883 143.428C67.5273 143.287 68.1426 143.217 68.834 143.217H70.4951ZM78.8887 139.49V141.037H73.5273V139.49H78.8887ZM75.0742 137.161H77.1924V146.372C77.1924 146.665 77.2334 146.891 77.3154 147.049C77.4033 147.201 77.5234 147.304 77.6758 147.356C77.8281 147.409 78.0068 147.436 78.2119 147.436C78.3584 147.436 78.499 147.427 78.6338 147.409C78.7686 147.392 78.877 147.374 78.959 147.356L78.9678 148.974C78.792 149.026 78.5869 149.073 78.3525 149.114C78.124 149.155 77.8604 149.176 77.5615 149.176C77.0752 149.176 76.6445 149.091 76.2695 148.921C75.8945 148.745 75.6016 148.461 75.3906 148.068C75.1797 147.676 75.0742 147.154 75.0742 146.504V137.161ZM82.791 139.49V149H80.6641V139.49H82.791ZM80.5234 136.994C80.5234 136.672 80.6289 136.405 80.8398 136.194C81.0566 135.978 81.3555 135.869 81.7363 135.869C82.1113 135.869 82.4072 135.978 82.624 136.194C82.8408 136.405 82.9492 136.672 82.9492 136.994C82.9492 137.311 82.8408 137.574 82.624 137.785C82.4072 137.996 82.1113 138.102 81.7363 138.102C81.3555 138.102 81.0566 137.996 80.8398 137.785C80.6289 137.574 80.5234 137.311 80.5234 136.994ZM84.707 144.351V144.148C84.707 143.463 84.8066 142.827 85.0059 142.241C85.2051 141.649 85.4922 141.137 85.8672 140.703C86.248 140.264 86.7109 139.924 87.2559 139.684C87.8066 139.438 88.4277 139.314 89.1191 139.314C89.8164 139.314 90.4375 139.438 90.9824 139.684C91.5332 139.924 91.999 140.264 92.3799 140.703C92.7607 141.137 93.0508 141.649 93.25 142.241C93.4492 142.827 93.5488 143.463 93.5488 144.148V144.351C93.5488 145.036 93.4492 145.672 93.25 146.258C93.0508 146.844 92.7607 147.356 92.3799 147.796C91.999 148.229 91.5361 148.569 90.9912 148.815C90.4463 149.056 89.8281 149.176 89.1367 149.176C88.4395 149.176 87.8154 149.056 87.2646 148.815C86.7197 148.569 86.2568 148.229 85.876 147.796C85.4951 147.356 85.2051 146.844 85.0059 146.258C84.8066 145.672 84.707 145.036 84.707 144.351ZM86.8252 144.148V144.351C86.8252 144.778 86.8691 145.183 86.957 145.563C87.0449 145.944 87.1826 146.278 87.3701 146.565C87.5576 146.853 87.7979 147.078 88.0908 147.242C88.3838 147.406 88.7324 147.488 89.1367 147.488C89.5293 147.488 89.8691 147.406 90.1562 147.242C90.4492 147.078 90.6895 146.853 90.877 146.565C91.0645 146.278 91.2021 145.944 91.29 145.563C91.3838 145.183 91.4307 144.778 91.4307 144.351V144.148C91.4307 143.727 91.3838 143.328 91.29 142.953C91.2021 142.572 91.0615 142.235 90.8682 141.942C90.6807 141.649 90.4404 141.421 90.1475 141.257C89.8604 141.087 89.5176 141.002 89.1191 141.002C88.7207 141.002 88.375 141.087 88.082 141.257C87.7949 141.421 87.5576 141.649 87.3701 141.942C87.1826 142.235 87.0449 142.572 86.957 142.953C86.8691 143.328 86.8252 143.727 86.8252 144.148ZM97.4248 141.521V149H95.3066V139.49H97.3018L97.4248 141.521ZM97.0469 143.894L96.3613 143.885C96.3672 143.211 96.4609 142.593 96.6426 142.03C96.8301 141.468 97.0879 140.984 97.416 140.58C97.75 140.176 98.1484 139.865 98.6113 139.648C99.0742 139.426 99.5898 139.314 100.158 139.314C100.615 139.314 101.028 139.379 101.397 139.508C101.772 139.631 102.092 139.833 102.355 140.114C102.625 140.396 102.83 140.762 102.971 141.213C103.111 141.658 103.182 142.206 103.182 142.856V149H101.055V142.848C101.055 142.391 100.987 142.03 100.853 141.767C100.724 141.497 100.533 141.307 100.281 141.195C100.035 141.078 99.7275 141.02 99.3584 141.02C98.9951 141.02 98.6699 141.096 98.3828 141.248C98.0957 141.4 97.8525 141.608 97.6533 141.872C97.46 142.136 97.3105 142.44 97.2051 142.786C97.0996 143.132 97.0469 143.501 97.0469 143.894ZM114.88 136.203V149H112.691V136.203H114.88ZM118.896 136.203V137.961H108.71V136.203H118.896ZM123.722 149.176C123.019 149.176 122.383 149.062 121.814 148.833C121.252 148.599 120.771 148.273 120.373 147.857C119.98 147.441 119.679 146.952 119.468 146.39C119.257 145.827 119.151 145.221 119.151 144.57V144.219C119.151 143.475 119.26 142.801 119.477 142.197C119.693 141.594 119.995 141.078 120.382 140.65C120.769 140.217 121.226 139.886 121.753 139.657C122.28 139.429 122.852 139.314 123.467 139.314C124.146 139.314 124.741 139.429 125.251 139.657C125.761 139.886 126.183 140.208 126.517 140.624C126.856 141.034 127.108 141.523 127.272 142.092C127.442 142.66 127.527 143.287 127.527 143.973V144.878H120.18V143.357H125.436V143.19C125.424 142.81 125.348 142.452 125.207 142.118C125.072 141.784 124.864 141.515 124.583 141.31C124.302 141.104 123.927 141.002 123.458 141.002C123.106 141.002 122.793 141.078 122.518 141.23C122.248 141.377 122.022 141.591 121.841 141.872C121.659 142.153 121.519 142.493 121.419 142.892C121.325 143.284 121.278 143.727 121.278 144.219V144.57C121.278 144.986 121.334 145.373 121.445 145.73C121.562 146.082 121.732 146.39 121.955 146.653C122.178 146.917 122.447 147.125 122.764 147.277C123.08 147.424 123.44 147.497 123.845 147.497C124.354 147.497 124.809 147.395 125.207 147.189C125.605 146.984 125.951 146.694 126.244 146.319L127.36 147.4C127.155 147.699 126.889 147.986 126.561 148.262C126.232 148.531 125.831 148.751 125.356 148.921C124.888 149.091 124.343 149.176 123.722 149.176ZM133.064 147.488C133.41 147.488 133.721 147.421 133.996 147.286C134.277 147.146 134.503 146.952 134.673 146.706C134.849 146.46 134.945 146.176 134.963 145.854H136.958C136.946 146.469 136.765 147.028 136.413 147.532C136.062 148.036 135.596 148.438 135.016 148.736C134.436 149.029 133.794 149.176 133.091 149.176C132.364 149.176 131.731 149.053 131.192 148.807C130.653 148.555 130.205 148.209 129.848 147.77C129.49 147.33 129.221 146.823 129.039 146.249C128.863 145.675 128.775 145.06 128.775 144.403V144.096C128.775 143.439 128.863 142.824 129.039 142.25C129.221 141.67 129.49 141.16 129.848 140.721C130.205 140.281 130.653 139.938 131.192 139.692C131.731 139.44 132.361 139.314 133.082 139.314C133.844 139.314 134.512 139.467 135.086 139.771C135.66 140.07 136.111 140.489 136.439 141.028C136.773 141.562 136.946 142.183 136.958 142.892H134.963C134.945 142.54 134.857 142.224 134.699 141.942C134.547 141.655 134.33 141.427 134.049 141.257C133.773 141.087 133.442 141.002 133.056 141.002C132.628 141.002 132.273 141.09 131.992 141.266C131.711 141.436 131.491 141.67 131.333 141.969C131.175 142.262 131.061 142.593 130.99 142.962C130.926 143.325 130.894 143.703 130.894 144.096V144.403C130.894 144.796 130.926 145.177 130.99 145.546C131.055 145.915 131.166 146.246 131.324 146.539C131.488 146.826 131.711 147.058 131.992 147.233C132.273 147.403 132.631 147.488 133.064 147.488ZM140.676 135.5V149H138.566V135.5H140.676ZM140.307 143.894L139.621 143.885C139.627 143.229 139.718 142.622 139.894 142.065C140.075 141.509 140.327 141.025 140.649 140.615C140.978 140.199 141.37 139.88 141.827 139.657C142.284 139.429 142.791 139.314 143.348 139.314C143.816 139.314 144.238 139.379 144.613 139.508C144.994 139.637 145.322 139.845 145.598 140.132C145.873 140.413 146.081 140.782 146.222 141.239C146.368 141.69 146.441 142.241 146.441 142.892V149H144.314V142.874C144.314 142.417 144.247 142.054 144.112 141.784C143.983 141.515 143.793 141.321 143.541 141.204C143.289 141.081 142.981 141.02 142.618 141.02C142.237 141.02 141.9 141.096 141.607 141.248C141.32 141.4 141.08 141.608 140.887 141.872C140.693 142.136 140.547 142.44 140.447 142.786C140.354 143.132 140.307 143.501 140.307 143.894ZM150.687 141.521V149H148.568V139.49H150.563L150.687 141.521ZM150.309 143.894L149.623 143.885C149.629 143.211 149.723 142.593 149.904 142.03C150.092 141.468 150.35 140.984 150.678 140.58C151.012 140.176 151.41 139.865 151.873 139.648C152.336 139.426 152.852 139.314 153.42 139.314C153.877 139.314 154.29 139.379 154.659 139.508C155.034 139.631 155.354 139.833 155.617 140.114C155.887 140.396 156.092 140.762 156.232 141.213C156.373 141.658 156.443 142.206 156.443 142.856V149H154.316V142.848C154.316 142.391 154.249 142.03 154.114 141.767C153.985 141.497 153.795 141.307 153.543 141.195C153.297 141.078 152.989 141.02 152.62 141.02C152.257 141.02 151.932 141.096 151.645 141.248C151.357 141.4 151.114 141.608 150.915 141.872C150.722 142.136 150.572 142.44 150.467 142.786C150.361 143.132 150.309 143.501 150.309 143.894ZM158.201 144.351V144.148C158.201 143.463 158.301 142.827 158.5 142.241C158.699 141.649 158.986 141.137 159.361 140.703C159.742 140.264 160.205 139.924 160.75 139.684C161.301 139.438 161.922 139.314 162.613 139.314C163.311 139.314 163.932 139.438 164.477 139.684C165.027 139.924 165.493 140.264 165.874 140.703C166.255 141.137 166.545 141.649 166.744 142.241C166.943 142.827 167.043 143.463 167.043 144.148V144.351C167.043 145.036 166.943 145.672 166.744 146.258C166.545 146.844 166.255 147.356 165.874 147.796C165.493 148.229 165.03 148.569 164.485 148.815C163.94 149.056 163.322 149.176 162.631 149.176C161.934 149.176 161.31 149.056 160.759 148.815C160.214 148.569 159.751 148.229 159.37 147.796C158.989 147.356 158.699 146.844 158.5 146.258C158.301 145.672 158.201 145.036 158.201 144.351ZM160.319 144.148V144.351C160.319 144.778 160.363 145.183 160.451 145.563C160.539 145.944 160.677 146.278 160.864 146.565C161.052 146.853 161.292 147.078 161.585 147.242C161.878 147.406 162.227 147.488 162.631 147.488C163.023 147.488 163.363 147.406 163.65 147.242C163.943 147.078 164.184 146.853 164.371 146.565C164.559 146.278 164.696 145.944 164.784 145.563C164.878 145.183 164.925 144.778 164.925 144.351V144.148C164.925 143.727 164.878 143.328 164.784 142.953C164.696 142.572 164.556 142.235 164.362 141.942C164.175 141.649 163.935 141.421 163.642 141.257C163.354 141.087 163.012 141.002 162.613 141.002C162.215 141.002 161.869 141.087 161.576 141.257C161.289 141.421 161.052 141.649 160.864 141.942C160.677 142.235 160.539 142.572 160.451 142.953C160.363 143.328 160.319 143.727 160.319 144.148ZM171.086 135.5V149H168.959V135.5H171.086ZM173.002 144.351V144.148C173.002 143.463 173.102 142.827 173.301 142.241C173.5 141.649 173.787 141.137 174.162 140.703C174.543 140.264 175.006 139.924 175.551 139.684C176.102 139.438 176.723 139.314 177.414 139.314C178.111 139.314 178.732 139.438 179.277 139.684C179.828 139.924 180.294 140.264 180.675 140.703C181.056 141.137 181.346 141.649 181.545 142.241C181.744 142.827 181.844 143.463 181.844 144.148V144.351C181.844 145.036 181.744 145.672 181.545 146.258C181.346 146.844 181.056 147.356 180.675 147.796C180.294 148.229 179.831 148.569 179.286 148.815C178.741 149.056 178.123 149.176 177.432 149.176C176.734 149.176 176.11 149.056 175.56 148.815C175.015 148.569 174.552 148.229 174.171 147.796C173.79 147.356 173.5 146.844 173.301 146.258C173.102 145.672 173.002 145.036 173.002 144.351ZM175.12 144.148V144.351C175.12 144.778 175.164 145.183 175.252 145.563C175.34 145.944 175.478 146.278 175.665 146.565C175.853 146.853 176.093 147.078 176.386 147.242C176.679 147.406 177.027 147.488 177.432 147.488C177.824 147.488 178.164 147.406 178.451 147.242C178.744 147.078 178.984 146.853 179.172 146.565C179.359 146.278 179.497 145.944 179.585 145.563C179.679 145.183 179.726 144.778 179.726 144.351V144.148C179.726 143.727 179.679 143.328 179.585 142.953C179.497 142.572 179.356 142.235 179.163 141.942C178.976 141.649 178.735 141.421 178.442 141.257C178.155 141.087 177.812 141.002 177.414 141.002C177.016 141.002 176.67 141.087 176.377 141.257C176.09 141.421 175.853 141.649 175.665 141.942C175.478 142.235 175.34 142.572 175.252 142.953C175.164 143.328 175.12 143.727 175.12 144.148ZM189.71 139.49H191.635V148.736C191.635 149.592 191.453 150.318 191.09 150.916C190.727 151.514 190.22 151.968 189.569 152.278C188.919 152.595 188.166 152.753 187.311 152.753C186.947 152.753 186.543 152.7 186.098 152.595C185.658 152.489 185.23 152.319 184.814 152.085C184.404 151.856 184.062 151.555 183.786 151.18L184.779 149.932C185.119 150.336 185.494 150.632 185.904 150.819C186.314 151.007 186.745 151.101 187.196 151.101C187.683 151.101 188.096 151.01 188.436 150.828C188.781 150.652 189.048 150.392 189.235 150.046C189.423 149.7 189.517 149.278 189.517 148.78V141.644L189.71 139.49ZM183.25 144.351V144.166C183.25 143.445 183.338 142.789 183.514 142.197C183.689 141.6 183.941 141.087 184.27 140.659C184.598 140.226 184.996 139.895 185.465 139.666C185.934 139.432 186.464 139.314 187.056 139.314C187.671 139.314 188.195 139.426 188.629 139.648C189.068 139.871 189.435 140.19 189.728 140.606C190.021 141.017 190.249 141.509 190.413 142.083C190.583 142.651 190.709 143.284 190.791 143.981V144.57C190.715 145.25 190.586 145.871 190.404 146.434C190.223 146.996 189.982 147.482 189.684 147.893C189.385 148.303 189.016 148.619 188.576 148.842C188.143 149.064 187.63 149.176 187.038 149.176C186.458 149.176 185.934 149.056 185.465 148.815C185.002 148.575 184.604 148.238 184.27 147.805C183.941 147.371 183.689 146.861 183.514 146.275C183.338 145.684 183.25 145.042 183.25 144.351ZM185.368 144.166V144.351C185.368 144.784 185.409 145.188 185.491 145.563C185.579 145.938 185.711 146.27 185.887 146.557C186.068 146.838 186.297 147.061 186.572 147.225C186.854 147.383 187.185 147.462 187.565 147.462C188.063 147.462 188.471 147.356 188.787 147.146C189.109 146.935 189.355 146.65 189.525 146.293C189.701 145.93 189.824 145.525 189.895 145.08V143.489C189.859 143.144 189.786 142.821 189.675 142.522C189.569 142.224 189.426 141.963 189.244 141.74C189.062 141.512 188.834 141.336 188.559 141.213C188.283 141.084 187.958 141.02 187.583 141.02C187.202 141.02 186.871 141.102 186.59 141.266C186.309 141.43 186.077 141.655 185.896 141.942C185.72 142.229 185.588 142.563 185.5 142.944C185.412 143.325 185.368 143.732 185.368 144.166ZM196.592 147.963L199.176 139.49H201.443L197.629 150.45C197.541 150.685 197.427 150.939 197.286 151.215C197.146 151.49 196.961 151.751 196.732 151.997C196.51 152.249 196.231 152.451 195.897 152.604C195.563 152.762 195.159 152.841 194.685 152.841C194.497 152.841 194.315 152.823 194.14 152.788C193.97 152.759 193.809 152.727 193.656 152.691L193.647 151.074C193.706 151.08 193.776 151.086 193.858 151.092C193.946 151.098 194.017 151.101 194.069 151.101C194.421 151.101 194.714 151.057 194.948 150.969C195.183 150.887 195.373 150.752 195.52 150.564C195.672 150.377 195.801 150.125 195.906 149.809L196.592 147.963ZM195.133 139.49L197.392 146.609L197.77 148.842L196.302 149.22L192.848 139.49H195.133Z" fill="#F63E54"/>
<path d="M14.2715 160.422V169H13.1875V161.775L11.002 162.572V161.594L14.1016 160.422H14.2715ZM17.5938 168.426C17.5938 168.242 17.6504 168.088 17.7637 167.963C17.8809 167.834 18.0488 167.77 18.2676 167.77C18.4863 167.77 18.6523 167.834 18.7656 167.963C18.8828 168.088 18.9414 168.242 18.9414 168.426C18.9414 168.605 18.8828 168.758 18.7656 168.883C18.6523 169.008 18.4863 169.07 18.2676 169.07C18.0488 169.07 17.8809 169.008 17.7637 168.883C17.6504 168.758 17.5938 168.605 17.5938 168.426ZM26.2129 168.109V169H20.6289V168.221L23.4238 165.109C23.7676 164.727 24.0332 164.402 24.2207 164.137C24.4121 163.867 24.5449 163.627 24.6191 163.416C24.6973 163.201 24.7363 162.982 24.7363 162.76C24.7363 162.479 24.6777 162.225 24.5605 161.998C24.4473 161.768 24.2793 161.584 24.0566 161.447C23.834 161.311 23.5645 161.242 23.248 161.242C22.8691 161.242 22.5527 161.316 22.2988 161.465C22.0488 161.609 21.8613 161.812 21.7363 162.074C21.6113 162.336 21.5488 162.637 21.5488 162.977H20.4648C20.4648 162.496 20.5703 162.057 20.7812 161.658C20.9922 161.26 21.3047 160.943 21.7188 160.709C22.1328 160.471 22.6426 160.352 23.248 160.352C23.7871 160.352 24.248 160.447 24.6309 160.639C25.0137 160.826 25.3066 161.092 25.5098 161.436C25.7168 161.775 25.8203 162.174 25.8203 162.631C25.8203 162.881 25.7773 163.135 25.6914 163.393C25.6094 163.646 25.4941 163.9 25.3457 164.154C25.2012 164.408 25.0312 164.658 24.8359 164.904C24.6445 165.15 24.4395 165.393 24.2207 165.631L21.9355 168.109H26.2129ZM28.5801 160V169H27.4902V160H28.5801ZM32.4531 162.66L29.6875 165.619L28.1406 167.225L28.0527 166.07L29.1602 164.746L31.1289 162.66H32.4531ZM31.4629 169L29.2012 165.977L29.7637 165.01L32.7402 169H31.4629ZM43.0176 164.752V167.875C42.9121 168.031 42.7441 168.207 42.5137 168.402C42.2832 168.594 41.9648 168.762 41.5586 168.906C41.1562 169.047 40.6367 169.117 40 169.117C39.4805 169.117 39.002 169.027 38.5645 168.848C38.1309 168.664 37.7539 168.398 37.4336 168.051C37.1172 167.699 36.8711 167.273 36.6953 166.773C36.5234 166.27 36.4375 165.699 36.4375 165.062V164.4C36.4375 163.764 36.5117 163.195 36.6602 162.695C36.8125 162.195 37.0352 161.771 37.3281 161.424C37.6211 161.072 37.9805 160.807 38.4062 160.627C38.832 160.443 39.3203 160.352 39.8711 160.352C40.5234 160.352 41.0684 160.465 41.5059 160.691C41.9473 160.914 42.291 161.223 42.5371 161.617C42.7871 162.012 42.9473 162.461 43.0176 162.965H41.8867C41.8359 162.656 41.7344 162.375 41.582 162.121C41.4336 161.867 41.2207 161.664 40.9434 161.512C40.666 161.355 40.3086 161.277 39.8711 161.277C39.4766 161.277 39.1348 161.35 38.8457 161.494C38.5566 161.639 38.3184 161.846 38.1309 162.115C37.9434 162.385 37.8027 162.711 37.709 163.094C37.6191 163.477 37.5742 163.908 37.5742 164.389V165.062C37.5742 165.555 37.6309 165.994 37.7441 166.381C37.8613 166.768 38.0273 167.098 38.2422 167.371C38.457 167.641 38.7129 167.846 39.0098 167.986C39.3105 168.127 39.6426 168.197 40.0059 168.197C40.4082 168.197 40.7344 168.164 40.9844 168.098C41.2344 168.027 41.4297 167.945 41.5703 167.852C41.7109 167.754 41.8184 167.662 41.8926 167.576V165.666H39.918V164.752H43.0176ZM45.8125 163.656V169H44.7285V162.66H45.7832L45.8125 163.656ZM47.793 162.625L47.7871 163.633C47.6973 163.613 47.6113 163.602 47.5293 163.598C47.4512 163.59 47.3613 163.586 47.2598 163.586C47.0098 163.586 46.7891 163.625 46.5977 163.703C46.4062 163.781 46.2441 163.891 46.1113 164.031C45.9785 164.172 45.873 164.34 45.7949 164.535C45.7207 164.727 45.6719 164.938 45.6484 165.168L45.3438 165.344C45.3438 164.961 45.3809 164.602 45.4551 164.266C45.5332 163.93 45.6523 163.633 45.8125 163.375C45.9727 163.113 46.1758 162.91 46.4219 162.766C46.6719 162.617 46.9688 162.543 47.3125 162.543C47.3906 162.543 47.4805 162.553 47.582 162.572C47.6836 162.588 47.7539 162.605 47.793 162.625ZM52.2988 167.916V164.652C52.2988 164.402 52.248 164.186 52.1465 164.002C52.0488 163.814 51.9004 163.67 51.7012 163.568C51.502 163.467 51.2559 163.416 50.9629 163.416C50.6895 163.416 50.4492 163.463 50.2422 163.557C50.0391 163.65 49.8789 163.773 49.7617 163.926C49.6484 164.078 49.5918 164.242 49.5918 164.418H48.5078C48.5078 164.191 48.5664 163.967 48.6836 163.744C48.8008 163.521 48.9688 163.32 49.1875 163.141C49.4102 162.957 49.6758 162.812 49.9844 162.707C50.2969 162.598 50.6445 162.543 51.0273 162.543C51.4883 162.543 51.8945 162.621 52.2461 162.777C52.6016 162.934 52.8789 163.17 53.0781 163.486C53.2812 163.799 53.3828 164.191 53.3828 164.664V167.617C53.3828 167.828 53.4004 168.053 53.4355 168.291C53.4746 168.529 53.5312 168.734 53.6055 168.906V169H52.4746C52.4199 168.875 52.377 168.709 52.3457 168.502C52.3145 168.291 52.2988 168.096 52.2988 167.916ZM52.4863 165.156L52.498 165.918H51.4023C51.0938 165.918 50.8184 165.943 50.5762 165.994C50.334 166.041 50.1309 166.113 49.9668 166.211C49.8027 166.309 49.6777 166.432 49.5918 166.58C49.5059 166.725 49.4629 166.895 49.4629 167.09C49.4629 167.289 49.5078 167.471 49.5977 167.635C49.6875 167.799 49.8223 167.93 50.002 168.027C50.1855 168.121 50.4102 168.168 50.6758 168.168C51.0078 168.168 51.3008 168.098 51.5547 167.957C51.8086 167.816 52.0098 167.645 52.1582 167.441C52.3105 167.238 52.3926 167.041 52.4043 166.85L52.8672 167.371C52.8398 167.535 52.7656 167.717 52.6445 167.916C52.5234 168.115 52.3613 168.307 52.1582 168.49C51.959 168.67 51.7207 168.82 51.4434 168.941C51.1699 169.059 50.8613 169.117 50.5176 169.117C50.0879 169.117 49.7109 169.033 49.3867 168.865C49.0664 168.697 48.8164 168.473 48.6367 168.191C48.4609 167.906 48.373 167.588 48.373 167.236C48.373 166.896 48.4395 166.598 48.5723 166.34C48.7051 166.078 48.8965 165.861 49.1465 165.689C49.3965 165.514 49.6973 165.381 50.0488 165.291C50.4004 165.201 50.793 165.156 51.2266 165.156H52.4863ZM59.084 167.77V160H60.1738V169H59.1777L59.084 167.77ZM54.8184 165.9V165.777C54.8184 165.293 54.877 164.854 54.9941 164.459C55.1152 164.061 55.2852 163.719 55.5039 163.434C55.7266 163.148 55.9902 162.93 56.2949 162.777C56.6035 162.621 56.9473 162.543 57.3262 162.543C57.7246 162.543 58.0723 162.613 58.3691 162.754C58.6699 162.891 58.9238 163.092 59.1309 163.357C59.3418 163.619 59.5078 163.936 59.6289 164.307C59.75 164.678 59.834 165.098 59.8809 165.566V166.105C59.8379 166.57 59.7539 166.988 59.6289 167.359C59.5078 167.73 59.3418 168.047 59.1309 168.309C58.9238 168.57 58.6699 168.771 58.3691 168.912C58.0684 169.049 57.7168 169.117 57.3145 169.117C56.9434 169.117 56.6035 169.037 56.2949 168.877C55.9902 168.717 55.7266 168.492 55.5039 168.203C55.2852 167.914 55.1152 167.574 54.9941 167.184C54.877 166.789 54.8184 166.361 54.8184 165.9ZM55.9082 165.777V165.9C55.9082 166.217 55.9395 166.514 56.002 166.791C56.0684 167.068 56.1699 167.312 56.3066 167.523C56.4434 167.734 56.6172 167.9 56.8281 168.021C57.0391 168.139 57.291 168.197 57.584 168.197C57.9434 168.197 58.2383 168.121 58.4688 167.969C58.7031 167.816 58.8906 167.615 59.0312 167.365C59.1719 167.115 59.2812 166.844 59.3594 166.551V165.139C59.3125 164.924 59.2441 164.717 59.1543 164.518C59.0684 164.314 58.9551 164.135 58.8145 163.979C58.6777 163.818 58.5078 163.691 58.3047 163.598C58.1055 163.504 57.8691 163.457 57.5957 163.457C57.2988 163.457 57.043 163.52 56.8281 163.645C56.6172 163.766 56.4434 163.934 56.3066 164.148C56.1699 164.359 56.0684 164.605 56.002 164.887C55.9395 165.164 55.9082 165.461 55.9082 165.777ZM65.7402 167.535V162.66H66.8301V169H65.793L65.7402 167.535ZM65.9453 166.199L66.3965 166.188C66.3965 166.609 66.3516 167 66.2617 167.359C66.1758 167.715 66.0352 168.023 65.8398 168.285C65.6445 168.547 65.3887 168.752 65.0723 168.9C64.7559 169.045 64.3711 169.117 63.918 169.117C63.6094 169.117 63.3262 169.072 63.0684 168.982C62.8145 168.893 62.5957 168.754 62.4121 168.566C62.2285 168.379 62.0859 168.135 61.9844 167.834C61.8867 167.533 61.8379 167.172 61.8379 166.75V162.66H62.9219V166.762C62.9219 167.047 62.9531 167.283 63.0156 167.471C63.082 167.654 63.1699 167.801 63.2793 167.91C63.3926 168.016 63.5176 168.09 63.6543 168.133C63.7949 168.176 63.9395 168.197 64.0879 168.197C64.5488 168.197 64.9141 168.109 65.1836 167.934C65.4531 167.754 65.6465 167.514 65.7637 167.213C65.8848 166.908 65.9453 166.57 65.9453 166.199ZM72.2207 167.916V164.652C72.2207 164.402 72.1699 164.186 72.0684 164.002C71.9707 163.814 71.8223 163.67 71.623 163.568C71.4238 163.467 71.1777 163.416 70.8848 163.416C70.6113 163.416 70.3711 163.463 70.1641 163.557C69.9609 163.65 69.8008 163.773 69.6836 163.926C69.5703 164.078 69.5137 164.242 69.5137 164.418H68.4297C68.4297 164.191 68.4883 163.967 68.6055 163.744C68.7227 163.521 68.8906 163.32 69.1094 163.141C69.332 162.957 69.5977 162.812 69.9062 162.707C70.2188 162.598 70.5664 162.543 70.9492 162.543C71.4102 162.543 71.8164 162.621 72.168 162.777C72.5234 162.934 72.8008 163.17 73 163.486C73.2031 163.799 73.3047 164.191 73.3047 164.664V167.617C73.3047 167.828 73.3223 168.053 73.3574 168.291C73.3965 168.529 73.4531 168.734 73.5273 168.906V169H72.3965C72.3418 168.875 72.2988 168.709 72.2676 168.502C72.2363 168.291 72.2207 168.096 72.2207 167.916ZM72.4082 165.156L72.4199 165.918H71.3242C71.0156 165.918 70.7402 165.943 70.498 165.994C70.2559 166.041 70.0527 166.113 69.8887 166.211C69.7246 166.309 69.5996 166.432 69.5137 166.58C69.4277 166.725 69.3848 166.895 69.3848 167.09C69.3848 167.289 69.4297 167.471 69.5195 167.635C69.6094 167.799 69.7441 167.93 69.9238 168.027C70.1074 168.121 70.332 168.168 70.5977 168.168C70.9297 168.168 71.2227 168.098 71.4766 167.957C71.7305 167.816 71.9316 167.645 72.0801 167.441C72.2324 167.238 72.3145 167.041 72.3262 166.85L72.7891 167.371C72.7617 167.535 72.6875 167.717 72.5664 167.916C72.4453 168.115 72.2832 168.307 72.0801 168.49C71.8809 168.67 71.6426 168.82 71.3652 168.941C71.0918 169.059 70.7832 169.117 70.4395 169.117C70.0098 169.117 69.6328 169.033 69.3086 168.865C68.9883 168.697 68.7383 168.473 68.5586 168.191C68.3828 167.906 68.2949 167.588 68.2949 167.236C68.2949 166.896 68.3613 166.598 68.4941 166.34C68.627 166.078 68.8184 165.861 69.0684 165.689C69.3184 165.514 69.6191 165.381 69.9707 165.291C70.3223 165.201 70.7148 165.156 71.1484 165.156H72.4082ZM77.6641 162.66V163.492H74.2363V162.66H77.6641ZM75.3965 161.119H76.4805V167.43C76.4805 167.645 76.5137 167.807 76.5801 167.916C76.6465 168.025 76.7324 168.098 76.8379 168.133C76.9434 168.168 77.0566 168.186 77.1777 168.186C77.2676 168.186 77.3613 168.178 77.459 168.162C77.5605 168.143 77.6367 168.127 77.6875 168.115L77.6934 169C77.6074 169.027 77.4941 169.053 77.3535 169.076C77.2168 169.104 77.0508 169.117 76.8555 169.117C76.5898 169.117 76.3457 169.064 76.123 168.959C75.9004 168.854 75.7227 168.678 75.5898 168.432C75.4609 168.182 75.3965 167.846 75.3965 167.424V161.119ZM81.5664 169.117C81.125 169.117 80.7246 169.043 80.3652 168.895C80.0098 168.742 79.7031 168.529 79.4453 168.256C79.1914 167.982 78.9961 167.658 78.8594 167.283C78.7227 166.908 78.6543 166.498 78.6543 166.053V165.807C78.6543 165.291 78.7305 164.832 78.8828 164.43C79.0352 164.023 79.2422 163.68 79.5039 163.398C79.7656 163.117 80.0625 162.904 80.3945 162.76C80.7266 162.615 81.0703 162.543 81.4258 162.543C81.8789 162.543 82.2695 162.621 82.5977 162.777C82.9297 162.934 83.2012 163.152 83.4121 163.434C83.623 163.711 83.7793 164.039 83.8809 164.418C83.9824 164.793 84.0332 165.203 84.0332 165.648V166.135H79.2988V165.25H82.9492V165.168C82.9336 164.887 82.875 164.613 82.7734 164.348C82.6758 164.082 82.5195 163.863 82.3047 163.691C82.0898 163.52 81.7969 163.434 81.4258 163.434C81.1797 163.434 80.9531 163.486 80.7461 163.592C80.5391 163.693 80.3613 163.846 80.2129 164.049C80.0645 164.252 79.9492 164.5 79.8672 164.793C79.7852 165.086 79.7441 165.424 79.7441 165.807V166.053C79.7441 166.354 79.7852 166.637 79.8672 166.902C79.9531 167.164 80.0762 167.395 80.2363 167.594C80.4004 167.793 80.5977 167.949 80.8281 168.062C81.0625 168.176 81.3281 168.232 81.625 168.232C82.0078 168.232 82.332 168.154 82.5977 167.998C82.8633 167.842 83.0957 167.633 83.2949 167.371L83.9512 167.893C83.8145 168.1 83.6406 168.297 83.4297 168.484C83.2188 168.672 82.959 168.824 82.6504 168.941C82.3457 169.059 81.9844 169.117 81.5664 169.117ZM89.2949 167.77V160H90.3848V169H89.3887L89.2949 167.77ZM85.0293 165.9V165.777C85.0293 165.293 85.0879 164.854 85.2051 164.459C85.3262 164.061 85.4961 163.719 85.7148 163.434C85.9375 163.148 86.2012 162.93 86.5059 162.777C86.8145 162.621 87.1582 162.543 87.5371 162.543C87.9355 162.543 88.2832 162.613 88.5801 162.754C88.8809 162.891 89.1348 163.092 89.3418 163.357C89.5527 163.619 89.7188 163.936 89.8398 164.307C89.9609 164.678 90.0449 165.098 90.0918 165.566V166.105C90.0488 166.57 89.9648 166.988 89.8398 167.359C89.7188 167.73 89.5527 168.047 89.3418 168.309C89.1348 168.57 88.8809 168.771 88.5801 168.912C88.2793 169.049 87.9277 169.117 87.5254 169.117C87.1543 169.117 86.8145 169.037 86.5059 168.877C86.2012 168.717 85.9375 168.492 85.7148 168.203C85.4961 167.914 85.3262 167.574 85.2051 167.184C85.0879 166.789 85.0293 166.361 85.0293 165.9ZM86.1191 165.777V165.9C86.1191 166.217 86.1504 166.514 86.2129 166.791C86.2793 167.068 86.3809 167.312 86.5176 167.523C86.6543 167.734 86.8281 167.9 87.0391 168.021C87.25 168.139 87.502 168.197 87.7949 168.197C88.1543 168.197 88.4492 168.121 88.6797 167.969C88.9141 167.816 89.1016 167.615 89.2422 167.365C89.3828 167.115 89.4922 166.844 89.5703 166.551V165.139C89.5234 164.924 89.4551 164.717 89.3652 164.518C89.2793 164.314 89.166 164.135 89.0254 163.979C88.8887 163.818 88.7188 163.691 88.5156 163.598C88.3164 163.504 88.0801 163.457 87.8066 163.457C87.5098 163.457 87.2539 163.52 87.0391 163.645C86.8281 163.766 86.6543 163.934 86.5176 164.148C86.3809 164.359 86.2793 164.605 86.2129 164.887C86.1504 165.164 86.1191 165.461 86.1191 165.777ZM99.7598 166.844C99.7598 166.645 99.7285 166.469 99.666 166.316C99.6074 166.16 99.502 166.02 99.3496 165.895C99.2012 165.77 98.9941 165.65 98.7285 165.537C98.4668 165.424 98.1348 165.309 97.7324 165.191C97.3105 165.066 96.9297 164.928 96.5898 164.775C96.25 164.619 95.959 164.441 95.7168 164.242C95.4746 164.043 95.2891 163.814 95.1602 163.557C95.0312 163.299 94.9668 163.004 94.9668 162.672C94.9668 162.34 95.0352 162.033 95.1719 161.752C95.3086 161.471 95.5039 161.227 95.7578 161.02C96.0156 160.809 96.3223 160.645 96.6777 160.527C97.0332 160.41 97.4297 160.352 97.8672 160.352C98.5078 160.352 99.0508 160.475 99.4961 160.721C99.9453 160.963 100.287 161.281 100.521 161.676C100.756 162.066 100.873 162.484 100.873 162.93H99.748C99.748 162.609 99.6797 162.326 99.543 162.08C99.4062 161.83 99.1992 161.635 98.9219 161.494C98.6445 161.35 98.293 161.277 97.8672 161.277C97.4648 161.277 97.1328 161.338 96.8711 161.459C96.6094 161.58 96.4141 161.744 96.2852 161.951C96.1602 162.158 96.0977 162.395 96.0977 162.66C96.0977 162.84 96.1348 163.004 96.209 163.152C96.2871 163.297 96.4062 163.432 96.5664 163.557C96.7305 163.682 96.9375 163.797 97.1875 163.902C97.4414 164.008 97.7441 164.109 98.0957 164.207C98.5801 164.344 98.998 164.496 99.3496 164.664C99.7012 164.832 99.9902 165.021 100.217 165.232C100.447 165.439 100.617 165.676 100.727 165.941C100.84 166.203 100.896 166.5 100.896 166.832C100.896 167.18 100.826 167.494 100.686 167.775C100.545 168.057 100.344 168.297 100.082 168.496C99.8203 168.695 99.5059 168.85 99.1387 168.959C98.7754 169.064 98.3691 169.117 97.9199 169.117C97.5254 169.117 97.1367 169.062 96.7539 168.953C96.375 168.844 96.0293 168.68 95.7168 168.461C95.4082 168.242 95.1602 167.973 94.9727 167.652C94.7891 167.328 94.6973 166.953 94.6973 166.527H95.8223C95.8223 166.82 95.8789 167.072 95.9922 167.283C96.1055 167.49 96.2598 167.662 96.4551 167.799C96.6543 167.936 96.8789 168.037 97.1289 168.104C97.3828 168.166 97.6465 168.197 97.9199 168.197C98.3145 168.197 98.6484 168.143 98.9219 168.033C99.1953 167.924 99.4023 167.768 99.543 167.564C99.6875 167.361 99.7598 167.121 99.7598 166.844ZM104.828 162.66V163.492H101.4V162.66H104.828ZM102.561 161.119H103.645V167.43C103.645 167.645 103.678 167.807 103.744 167.916C103.811 168.025 103.896 168.098 104.002 168.133C104.107 168.168 104.221 168.186 104.342 168.186C104.432 168.186 104.525 168.178 104.623 168.162C104.725 168.143 104.801 168.127 104.852 168.115L104.857 169C104.771 169.027 104.658 169.053 104.518 169.076C104.381 169.104 104.215 169.117 104.02 169.117C103.754 169.117 103.51 169.064 103.287 168.959C103.064 168.854 102.887 168.678 102.754 168.432C102.625 168.182 102.561 167.846 102.561 167.424V161.119ZM109.979 167.535V162.66H111.068V169H110.031L109.979 167.535ZM110.184 166.199L110.635 166.188C110.635 166.609 110.59 167 110.5 167.359C110.414 167.715 110.273 168.023 110.078 168.285C109.883 168.547 109.627 168.752 109.311 168.9C108.994 169.045 108.609 169.117 108.156 169.117C107.848 169.117 107.564 169.072 107.307 168.982C107.053 168.893 106.834 168.754 106.65 168.566C106.467 168.379 106.324 168.135 106.223 167.834C106.125 167.533 106.076 167.172 106.076 166.75V162.66H107.16V166.762C107.16 167.047 107.191 167.283 107.254 167.471C107.32 167.654 107.408 167.801 107.518 167.91C107.631 168.016 107.756 168.09 107.893 168.133C108.033 168.176 108.178 168.197 108.326 168.197C108.787 168.197 109.152 168.109 109.422 167.934C109.691 167.754 109.885 167.514 110.002 167.213C110.123 166.908 110.184 166.57 110.184 166.199ZM116.717 167.77V160H117.807V169H116.811L116.717 167.77ZM112.451 165.9V165.777C112.451 165.293 112.51 164.854 112.627 164.459C112.748 164.061 112.918 163.719 113.137 163.434C113.359 163.148 113.623 162.93 113.928 162.777C114.236 162.621 114.58 162.543 114.959 162.543C115.357 162.543 115.705 162.613 116.002 162.754C116.303 162.891 116.557 163.092 116.764 163.357C116.975 163.619 117.141 163.936 117.262 164.307C117.383 164.678 117.467 165.098 117.514 165.566V166.105C117.471 166.57 117.387 166.988 117.262 167.359C117.141 167.73 116.975 168.047 116.764 168.309C116.557 168.57 116.303 168.771 116.002 168.912C115.701 169.049 115.35 169.117 114.947 169.117C114.576 169.117 114.236 169.037 113.928 168.877C113.623 168.717 113.359 168.492 113.137 168.203C112.918 167.914 112.748 167.574 112.627 167.184C112.51 166.789 112.451 166.361 112.451 165.9ZM113.541 165.777V165.9C113.541 166.217 113.572 166.514 113.635 166.791C113.701 167.068 113.803 167.312 113.939 167.523C114.076 167.734 114.25 167.9 114.461 168.021C114.672 168.139 114.924 168.197 115.217 168.197C115.576 168.197 115.871 168.121 116.102 167.969C116.336 167.816 116.523 167.615 116.664 167.365C116.805 167.115 116.914 166.844 116.992 166.551V165.139C116.945 164.924 116.877 164.717 116.787 164.518C116.701 164.314 116.588 164.135 116.447 163.979C116.311 163.818 116.141 163.691 115.938 163.598C115.738 163.504 115.502 163.457 115.229 163.457C114.932 163.457 114.676 163.52 114.461 163.645C114.25 163.766 114.076 163.934 113.939 164.148C113.803 164.359 113.701 164.605 113.635 164.887C113.572 165.164 113.541 165.461 113.541 165.777ZM122.125 169.117C121.684 169.117 121.283 169.043 120.924 168.895C120.568 168.742 120.262 168.529 120.004 168.256C119.75 167.982 119.555 167.658 119.418 167.283C119.281 166.908 119.213 166.498 119.213 166.053V165.807C119.213 165.291 119.289 164.832 119.441 164.43C119.594 164.023 119.801 163.68 120.062 163.398C120.324 163.117 120.621 162.904 120.953 162.76C121.285 162.615 121.629 162.543 121.984 162.543C122.438 162.543 122.828 162.621 123.156 162.777C123.488 162.934 123.76 163.152 123.971 163.434C124.182 163.711 124.338 164.039 124.439 164.418C124.541 164.793 124.592 165.203 124.592 165.648V166.135H119.857V165.25H123.508V165.168C123.492 164.887 123.434 164.613 123.332 164.348C123.234 164.082 123.078 163.863 122.863 163.691C122.648 163.52 122.355 163.434 121.984 163.434C121.738 163.434 121.512 163.486 121.305 163.592C121.098 163.693 120.92 163.846 120.771 164.049C120.623 164.252 120.508 164.5 120.426 164.793C120.344 165.086 120.303 165.424 120.303 165.807V166.053C120.303 166.354 120.344 166.637 120.426 166.902C120.512 167.164 120.635 167.395 120.795 167.594C120.959 167.793 121.156 167.949 121.387 168.062C121.621 168.176 121.887 168.232 122.184 168.232C122.566 168.232 122.891 168.154 123.156 167.998C123.422 167.842 123.654 167.633 123.854 167.371L124.51 167.893C124.373 168.1 124.199 168.297 123.988 168.484C123.777 168.672 123.518 168.824 123.209 168.941C122.904 169.059 122.543 169.117 122.125 169.117ZM126.941 164.014V169H125.857V162.66H126.883L126.941 164.014ZM126.684 165.59L126.232 165.572C126.236 165.139 126.301 164.738 126.426 164.371C126.551 164 126.727 163.678 126.953 163.404C127.18 163.131 127.449 162.92 127.762 162.771C128.078 162.619 128.428 162.543 128.811 162.543C129.123 162.543 129.404 162.586 129.654 162.672C129.904 162.754 130.117 162.887 130.293 163.07C130.473 163.254 130.609 163.492 130.703 163.785C130.797 164.074 130.844 164.428 130.844 164.846V169H129.754V164.834C129.754 164.502 129.705 164.236 129.607 164.037C129.51 163.834 129.367 163.688 129.18 163.598C128.992 163.504 128.762 163.457 128.488 163.457C128.219 163.457 127.973 163.514 127.75 163.627C127.531 163.74 127.342 163.896 127.182 164.096C127.025 164.295 126.902 164.523 126.812 164.781C126.727 165.035 126.684 165.305 126.684 165.59ZM135.145 162.66V163.492H131.717V162.66H135.145ZM132.877 161.119H133.961V167.43C133.961 167.645 133.994 167.807 134.061 167.916C134.127 168.025 134.213 168.098 134.318 168.133C134.424 168.168 134.537 168.186 134.658 168.186C134.748 168.186 134.842 168.178 134.939 168.162C135.041 168.143 135.117 168.127 135.168 168.115L135.174 169C135.088 169.027 134.975 169.053 134.834 169.076C134.697 169.104 134.531 169.117 134.336 169.117C134.07 169.117 133.826 169.064 133.604 168.959C133.381 168.854 133.203 168.678 133.07 168.432C132.941 168.182 132.877 167.846 132.877 167.424V161.119ZM140.107 167.318C140.107 167.162 140.072 167.018 140.002 166.885C139.936 166.748 139.797 166.625 139.586 166.516C139.379 166.402 139.066 166.305 138.648 166.223C138.297 166.148 137.979 166.061 137.693 165.959C137.412 165.857 137.172 165.734 136.973 165.59C136.777 165.445 136.627 165.275 136.521 165.08C136.416 164.885 136.363 164.656 136.363 164.395C136.363 164.145 136.418 163.908 136.527 163.686C136.641 163.463 136.799 163.266 137.002 163.094C137.209 162.922 137.457 162.787 137.746 162.689C138.035 162.592 138.357 162.543 138.713 162.543C139.221 162.543 139.654 162.633 140.014 162.812C140.373 162.992 140.648 163.232 140.84 163.533C141.031 163.83 141.127 164.16 141.127 164.523H140.043C140.043 164.348 139.99 164.178 139.885 164.014C139.783 163.846 139.633 163.707 139.434 163.598C139.238 163.488 138.998 163.434 138.713 163.434C138.412 163.434 138.168 163.48 137.98 163.574C137.797 163.664 137.662 163.779 137.576 163.92C137.494 164.061 137.453 164.209 137.453 164.365C137.453 164.482 137.473 164.588 137.512 164.682C137.555 164.771 137.629 164.855 137.734 164.934C137.84 165.008 137.988 165.078 138.18 165.145C138.371 165.211 138.615 165.277 138.912 165.344C139.432 165.461 139.859 165.602 140.195 165.766C140.531 165.93 140.781 166.131 140.945 166.369C141.109 166.607 141.191 166.896 141.191 167.236C141.191 167.514 141.133 167.768 141.016 167.998C140.902 168.229 140.736 168.428 140.518 168.596C140.303 168.76 140.045 168.889 139.744 168.982C139.447 169.072 139.113 169.117 138.742 169.117C138.184 169.117 137.711 169.018 137.324 168.818C136.938 168.619 136.645 168.361 136.445 168.045C136.246 167.729 136.146 167.395 136.146 167.043H137.236C137.252 167.34 137.338 167.576 137.494 167.752C137.65 167.924 137.842 168.047 138.068 168.121C138.295 168.191 138.52 168.227 138.742 168.227C139.039 168.227 139.287 168.188 139.486 168.109C139.689 168.031 139.844 167.924 139.949 167.787C140.055 167.65 140.107 167.494 140.107 167.318Z" fill="#3F3F3F"/>
</svg>
