<svg width="230" height="180" viewBox="0 0 230 180" fill="none" xmlns="http://www.w3.org/2000/svg">
<rect width="230" height="180" rx="10" fill="white"/>
<path d="M157.414 68.0296C174.819 68.0296 188.929 53.9199 188.929 36.5148C188.929 19.1097 174.819 5 157.414 5C140.009 5 125.899 19.1097 125.899 36.5148C125.899 53.9199 140.009 68.0296 157.414 68.0296Z" fill="#E5F1FF"/>
<path d="M89.2378 115.975C96.4311 108.782 96.4311 97.1189 89.2378 89.9256C82.0446 82.7323 70.3819 82.7323 63.1887 89.9256C55.9954 97.1189 55.9954 108.782 63.1887 115.975C70.3819 123.168 82.0446 123.168 89.2378 115.975Z" fill="#E5F1FF"/>
<path d="M75.9691 15.5049C66.6689 15.5049 59.1299 23.0443 59.1299 32.3445C59.1299 41.6447 66.6693 49.1841 75.9691 49.1841C85.2693 49.1841 92.8087 41.6447 92.8087 32.3445C92.8083 23.0443 85.2689 15.5049 75.9691 15.5049ZM75.9691 43.1106C70.0231 43.1106 65.203 38.2905 65.203 32.3445C65.203 26.3985 70.0231 21.5783 75.9691 21.5783C81.9151 21.5783 86.7352 26.3985 86.7352 32.3445C86.7352 38.2905 81.9148 43.1106 75.9691 43.1106Z" fill="#A9CCEA"/>
<path d="M139.589 123.168C139.589 124.235 138.724 125.1 137.656 125.1H88.7946C87.7275 125.1 86.8623 124.235 86.8623 123.168C86.8623 122.1 87.7275 121.235 88.7946 121.235H106.14L108.533 116.818H112.673H113.778H117.918L120.311 121.235H137.656C138.724 121.235 139.589 122.1 139.589 123.168Z" fill="#0F3157"/>
<path d="M116.825 112.815H108.819V115.162H116.825V112.815Z" fill="#FF4D6B"/>
<path d="M116.825 108.951H108.819V111.298H116.825V108.951Z" fill="#FF4D6B"/>
<path d="M176.563 101.01C175.171 101.545 173.658 101.837 172.078 101.837C165.164 101.837 159.559 96.2325 159.559 89.3181C159.559 82.4037 165.163 76.7988 172.078 76.7988C178.992 76.7988 184.597 82.4037 184.597 89.3181C184.597 91.1707 184.194 92.9293 183.472 94.5113" stroke="#FF4D6B" stroke-width="1.1276" stroke-miterlimit="10" stroke-linecap="round" stroke-linejoin="round"/>
<path d="M141.215 30.5442H139.216C138.801 28.7683 138.102 27.1022 137.167 25.597L138.58 24.1839C139.189 23.5747 139.189 22.5869 138.58 21.9777L135.44 18.8379C134.831 18.2287 133.843 18.2287 133.234 18.8379L131.821 20.2506C130.316 19.3153 128.65 18.6169 126.874 18.2023V16.2035C126.874 15.342 126.176 14.6436 125.314 14.6436H120.874C120.013 14.6436 119.314 15.342 119.314 16.2035V18.2023C117.538 18.6169 115.872 19.3157 114.367 20.2506L112.954 18.8379C112.345 18.2287 111.357 18.2287 110.748 18.8379L107.608 21.9777C106.999 22.5869 106.999 23.5747 107.608 24.1839L109.022 25.597C108.086 27.1018 107.388 28.7679 106.973 30.5442H104.974C104.113 30.5442 103.414 31.2426 103.414 32.1041V36.5442C103.414 37.4057 104.113 38.1041 104.974 38.1041H106.973C107.387 39.88 108.086 41.5461 109.021 43.0513L107.608 44.4644C106.999 45.0736 106.999 46.0614 107.608 46.6706L110.748 49.8103C111.357 50.4196 112.345 50.4196 112.954 49.8103L114.367 48.3976C115.872 49.333 117.538 50.0314 119.314 50.4464V52.4451C119.314 53.3066 120.013 54.0051 120.874 54.0051H125.314C126.176 54.0051 126.874 53.3066 126.874 52.4451V50.4464C128.65 50.0314 130.316 49.333 131.821 48.3976L133.234 49.8103C133.844 50.4196 134.832 50.4196 135.441 49.8103L138.58 46.6706C139.19 46.0614 139.19 45.0736 138.58 44.4644L137.167 43.0513C138.103 41.5464 138.801 39.8804 139.216 38.1041H141.215C142.076 38.1041 142.775 37.4057 142.775 36.5442V32.1041C142.774 31.2422 142.076 30.5442 141.215 30.5442ZM123.094 42.2441C118.721 42.2441 115.175 38.6983 115.175 34.324C115.175 29.95 118.721 26.4041 123.094 26.4041C127.468 26.4041 131.015 29.95 131.015 34.324C131.015 38.6983 127.469 42.2441 123.094 42.2441Z" fill="#289DF2"/>
<path d="M58.2256 107.896C55.9 107.896 54.0146 106.011 54.0146 103.685V37.7826C54.0146 35.4566 55.9 33.5713 58.2259 33.5713H168.226C170.551 33.5713 172.437 35.4566 172.437 37.7822V103.685C172.437 106.01 170.552 107.896 168.226 107.896H58.2256V107.896Z" fill="#0F3775"/>
<path d="M74.865 42.7666H62.6494V45.4583H74.865V42.7666Z" fill="#284D89"/>
<path d="M89.5642 42.7666H77.3486V45.4583H89.5642V42.7666Z" fill="#284D89"/>
<path d="M126.832 42.7666H114.616V45.4583H126.832V42.7666Z" fill="#284D89"/>
<path d="M164.099 42.7666H151.884V45.4583H164.099V42.7666Z" fill="#284D89"/>
<path d="M113.064 42.7666H91.2207V45.4583H113.064V42.7666Z" fill="#FF4D6B"/>
<path d="M150.124 42.7666H128.281V45.4583H150.124V42.7666Z" fill="#2889DB"/>
<path d="M64.8582 40.627H62.7188V41.9383H64.8582V40.627Z" fill="#2889DB"/>
<path d="M85.0426 47.666H62.7168V48.9774H85.0426V47.666Z" fill="white"/>
<path d="M69.3422 49.9775H62.7168V51.2889H69.3422V49.9775Z" fill="white"/>
<path d="M86.3556 98.4601H65.6514C64.1076 98.4601 62.8564 97.2086 62.8564 95.6652V58.1904C62.8564 56.6466 64.1079 55.3955 65.6514 55.3955H86.3556C87.8994 55.3955 89.1505 56.647 89.1505 58.1904V95.6652C89.1505 97.2086 87.8994 98.4601 86.3556 98.4601Z" fill="#284D89"/>
<path d="M74.9683 61.7109H66.1689V63.0568H74.9683V61.7109Z" fill="white"/>
<path d="M74.9683 64.7129H66.1689V66.0587H74.9683V64.7129Z" fill="white"/>
<path d="M74.9683 67.7148H66.1689V69.0607H74.9683V67.7148Z" fill="white"/>
<path d="M71.552 80.2412H66.1689V81.5871H71.552V80.2412Z" fill="white"/>
<path d="M71.552 83.2432H66.1689V84.589H71.552V83.2432Z" fill="white"/>
<path d="M80.8001 83.2432H75.417V84.589H80.8001V83.2432Z" fill="white"/>
<path d="M69.5507 76.8252H66.1689V78.1711H69.5507V76.8252Z" fill="white"/>
<path d="M82.4563 76.8252H80.6621V78.1711H82.4563V76.8252Z" fill="white"/>
<path d="M79.9707 76.8252H70.7227V78.1711H79.9707V76.8252Z" fill="#FF4D6B"/>
<path d="M67.463 71.752H66.1689V73.0978H67.463V71.752Z" fill="#2889DB"/>
<path d="M67.463 74.1328H66.1689V75.4787H67.463V74.1328Z" fill="#FF4D6B"/>
<path d="M73.3456 84.8652H72.8623L74.0183 83.1396H74.5016L73.3456 84.8652Z" fill="white"/>
<path d="M86.1486 87.1768H66.1689V88.3155H86.1486V87.1768Z" fill="#282E5C"/>
<path d="M86.1486 89.7656H66.1689V90.9044H86.1486V89.7656Z" fill="#282E5C"/>
<path d="M182.25 73.2013H127.315C125.942 73.2013 124.83 72.089 124.83 70.7167V55.8098C124.83 54.4375 125.942 53.3252 127.315 53.3252H182.25C183.622 53.3252 184.735 54.4375 184.735 55.8098V70.7167C184.734 72.089 183.622 73.2013 182.25 73.2013Z" fill="#289DF2"/>
<path d="M142.637 66.1626C142.637 66.1626 145.673 58.7092 154.369 60.5034C163.065 62.2976 167.482 72.0976 178.662 64.0922" stroke="white" stroke-width="1.1276" stroke-miterlimit="10"/>
<path d="M170.793 66.5762H169.551V67.8185H170.793V66.5762Z" fill="#289DF2" stroke="white" stroke-width="1.1276" stroke-miterlimit="10"/>
<path d="M144.154 60.1572H159.889" stroke="white" stroke-width="0.5638" stroke-miterlimit="10"/>
<path d="M162.306 67.543H178.041" stroke="white" stroke-width="0.5638" stroke-miterlimit="10"/>
<path d="M152.023 59.5361H150.78V60.7784H152.023V59.5361Z" fill="#289DF2" stroke="white" stroke-width="1.1276" stroke-miterlimit="10"/>
<path d="M135.32 78.3092H123.45C122.458 78.3092 121.655 77.5058 121.655 76.515V58.7093C121.655 57.7181 122.459 56.915 123.45 56.915H135.32C136.311 56.915 137.114 57.7185 137.114 58.7093V76.515C137.114 77.5058 136.311 78.3092 135.32 78.3092Z" fill="#284D89"/>
<path d="M132.87 59.9512H124.07V61.1645H132.87V59.9512Z" fill="white"/>
<path d="M132.87 62.6572H124.07V63.8705H132.87V62.6572Z" fill="white"/>
<path d="M127.383 65.3643H124.07V66.5776H127.383V65.3643Z" fill="white"/>
<path d="M129.799 68.1641H124.07V69.3774H129.799V68.1641Z" fill="#289DF2"/>
<path d="M127.935 70.8701H124.07V72.0834H127.935V70.8701Z" fill="#289DF2"/>
<path d="M127.935 73.5771H124.07V74.7904H127.935V73.5771Z" fill="white"/>
<path d="M175.072 50.6338H181.284" stroke="#284D89" stroke-width="2.2552" stroke-miterlimit="10" stroke-linecap="round" stroke-linejoin="round"/>
<path d="M161.117 85.68L158.973 87.3579L155.897 87.9171C155.897 87.9171 153.008 87.7306 152.728 87.7306C152.449 87.7306 150.492 86.146 150.492 86.146L146.856 84.8413L144.34 85.7733L141.357 85.1208L136.883 84.841L132.596 86.5188L129.054 87.0781L125.885 88.1033L122.343 88.3831L118.522 85.4006L114.98 84.748L111.345 86.7986L108.456 87.7306L105.176 87.6373L101.041 90.1539H98.5763L94.4131 91.6139" stroke="#FF5C66" stroke-width="1.0152" stroke-miterlimit="10"/>
<path d="M94.4746 91.6768H161.209" stroke="#F7F7F7" stroke-width="0.2538" stroke-miterlimit="10"/>
<path d="M94.5057 90.8369H93.8223V92.5147H94.5057V90.8369Z" fill="#F7F7F7"/>
<path d="M161.489 90.8369H160.806V92.5147H161.489V90.8369Z" fill="#F7F7F7"/>
<path d="M161.147 91.6763V86.0527" stroke="#F7F7F7" stroke-width="0.2538" stroke-miterlimit="10"/>
<path d="M161.52 85.7732C161.52 86.0648 161.284 86.3012 160.992 86.3012C160.7 86.3012 160.464 86.0648 160.464 85.7732C160.464 85.4816 160.7 85.2451 160.992 85.2451C161.284 85.2451 161.52 85.4816 161.52 85.7732Z" fill="#F7F7F7"/>
<path d="M94.2642 96V93.8182H94.5156V94.6236H94.5369C94.5554 94.5952 94.581 94.5589 94.6136 94.5149C94.647 94.4702 94.6946 94.4304 94.7564 94.3956C94.8189 94.3601 94.9034 94.3423 95.0099 94.3423C95.1477 94.3423 95.2692 94.3768 95.3743 94.4457C95.4794 94.5146 95.5614 94.6122 95.6204 94.7386C95.6793 94.8651 95.7088 95.0142 95.7088 95.1861C95.7088 95.3594 95.6793 95.5096 95.6204 95.6367C95.5614 95.7631 95.4798 95.8612 95.3754 95.9308C95.271 95.9996 95.1506 96.0341 95.0142 96.0341C94.9091 96.0341 94.8249 96.0167 94.7617 95.9819C94.6985 95.9464 94.6499 95.9062 94.6158 95.8615C94.5817 95.8161 94.5554 95.7784 94.5369 95.7486H94.5071V96H94.2642ZM94.5114 95.1818C94.5114 95.3054 94.5295 95.4144 94.5657 95.5089C94.6019 95.6026 94.6548 95.6761 94.7244 95.7294C94.794 95.782 94.8793 95.8082 94.9801 95.8082C95.0852 95.8082 95.1729 95.7805 95.2433 95.7251C95.3143 95.669 95.3675 95.5937 95.4031 95.4993C95.4393 95.4041 95.4574 95.2983 95.4574 95.1818C95.4574 95.0668 95.4396 94.9631 95.4041 94.8707C95.3693 94.7777 95.3164 94.7042 95.2454 94.6502C95.1751 94.5955 95.0866 94.5682 94.9801 94.5682C94.8778 94.5682 94.7919 94.5941 94.7223 94.646C94.6527 94.6971 94.6001 94.7688 94.5646 94.8612C94.5291 94.9528 94.5114 95.0597 94.5114 95.1818ZM96.7795 96.0341C96.6218 96.0341 96.4858 95.9993 96.3714 95.9297C96.2578 95.8594 96.1701 95.7614 96.1083 95.6357C96.0472 95.5092 96.0167 95.3622 96.0167 95.1946C96.0167 95.027 96.0472 94.8793 96.1083 94.7514C96.1701 94.6229 96.256 94.5227 96.3661 94.451C96.4769 94.3786 96.6062 94.3423 96.7539 94.3423C96.8391 94.3423 96.9233 94.3565 97.0064 94.3849C97.0895 94.4134 97.1651 94.4595 97.2333 94.5234C97.3015 94.5866 97.3558 94.6705 97.3963 94.7749C97.4368 94.8793 97.457 95.0078 97.457 95.1605V95.267H96.1957V95.0497H97.2013C97.2013 94.9574 97.1829 94.875 97.146 94.8026C97.1097 94.7301 97.0579 94.6729 96.9904 94.631C96.9237 94.5891 96.8448 94.5682 96.7539 94.5682C96.6538 94.5682 96.5671 94.593 96.494 94.6428C96.4215 94.6918 96.3658 94.7557 96.3267 94.8345C96.2876 94.9134 96.2681 94.9979 96.2681 95.0881V95.233C96.2681 95.3565 96.2894 95.4613 96.332 95.5472C96.3754 95.6325 96.4354 95.6974 96.5121 95.7422C96.5888 95.7862 96.6779 95.8082 96.7795 95.8082C96.8455 95.8082 96.9052 95.799 96.9585 95.7805C97.0124 95.7614 97.0589 95.733 97.098 95.6953C97.1371 95.657 97.1673 95.6094 97.1886 95.5526L97.4315 95.6207C97.4059 95.7031 97.3629 95.7756 97.3026 95.8381C97.2422 95.8999 97.1676 95.9482 97.0788 95.983C96.9901 96.017 96.8903 96.0341 96.7795 96.0341ZM98.5511 94.3636V94.5767H97.7031V94.3636H98.5511ZM97.9503 93.9716H98.2017V95.5312C98.2017 95.6023 98.212 95.6555 98.2326 95.6911C98.2539 95.7259 98.2809 95.7493 98.3136 95.7614C98.3469 95.7727 98.3821 95.7784 98.419 95.7784C98.4467 95.7784 98.4695 95.777 98.4872 95.7741C98.505 95.7706 98.5192 95.7678 98.5298 95.7656L98.581 95.9915C98.5639 95.9979 98.5401 96.0043 98.5096 96.0107C98.479 96.0178 98.4403 96.0213 98.3935 96.0213C98.3224 96.0213 98.2528 96.006 98.1847 95.9755C98.1172 95.945 98.0611 95.8984 98.0163 95.8359C97.9723 95.7734 97.9503 95.6946 97.9503 95.5994V93.9716ZM99.4109 96.0384C99.3072 96.0384 99.2131 96.0188 99.1286 95.9798C99.044 95.94 98.9769 95.8828 98.9272 95.8082C98.8775 95.733 98.8526 95.642 98.8526 95.5355C98.8526 95.4418 98.8711 95.3658 98.908 95.3075C98.945 95.2486 98.9943 95.2024 99.0561 95.169C99.1179 95.1357 99.1861 95.1108 99.2607 95.0945C99.3359 95.0774 99.4116 95.0639 99.4876 95.054C99.587 95.0412 99.6676 95.0316 99.7294 95.0252C99.7919 95.0181 99.8374 95.0064 99.8658 94.9901C99.8949 94.9737 99.9094 94.9453 99.9094 94.9048V94.8963C99.9094 94.7912 99.8807 94.7095 99.8232 94.6513C99.7663 94.593 99.68 94.5639 99.5643 94.5639C99.4442 94.5639 99.3501 94.5902 99.282 94.6428C99.2138 94.6953 99.1658 94.7514 99.1381 94.8111L98.8995 94.7259C98.9421 94.6264 98.9989 94.549 99.07 94.4936C99.1417 94.4375 99.2198 94.3984 99.3043 94.3764C99.3896 94.3537 99.4734 94.3423 99.5558 94.3423C99.6083 94.3423 99.6687 94.3487 99.7369 94.3615C99.8058 94.3736 99.8722 94.3988 99.9361 94.4371C100.001 94.4755 100.054 94.5334 100.097 94.6108C100.14 94.6882 100.161 94.7919 100.161 94.9219V96H99.9094V95.7784H99.8967C99.8796 95.8139 99.8512 95.8519 99.8114 95.8924C99.7717 95.9329 99.7188 95.9673 99.6527 95.9957C99.5866 96.0241 99.506 96.0384 99.4109 96.0384ZM99.4492 95.8125C99.5487 95.8125 99.6325 95.793 99.7006 95.7539C99.7695 95.7148 99.8214 95.6644 99.8562 95.6026C99.8917 95.5408 99.9094 95.4759 99.9094 95.4077V95.1776C99.8988 95.1903 99.8754 95.2021 99.8391 95.2127C99.8036 95.2227 99.7624 95.2315 99.7156 95.2393C99.6694 95.2464 99.6243 95.2528 99.5803 95.2585C99.5369 95.2635 99.5018 95.2678 99.4748 95.2713C99.4094 95.2798 99.3484 95.2937 99.2915 95.3129C99.2354 95.3313 99.19 95.3594 99.1552 95.397C99.1211 95.4339 99.104 95.4844 99.104 95.5483C99.104 95.6357 99.1364 95.7017 99.201 95.7464C99.2663 95.7905 99.3491 95.8125 99.4492 95.8125ZM102.175 94.3636V94.5767H101.327V94.3636H102.175ZM101.574 93.9716H101.826V95.5312C101.826 95.6023 101.836 95.6555 101.857 95.6911C101.878 95.7259 101.905 95.7493 101.938 95.7614C101.971 95.7727 102.006 95.7784 102.043 95.7784C102.071 95.7784 102.093 95.777 102.111 95.7741C102.129 95.7706 102.143 95.7678 102.154 95.7656L102.205 95.9915C102.188 95.9979 102.164 96.0043 102.134 96.0107C102.103 96.0178 102.064 96.0213 102.017 96.0213C101.946 96.0213 101.877 96.006 101.809 95.9755C101.741 95.945 101.685 95.8984 101.64 95.8359C101.596 95.7734 101.574 95.6946 101.574 95.5994V93.9716ZM103.222 96.0341C103.064 96.0341 102.928 95.9993 102.814 95.9297C102.7 95.8594 102.612 95.7614 102.551 95.6357C102.49 95.5092 102.459 95.3622 102.459 95.1946C102.459 95.027 102.49 94.8793 102.551 94.7514C102.612 94.6229 102.698 94.5227 102.809 94.451C102.919 94.3786 103.049 94.3423 103.196 94.3423C103.282 94.3423 103.366 94.3565 103.449 94.3849C103.532 94.4134 103.608 94.4595 103.676 94.5234C103.744 94.5866 103.798 94.6705 103.839 94.7749C103.879 94.8793 103.899 95.0078 103.899 95.1605V95.267H102.638V95.0497H103.644C103.644 94.9574 103.625 94.875 103.588 94.8026C103.552 94.7301 103.5 94.6729 103.433 94.631C103.366 94.5891 103.287 94.5682 103.196 94.5682C103.096 94.5682 103.009 94.593 102.936 94.6428C102.864 94.6918 102.808 94.7557 102.769 94.8345C102.73 94.9134 102.71 94.9979 102.71 95.0881V95.233C102.71 95.3565 102.732 95.4613 102.774 95.5472C102.818 95.6325 102.878 95.6974 102.954 95.7422C103.031 95.7862 103.12 95.8082 103.222 95.8082C103.288 95.8082 103.348 95.799 103.401 95.7805C103.455 95.7614 103.501 95.733 103.54 95.6953C103.579 95.657 103.61 95.6094 103.631 95.5526L103.874 95.6207C103.848 95.7031 103.805 95.7756 103.745 95.8381C103.685 95.8999 103.61 95.9482 103.521 95.983C103.432 96.017 103.333 96.0341 103.222 96.0341ZM105.441 94.7301L105.215 94.794C105.201 94.7564 105.18 94.7198 105.152 94.6843C105.125 94.6481 105.088 94.6183 105.041 94.5948C104.995 94.5714 104.935 94.5597 104.861 94.5597C104.761 94.5597 104.678 94.5827 104.611 94.6289C104.545 94.6744 104.512 94.7322 104.512 94.8026C104.512 94.8651 104.535 94.9144 104.58 94.9506C104.626 94.9869 104.697 95.017 104.793 95.0412L105.036 95.1009C105.182 95.1364 105.291 95.1907 105.363 95.2638C105.435 95.3363 105.471 95.4297 105.471 95.544C105.471 95.6378 105.444 95.7216 105.39 95.7955C105.337 95.8693 105.262 95.9276 105.166 95.9702C105.07 96.0128 104.959 96.0341 104.832 96.0341C104.665 96.0341 104.527 95.9979 104.417 95.9254C104.308 95.853 104.239 95.7472 104.209 95.608L104.448 95.5483C104.471 95.6364 104.514 95.7024 104.577 95.7464C104.641 95.7905 104.724 95.8125 104.827 95.8125C104.945 95.8125 105.038 95.7876 105.106 95.7379C105.176 95.6875 105.211 95.6271 105.211 95.5568C105.211 95.5 105.191 95.4524 105.151 95.4141C105.111 95.375 105.05 95.3459 104.968 95.3267L104.695 95.2628C104.545 95.2273 104.435 95.1722 104.365 95.0977C104.295 95.0224 104.261 94.9283 104.261 94.8153C104.261 94.723 104.286 94.6413 104.338 94.5703C104.391 94.4993 104.462 94.4435 104.552 94.4031C104.643 94.3626 104.746 94.3423 104.861 94.3423C105.023 94.3423 105.15 94.3778 105.243 94.4489C105.336 94.5199 105.402 94.6136 105.441 94.7301ZM106.561 94.3636V94.5767H105.713V94.3636H106.561ZM105.96 93.9716H106.211V95.5312C106.211 95.6023 106.222 95.6555 106.242 95.6911C106.264 95.7259 106.291 95.7493 106.323 95.7614C106.357 95.7727 106.392 95.7784 106.429 95.7784C106.456 95.7784 106.479 95.777 106.497 95.7741C106.515 95.7706 106.529 95.7678 106.54 95.7656L106.591 95.9915C106.574 95.9979 106.55 96.0043 106.519 96.0107C106.489 96.0178 106.45 96.0213 106.403 96.0213C106.332 96.0213 106.263 96.006 106.194 95.9755C106.127 95.945 106.071 95.8984 106.026 95.8359C105.982 95.7734 105.96 95.6946 105.96 95.5994V93.9716Z" fill="#F7F7F7"/>
<path d="M151.392 94.1006H109.885V94.846H151.392V94.1006Z" fill="#28385E"/>
<path d="M135.361 94.1006H109.885V94.846H135.361V94.1006Z" fill="#FF4D6B"/>
<path d="M130.297 95.5283H109.885V96.2738H130.297V95.5283Z" fill="#28385E"/>
<path d="M96.9457 97.75H99.4623L99.7887 97.0508H94.709V98.216H96.4797L96.9457 97.75Z" fill="#FF4D6B"/>
<path d="M102.162 97.043H101.882V97.3224H102.162V97.043Z" fill="#F7F7F7"/>
<path d="M103.897 97.043H103.617V97.3224H103.897V97.043Z" fill="#F7F7F7"/>
<path d="M105.633 97.043H105.354V97.3224H105.633V97.043Z" fill="#F7F7F7"/>
<path d="M158.21 84.0398C158.044 84.0398 157.893 84.0066 157.76 83.9403C157.626 83.8741 157.519 83.7831 157.439 83.6676C157.358 83.5521 157.314 83.4205 157.307 83.2727H157.648C157.661 83.4044 157.721 83.5133 157.827 83.5994C157.934 83.6847 158.062 83.7273 158.21 83.7273C158.33 83.7273 158.436 83.6993 158.528 83.6435C158.622 83.5876 158.696 83.5109 158.749 83.4134C158.803 83.3149 158.83 83.2036 158.83 83.0795C158.83 82.9527 158.802 82.8395 158.746 82.7401C158.691 82.6397 158.615 82.5606 158.518 82.5028C158.422 82.4451 158.312 82.4157 158.188 82.4148C158.098 82.4138 158.007 82.4276 157.913 82.456C157.82 82.4834 157.742 82.5189 157.682 82.5625L157.352 82.5227L157.528 81.0909H159.04V81.4034H157.824L157.722 82.2614H157.739C157.798 82.214 157.873 82.1747 157.963 82.1435C158.053 82.1122 158.147 82.0966 158.244 82.0966C158.422 82.0966 158.581 82.1392 158.72 82.2244C158.86 82.3087 158.97 82.4242 159.05 82.571C159.13 82.7178 159.17 82.8854 159.17 83.0739C159.17 83.2595 159.129 83.4252 159.045 83.571C158.963 83.7159 158.849 83.8305 158.705 83.9148C158.56 83.9981 158.395 84.0398 158.21 84.0398ZM160.684 84.0398C160.47 84.0398 160.287 83.9815 160.137 83.8651C159.986 83.7476 159.871 83.5777 159.792 83.3551C159.712 83.1316 159.672 82.8617 159.672 82.5455C159.672 82.2311 159.712 81.9626 159.792 81.7401C159.872 81.5166 159.988 81.3461 160.138 81.2287C160.29 81.1103 160.471 81.0511 160.684 81.0511C160.896 81.0511 161.077 81.1103 161.228 81.2287C161.379 81.3461 161.495 81.5166 161.574 81.7401C161.655 81.9626 161.695 82.2311 161.695 82.5455C161.695 82.8617 161.655 83.1316 161.576 83.3551C161.496 83.5777 161.381 83.7476 161.23 83.8651C161.08 83.9815 160.898 84.0398 160.684 84.0398ZM160.684 83.7273C160.896 83.7273 161.06 83.625 161.178 83.4205C161.295 83.2159 161.354 82.9242 161.354 82.5455C161.354 82.2936 161.327 82.0791 161.273 81.902C161.22 81.7249 161.143 81.59 161.043 81.4972C160.944 81.4044 160.824 81.358 160.684 81.358C160.473 81.358 160.309 81.4616 160.191 81.669C160.072 81.8755 160.013 82.1676 160.013 82.5455C160.013 82.7973 160.04 83.0114 160.093 83.1875C160.146 83.3636 160.222 83.4976 160.321 83.5895C160.422 83.6813 160.542 83.7273 160.684 83.7273ZM163.184 84.0398C162.97 84.0398 162.787 83.9815 162.637 83.8651C162.486 83.7476 162.371 83.5777 162.292 83.3551C162.212 83.1316 162.172 82.8617 162.172 82.5455C162.172 82.2311 162.212 81.9626 162.292 81.7401C162.372 81.5166 162.488 81.3461 162.638 81.2287C162.79 81.1103 162.971 81.0511 163.184 81.0511C163.396 81.0511 163.577 81.1103 163.728 81.2287C163.879 81.3461 163.995 81.5166 164.074 81.7401C164.155 81.9626 164.195 82.2311 164.195 82.5455C164.195 82.8617 164.155 83.1316 164.076 83.3551C163.996 83.5777 163.881 83.7476 163.73 83.8651C163.58 83.9815 163.398 84.0398 163.184 84.0398ZM163.184 83.7273C163.396 83.7273 163.56 83.625 163.678 83.4205C163.795 83.2159 163.854 82.9242 163.854 82.5455C163.854 82.2936 163.827 82.0791 163.773 81.902C163.72 81.7249 163.643 81.59 163.543 81.4972C163.444 81.4044 163.324 81.358 163.184 81.358C162.973 81.358 162.809 81.4616 162.691 81.669C162.572 81.8755 162.513 82.1676 162.513 82.5455C162.513 82.7973 162.54 83.0114 162.593 83.1875C162.646 83.3636 162.722 83.4976 162.821 83.5895C162.922 83.6813 163.042 83.7273 163.184 83.7273Z" fill="#F7F7F7"/>
<path d="M154.376 96.3363H153.754L152.76 94.0996H153.381L154.376 96.3363Z" fill="#28385E"/>
<path d="M155.991 96.3363H155.37L154.376 94.0996H154.997L155.991 96.3363Z" fill="#28385E"/>
<path d="M157.606 96.3363H156.984L155.99 94.0996H156.612L157.606 96.3363Z" fill="#28385E"/>
<path d="M159.222 96.3363H158.601L157.606 94.0996H158.228L159.222 96.3363Z" fill="#28385E"/>
<path d="M160.807 96.3363H160.185L159.191 94.0996H159.813L160.807 96.3363Z" fill="#28385E"/>
<path d="M158.107 19.3232H148.004V21.1329H158.107V19.3232Z" fill="#A9CCEA"/>
<path d="M163.238 22.5615H148.004V24.3708H163.238V22.5615Z" fill="#A9CCEA"/>
<path d="M166.79 25.7988H148.004V27.6085H166.79V25.7988Z" fill="#A9CCEA"/>
<path d="M155.187 29.0371H148.004V30.8468H155.187V29.0371Z" fill="#A9CCEA"/>
<path d="M52.1033 41.1299H42V42.9395H52.1033V41.1299Z" fill="#2889DB"/>
<path d="M57.2337 44.3682H42V46.1775H57.2337V44.3682Z" fill="#A9CCEA"/>
<path d="M60.7859 47.6055H42V49.4151H60.7859V47.6055Z" fill="#A9CCEA"/>
<path d="M49.1828 50.8438H42V52.6534H49.1828V50.8438Z" fill="#A9CCEA"/>
<path d="M110.269 104.672H67.2041V110.262H110.269V104.672Z" stroke="#289DF2" stroke-width="1.1276" stroke-miterlimit="10"/>
<path d="M90.0469 60.6416H87.9766V73.3401H90.0469V60.6416Z" stroke="#289DF2" stroke-width="1.1276" stroke-miterlimit="10"/>
<path d="M173.205 96.3609C177.096 95.7335 179.741 92.0708 179.114 88.18C178.486 84.2893 174.824 81.6438 170.933 82.2712C167.043 82.8986 164.397 86.5613 165.025 90.4521C165.652 94.3428 169.315 96.9883 173.205 96.3609Z" fill="#FF4D6B"/>
<path d="M171.56 88.6498L168.726 89.6883L171.56 90.7183V91.7825L167.509 90.2416V89.1352L171.56 87.5947V88.6498Z" fill="#F9FBFC"/>
<path d="M172.485 87.5938L176.537 89.1342V90.2407L172.485 91.7815V90.7173L175.32 89.6873L172.485 88.6488V87.5938Z" fill="#F9FBFC"/>
<path d="M183.976 95.1475C183.976 95.6619 183.558 96.0791 183.044 96.0791C182.529 96.0791 182.112 95.6619 182.112 95.1475C182.112 94.633 182.529 94.2158 183.044 94.2158C183.558 94.2158 183.976 94.633 183.976 95.1475Z" stroke="#FF4D6B" stroke-width="1.1276" stroke-miterlimit="10"/>
<path d="M98.6736 27.6523H64.9258V31.1721H98.6736V27.6523Z" stroke="#289DF2" stroke-width="1.1276" stroke-miterlimit="10"/>
<path d="M87.2873 28.791H66.376V29.8262H87.2873V28.791Z" fill="#289DF2"/>
<path d="M118.343 55.1201H93.6357V56.3624H118.343V55.1201Z" fill="#284D89"/>
<path d="M104.833 55.1201H93.6357V56.3624H104.833V55.1201Z" fill="#2889DB"/>
<path d="M118.343 58.3281H93.6357V59.5704H118.343V58.3281Z" fill="#284D89"/>
<path d="M110.837 58.3281H93.6357V59.5704H110.837V58.3281Z" fill="#FF4D6B"/>
<path d="M118.343 61.5381H93.6357V62.7804H118.343V61.5381Z" fill="#284D89"/>
<path d="M98.6736 61.5381H93.6357V62.7804H98.6736V61.5381Z" fill="#1AE5FF"/>
<path d="M94.2235 52.9463H93.7402V53.4295H94.2235V52.9463Z" fill="#284D89"/>
<path d="M95.8797 52.9463H95.3965V53.4295H95.8797V52.9463Z" fill="#284D89"/>
<path d="M97.536 52.9463H97.0527V53.4295H97.536V52.9463Z" fill="#284D89"/>
<path d="M140.519 69.8662H139.714V70.6715H140.519V69.8662Z" fill="white"/>
<path d="M143.28 69.8662H142.475V70.6715H143.28V69.8662Z" fill="white"/>
<path d="M146.041 69.8662H145.235V70.6715H146.041V69.8662Z" fill="white"/>
<path d="M152.846 37.8711H151.336V39.3807H152.846V37.8711Z" fill="white"/>
<path d="M158.021 37.8711H156.512V39.3807H158.021V37.8711Z" fill="white"/>
<path d="M163.198 37.8711H161.688V39.3807H163.198V37.8711Z" fill="white"/>
<path d="M131.452 100.26H129.942V101.769H131.452V100.26Z" fill="white"/>
<path d="M136.628 100.26H135.118V101.769H136.628V100.26Z" fill="white"/>
<path d="M141.804 100.26H140.294V101.769H141.804V100.26Z" fill="white"/>
<path d="M67.4114 58.4551H66.6064V59.2604H67.4114V58.4551Z" fill="white"/>
<path d="M70.1715 58.4551H69.3662V59.2604H70.1715V58.4551Z" fill="white"/>
<path d="M72.9332 58.4551H72.1279V59.2604H72.9332V58.4551Z" fill="white"/>
<path d="M179.49 57.4668H166.102V58.7781H179.49V57.4668Z" fill="white"/>
<path d="M170.075 59.7783H166.102V61.0897H170.075V59.7783Z" fill="#287DD1"/>
<path d="M58.0941 60.1582H55.1957V57.2598H52.5039V60.1582H49.6055V62.8499H52.5039V65.7484H55.1957V62.8499H58.0941V60.1582Z" fill="#1AE5FF"/>
<path d="M50.3375 68.2323H48.57V66.4648H46.9289V68.2323H45.1611V69.8734H46.9289V71.6408H48.57V69.8734H50.3375V68.2323Z" fill="#2889DB"/>
<path d="M98.7126 66.6895C96.2093 66.6895 94.1797 68.7191 94.1797 71.2224C94.1797 73.7261 96.2093 75.7554 98.7126 75.7554C101.216 75.7554 103.246 73.7258 103.246 71.2224C103.246 68.7191 101.216 66.6895 98.7126 66.6895ZM98.7126 73.5847C97.4079 73.5847 96.3507 72.5271 96.3507 71.2224C96.3507 69.9177 97.4083 68.8601 98.7126 68.8601C100.017 68.8601 101.075 69.9177 101.075 71.2224C101.075 72.5271 100.017 73.5847 98.7126 73.5847Z" fill="#284D89"/>
<path d="M95.6269 70.7755C96.0481 70.7755 96.4172 70.5251 96.6089 70.1498C96.9992 69.3845 97.7946 68.8601 98.7127 68.8601C99.6311 68.8601 100.426 69.3845 100.817 70.1498C101.008 70.5251 101.378 70.7755 101.799 70.7755C102.592 70.7755 103.135 69.9445 102.786 69.2317C102.049 67.7261 100.502 66.6895 98.7131 66.6895C96.924 66.6895 95.3772 67.7261 94.6402 69.2321C94.291 69.9445 94.8334 70.7755 95.6269 70.7755Z" fill="#289DF2"/>
<path d="M106.326 71.2224C106.326 73.7258 108.356 75.7554 110.859 75.7554C113.363 75.7554 115.392 73.7258 115.392 71.2224C115.392 68.7187 113.362 66.6895 110.859 66.6895C108.356 66.6895 106.326 68.7191 106.326 71.2224ZM113.221 71.2224C113.221 72.5268 112.164 73.5844 110.859 73.5844C109.554 73.5844 108.497 72.5268 108.497 71.2224C108.497 69.9177 109.554 68.8601 110.859 68.8601C112.164 68.8601 113.221 69.9177 113.221 71.2224Z" fill="#284D89"/>
<path d="M110.413 74.3087C110.413 73.8875 110.162 73.5184 109.787 73.3268C109.022 72.9364 108.497 72.141 108.497 71.223C108.497 70.3045 109.022 69.5095 109.787 69.1188C110.162 68.9275 110.413 68.558 110.413 68.1368C110.413 67.3436 109.582 66.8009 108.869 67.1498C107.363 67.8868 106.326 69.4335 106.326 71.223C106.326 73.0121 107.363 74.5588 108.869 75.2958C109.581 75.6446 110.413 75.1023 110.413 74.3087Z" fill="#FF4D6B"/>
<path d="M85.7679 53.3262H77.4863V73.2023H85.7679V53.3262Z" stroke="#289DF2" stroke-width="1.1276" stroke-miterlimit="10"/>
<path d="M81.0757 57.1562H78.6602V57.8701H81.0757V57.1562Z" fill="#1AE5FF"/>
<path d="M81.0757 58.749H78.6602V59.4629H81.0757V58.749Z" fill="#1AE5FF"/>
<path d="M81.0757 60.3408H78.6602V61.0547H81.0757V60.3408Z" fill="#1AE5FF"/>
<path d="M81.0757 68.623H78.6602V69.3369H81.0757V68.623Z" fill="#1AE5FF"/>
<path d="M82.18 62.6768H78.6602V63.3906H82.18V62.6768Z" fill="#1AE5FF"/>
<path d="M82.18 64.2695H78.6602V64.9834H82.18V64.2695Z" fill="white"/>
<path d="M82.18 65.8613H78.6602V66.5752H82.18V65.8613Z" fill="white"/>
<path d="M58.3015 78.1709H47.8115V88.6609H58.3015V78.1709Z" fill="#289DF2"/>
<path d="M52.78 80.6553H42.29V91.1453H52.78V80.6553Z" stroke="#289DF2" stroke-width="1.1276" stroke-miterlimit="10"/>
<path d="M177.006 108.536H172.589V112.953H177.006V108.536Z" stroke="#289DF2" stroke-width="1.1276" stroke-miterlimit="10"/>
<path d="M119.584 101.567H123.311L125.381 103.637H146.914L150.226 100.324H161.821" stroke="white" stroke-width="1.1276" stroke-miterlimit="10"/>
<path d="M118.497 102.706C119.097 102.706 119.584 102.22 119.584 101.619C119.584 101.019 119.097 100.532 118.497 100.532C117.897 100.532 117.41 101.019 117.41 101.619C117.41 102.22 117.897 102.706 118.497 102.706Z" stroke="white" stroke-width="1.1276" stroke-miterlimit="10"/>
<path d="M162.942 101.359C163.543 101.359 164.029 100.873 164.029 100.273C164.029 99.6722 163.543 99.1855 162.942 99.1855C162.342 99.1855 161.855 99.6722 161.855 100.273C161.855 100.873 162.342 101.359 162.942 101.359Z" stroke="white" stroke-width="1.1276" stroke-miterlimit="10"/>
<path d="M177.558 43.1118C177.558 43.8742 176.94 44.4922 176.177 44.4922C175.415 44.4922 174.797 43.8742 174.797 43.1118C174.797 42.3495 175.415 41.7314 176.177 41.7314C176.94 41.7314 177.558 42.3495 177.558 43.1118Z" fill="#289DF2"/>
<path d="M50.0195 96.9429C50.0195 97.7052 49.4015 98.3233 48.6392 98.3233C47.8768 98.3233 47.2588 97.7052 47.2588 96.9429C47.2588 96.1805 47.8768 95.5625 48.6392 95.5625C49.4019 95.5625 50.0195 96.1805 50.0195 96.9429Z" fill="#FF4D6B"/>
<path d="M56.3682 102.049C56.3682 103.383 55.2868 104.465 53.9527 104.465C52.6186 104.465 51.5371 103.383 51.5371 102.049C51.5371 100.715 52.6186 99.6338 53.9527 99.6338C55.2868 99.6338 56.3682 100.715 56.3682 102.049Z" fill="#FF4D6B"/>
<path d="M138.633 110.193H128.971V112.402H138.633V110.193Z" stroke="#289DF2" stroke-width="1.1276" stroke-miterlimit="10"/>
<path d="M150.158 114.334H128.971V116.542H150.158V114.334Z" stroke="#289DF2" stroke-width="1.1276" stroke-miterlimit="10"/>
<path d="M69.7812 112.308L67.4395 114.649" stroke="#289DF2" stroke-width="1.1276" stroke-miterlimit="10" stroke-linecap="round" stroke-linejoin="round"/>
<path d="M72.0322 112.308L69.6904 114.649" stroke="#289DF2" stroke-width="1.1276" stroke-miterlimit="10" stroke-linecap="round" stroke-linejoin="round"/>
<path d="M74.2841 112.308L71.9424 114.649" stroke="#289DF2" stroke-width="1.1276" stroke-miterlimit="10" stroke-linecap="round" stroke-linejoin="round"/>
<path d="M76.5361 112.308L74.1943 114.649" stroke="#289DF2" stroke-width="1.1276" stroke-miterlimit="10" stroke-linecap="round" stroke-linejoin="round"/>
<path d="M78.7871 112.308L76.4453 114.649" stroke="#289DF2" stroke-width="1.1276" stroke-miterlimit="10" stroke-linecap="round" stroke-linejoin="round"/>
<path d="M13.3047 136.203V149H11.6084V136.203H13.3047ZM17.7695 141.521V149H16.1436V139.49H17.6816L17.7695 141.521ZM17.3828 143.885L16.7061 143.858C16.7119 143.208 16.8086 142.607 16.9961 142.057C17.1836 141.5 17.4473 141.017 17.7871 140.606C18.127 140.196 18.5312 139.88 19 139.657C19.4746 139.429 19.999 139.314 20.5732 139.314C21.042 139.314 21.4639 139.379 21.8389 139.508C22.2139 139.631 22.5332 139.83 22.7969 140.105C23.0664 140.381 23.2715 140.738 23.4121 141.178C23.5527 141.611 23.623 142.142 23.623 142.769V149H21.9883V142.751C21.9883 142.253 21.915 141.854 21.7686 141.556C21.6221 141.251 21.4082 141.031 21.127 140.896C20.8457 140.756 20.5 140.686 20.0898 140.686C19.6855 140.686 19.3164 140.771 18.9824 140.94C18.6543 141.11 18.3701 141.345 18.1299 141.644C17.8955 141.942 17.7109 142.285 17.5762 142.672C17.4473 143.053 17.3828 143.457 17.3828 143.885ZM28.5186 149H26.8926V138.488C26.8926 137.803 27.0156 137.226 27.2617 136.757C27.5137 136.282 27.874 135.925 28.3428 135.685C28.8115 135.438 29.3682 135.315 30.0127 135.315C30.2002 135.315 30.3877 135.327 30.5752 135.351C30.7686 135.374 30.9561 135.409 31.1377 135.456L31.0498 136.783C30.9268 136.754 30.7861 136.733 30.6279 136.722C30.4756 136.71 30.3232 136.704 30.1709 136.704C29.8252 136.704 29.5264 136.774 29.2744 136.915C29.0283 137.05 28.8408 137.249 28.7119 137.513C28.583 137.776 28.5186 138.102 28.5186 138.488V149ZM30.54 139.49V140.738H25.3896V139.49H30.54ZM31.9199 144.351V144.148C31.9199 143.463 32.0195 142.827 32.2188 142.241C32.418 141.649 32.7051 141.137 33.0801 140.703C33.4551 140.264 33.9092 139.924 34.4424 139.684C34.9756 139.438 35.5732 139.314 36.2354 139.314C36.9033 139.314 37.5039 139.438 38.0371 139.684C38.5762 139.924 39.0332 140.264 39.4082 140.703C39.7891 141.137 40.0791 141.649 40.2783 142.241C40.4775 142.827 40.5771 143.463 40.5771 144.148V144.351C40.5771 145.036 40.4775 145.672 40.2783 146.258C40.0791 146.844 39.7891 147.356 39.4082 147.796C39.0332 148.229 38.5791 148.569 38.0459 148.815C37.5186 149.056 36.9209 149.176 36.2529 149.176C35.585 149.176 34.9844 149.056 34.4512 148.815C33.918 148.569 33.4609 148.229 33.0801 147.796C32.7051 147.356 32.418 146.844 32.2188 146.258C32.0195 145.672 31.9199 145.036 31.9199 144.351ZM33.5459 144.148V144.351C33.5459 144.825 33.6016 145.273 33.7129 145.695C33.8242 146.111 33.9912 146.48 34.2139 146.803C34.4424 147.125 34.7266 147.38 35.0664 147.567C35.4062 147.749 35.8018 147.84 36.2529 147.84C36.6982 147.84 37.0879 147.749 37.4219 147.567C37.7617 147.38 38.043 147.125 38.2656 146.803C38.4883 146.48 38.6553 146.111 38.7666 145.695C38.8838 145.273 38.9424 144.825 38.9424 144.351V144.148C38.9424 143.68 38.8838 143.237 38.7666 142.821C38.6553 142.399 38.4854 142.027 38.2568 141.705C38.0342 141.377 37.7529 141.119 37.4131 140.932C37.0791 140.744 36.6865 140.65 36.2354 140.65C35.79 140.65 35.3975 140.744 35.0576 140.932C34.7236 141.119 34.4424 141.377 34.2139 141.705C33.9912 142.027 33.8242 142.399 33.7129 142.821C33.6016 143.237 33.5459 143.68 33.5459 144.148ZM44.2422 140.984V149H42.6162V139.49H44.1982L44.2422 140.984ZM47.2129 139.438L47.2041 140.949C47.0693 140.92 46.9404 140.902 46.8174 140.896C46.7002 140.885 46.5654 140.879 46.4131 140.879C46.0381 140.879 45.707 140.938 45.4199 141.055C45.1328 141.172 44.8896 141.336 44.6904 141.547C44.4912 141.758 44.333 142.01 44.2158 142.303C44.1045 142.59 44.0312 142.906 43.9961 143.252L43.5391 143.516C43.5391 142.941 43.5947 142.402 43.7061 141.898C43.8232 141.395 44.002 140.949 44.2422 140.562C44.4824 140.17 44.7871 139.865 45.1562 139.648C45.5312 139.426 45.9766 139.314 46.4922 139.314C46.6094 139.314 46.7441 139.329 46.8965 139.358C47.0488 139.382 47.1543 139.408 47.2129 139.438ZM50.333 141.38V149H48.6982V139.49H50.2451L50.333 141.38ZM49.999 143.885L49.2432 143.858C49.249 143.208 49.334 142.607 49.498 142.057C49.6621 141.5 49.9053 141.017 50.2275 140.606C50.5498 140.196 50.9512 139.88 51.4316 139.657C51.9121 139.429 52.4688 139.314 53.1016 139.314C53.5469 139.314 53.957 139.379 54.332 139.508C54.707 139.631 55.0322 139.827 55.3076 140.097C55.583 140.366 55.7969 140.712 55.9492 141.134C56.1016 141.556 56.1777 142.065 56.1777 142.663V149H54.5518V142.742C54.5518 142.244 54.4668 141.846 54.2969 141.547C54.1328 141.248 53.8984 141.031 53.5938 140.896C53.2891 140.756 52.9316 140.686 52.5215 140.686C52.041 140.686 51.6396 140.771 51.3174 140.94C50.9951 141.11 50.7373 141.345 50.5439 141.644C50.3506 141.942 50.21 142.285 50.1221 142.672C50.04 143.053 49.999 143.457 49.999 143.885ZM56.1602 142.988L55.0703 143.322C55.0762 142.801 55.1611 142.3 55.3252 141.819C55.4951 141.339 55.7383 140.911 56.0547 140.536C56.377 140.161 56.7725 139.865 57.2412 139.648C57.71 139.426 58.2461 139.314 58.8496 139.314C59.3594 139.314 59.8105 139.382 60.2031 139.517C60.6016 139.651 60.9355 139.859 61.2051 140.141C61.4805 140.416 61.6885 140.771 61.8291 141.204C61.9697 141.638 62.04 142.153 62.04 142.751V149H60.4053V142.733C60.4053 142.2 60.3203 141.787 60.1504 141.494C59.9863 141.195 59.752 140.987 59.4473 140.87C59.1484 140.747 58.791 140.686 58.375 140.686C58.0176 140.686 57.7012 140.747 57.4258 140.87C57.1504 140.993 56.9189 141.163 56.7314 141.38C56.5439 141.591 56.4004 141.834 56.3008 142.109C56.207 142.385 56.1602 142.678 56.1602 142.988ZM70.1084 147.374V142.479C70.1084 142.104 70.0322 141.778 69.8799 141.503C69.7334 141.222 69.5107 141.005 69.2119 140.853C68.9131 140.7 68.5439 140.624 68.1045 140.624C67.6943 140.624 67.334 140.694 67.0234 140.835C66.7188 140.976 66.4785 141.16 66.3027 141.389C66.1328 141.617 66.0479 141.863 66.0479 142.127H64.4219C64.4219 141.787 64.5098 141.45 64.6855 141.116C64.8613 140.782 65.1133 140.48 65.4414 140.211C65.7754 139.936 66.1738 139.719 66.6367 139.561C67.1055 139.396 67.627 139.314 68.2012 139.314C68.8926 139.314 69.502 139.432 70.0293 139.666C70.5625 139.9 70.9785 140.255 71.2773 140.729C71.582 141.198 71.7344 141.787 71.7344 142.496V146.926C71.7344 147.242 71.7607 147.579 71.8135 147.937C71.8721 148.294 71.957 148.602 72.0684 148.859V149H70.3721C70.29 148.812 70.2256 148.563 70.1787 148.253C70.1318 147.937 70.1084 147.644 70.1084 147.374ZM70.3896 143.234L70.4072 144.377H68.7637C68.3008 144.377 67.8877 144.415 67.5244 144.491C67.1611 144.562 66.8564 144.67 66.6104 144.816C66.3643 144.963 66.1768 145.147 66.0479 145.37C65.9189 145.587 65.8545 145.842 65.8545 146.135C65.8545 146.434 65.9219 146.706 66.0566 146.952C66.1914 147.198 66.3936 147.395 66.6631 147.541C66.9385 147.682 67.2754 147.752 67.6738 147.752C68.1719 147.752 68.6113 147.646 68.9922 147.436C69.373 147.225 69.6748 146.967 69.8975 146.662C70.126 146.357 70.249 146.062 70.2666 145.774L70.9609 146.557C70.9199 146.803 70.8086 147.075 70.627 147.374C70.4453 147.673 70.2021 147.96 69.8975 148.235C69.5986 148.505 69.2412 148.73 68.8252 148.912C68.415 149.088 67.9521 149.176 67.4365 149.176C66.792 149.176 66.2266 149.05 65.7402 148.798C65.2598 148.546 64.8848 148.209 64.6152 147.787C64.3516 147.359 64.2197 146.882 64.2197 146.354C64.2197 145.845 64.3193 145.396 64.5186 145.01C64.7178 144.617 65.0049 144.292 65.3799 144.034C65.7549 143.771 66.2061 143.571 66.7334 143.437C67.2607 143.302 67.8496 143.234 68.5 143.234H70.3896ZM78.2734 139.49V140.738H73.1318V139.49H78.2734ZM74.8721 137.179H76.498V146.645C76.498 146.967 76.5479 147.21 76.6475 147.374C76.7471 147.538 76.876 147.646 77.0342 147.699C77.1924 147.752 77.3623 147.778 77.5439 147.778C77.6787 147.778 77.8193 147.767 77.9658 147.743C78.1182 147.714 78.2324 147.69 78.3086 147.673L78.3174 149C78.1885 149.041 78.0186 149.079 77.8076 149.114C77.6025 149.155 77.3535 149.176 77.0605 149.176C76.6621 149.176 76.2959 149.097 75.9619 148.938C75.6279 148.78 75.3613 148.517 75.1621 148.147C74.9688 147.772 74.8721 147.269 74.8721 146.636V137.179ZM81.9473 139.49V149H80.3125V139.49H81.9473ZM80.1895 136.968C80.1895 136.704 80.2686 136.481 80.4268 136.3C80.5908 136.118 80.8311 136.027 81.1475 136.027C81.458 136.027 81.6953 136.118 81.8594 136.3C82.0293 136.481 82.1143 136.704 82.1143 136.968C82.1143 137.22 82.0293 137.437 81.8594 137.618C81.6953 137.794 81.458 137.882 81.1475 137.882C80.8311 137.882 80.5908 137.794 80.4268 137.618C80.2686 137.437 80.1895 137.22 80.1895 136.968ZM84.127 144.351V144.148C84.127 143.463 84.2266 142.827 84.4258 142.241C84.625 141.649 84.9121 141.137 85.2871 140.703C85.6621 140.264 86.1162 139.924 86.6494 139.684C87.1826 139.438 87.7803 139.314 88.4424 139.314C89.1104 139.314 89.7109 139.438 90.2441 139.684C90.7832 139.924 91.2402 140.264 91.6152 140.703C91.9961 141.137 92.2861 141.649 92.4854 142.241C92.6846 142.827 92.7842 143.463 92.7842 144.148V144.351C92.7842 145.036 92.6846 145.672 92.4854 146.258C92.2861 146.844 91.9961 147.356 91.6152 147.796C91.2402 148.229 90.7861 148.569 90.2529 148.815C89.7256 149.056 89.1279 149.176 88.46 149.176C87.792 149.176 87.1914 149.056 86.6582 148.815C86.125 148.569 85.668 148.229 85.2871 147.796C84.9121 147.356 84.625 146.844 84.4258 146.258C84.2266 145.672 84.127 145.036 84.127 144.351ZM85.7529 144.148V144.351C85.7529 144.825 85.8086 145.273 85.9199 145.695C86.0312 146.111 86.1982 146.48 86.4209 146.803C86.6494 147.125 86.9336 147.38 87.2734 147.567C87.6133 147.749 88.0088 147.84 88.46 147.84C88.9053 147.84 89.2949 147.749 89.6289 147.567C89.9688 147.38 90.25 147.125 90.4727 146.803C90.6953 146.48 90.8623 146.111 90.9736 145.695C91.0908 145.273 91.1494 144.825 91.1494 144.351V144.148C91.1494 143.68 91.0908 143.237 90.9736 142.821C90.8623 142.399 90.6924 142.027 90.4639 141.705C90.2412 141.377 89.96 141.119 89.6201 140.932C89.2861 140.744 88.8936 140.65 88.4424 140.65C87.9971 140.65 87.6045 140.744 87.2646 140.932C86.9307 141.119 86.6494 141.377 86.4209 141.705C86.1982 142.027 86.0312 142.399 85.9199 142.821C85.8086 143.237 85.7529 143.68 85.7529 144.148ZM96.4492 141.521V149H94.8232V139.49H96.3613L96.4492 141.521ZM96.0625 143.885L95.3857 143.858C95.3916 143.208 95.4883 142.607 95.6758 142.057C95.8633 141.5 96.127 141.017 96.4668 140.606C96.8066 140.196 97.2109 139.88 97.6797 139.657C98.1543 139.429 98.6787 139.314 99.2529 139.314C99.7217 139.314 100.144 139.379 100.519 139.508C100.894 139.631 101.213 139.83 101.477 140.105C101.746 140.381 101.951 140.738 102.092 141.178C102.232 141.611 102.303 142.142 102.303 142.769V149H100.668V142.751C100.668 142.253 100.595 141.854 100.448 141.556C100.302 141.251 100.088 141.031 99.8066 140.896C99.5254 140.756 99.1797 140.686 98.7695 140.686C98.3652 140.686 97.9961 140.771 97.6621 140.94C97.334 141.11 97.0498 141.345 96.8096 141.644C96.5752 141.942 96.3906 142.285 96.2559 142.672C96.127 143.053 96.0625 143.457 96.0625 143.885ZM113.86 136.203V149H112.19V136.203H113.86ZM117.974 136.203V137.592H108.086V136.203H117.974ZM122.693 149.176C122.031 149.176 121.431 149.064 120.892 148.842C120.358 148.613 119.898 148.294 119.512 147.884C119.131 147.474 118.838 146.987 118.633 146.425C118.428 145.862 118.325 145.247 118.325 144.579V144.21C118.325 143.437 118.439 142.748 118.668 142.145C118.896 141.535 119.207 141.02 119.6 140.598C119.992 140.176 120.438 139.856 120.936 139.64C121.434 139.423 121.949 139.314 122.482 139.314C123.162 139.314 123.748 139.432 124.24 139.666C124.738 139.9 125.146 140.229 125.462 140.65C125.778 141.066 126.013 141.559 126.165 142.127C126.317 142.689 126.394 143.305 126.394 143.973V144.702H119.292V143.375H124.768V143.252C124.744 142.83 124.656 142.42 124.504 142.021C124.357 141.623 124.123 141.295 123.801 141.037C123.479 140.779 123.039 140.65 122.482 140.65C122.113 140.65 121.773 140.729 121.463 140.888C121.152 141.04 120.886 141.269 120.663 141.573C120.44 141.878 120.268 142.25 120.145 142.689C120.021 143.129 119.96 143.636 119.96 144.21V144.579C119.96 145.03 120.021 145.455 120.145 145.854C120.273 146.246 120.458 146.592 120.698 146.891C120.944 147.189 121.24 147.424 121.586 147.594C121.938 147.764 122.336 147.849 122.781 147.849C123.355 147.849 123.842 147.731 124.24 147.497C124.639 147.263 124.987 146.949 125.286 146.557L126.271 147.339C126.065 147.649 125.805 147.945 125.488 148.227C125.172 148.508 124.782 148.736 124.319 148.912C123.862 149.088 123.32 149.176 122.693 149.176ZM132.098 147.84C132.484 147.84 132.842 147.761 133.17 147.603C133.498 147.444 133.768 147.228 133.979 146.952C134.189 146.671 134.31 146.352 134.339 145.994H135.886C135.856 146.557 135.666 147.081 135.314 147.567C134.969 148.048 134.515 148.438 133.952 148.736C133.39 149.029 132.771 149.176 132.098 149.176C131.383 149.176 130.759 149.05 130.226 148.798C129.698 148.546 129.259 148.2 128.907 147.761C128.562 147.321 128.301 146.817 128.125 146.249C127.955 145.675 127.87 145.068 127.87 144.43V144.061C127.87 143.422 127.955 142.818 128.125 142.25C128.301 141.676 128.562 141.169 128.907 140.729C129.259 140.29 129.698 139.944 130.226 139.692C130.759 139.44 131.383 139.314 132.098 139.314C132.842 139.314 133.492 139.467 134.049 139.771C134.605 140.07 135.042 140.48 135.358 141.002C135.681 141.518 135.856 142.104 135.886 142.76H134.339C134.31 142.367 134.198 142.013 134.005 141.696C133.817 141.38 133.56 141.128 133.231 140.94C132.909 140.747 132.531 140.65 132.098 140.65C131.6 140.65 131.181 140.75 130.841 140.949C130.507 141.143 130.24 141.406 130.041 141.74C129.848 142.068 129.707 142.435 129.619 142.839C129.537 143.237 129.496 143.645 129.496 144.061V144.43C129.496 144.846 129.537 145.256 129.619 145.66C129.701 146.064 129.839 146.431 130.032 146.759C130.231 147.087 130.498 147.351 130.832 147.55C131.172 147.743 131.594 147.84 132.098 147.84ZM139.34 135.5V149H137.714V135.5H139.34ZM138.953 143.885L138.276 143.858C138.282 143.208 138.379 142.607 138.566 142.057C138.754 141.5 139.018 141.017 139.357 140.606C139.697 140.196 140.102 139.88 140.57 139.657C141.045 139.429 141.569 139.314 142.144 139.314C142.612 139.314 143.034 139.379 143.409 139.508C143.784 139.631 144.104 139.83 144.367 140.105C144.637 140.381 144.842 140.738 144.982 141.178C145.123 141.611 145.193 142.142 145.193 142.769V149H143.559V142.751C143.559 142.253 143.485 141.854 143.339 141.556C143.192 141.251 142.979 141.031 142.697 140.896C142.416 140.756 142.07 140.686 141.66 140.686C141.256 140.686 140.887 140.771 140.553 140.94C140.225 141.11 139.94 141.345 139.7 141.644C139.466 141.942 139.281 142.285 139.146 142.672C139.018 143.053 138.953 143.457 138.953 143.885ZM149.254 141.521V149H147.628V139.49H149.166L149.254 141.521ZM148.867 143.885L148.19 143.858C148.196 143.208 148.293 142.607 148.48 142.057C148.668 141.5 148.932 141.017 149.271 140.606C149.611 140.196 150.016 139.88 150.484 139.657C150.959 139.429 151.483 139.314 152.058 139.314C152.526 139.314 152.948 139.379 153.323 139.508C153.698 139.631 154.018 139.83 154.281 140.105C154.551 140.381 154.756 140.738 154.896 141.178C155.037 141.611 155.107 142.142 155.107 142.769V149H153.473V142.751C153.473 142.253 153.399 141.854 153.253 141.556C153.106 141.251 152.893 141.031 152.611 140.896C152.33 140.756 151.984 140.686 151.574 140.686C151.17 140.686 150.801 140.771 150.467 140.94C150.139 141.11 149.854 141.345 149.614 141.644C149.38 141.942 149.195 142.285 149.061 142.672C148.932 143.053 148.867 143.457 148.867 143.885ZM157.146 144.351V144.148C157.146 143.463 157.246 142.827 157.445 142.241C157.645 141.649 157.932 141.137 158.307 140.703C158.682 140.264 159.136 139.924 159.669 139.684C160.202 139.438 160.8 139.314 161.462 139.314C162.13 139.314 162.73 139.438 163.264 139.684C163.803 139.924 164.26 140.264 164.635 140.703C165.016 141.137 165.306 141.649 165.505 142.241C165.704 142.827 165.804 143.463 165.804 144.148V144.351C165.804 145.036 165.704 145.672 165.505 146.258C165.306 146.844 165.016 147.356 164.635 147.796C164.26 148.229 163.806 148.569 163.272 148.815C162.745 149.056 162.147 149.176 161.479 149.176C160.812 149.176 160.211 149.056 159.678 148.815C159.145 148.569 158.688 148.229 158.307 147.796C157.932 147.356 157.645 146.844 157.445 146.258C157.246 145.672 157.146 145.036 157.146 144.351ZM158.772 144.148V144.351C158.772 144.825 158.828 145.273 158.939 145.695C159.051 146.111 159.218 146.48 159.44 146.803C159.669 147.125 159.953 147.38 160.293 147.567C160.633 147.749 161.028 147.84 161.479 147.84C161.925 147.84 162.314 147.749 162.648 147.567C162.988 147.38 163.27 147.125 163.492 146.803C163.715 146.48 163.882 146.111 163.993 145.695C164.11 145.273 164.169 144.825 164.169 144.351V144.148C164.169 143.68 164.11 143.237 163.993 142.821C163.882 142.399 163.712 142.027 163.483 141.705C163.261 141.377 162.979 141.119 162.64 140.932C162.306 140.744 161.913 140.65 161.462 140.65C161.017 140.65 160.624 140.744 160.284 140.932C159.95 141.119 159.669 141.377 159.44 141.705C159.218 142.027 159.051 142.399 158.939 142.821C158.828 143.237 158.772 143.68 158.772 144.148ZM169.609 135.5V149H167.975V135.5H169.609ZM171.789 144.351V144.148C171.789 143.463 171.889 142.827 172.088 142.241C172.287 141.649 172.574 141.137 172.949 140.703C173.324 140.264 173.778 139.924 174.312 139.684C174.845 139.438 175.442 139.314 176.104 139.314C176.772 139.314 177.373 139.438 177.906 139.684C178.445 139.924 178.902 140.264 179.277 140.703C179.658 141.137 179.948 141.649 180.147 142.241C180.347 142.827 180.446 143.463 180.446 144.148V144.351C180.446 145.036 180.347 145.672 180.147 146.258C179.948 146.844 179.658 147.356 179.277 147.796C178.902 148.229 178.448 148.569 177.915 148.815C177.388 149.056 176.79 149.176 176.122 149.176C175.454 149.176 174.854 149.056 174.32 148.815C173.787 148.569 173.33 148.229 172.949 147.796C172.574 147.356 172.287 146.844 172.088 146.258C171.889 145.672 171.789 145.036 171.789 144.351ZM173.415 144.148V144.351C173.415 144.825 173.471 145.273 173.582 145.695C173.693 146.111 173.86 146.48 174.083 146.803C174.312 147.125 174.596 147.38 174.936 147.567C175.275 147.749 175.671 147.84 176.122 147.84C176.567 147.84 176.957 147.749 177.291 147.567C177.631 147.38 177.912 147.125 178.135 146.803C178.357 146.48 178.524 146.111 178.636 145.695C178.753 145.273 178.812 144.825 178.812 144.351V144.148C178.812 143.68 178.753 143.237 178.636 142.821C178.524 142.399 178.354 142.027 178.126 141.705C177.903 141.377 177.622 141.119 177.282 140.932C176.948 140.744 176.556 140.65 176.104 140.65C175.659 140.65 175.267 140.744 174.927 140.932C174.593 141.119 174.312 141.377 174.083 141.705C173.86 142.027 173.693 142.399 173.582 142.821C173.471 143.237 173.415 143.68 173.415 144.148ZM188.646 139.49H190.123V148.798C190.123 149.636 189.953 150.351 189.613 150.942C189.273 151.534 188.799 151.982 188.189 152.287C187.586 152.598 186.889 152.753 186.098 152.753C185.77 152.753 185.383 152.7 184.938 152.595C184.498 152.495 184.064 152.322 183.637 152.076C183.215 151.836 182.86 151.511 182.573 151.101L183.426 150.134C183.824 150.614 184.24 150.948 184.674 151.136C185.113 151.323 185.547 151.417 185.975 151.417C186.49 151.417 186.936 151.32 187.311 151.127C187.686 150.934 187.976 150.646 188.181 150.266C188.392 149.891 188.497 149.428 188.497 148.877V141.582L188.646 139.49ZM182.099 144.351V144.166C182.099 143.439 182.184 142.78 182.354 142.188C182.529 141.591 182.778 141.078 183.101 140.65C183.429 140.223 183.824 139.895 184.287 139.666C184.75 139.432 185.271 139.314 185.852 139.314C186.449 139.314 186.971 139.42 187.416 139.631C187.867 139.836 188.248 140.138 188.559 140.536C188.875 140.929 189.124 141.403 189.306 141.96C189.487 142.517 189.613 143.146 189.684 143.85V144.658C189.619 145.355 189.493 145.982 189.306 146.539C189.124 147.096 188.875 147.57 188.559 147.963C188.248 148.355 187.867 148.657 187.416 148.868C186.965 149.073 186.438 149.176 185.834 149.176C185.266 149.176 184.75 149.056 184.287 148.815C183.83 148.575 183.438 148.238 183.109 147.805C182.781 147.371 182.529 146.861 182.354 146.275C182.184 145.684 182.099 145.042 182.099 144.351ZM183.725 144.166V144.351C183.725 144.825 183.771 145.271 183.865 145.687C183.965 146.103 184.114 146.469 184.313 146.785C184.519 147.102 184.779 147.351 185.096 147.532C185.412 147.708 185.79 147.796 186.229 147.796C186.769 147.796 187.214 147.682 187.565 147.453C187.917 147.225 188.195 146.923 188.4 146.548C188.611 146.173 188.775 145.766 188.893 145.326V143.208C188.828 142.886 188.729 142.575 188.594 142.276C188.465 141.972 188.295 141.702 188.084 141.468C187.879 141.228 187.624 141.037 187.319 140.896C187.015 140.756 186.657 140.686 186.247 140.686C185.802 140.686 185.418 140.779 185.096 140.967C184.779 141.148 184.519 141.4 184.313 141.723C184.114 142.039 183.965 142.408 183.865 142.83C183.771 143.246 183.725 143.691 183.725 144.166ZM195.265 148.016L197.91 139.49H199.65L195.836 150.468C195.748 150.702 195.631 150.954 195.484 151.224C195.344 151.499 195.162 151.76 194.939 152.006C194.717 152.252 194.447 152.451 194.131 152.604C193.82 152.762 193.448 152.841 193.015 152.841C192.886 152.841 192.722 152.823 192.522 152.788C192.323 152.753 192.183 152.724 192.101 152.7L192.092 151.382C192.139 151.388 192.212 151.394 192.312 151.399C192.417 151.411 192.49 151.417 192.531 151.417C192.9 151.417 193.214 151.367 193.472 151.268C193.729 151.174 193.946 151.013 194.122 150.784C194.304 150.562 194.459 150.254 194.588 149.861L195.265 148.016ZM193.322 139.49L195.792 146.873L196.214 148.587L195.045 149.185L191.547 139.49H193.322Z" fill="#E13214"/>
<path d="M14.2715 160.422V169H13.1875V161.775L11.002 162.572V161.594L14.1016 160.422H14.2715ZM17.5938 168.426C17.5938 168.242 17.6504 168.088 17.7637 167.963C17.8809 167.834 18.0488 167.77 18.2676 167.77C18.4863 167.77 18.6523 167.834 18.7656 167.963C18.8828 168.088 18.9414 168.242 18.9414 168.426C18.9414 168.605 18.8828 168.758 18.7656 168.883C18.6523 169.008 18.4863 169.07 18.2676 169.07C18.0488 169.07 17.8809 169.008 17.7637 168.883C17.6504 168.758 17.5938 168.605 17.5938 168.426ZM26.2129 168.109V169H20.6289V168.221L23.4238 165.109C23.7676 164.727 24.0332 164.402 24.2207 164.137C24.4121 163.867 24.5449 163.627 24.6191 163.416C24.6973 163.201 24.7363 162.982 24.7363 162.76C24.7363 162.479 24.6777 162.225 24.5605 161.998C24.4473 161.768 24.2793 161.584 24.0566 161.447C23.834 161.311 23.5645 161.242 23.248 161.242C22.8691 161.242 22.5527 161.316 22.2988 161.465C22.0488 161.609 21.8613 161.812 21.7363 162.074C21.6113 162.336 21.5488 162.637 21.5488 162.977H20.4648C20.4648 162.496 20.5703 162.057 20.7812 161.658C20.9922 161.26 21.3047 160.943 21.7188 160.709C22.1328 160.471 22.6426 160.352 23.248 160.352C23.7871 160.352 24.248 160.447 24.6309 160.639C25.0137 160.826 25.3066 161.092 25.5098 161.436C25.7168 161.775 25.8203 162.174 25.8203 162.631C25.8203 162.881 25.7773 163.135 25.6914 163.393C25.6094 163.646 25.4941 163.9 25.3457 164.154C25.2012 164.408 25.0312 164.658 24.8359 164.904C24.6445 165.15 24.4395 165.393 24.2207 165.631L21.9355 168.109H26.2129ZM28.5801 160V169H27.4902V160H28.5801ZM32.4531 162.66L29.6875 165.619L28.1406 167.225L28.0527 166.07L29.1602 164.746L31.1289 162.66H32.4531ZM31.4629 169L29.2012 165.977L29.7637 165.01L32.7402 169H31.4629ZM43.0176 164.752V167.875C42.9121 168.031 42.7441 168.207 42.5137 168.402C42.2832 168.594 41.9648 168.762 41.5586 168.906C41.1562 169.047 40.6367 169.117 40 169.117C39.4805 169.117 39.002 169.027 38.5645 168.848C38.1309 168.664 37.7539 168.398 37.4336 168.051C37.1172 167.699 36.8711 167.273 36.6953 166.773C36.5234 166.27 36.4375 165.699 36.4375 165.062V164.4C36.4375 163.764 36.5117 163.195 36.6602 162.695C36.8125 162.195 37.0352 161.771 37.3281 161.424C37.6211 161.072 37.9805 160.807 38.4062 160.627C38.832 160.443 39.3203 160.352 39.8711 160.352C40.5234 160.352 41.0684 160.465 41.5059 160.691C41.9473 160.914 42.291 161.223 42.5371 161.617C42.7871 162.012 42.9473 162.461 43.0176 162.965H41.8867C41.8359 162.656 41.7344 162.375 41.582 162.121C41.4336 161.867 41.2207 161.664 40.9434 161.512C40.666 161.355 40.3086 161.277 39.8711 161.277C39.4766 161.277 39.1348 161.35 38.8457 161.494C38.5566 161.639 38.3184 161.846 38.1309 162.115C37.9434 162.385 37.8027 162.711 37.709 163.094C37.6191 163.477 37.5742 163.908 37.5742 164.389V165.062C37.5742 165.555 37.6309 165.994 37.7441 166.381C37.8613 166.768 38.0273 167.098 38.2422 167.371C38.457 167.641 38.7129 167.846 39.0098 167.986C39.3105 168.127 39.6426 168.197 40.0059 168.197C40.4082 168.197 40.7344 168.164 40.9844 168.098C41.2344 168.027 41.4297 167.945 41.5703 167.852C41.7109 167.754 41.8184 167.662 41.8926 167.576V165.666H39.918V164.752H43.0176ZM45.8125 163.656V169H44.7285V162.66H45.7832L45.8125 163.656ZM47.793 162.625L47.7871 163.633C47.6973 163.613 47.6113 163.602 47.5293 163.598C47.4512 163.59 47.3613 163.586 47.2598 163.586C47.0098 163.586 46.7891 163.625 46.5977 163.703C46.4062 163.781 46.2441 163.891 46.1113 164.031C45.9785 164.172 45.873 164.34 45.7949 164.535C45.7207 164.727 45.6719 164.938 45.6484 165.168L45.3438 165.344C45.3438 164.961 45.3809 164.602 45.4551 164.266C45.5332 163.93 45.6523 163.633 45.8125 163.375C45.9727 163.113 46.1758 162.91 46.4219 162.766C46.6719 162.617 46.9688 162.543 47.3125 162.543C47.3906 162.543 47.4805 162.553 47.582 162.572C47.6836 162.588 47.7539 162.605 47.793 162.625ZM52.2988 167.916V164.652C52.2988 164.402 52.248 164.186 52.1465 164.002C52.0488 163.814 51.9004 163.67 51.7012 163.568C51.502 163.467 51.2559 163.416 50.9629 163.416C50.6895 163.416 50.4492 163.463 50.2422 163.557C50.0391 163.65 49.8789 163.773 49.7617 163.926C49.6484 164.078 49.5918 164.242 49.5918 164.418H48.5078C48.5078 164.191 48.5664 163.967 48.6836 163.744C48.8008 163.521 48.9688 163.32 49.1875 163.141C49.4102 162.957 49.6758 162.812 49.9844 162.707C50.2969 162.598 50.6445 162.543 51.0273 162.543C51.4883 162.543 51.8945 162.621 52.2461 162.777C52.6016 162.934 52.8789 163.17 53.0781 163.486C53.2812 163.799 53.3828 164.191 53.3828 164.664V167.617C53.3828 167.828 53.4004 168.053 53.4355 168.291C53.4746 168.529 53.5312 168.734 53.6055 168.906V169H52.4746C52.4199 168.875 52.377 168.709 52.3457 168.502C52.3145 168.291 52.2988 168.096 52.2988 167.916ZM52.4863 165.156L52.498 165.918H51.4023C51.0938 165.918 50.8184 165.943 50.5762 165.994C50.334 166.041 50.1309 166.113 49.9668 166.211C49.8027 166.309 49.6777 166.432 49.5918 166.58C49.5059 166.725 49.4629 166.895 49.4629 167.09C49.4629 167.289 49.5078 167.471 49.5977 167.635C49.6875 167.799 49.8223 167.93 50.002 168.027C50.1855 168.121 50.4102 168.168 50.6758 168.168C51.0078 168.168 51.3008 168.098 51.5547 167.957C51.8086 167.816 52.0098 167.645 52.1582 167.441C52.3105 167.238 52.3926 167.041 52.4043 166.85L52.8672 167.371C52.8398 167.535 52.7656 167.717 52.6445 167.916C52.5234 168.115 52.3613 168.307 52.1582 168.49C51.959 168.67 51.7207 168.82 51.4434 168.941C51.1699 169.059 50.8613 169.117 50.5176 169.117C50.0879 169.117 49.7109 169.033 49.3867 168.865C49.0664 168.697 48.8164 168.473 48.6367 168.191C48.4609 167.906 48.373 167.588 48.373 167.236C48.373 166.896 48.4395 166.598 48.5723 166.34C48.7051 166.078 48.8965 165.861 49.1465 165.689C49.3965 165.514 49.6973 165.381 50.0488 165.291C50.4004 165.201 50.793 165.156 51.2266 165.156H52.4863ZM59.084 167.77V160H60.1738V169H59.1777L59.084 167.77ZM54.8184 165.9V165.777C54.8184 165.293 54.877 164.854 54.9941 164.459C55.1152 164.061 55.2852 163.719 55.5039 163.434C55.7266 163.148 55.9902 162.93 56.2949 162.777C56.6035 162.621 56.9473 162.543 57.3262 162.543C57.7246 162.543 58.0723 162.613 58.3691 162.754C58.6699 162.891 58.9238 163.092 59.1309 163.357C59.3418 163.619 59.5078 163.936 59.6289 164.307C59.75 164.678 59.834 165.098 59.8809 165.566V166.105C59.8379 166.57 59.7539 166.988 59.6289 167.359C59.5078 167.73 59.3418 168.047 59.1309 168.309C58.9238 168.57 58.6699 168.771 58.3691 168.912C58.0684 169.049 57.7168 169.117 57.3145 169.117C56.9434 169.117 56.6035 169.037 56.2949 168.877C55.9902 168.717 55.7266 168.492 55.5039 168.203C55.2852 167.914 55.1152 167.574 54.9941 167.184C54.877 166.789 54.8184 166.361 54.8184 165.9ZM55.9082 165.777V165.9C55.9082 166.217 55.9395 166.514 56.002 166.791C56.0684 167.068 56.1699 167.312 56.3066 167.523C56.4434 167.734 56.6172 167.9 56.8281 168.021C57.0391 168.139 57.291 168.197 57.584 168.197C57.9434 168.197 58.2383 168.121 58.4688 167.969C58.7031 167.816 58.8906 167.615 59.0312 167.365C59.1719 167.115 59.2812 166.844 59.3594 166.551V165.139C59.3125 164.924 59.2441 164.717 59.1543 164.518C59.0684 164.314 58.9551 164.135 58.8145 163.979C58.6777 163.818 58.5078 163.691 58.3047 163.598C58.1055 163.504 57.8691 163.457 57.5957 163.457C57.2988 163.457 57.043 163.52 56.8281 163.645C56.6172 163.766 56.4434 163.934 56.3066 164.148C56.1699 164.359 56.0684 164.605 56.002 164.887C55.9395 165.164 55.9082 165.461 55.9082 165.777ZM65.7402 167.535V162.66H66.8301V169H65.793L65.7402 167.535ZM65.9453 166.199L66.3965 166.188C66.3965 166.609 66.3516 167 66.2617 167.359C66.1758 167.715 66.0352 168.023 65.8398 168.285C65.6445 168.547 65.3887 168.752 65.0723 168.9C64.7559 169.045 64.3711 169.117 63.918 169.117C63.6094 169.117 63.3262 169.072 63.0684 168.982C62.8145 168.893 62.5957 168.754 62.4121 168.566C62.2285 168.379 62.0859 168.135 61.9844 167.834C61.8867 167.533 61.8379 167.172 61.8379 166.75V162.66H62.9219V166.762C62.9219 167.047 62.9531 167.283 63.0156 167.471C63.082 167.654 63.1699 167.801 63.2793 167.91C63.3926 168.016 63.5176 168.09 63.6543 168.133C63.7949 168.176 63.9395 168.197 64.0879 168.197C64.5488 168.197 64.9141 168.109 65.1836 167.934C65.4531 167.754 65.6465 167.514 65.7637 167.213C65.8848 166.908 65.9453 166.57 65.9453 166.199ZM72.2207 167.916V164.652C72.2207 164.402 72.1699 164.186 72.0684 164.002C71.9707 163.814 71.8223 163.67 71.623 163.568C71.4238 163.467 71.1777 163.416 70.8848 163.416C70.6113 163.416 70.3711 163.463 70.1641 163.557C69.9609 163.65 69.8008 163.773 69.6836 163.926C69.5703 164.078 69.5137 164.242 69.5137 164.418H68.4297C68.4297 164.191 68.4883 163.967 68.6055 163.744C68.7227 163.521 68.8906 163.32 69.1094 163.141C69.332 162.957 69.5977 162.812 69.9062 162.707C70.2188 162.598 70.5664 162.543 70.9492 162.543C71.4102 162.543 71.8164 162.621 72.168 162.777C72.5234 162.934 72.8008 163.17 73 163.486C73.2031 163.799 73.3047 164.191 73.3047 164.664V167.617C73.3047 167.828 73.3223 168.053 73.3574 168.291C73.3965 168.529 73.4531 168.734 73.5273 168.906V169H72.3965C72.3418 168.875 72.2988 168.709 72.2676 168.502C72.2363 168.291 72.2207 168.096 72.2207 167.916ZM72.4082 165.156L72.4199 165.918H71.3242C71.0156 165.918 70.7402 165.943 70.498 165.994C70.2559 166.041 70.0527 166.113 69.8887 166.211C69.7246 166.309 69.5996 166.432 69.5137 166.58C69.4277 166.725 69.3848 166.895 69.3848 167.09C69.3848 167.289 69.4297 167.471 69.5195 167.635C69.6094 167.799 69.7441 167.93 69.9238 168.027C70.1074 168.121 70.332 168.168 70.5977 168.168C70.9297 168.168 71.2227 168.098 71.4766 167.957C71.7305 167.816 71.9316 167.645 72.0801 167.441C72.2324 167.238 72.3145 167.041 72.3262 166.85L72.7891 167.371C72.7617 167.535 72.6875 167.717 72.5664 167.916C72.4453 168.115 72.2832 168.307 72.0801 168.49C71.8809 168.67 71.6426 168.82 71.3652 168.941C71.0918 169.059 70.7832 169.117 70.4395 169.117C70.0098 169.117 69.6328 169.033 69.3086 168.865C68.9883 168.697 68.7383 168.473 68.5586 168.191C68.3828 167.906 68.2949 167.588 68.2949 167.236C68.2949 166.896 68.3613 166.598 68.4941 166.34C68.627 166.078 68.8184 165.861 69.0684 165.689C69.3184 165.514 69.6191 165.381 69.9707 165.291C70.3223 165.201 70.7148 165.156 71.1484 165.156H72.4082ZM77.6641 162.66V163.492H74.2363V162.66H77.6641ZM75.3965 161.119H76.4805V167.43C76.4805 167.645 76.5137 167.807 76.5801 167.916C76.6465 168.025 76.7324 168.098 76.8379 168.133C76.9434 168.168 77.0566 168.186 77.1777 168.186C77.2676 168.186 77.3613 168.178 77.459 168.162C77.5605 168.143 77.6367 168.127 77.6875 168.115L77.6934 169C77.6074 169.027 77.4941 169.053 77.3535 169.076C77.2168 169.104 77.0508 169.117 76.8555 169.117C76.5898 169.117 76.3457 169.064 76.123 168.959C75.9004 168.854 75.7227 168.678 75.5898 168.432C75.4609 168.182 75.3965 167.846 75.3965 167.424V161.119ZM81.5664 169.117C81.125 169.117 80.7246 169.043 80.3652 168.895C80.0098 168.742 79.7031 168.529 79.4453 168.256C79.1914 167.982 78.9961 167.658 78.8594 167.283C78.7227 166.908 78.6543 166.498 78.6543 166.053V165.807C78.6543 165.291 78.7305 164.832 78.8828 164.43C79.0352 164.023 79.2422 163.68 79.5039 163.398C79.7656 163.117 80.0625 162.904 80.3945 162.76C80.7266 162.615 81.0703 162.543 81.4258 162.543C81.8789 162.543 82.2695 162.621 82.5977 162.777C82.9297 162.934 83.2012 163.152 83.4121 163.434C83.623 163.711 83.7793 164.039 83.8809 164.418C83.9824 164.793 84.0332 165.203 84.0332 165.648V166.135H79.2988V165.25H82.9492V165.168C82.9336 164.887 82.875 164.613 82.7734 164.348C82.6758 164.082 82.5195 163.863 82.3047 163.691C82.0898 163.52 81.7969 163.434 81.4258 163.434C81.1797 163.434 80.9531 163.486 80.7461 163.592C80.5391 163.693 80.3613 163.846 80.2129 164.049C80.0645 164.252 79.9492 164.5 79.8672 164.793C79.7852 165.086 79.7441 165.424 79.7441 165.807V166.053C79.7441 166.354 79.7852 166.637 79.8672 166.902C79.9531 167.164 80.0762 167.395 80.2363 167.594C80.4004 167.793 80.5977 167.949 80.8281 168.062C81.0625 168.176 81.3281 168.232 81.625 168.232C82.0078 168.232 82.332 168.154 82.5977 167.998C82.8633 167.842 83.0957 167.633 83.2949 167.371L83.9512 167.893C83.8145 168.1 83.6406 168.297 83.4297 168.484C83.2188 168.672 82.959 168.824 82.6504 168.941C82.3457 169.059 81.9844 169.117 81.5664 169.117ZM89.2949 167.77V160H90.3848V169H89.3887L89.2949 167.77ZM85.0293 165.9V165.777C85.0293 165.293 85.0879 164.854 85.2051 164.459C85.3262 164.061 85.4961 163.719 85.7148 163.434C85.9375 163.148 86.2012 162.93 86.5059 162.777C86.8145 162.621 87.1582 162.543 87.5371 162.543C87.9355 162.543 88.2832 162.613 88.5801 162.754C88.8809 162.891 89.1348 163.092 89.3418 163.357C89.5527 163.619 89.7188 163.936 89.8398 164.307C89.9609 164.678 90.0449 165.098 90.0918 165.566V166.105C90.0488 166.57 89.9648 166.988 89.8398 167.359C89.7188 167.73 89.5527 168.047 89.3418 168.309C89.1348 168.57 88.8809 168.771 88.5801 168.912C88.2793 169.049 87.9277 169.117 87.5254 169.117C87.1543 169.117 86.8145 169.037 86.5059 168.877C86.2012 168.717 85.9375 168.492 85.7148 168.203C85.4961 167.914 85.3262 167.574 85.2051 167.184C85.0879 166.789 85.0293 166.361 85.0293 165.9ZM86.1191 165.777V165.9C86.1191 166.217 86.1504 166.514 86.2129 166.791C86.2793 167.068 86.3809 167.312 86.5176 167.523C86.6543 167.734 86.8281 167.9 87.0391 168.021C87.25 168.139 87.502 168.197 87.7949 168.197C88.1543 168.197 88.4492 168.121 88.6797 167.969C88.9141 167.816 89.1016 167.615 89.2422 167.365C89.3828 167.115 89.4922 166.844 89.5703 166.551V165.139C89.5234 164.924 89.4551 164.717 89.3652 164.518C89.2793 164.314 89.166 164.135 89.0254 163.979C88.8887 163.818 88.7188 163.691 88.5156 163.598C88.3164 163.504 88.0801 163.457 87.8066 163.457C87.5098 163.457 87.2539 163.52 87.0391 163.645C86.8281 163.766 86.6543 163.934 86.5176 164.148C86.3809 164.359 86.2793 164.605 86.2129 164.887C86.1504 165.164 86.1191 165.461 86.1191 165.777ZM99.7598 166.844C99.7598 166.645 99.7285 166.469 99.666 166.316C99.6074 166.16 99.502 166.02 99.3496 165.895C99.2012 165.77 98.9941 165.65 98.7285 165.537C98.4668 165.424 98.1348 165.309 97.7324 165.191C97.3105 165.066 96.9297 164.928 96.5898 164.775C96.25 164.619 95.959 164.441 95.7168 164.242C95.4746 164.043 95.2891 163.814 95.1602 163.557C95.0312 163.299 94.9668 163.004 94.9668 162.672C94.9668 162.34 95.0352 162.033 95.1719 161.752C95.3086 161.471 95.5039 161.227 95.7578 161.02C96.0156 160.809 96.3223 160.645 96.6777 160.527C97.0332 160.41 97.4297 160.352 97.8672 160.352C98.5078 160.352 99.0508 160.475 99.4961 160.721C99.9453 160.963 100.287 161.281 100.521 161.676C100.756 162.066 100.873 162.484 100.873 162.93H99.748C99.748 162.609 99.6797 162.326 99.543 162.08C99.4062 161.83 99.1992 161.635 98.9219 161.494C98.6445 161.35 98.293 161.277 97.8672 161.277C97.4648 161.277 97.1328 161.338 96.8711 161.459C96.6094 161.58 96.4141 161.744 96.2852 161.951C96.1602 162.158 96.0977 162.395 96.0977 162.66C96.0977 162.84 96.1348 163.004 96.209 163.152C96.2871 163.297 96.4062 163.432 96.5664 163.557C96.7305 163.682 96.9375 163.797 97.1875 163.902C97.4414 164.008 97.7441 164.109 98.0957 164.207C98.5801 164.344 98.998 164.496 99.3496 164.664C99.7012 164.832 99.9902 165.021 100.217 165.232C100.447 165.439 100.617 165.676 100.727 165.941C100.84 166.203 100.896 166.5 100.896 166.832C100.896 167.18 100.826 167.494 100.686 167.775C100.545 168.057 100.344 168.297 100.082 168.496C99.8203 168.695 99.5059 168.85 99.1387 168.959C98.7754 169.064 98.3691 169.117 97.9199 169.117C97.5254 169.117 97.1367 169.062 96.7539 168.953C96.375 168.844 96.0293 168.68 95.7168 168.461C95.4082 168.242 95.1602 167.973 94.9727 167.652C94.7891 167.328 94.6973 166.953 94.6973 166.527H95.8223C95.8223 166.82 95.8789 167.072 95.9922 167.283C96.1055 167.49 96.2598 167.662 96.4551 167.799C96.6543 167.936 96.8789 168.037 97.1289 168.104C97.3828 168.166 97.6465 168.197 97.9199 168.197C98.3145 168.197 98.6484 168.143 98.9219 168.033C99.1953 167.924 99.4023 167.768 99.543 167.564C99.6875 167.361 99.7598 167.121 99.7598 166.844ZM104.828 162.66V163.492H101.4V162.66H104.828ZM102.561 161.119H103.645V167.43C103.645 167.645 103.678 167.807 103.744 167.916C103.811 168.025 103.896 168.098 104.002 168.133C104.107 168.168 104.221 168.186 104.342 168.186C104.432 168.186 104.525 168.178 104.623 168.162C104.725 168.143 104.801 168.127 104.852 168.115L104.857 169C104.771 169.027 104.658 169.053 104.518 169.076C104.381 169.104 104.215 169.117 104.02 169.117C103.754 169.117 103.51 169.064 103.287 168.959C103.064 168.854 102.887 168.678 102.754 168.432C102.625 168.182 102.561 167.846 102.561 167.424V161.119ZM109.979 167.535V162.66H111.068V169H110.031L109.979 167.535ZM110.184 166.199L110.635 166.188C110.635 166.609 110.59 167 110.5 167.359C110.414 167.715 110.273 168.023 110.078 168.285C109.883 168.547 109.627 168.752 109.311 168.9C108.994 169.045 108.609 169.117 108.156 169.117C107.848 169.117 107.564 169.072 107.307 168.982C107.053 168.893 106.834 168.754 106.65 168.566C106.467 168.379 106.324 168.135 106.223 167.834C106.125 167.533 106.076 167.172 106.076 166.75V162.66H107.16V166.762C107.16 167.047 107.191 167.283 107.254 167.471C107.32 167.654 107.408 167.801 107.518 167.91C107.631 168.016 107.756 168.09 107.893 168.133C108.033 168.176 108.178 168.197 108.326 168.197C108.787 168.197 109.152 168.109 109.422 167.934C109.691 167.754 109.885 167.514 110.002 167.213C110.123 166.908 110.184 166.57 110.184 166.199ZM116.717 167.77V160H117.807V169H116.811L116.717 167.77ZM112.451 165.9V165.777C112.451 165.293 112.51 164.854 112.627 164.459C112.748 164.061 112.918 163.719 113.137 163.434C113.359 163.148 113.623 162.93 113.928 162.777C114.236 162.621 114.58 162.543 114.959 162.543C115.357 162.543 115.705 162.613 116.002 162.754C116.303 162.891 116.557 163.092 116.764 163.357C116.975 163.619 117.141 163.936 117.262 164.307C117.383 164.678 117.467 165.098 117.514 165.566V166.105C117.471 166.57 117.387 166.988 117.262 167.359C117.141 167.73 116.975 168.047 116.764 168.309C116.557 168.57 116.303 168.771 116.002 168.912C115.701 169.049 115.35 169.117 114.947 169.117C114.576 169.117 114.236 169.037 113.928 168.877C113.623 168.717 113.359 168.492 113.137 168.203C112.918 167.914 112.748 167.574 112.627 167.184C112.51 166.789 112.451 166.361 112.451 165.9ZM113.541 165.777V165.9C113.541 166.217 113.572 166.514 113.635 166.791C113.701 167.068 113.803 167.312 113.939 167.523C114.076 167.734 114.25 167.9 114.461 168.021C114.672 168.139 114.924 168.197 115.217 168.197C115.576 168.197 115.871 168.121 116.102 167.969C116.336 167.816 116.523 167.615 116.664 167.365C116.805 167.115 116.914 166.844 116.992 166.551V165.139C116.945 164.924 116.877 164.717 116.787 164.518C116.701 164.314 116.588 164.135 116.447 163.979C116.311 163.818 116.141 163.691 115.938 163.598C115.738 163.504 115.502 163.457 115.229 163.457C114.932 163.457 114.676 163.52 114.461 163.645C114.25 163.766 114.076 163.934 113.939 164.148C113.803 164.359 113.701 164.605 113.635 164.887C113.572 165.164 113.541 165.461 113.541 165.777ZM122.125 169.117C121.684 169.117 121.283 169.043 120.924 168.895C120.568 168.742 120.262 168.529 120.004 168.256C119.75 167.982 119.555 167.658 119.418 167.283C119.281 166.908 119.213 166.498 119.213 166.053V165.807C119.213 165.291 119.289 164.832 119.441 164.43C119.594 164.023 119.801 163.68 120.062 163.398C120.324 163.117 120.621 162.904 120.953 162.76C121.285 162.615 121.629 162.543 121.984 162.543C122.438 162.543 122.828 162.621 123.156 162.777C123.488 162.934 123.76 163.152 123.971 163.434C124.182 163.711 124.338 164.039 124.439 164.418C124.541 164.793 124.592 165.203 124.592 165.648V166.135H119.857V165.25H123.508V165.168C123.492 164.887 123.434 164.613 123.332 164.348C123.234 164.082 123.078 163.863 122.863 163.691C122.648 163.52 122.355 163.434 121.984 163.434C121.738 163.434 121.512 163.486 121.305 163.592C121.098 163.693 120.92 163.846 120.771 164.049C120.623 164.252 120.508 164.5 120.426 164.793C120.344 165.086 120.303 165.424 120.303 165.807V166.053C120.303 166.354 120.344 166.637 120.426 166.902C120.512 167.164 120.635 167.395 120.795 167.594C120.959 167.793 121.156 167.949 121.387 168.062C121.621 168.176 121.887 168.232 122.184 168.232C122.566 168.232 122.891 168.154 123.156 167.998C123.422 167.842 123.654 167.633 123.854 167.371L124.51 167.893C124.373 168.1 124.199 168.297 123.988 168.484C123.777 168.672 123.518 168.824 123.209 168.941C122.904 169.059 122.543 169.117 122.125 169.117ZM126.941 164.014V169H125.857V162.66H126.883L126.941 164.014ZM126.684 165.59L126.232 165.572C126.236 165.139 126.301 164.738 126.426 164.371C126.551 164 126.727 163.678 126.953 163.404C127.18 163.131 127.449 162.92 127.762 162.771C128.078 162.619 128.428 162.543 128.811 162.543C129.123 162.543 129.404 162.586 129.654 162.672C129.904 162.754 130.117 162.887 130.293 163.07C130.473 163.254 130.609 163.492 130.703 163.785C130.797 164.074 130.844 164.428 130.844 164.846V169H129.754V164.834C129.754 164.502 129.705 164.236 129.607 164.037C129.51 163.834 129.367 163.688 129.18 163.598C128.992 163.504 128.762 163.457 128.488 163.457C128.219 163.457 127.973 163.514 127.75 163.627C127.531 163.74 127.342 163.896 127.182 164.096C127.025 164.295 126.902 164.523 126.812 164.781C126.727 165.035 126.684 165.305 126.684 165.59ZM135.145 162.66V163.492H131.717V162.66H135.145ZM132.877 161.119H133.961V167.43C133.961 167.645 133.994 167.807 134.061 167.916C134.127 168.025 134.213 168.098 134.318 168.133C134.424 168.168 134.537 168.186 134.658 168.186C134.748 168.186 134.842 168.178 134.939 168.162C135.041 168.143 135.117 168.127 135.168 168.115L135.174 169C135.088 169.027 134.975 169.053 134.834 169.076C134.697 169.104 134.531 169.117 134.336 169.117C134.07 169.117 133.826 169.064 133.604 168.959C133.381 168.854 133.203 168.678 133.07 168.432C132.941 168.182 132.877 167.846 132.877 167.424V161.119ZM140.107 167.318C140.107 167.162 140.072 167.018 140.002 166.885C139.936 166.748 139.797 166.625 139.586 166.516C139.379 166.402 139.066 166.305 138.648 166.223C138.297 166.148 137.979 166.061 137.693 165.959C137.412 165.857 137.172 165.734 136.973 165.59C136.777 165.445 136.627 165.275 136.521 165.08C136.416 164.885 136.363 164.656 136.363 164.395C136.363 164.145 136.418 163.908 136.527 163.686C136.641 163.463 136.799 163.266 137.002 163.094C137.209 162.922 137.457 162.787 137.746 162.689C138.035 162.592 138.357 162.543 138.713 162.543C139.221 162.543 139.654 162.633 140.014 162.812C140.373 162.992 140.648 163.232 140.84 163.533C141.031 163.83 141.127 164.16 141.127 164.523H140.043C140.043 164.348 139.99 164.178 139.885 164.014C139.783 163.846 139.633 163.707 139.434 163.598C139.238 163.488 138.998 163.434 138.713 163.434C138.412 163.434 138.168 163.48 137.98 163.574C137.797 163.664 137.662 163.779 137.576 163.92C137.494 164.061 137.453 164.209 137.453 164.365C137.453 164.482 137.473 164.588 137.512 164.682C137.555 164.771 137.629 164.855 137.734 164.934C137.84 165.008 137.988 165.078 138.18 165.145C138.371 165.211 138.615 165.277 138.912 165.344C139.432 165.461 139.859 165.602 140.195 165.766C140.531 165.93 140.781 166.131 140.945 166.369C141.109 166.607 141.191 166.896 141.191 167.236C141.191 167.514 141.133 167.768 141.016 167.998C140.902 168.229 140.736 168.428 140.518 168.596C140.303 168.76 140.045 168.889 139.744 168.982C139.447 169.072 139.113 169.117 138.742 169.117C138.184 169.117 137.711 169.018 137.324 168.818C136.938 168.619 136.645 168.361 136.445 168.045C136.246 167.729 136.146 167.395 136.146 167.043H137.236C137.252 167.34 137.338 167.576 137.494 167.752C137.65 167.924 137.842 168.047 138.068 168.121C138.295 168.191 138.52 168.227 138.742 168.227C139.039 168.227 139.287 168.188 139.486 168.109C139.689 168.031 139.844 167.924 139.949 167.787C140.055 167.65 140.107 167.494 140.107 167.318Z" fill="#3F3F3F"/>
</svg>
