<svg width="230" height="180" viewBox="0 0 230 180" fill="none" xmlns="http://www.w3.org/2000/svg">
<rect width="230" height="180" rx="10" fill="white"/>
<path d="M19.6152 147.62V149H12.8389V147.62H19.6152ZM13.1816 136.203V149H11.4854V136.203H13.1816ZM18.7188 141.705V143.085H12.8389V141.705H18.7188ZM19.5273 136.203V137.592H12.8389V136.203H19.5273ZM23.2363 135.5V149H21.6016V135.5H23.2363ZM29.793 149.176C29.1309 149.176 28.5303 149.064 27.9912 148.842C27.458 148.613 26.998 148.294 26.6113 147.884C26.2305 147.474 25.9375 146.987 25.7324 146.425C25.5273 145.862 25.4248 145.247 25.4248 144.579V144.21C25.4248 143.437 25.5391 142.748 25.7676 142.145C25.9961 141.535 26.3066 141.02 26.6992 140.598C27.0918 140.176 27.5371 139.856 28.0352 139.64C28.5332 139.423 29.0488 139.314 29.582 139.314C30.2617 139.314 30.8477 139.432 31.3398 139.666C31.8379 139.9 32.2451 140.229 32.5615 140.65C32.8779 141.066 33.1123 141.559 33.2646 142.127C33.417 142.689 33.4932 143.305 33.4932 143.973V144.702H26.3916V143.375H31.8672V143.252C31.8438 142.83 31.7559 142.42 31.6035 142.021C31.457 141.623 31.2227 141.295 30.9004 141.037C30.5781 140.779 30.1387 140.65 29.582 140.65C29.2129 140.65 28.873 140.729 28.5625 140.888C28.252 141.04 27.9854 141.269 27.7627 141.573C27.54 141.878 27.3672 142.25 27.2441 142.689C27.1211 143.129 27.0596 143.636 27.0596 144.21V144.579C27.0596 145.03 27.1211 145.455 27.2441 145.854C27.373 146.246 27.5576 146.592 27.7979 146.891C28.0439 147.189 28.3398 147.424 28.6855 147.594C29.0371 147.764 29.4355 147.849 29.8809 147.849C30.4551 147.849 30.9414 147.731 31.3398 147.497C31.7383 147.263 32.0869 146.949 32.3857 146.557L33.3701 147.339C33.165 147.649 32.9043 147.945 32.5879 148.227C32.2715 148.508 31.8818 148.736 31.4189 148.912C30.9619 149.088 30.4199 149.176 29.793 149.176ZM37.0088 141.38V149H35.374V139.49H36.9209L37.0088 141.38ZM36.6748 143.885L35.9189 143.858C35.9248 143.208 36.0098 142.607 36.1738 142.057C36.3379 141.5 36.5811 141.017 36.9033 140.606C37.2256 140.196 37.627 139.88 38.1074 139.657C38.5879 139.429 39.1445 139.314 39.7773 139.314C40.2227 139.314 40.6328 139.379 41.0078 139.508C41.3828 139.631 41.708 139.827 41.9834 140.097C42.2588 140.366 42.4727 140.712 42.625 141.134C42.7773 141.556 42.8535 142.065 42.8535 142.663V149H41.2275V142.742C41.2275 142.244 41.1426 141.846 40.9727 141.547C40.8086 141.248 40.5742 141.031 40.2695 140.896C39.9648 140.756 39.6074 140.686 39.1973 140.686C38.7168 140.686 38.3154 140.771 37.9932 140.94C37.6709 141.11 37.4131 141.345 37.2197 141.644C37.0264 141.942 36.8857 142.285 36.7979 142.672C36.7158 143.053 36.6748 143.457 36.6748 143.885ZM42.8359 142.988L41.7461 143.322C41.752 142.801 41.8369 142.3 42.001 141.819C42.1709 141.339 42.4141 140.911 42.7305 140.536C43.0527 140.161 43.4482 139.865 43.917 139.648C44.3857 139.426 44.9219 139.314 45.5254 139.314C46.0352 139.314 46.4863 139.382 46.8789 139.517C47.2773 139.651 47.6113 139.859 47.8809 140.141C48.1562 140.416 48.3643 140.771 48.5049 141.204C48.6455 141.638 48.7158 142.153 48.7158 142.751V149H47.0811V142.733C47.0811 142.2 46.9961 141.787 46.8262 141.494C46.6621 141.195 46.4277 140.987 46.123 140.87C45.8242 140.747 45.4668 140.686 45.0508 140.686C44.6934 140.686 44.377 140.747 44.1016 140.87C43.8262 140.993 43.5947 141.163 43.4072 141.38C43.2197 141.591 43.0762 141.834 42.9766 142.109C42.8828 142.385 42.8359 142.678 42.8359 142.988ZM55.123 149.176C54.4609 149.176 53.8604 149.064 53.3213 148.842C52.7881 148.613 52.3281 148.294 51.9414 147.884C51.5605 147.474 51.2676 146.987 51.0625 146.425C50.8574 145.862 50.7549 145.247 50.7549 144.579V144.21C50.7549 143.437 50.8691 142.748 51.0977 142.145C51.3262 141.535 51.6367 141.02 52.0293 140.598C52.4219 140.176 52.8672 139.856 53.3652 139.64C53.8633 139.423 54.3789 139.314 54.9121 139.314C55.5918 139.314 56.1777 139.432 56.6699 139.666C57.168 139.9 57.5752 140.229 57.8916 140.65C58.208 141.066 58.4424 141.559 58.5947 142.127C58.7471 142.689 58.8232 143.305 58.8232 143.973V144.702H51.7217V143.375H57.1973V143.252C57.1738 142.83 57.0859 142.42 56.9336 142.021C56.7871 141.623 56.5527 141.295 56.2305 141.037C55.9082 140.779 55.4688 140.65 54.9121 140.65C54.543 140.65 54.2031 140.729 53.8926 140.888C53.582 141.04 53.3154 141.269 53.0928 141.573C52.8701 141.878 52.6973 142.25 52.5742 142.689C52.4512 143.129 52.3896 143.636 52.3896 144.21V144.579C52.3896 145.03 52.4512 145.455 52.5742 145.854C52.7031 146.246 52.8877 146.592 53.1279 146.891C53.374 147.189 53.6699 147.424 54.0156 147.594C54.3672 147.764 54.7656 147.849 55.2109 147.849C55.7852 147.849 56.2715 147.731 56.6699 147.497C57.0684 147.263 57.417 146.949 57.7158 146.557L58.7002 147.339C58.4951 147.649 58.2344 147.945 57.918 148.227C57.6016 148.508 57.2119 148.736 56.749 148.912C56.292 149.088 55.75 149.176 55.123 149.176ZM62.3477 141.521V149H60.7217V139.49H62.2598L62.3477 141.521ZM61.9609 143.885L61.2842 143.858C61.29 143.208 61.3867 142.607 61.5742 142.057C61.7617 141.5 62.0254 141.017 62.3652 140.606C62.7051 140.196 63.1094 139.88 63.5781 139.657C64.0527 139.429 64.5771 139.314 65.1514 139.314C65.6201 139.314 66.042 139.379 66.417 139.508C66.792 139.631 67.1113 139.83 67.375 140.105C67.6445 140.381 67.8496 140.738 67.9902 141.178C68.1309 141.611 68.2012 142.142 68.2012 142.769V149H66.5664V142.751C66.5664 142.253 66.4932 141.854 66.3467 141.556C66.2002 141.251 65.9863 141.031 65.7051 140.896C65.4238 140.756 65.0781 140.686 64.668 140.686C64.2637 140.686 63.8945 140.771 63.5605 140.94C63.2324 141.11 62.9482 141.345 62.708 141.644C62.4736 141.942 62.2891 142.285 62.1543 142.672C62.0254 143.053 61.9609 143.457 61.9609 143.885ZM74.6523 139.49V140.738H69.5107V139.49H74.6523ZM71.251 137.179H72.877V146.645C72.877 146.967 72.9268 147.21 73.0264 147.374C73.126 147.538 73.2549 147.646 73.4131 147.699C73.5713 147.752 73.7412 147.778 73.9229 147.778C74.0576 147.778 74.1982 147.767 74.3447 147.743C74.4971 147.714 74.6113 147.69 74.6875 147.673L74.6963 149C74.5674 149.041 74.3975 149.079 74.1865 149.114C73.9814 149.155 73.7324 149.176 73.4395 149.176C73.041 149.176 72.6748 149.097 72.3408 148.938C72.0068 148.78 71.7402 148.517 71.541 148.147C71.3477 147.772 71.251 147.269 71.251 146.636V137.179ZM82.167 147.374V142.479C82.167 142.104 82.0908 141.778 81.9385 141.503C81.792 141.222 81.5693 141.005 81.2705 140.853C80.9717 140.7 80.6025 140.624 80.1631 140.624C79.7529 140.624 79.3926 140.694 79.082 140.835C78.7773 140.976 78.5371 141.16 78.3613 141.389C78.1914 141.617 78.1064 141.863 78.1064 142.127H76.4805C76.4805 141.787 76.5684 141.45 76.7441 141.116C76.9199 140.782 77.1719 140.48 77.5 140.211C77.834 139.936 78.2324 139.719 78.6953 139.561C79.1641 139.396 79.6855 139.314 80.2598 139.314C80.9512 139.314 81.5605 139.432 82.0879 139.666C82.6211 139.9 83.0371 140.255 83.3359 140.729C83.6406 141.198 83.793 141.787 83.793 142.496V146.926C83.793 147.242 83.8193 147.579 83.8721 147.937C83.9307 148.294 84.0156 148.602 84.127 148.859V149H82.4307C82.3486 148.812 82.2842 148.563 82.2373 148.253C82.1904 147.937 82.167 147.644 82.167 147.374ZM82.4482 143.234L82.4658 144.377H80.8223C80.3594 144.377 79.9463 144.415 79.583 144.491C79.2197 144.562 78.915 144.67 78.6689 144.816C78.4229 144.963 78.2354 145.147 78.1064 145.37C77.9775 145.587 77.9131 145.842 77.9131 146.135C77.9131 146.434 77.9805 146.706 78.1152 146.952C78.25 147.198 78.4521 147.395 78.7217 147.541C78.9971 147.682 79.334 147.752 79.7324 147.752C80.2305 147.752 80.6699 147.646 81.0508 147.436C81.4316 147.225 81.7334 146.967 81.9561 146.662C82.1846 146.357 82.3076 146.062 82.3252 145.774L83.0195 146.557C82.9785 146.803 82.8672 147.075 82.6855 147.374C82.5039 147.673 82.2607 147.96 81.9561 148.235C81.6572 148.505 81.2998 148.73 80.8838 148.912C80.4736 149.088 80.0107 149.176 79.4951 149.176C78.8506 149.176 78.2852 149.05 77.7988 148.798C77.3184 148.546 76.9434 148.209 76.6738 147.787C76.4102 147.359 76.2783 146.882 76.2783 146.354C76.2783 145.845 76.3779 145.396 76.5771 145.01C76.7764 144.617 77.0635 144.292 77.4385 144.034C77.8135 143.771 78.2646 143.571 78.792 143.437C79.3193 143.302 79.9082 143.234 80.5586 143.234H82.4482ZM87.9766 140.984V149H86.3506V139.49H87.9326L87.9766 140.984ZM90.9473 139.438L90.9385 140.949C90.8037 140.92 90.6748 140.902 90.5518 140.896C90.4346 140.885 90.2998 140.879 90.1475 140.879C89.7725 140.879 89.4414 140.938 89.1543 141.055C88.8672 141.172 88.624 141.336 88.4248 141.547C88.2256 141.758 88.0674 142.01 87.9502 142.303C87.8389 142.59 87.7656 142.906 87.7305 143.252L87.2734 143.516C87.2734 142.941 87.3291 142.402 87.4404 141.898C87.5576 141.395 87.7363 140.949 87.9766 140.562C88.2168 140.17 88.5215 139.865 88.8906 139.648C89.2656 139.426 89.7109 139.314 90.2266 139.314C90.3438 139.314 90.4785 139.329 90.6309 139.358C90.7832 139.382 90.8887 139.408 90.9473 139.438ZM95.2803 148.016L97.9258 139.49H99.666L95.8516 150.468C95.7637 150.702 95.6465 150.954 95.5 151.224C95.3594 151.499 95.1777 151.76 94.9551 152.006C94.7324 152.252 94.4629 152.451 94.1465 152.604C93.8359 152.762 93.4639 152.841 93.0303 152.841C92.9014 152.841 92.7373 152.823 92.5381 152.788C92.3389 152.753 92.1982 152.724 92.1162 152.7L92.1074 151.382C92.1543 151.388 92.2275 151.394 92.3271 151.399C92.4326 151.411 92.5059 151.417 92.5469 151.417C92.916 151.417 93.2295 151.367 93.4873 151.268C93.7451 151.174 93.9619 151.013 94.1377 150.784C94.3193 150.562 94.4746 150.254 94.6035 149.861L95.2803 148.016ZM93.3379 139.49L95.8076 146.873L96.2295 148.587L95.0605 149.185L91.5625 139.49H93.3379ZM113.975 147.62V149H107.198V147.62H113.975ZM107.541 136.203V149H105.845V136.203H107.541ZM113.078 141.705V143.085H107.198V141.705H113.078ZM113.887 136.203V137.592H107.198V136.203H113.887ZM121.647 147.154V135.5H123.282V149H121.788L121.647 147.154ZM115.249 144.351V144.166C115.249 143.439 115.337 142.78 115.513 142.188C115.694 141.591 115.949 141.078 116.277 140.65C116.611 140.223 117.007 139.895 117.464 139.666C117.927 139.432 118.442 139.314 119.011 139.314C119.608 139.314 120.13 139.42 120.575 139.631C121.026 139.836 121.407 140.138 121.718 140.536C122.034 140.929 122.283 141.403 122.465 141.96C122.646 142.517 122.772 143.146 122.843 143.85V144.658C122.778 145.355 122.652 145.982 122.465 146.539C122.283 147.096 122.034 147.57 121.718 147.963C121.407 148.355 121.026 148.657 120.575 148.868C120.124 149.073 119.597 149.176 118.993 149.176C118.437 149.176 117.927 149.056 117.464 148.815C117.007 148.575 116.611 148.238 116.277 147.805C115.949 147.371 115.694 146.861 115.513 146.275C115.337 145.684 115.249 145.042 115.249 144.351ZM116.884 144.166V144.351C116.884 144.825 116.931 145.271 117.024 145.687C117.124 146.103 117.276 146.469 117.481 146.785C117.687 147.102 117.947 147.351 118.264 147.532C118.58 147.708 118.958 147.796 119.397 147.796C119.937 147.796 120.379 147.682 120.725 147.453C121.076 147.225 121.357 146.923 121.568 146.548C121.779 146.173 121.943 145.766 122.061 145.326V143.208C121.99 142.886 121.888 142.575 121.753 142.276C121.624 141.972 121.454 141.702 121.243 141.468C121.038 141.228 120.783 141.037 120.479 140.896C120.18 140.756 119.825 140.686 119.415 140.686C118.97 140.686 118.586 140.779 118.264 140.967C117.947 141.148 117.687 141.4 117.481 141.723C117.276 142.039 117.124 142.408 117.024 142.83C116.931 143.246 116.884 143.691 116.884 144.166ZM131.632 146.803V139.49H133.267V149H131.711L131.632 146.803ZM131.939 144.799L132.616 144.781C132.616 145.414 132.549 146 132.414 146.539C132.285 147.072 132.074 147.535 131.781 147.928C131.488 148.32 131.104 148.628 130.63 148.851C130.155 149.067 129.578 149.176 128.898 149.176C128.436 149.176 128.011 149.108 127.624 148.974C127.243 148.839 126.915 148.631 126.64 148.35C126.364 148.068 126.15 147.702 125.998 147.251C125.852 146.8 125.778 146.258 125.778 145.625V139.49H127.404V145.643C127.404 146.07 127.451 146.425 127.545 146.706C127.645 146.981 127.776 147.201 127.94 147.365C128.11 147.523 128.298 147.635 128.503 147.699C128.714 147.764 128.931 147.796 129.153 147.796C129.845 147.796 130.393 147.664 130.797 147.4C131.201 147.131 131.491 146.771 131.667 146.319C131.849 145.862 131.939 145.355 131.939 144.799ZM139.551 147.84C139.938 147.84 140.295 147.761 140.623 147.603C140.951 147.444 141.221 147.228 141.432 146.952C141.643 146.671 141.763 146.352 141.792 145.994H143.339C143.31 146.557 143.119 147.081 142.768 147.567C142.422 148.048 141.968 148.438 141.405 148.736C140.843 149.029 140.225 149.176 139.551 149.176C138.836 149.176 138.212 149.05 137.679 148.798C137.151 148.546 136.712 148.2 136.36 147.761C136.015 147.321 135.754 146.817 135.578 146.249C135.408 145.675 135.323 145.068 135.323 144.43V144.061C135.323 143.422 135.408 142.818 135.578 142.25C135.754 141.676 136.015 141.169 136.36 140.729C136.712 140.29 137.151 139.944 137.679 139.692C138.212 139.44 138.836 139.314 139.551 139.314C140.295 139.314 140.945 139.467 141.502 139.771C142.059 140.07 142.495 140.48 142.812 141.002C143.134 141.518 143.31 142.104 143.339 142.76H141.792C141.763 142.367 141.651 142.013 141.458 141.696C141.271 141.38 141.013 141.128 140.685 140.94C140.362 140.747 139.984 140.65 139.551 140.65C139.053 140.65 138.634 140.75 138.294 140.949C137.96 141.143 137.693 141.406 137.494 141.74C137.301 142.068 137.16 142.435 137.072 142.839C136.99 143.237 136.949 143.645 136.949 144.061V144.43C136.949 144.846 136.99 145.256 137.072 145.66C137.154 146.064 137.292 146.431 137.485 146.759C137.685 147.087 137.951 147.351 138.285 147.55C138.625 147.743 139.047 147.84 139.551 147.84ZM150.774 147.374V142.479C150.774 142.104 150.698 141.778 150.546 141.503C150.399 141.222 150.177 141.005 149.878 140.853C149.579 140.7 149.21 140.624 148.771 140.624C148.36 140.624 148 140.694 147.689 140.835C147.385 140.976 147.145 141.16 146.969 141.389C146.799 141.617 146.714 141.863 146.714 142.127H145.088C145.088 141.787 145.176 141.45 145.352 141.116C145.527 140.782 145.779 140.48 146.107 140.211C146.441 139.936 146.84 139.719 147.303 139.561C147.771 139.396 148.293 139.314 148.867 139.314C149.559 139.314 150.168 139.432 150.695 139.666C151.229 139.9 151.645 140.255 151.943 140.729C152.248 141.198 152.4 141.787 152.4 142.496V146.926C152.4 147.242 152.427 147.579 152.479 147.937C152.538 148.294 152.623 148.602 152.734 148.859V149H151.038C150.956 148.812 150.892 148.563 150.845 148.253C150.798 147.937 150.774 147.644 150.774 147.374ZM151.056 143.234L151.073 144.377H149.43C148.967 144.377 148.554 144.415 148.19 144.491C147.827 144.562 147.522 144.67 147.276 144.816C147.03 144.963 146.843 145.147 146.714 145.37C146.585 145.587 146.521 145.842 146.521 146.135C146.521 146.434 146.588 146.706 146.723 146.952C146.857 147.198 147.06 147.395 147.329 147.541C147.604 147.682 147.941 147.752 148.34 147.752C148.838 147.752 149.277 147.646 149.658 147.436C150.039 147.225 150.341 146.967 150.563 146.662C150.792 146.357 150.915 146.062 150.933 145.774L151.627 146.557C151.586 146.803 151.475 147.075 151.293 147.374C151.111 147.673 150.868 147.96 150.563 148.235C150.265 148.505 149.907 148.73 149.491 148.912C149.081 149.088 148.618 149.176 148.103 149.176C147.458 149.176 146.893 149.05 146.406 148.798C145.926 148.546 145.551 148.209 145.281 147.787C145.018 147.359 144.886 146.882 144.886 146.354C144.886 145.845 144.985 145.396 145.185 145.01C145.384 144.617 145.671 144.292 146.046 144.034C146.421 143.771 146.872 143.571 147.399 143.437C147.927 143.302 148.516 143.234 149.166 143.234H151.056ZM158.939 139.49V140.738H153.798V139.49H158.939ZM155.538 137.179H157.164V146.645C157.164 146.967 157.214 147.21 157.313 147.374C157.413 147.538 157.542 147.646 157.7 147.699C157.858 147.752 158.028 147.778 158.21 147.778C158.345 147.778 158.485 147.767 158.632 147.743C158.784 147.714 158.898 147.69 158.975 147.673L158.983 149C158.854 149.041 158.685 149.079 158.474 149.114C158.269 149.155 158.02 149.176 157.727 149.176C157.328 149.176 156.962 149.097 156.628 148.938C156.294 148.78 156.027 148.517 155.828 148.147C155.635 147.772 155.538 147.269 155.538 146.636V137.179ZM162.613 139.49V149H160.979V139.49H162.613ZM160.855 136.968C160.855 136.704 160.935 136.481 161.093 136.3C161.257 136.118 161.497 136.027 161.813 136.027C162.124 136.027 162.361 136.118 162.525 136.3C162.695 136.481 162.78 136.704 162.78 136.968C162.78 137.22 162.695 137.437 162.525 137.618C162.361 137.794 162.124 137.882 161.813 137.882C161.497 137.882 161.257 137.794 161.093 137.618C160.935 137.437 160.855 137.22 160.855 136.968ZM164.793 144.351V144.148C164.793 143.463 164.893 142.827 165.092 142.241C165.291 141.649 165.578 141.137 165.953 140.703C166.328 140.264 166.782 139.924 167.315 139.684C167.849 139.438 168.446 139.314 169.108 139.314C169.776 139.314 170.377 139.438 170.91 139.684C171.449 139.924 171.906 140.264 172.281 140.703C172.662 141.137 172.952 141.649 173.151 142.241C173.351 142.827 173.45 143.463 173.45 144.148V144.351C173.45 145.036 173.351 145.672 173.151 146.258C172.952 146.844 172.662 147.356 172.281 147.796C171.906 148.229 171.452 148.569 170.919 148.815C170.392 149.056 169.794 149.176 169.126 149.176C168.458 149.176 167.857 149.056 167.324 148.815C166.791 148.569 166.334 148.229 165.953 147.796C165.578 147.356 165.291 146.844 165.092 146.258C164.893 145.672 164.793 145.036 164.793 144.351ZM166.419 144.148V144.351C166.419 144.825 166.475 145.273 166.586 145.695C166.697 146.111 166.864 146.48 167.087 146.803C167.315 147.125 167.6 147.38 167.939 147.567C168.279 147.749 168.675 147.84 169.126 147.84C169.571 147.84 169.961 147.749 170.295 147.567C170.635 147.38 170.916 147.125 171.139 146.803C171.361 146.48 171.528 146.111 171.64 145.695C171.757 145.273 171.815 144.825 171.815 144.351V144.148C171.815 143.68 171.757 143.237 171.64 142.821C171.528 142.399 171.358 142.027 171.13 141.705C170.907 141.377 170.626 141.119 170.286 140.932C169.952 140.744 169.56 140.65 169.108 140.65C168.663 140.65 168.271 140.744 167.931 140.932C167.597 141.119 167.315 141.377 167.087 141.705C166.864 142.027 166.697 142.399 166.586 142.821C166.475 143.237 166.419 143.68 166.419 144.148ZM177.115 141.521V149H175.489V139.49H177.027L177.115 141.521ZM176.729 143.885L176.052 143.858C176.058 143.208 176.154 142.607 176.342 142.057C176.529 141.5 176.793 141.017 177.133 140.606C177.473 140.196 177.877 139.88 178.346 139.657C178.82 139.429 179.345 139.314 179.919 139.314C180.388 139.314 180.81 139.379 181.185 139.508C181.56 139.631 181.879 139.83 182.143 140.105C182.412 140.381 182.617 140.738 182.758 141.178C182.898 141.611 182.969 142.142 182.969 142.769V149H181.334V142.751C181.334 142.253 181.261 141.854 181.114 141.556C180.968 141.251 180.754 141.031 180.473 140.896C180.191 140.756 179.846 140.686 179.436 140.686C179.031 140.686 178.662 140.771 178.328 140.94C178 141.11 177.716 141.345 177.476 141.644C177.241 141.942 177.057 142.285 176.922 142.672C176.793 143.053 176.729 143.457 176.729 143.885Z" fill="#26C2AC"/>
<path d="M16.2988 168.109V169H10.7148V168.221L13.5098 165.109C13.8535 164.727 14.1191 164.402 14.3066 164.137C14.498 163.867 14.6309 163.627 14.7051 163.416C14.7832 163.201 14.8223 162.982 14.8223 162.76C14.8223 162.479 14.7637 162.225 14.6465 161.998C14.5332 161.768 14.3652 161.584 14.1426 161.447C13.9199 161.311 13.6504 161.242 13.334 161.242C12.9551 161.242 12.6387 161.316 12.3848 161.465C12.1348 161.609 11.9473 161.812 11.8223 162.074C11.6973 162.336 11.6348 162.637 11.6348 162.977H10.5508C10.5508 162.496 10.6562 162.057 10.8672 161.658C11.0781 161.26 11.3906 160.943 11.8047 160.709C12.2188 160.471 12.7285 160.352 13.334 160.352C13.873 160.352 14.334 160.447 14.7168 160.639C15.0996 160.826 15.3926 161.092 15.5957 161.436C15.8027 161.775 15.9062 162.174 15.9062 162.631C15.9062 162.881 15.8633 163.135 15.7773 163.393C15.6953 163.646 15.5801 163.9 15.4316 164.154C15.2871 164.408 15.1172 164.658 14.9219 164.904C14.7305 165.15 14.5254 165.393 14.3066 165.631L12.0215 168.109H16.2988ZM22.8145 164.055V165.355C22.8145 166.055 22.752 166.645 22.627 167.125C22.502 167.605 22.3223 167.992 22.0879 168.285C21.8535 168.578 21.5703 168.791 21.2383 168.924C20.9102 169.053 20.5391 169.117 20.125 169.117C19.7969 169.117 19.4941 169.076 19.2168 168.994C18.9395 168.912 18.6895 168.781 18.4668 168.602C18.248 168.418 18.0605 168.18 17.9043 167.887C17.748 167.594 17.6289 167.238 17.5469 166.82C17.4648 166.402 17.4238 165.914 17.4238 165.355V164.055C17.4238 163.355 17.4863 162.77 17.6113 162.297C17.7402 161.824 17.9219 161.445 18.1562 161.16C18.3906 160.871 18.6719 160.664 19 160.539C19.332 160.414 19.7031 160.352 20.1133 160.352C20.4453 160.352 20.75 160.393 21.0273 160.475C21.3086 160.553 21.5586 160.68 21.7773 160.855C21.9961 161.027 22.1816 161.258 22.334 161.547C22.4902 161.832 22.6094 162.182 22.6914 162.596C22.7734 163.01 22.8145 163.496 22.8145 164.055ZM21.7246 165.531V163.873C21.7246 163.49 21.7012 163.154 21.6543 162.865C21.6113 162.572 21.5469 162.322 21.4609 162.115C21.375 161.908 21.2656 161.74 21.1328 161.611C21.0039 161.482 20.8535 161.389 20.6816 161.33C20.5137 161.268 20.3242 161.236 20.1133 161.236C19.8555 161.236 19.627 161.285 19.4277 161.383C19.2285 161.477 19.0605 161.627 18.9238 161.834C18.791 162.041 18.6895 162.312 18.6191 162.648C18.5488 162.984 18.5137 163.393 18.5137 163.873V165.531C18.5137 165.914 18.5352 166.252 18.5781 166.545C18.625 166.838 18.6934 167.092 18.7832 167.307C18.873 167.518 18.9824 167.691 19.1113 167.828C19.2402 167.965 19.3887 168.066 19.5566 168.133C19.7285 168.195 19.918 168.227 20.125 168.227C20.3906 168.227 20.623 168.176 20.8223 168.074C21.0215 167.973 21.1875 167.814 21.3203 167.6C21.457 167.381 21.5586 167.102 21.625 166.762C21.6914 166.418 21.7246 166.008 21.7246 165.531ZM29.5645 164.055V165.355C29.5645 166.055 29.502 166.645 29.377 167.125C29.252 167.605 29.0723 167.992 28.8379 168.285C28.6035 168.578 28.3203 168.791 27.9883 168.924C27.6602 169.053 27.2891 169.117 26.875 169.117C26.5469 169.117 26.2441 169.076 25.9668 168.994C25.6895 168.912 25.4395 168.781 25.2168 168.602C24.998 168.418 24.8105 168.18 24.6543 167.887C24.498 167.594 24.3789 167.238 24.2969 166.82C24.2148 166.402 24.1738 165.914 24.1738 165.355V164.055C24.1738 163.355 24.2363 162.77 24.3613 162.297C24.4902 161.824 24.6719 161.445 24.9062 161.16C25.1406 160.871 25.4219 160.664 25.75 160.539C26.082 160.414 26.4531 160.352 26.8633 160.352C27.1953 160.352 27.5 160.393 27.7773 160.475C28.0586 160.553 28.3086 160.68 28.5273 160.855C28.7461 161.027 28.9316 161.258 29.084 161.547C29.2402 161.832 29.3594 162.182 29.4414 162.596C29.5234 163.01 29.5645 163.496 29.5645 164.055ZM28.4746 165.531V163.873C28.4746 163.49 28.4512 163.154 28.4043 162.865C28.3613 162.572 28.2969 162.322 28.2109 162.115C28.125 161.908 28.0156 161.74 27.8828 161.611C27.7539 161.482 27.6035 161.389 27.4316 161.33C27.2637 161.268 27.0742 161.236 26.8633 161.236C26.6055 161.236 26.377 161.285 26.1777 161.383C25.9785 161.477 25.8105 161.627 25.6738 161.834C25.541 162.041 25.4395 162.312 25.3691 162.648C25.2988 162.984 25.2637 163.393 25.2637 163.873V165.531C25.2637 165.914 25.2852 166.252 25.3281 166.545C25.375 166.838 25.4434 167.092 25.5332 167.307C25.623 167.518 25.7324 167.691 25.8613 167.828C25.9902 167.965 26.1387 168.066 26.3066 168.133C26.4785 168.195 26.668 168.227 26.875 168.227C27.1406 168.227 27.373 168.176 27.5723 168.074C27.7715 167.973 27.9375 167.814 28.0703 167.6C28.207 167.381 28.3086 167.102 28.375 166.762C28.4414 166.418 28.4746 166.008 28.4746 165.531ZM36.5547 164.424V165.443H30.707V164.424H36.5547ZM34.1758 161.934V168.145H33.0918V161.934H34.1758ZM47.3301 164.752V167.875C47.2246 168.031 47.0566 168.207 46.8262 168.402C46.5957 168.594 46.2773 168.762 45.8711 168.906C45.4688 169.047 44.9492 169.117 44.3125 169.117C43.793 169.117 43.3145 169.027 42.877 168.848C42.4434 168.664 42.0664 168.398 41.7461 168.051C41.4297 167.699 41.1836 167.273 41.0078 166.773C40.8359 166.27 40.75 165.699 40.75 165.062V164.4C40.75 163.764 40.8242 163.195 40.9727 162.695C41.125 162.195 41.3477 161.771 41.6406 161.424C41.9336 161.072 42.293 160.807 42.7188 160.627C43.1445 160.443 43.6328 160.352 44.1836 160.352C44.8359 160.352 45.3809 160.465 45.8184 160.691C46.2598 160.914 46.6035 161.223 46.8496 161.617C47.0996 162.012 47.2598 162.461 47.3301 162.965H46.1992C46.1484 162.656 46.0469 162.375 45.8945 162.121C45.7461 161.867 45.5332 161.664 45.2559 161.512C44.9785 161.355 44.6211 161.277 44.1836 161.277C43.7891 161.277 43.4473 161.35 43.1582 161.494C42.8691 161.639 42.6309 161.846 42.4434 162.115C42.2559 162.385 42.1152 162.711 42.0215 163.094C41.9316 163.477 41.8867 163.908 41.8867 164.389V165.062C41.8867 165.555 41.9434 165.994 42.0566 166.381C42.1738 166.768 42.3398 167.098 42.5547 167.371C42.7695 167.641 43.0254 167.846 43.3223 167.986C43.623 168.127 43.9551 168.197 44.3184 168.197C44.7207 168.197 45.0469 168.164 45.2969 168.098C45.5469 168.027 45.7422 167.945 45.8828 167.852C46.0234 167.754 46.1309 167.662 46.2051 167.576V165.666H44.2305V164.752H47.3301ZM50.125 163.656V169H49.041V162.66H50.0957L50.125 163.656ZM52.1055 162.625L52.0996 163.633C52.0098 163.613 51.9238 163.602 51.8418 163.598C51.7637 163.59 51.6738 163.586 51.5723 163.586C51.3223 163.586 51.1016 163.625 50.9102 163.703C50.7188 163.781 50.5566 163.891 50.4238 164.031C50.291 164.172 50.1855 164.34 50.1074 164.535C50.0332 164.727 49.9844 164.938 49.9609 165.168L49.6562 165.344C49.6562 164.961 49.6934 164.602 49.7676 164.266C49.8457 163.93 49.9648 163.633 50.125 163.375C50.2852 163.113 50.4883 162.91 50.7344 162.766C50.9844 162.617 51.2812 162.543 51.625 162.543C51.7031 162.543 51.793 162.553 51.8945 162.572C51.9961 162.588 52.0664 162.605 52.1055 162.625ZM56.6113 167.916V164.652C56.6113 164.402 56.5605 164.186 56.459 164.002C56.3613 163.814 56.2129 163.67 56.0137 163.568C55.8145 163.467 55.5684 163.416 55.2754 163.416C55.002 163.416 54.7617 163.463 54.5547 163.557C54.3516 163.65 54.1914 163.773 54.0742 163.926C53.9609 164.078 53.9043 164.242 53.9043 164.418H52.8203C52.8203 164.191 52.8789 163.967 52.9961 163.744C53.1133 163.521 53.2812 163.32 53.5 163.141C53.7227 162.957 53.9883 162.812 54.2969 162.707C54.6094 162.598 54.957 162.543 55.3398 162.543C55.8008 162.543 56.207 162.621 56.5586 162.777C56.9141 162.934 57.1914 163.17 57.3906 163.486C57.5938 163.799 57.6953 164.191 57.6953 164.664V167.617C57.6953 167.828 57.7129 168.053 57.748 168.291C57.7871 168.529 57.8438 168.734 57.918 168.906V169H56.7871C56.7324 168.875 56.6895 168.709 56.6582 168.502C56.627 168.291 56.6113 168.096 56.6113 167.916ZM56.7988 165.156L56.8105 165.918H55.7148C55.4062 165.918 55.1309 165.943 54.8887 165.994C54.6465 166.041 54.4434 166.113 54.2793 166.211C54.1152 166.309 53.9902 166.432 53.9043 166.58C53.8184 166.725 53.7754 166.895 53.7754 167.09C53.7754 167.289 53.8203 167.471 53.9102 167.635C54 167.799 54.1348 167.93 54.3145 168.027C54.498 168.121 54.7227 168.168 54.9883 168.168C55.3203 168.168 55.6133 168.098 55.8672 167.957C56.1211 167.816 56.3223 167.645 56.4707 167.441C56.623 167.238 56.7051 167.041 56.7168 166.85L57.1797 167.371C57.1523 167.535 57.0781 167.717 56.957 167.916C56.8359 168.115 56.6738 168.307 56.4707 168.49C56.2715 168.67 56.0332 168.82 55.7559 168.941C55.4824 169.059 55.1738 169.117 54.8301 169.117C54.4004 169.117 54.0234 169.033 53.6992 168.865C53.3789 168.697 53.1289 168.473 52.9492 168.191C52.7734 167.906 52.6855 167.588 52.6855 167.236C52.6855 166.896 52.752 166.598 52.8848 166.34C53.0176 166.078 53.209 165.861 53.459 165.689C53.709 165.514 54.0098 165.381 54.3613 165.291C54.7129 165.201 55.1055 165.156 55.5391 165.156H56.7988ZM63.3965 167.77V160H64.4863V169H63.4902L63.3965 167.77ZM59.1309 165.9V165.777C59.1309 165.293 59.1895 164.854 59.3066 164.459C59.4277 164.061 59.5977 163.719 59.8164 163.434C60.0391 163.148 60.3027 162.93 60.6074 162.777C60.916 162.621 61.2598 162.543 61.6387 162.543C62.0371 162.543 62.3848 162.613 62.6816 162.754C62.9824 162.891 63.2363 163.092 63.4434 163.357C63.6543 163.619 63.8203 163.936 63.9414 164.307C64.0625 164.678 64.1465 165.098 64.1934 165.566V166.105C64.1504 166.57 64.0664 166.988 63.9414 167.359C63.8203 167.73 63.6543 168.047 63.4434 168.309C63.2363 168.57 62.9824 168.771 62.6816 168.912C62.3809 169.049 62.0293 169.117 61.627 169.117C61.2559 169.117 60.916 169.037 60.6074 168.877C60.3027 168.717 60.0391 168.492 59.8164 168.203C59.5977 167.914 59.4277 167.574 59.3066 167.184C59.1895 166.789 59.1309 166.361 59.1309 165.9ZM60.2207 165.777V165.9C60.2207 166.217 60.252 166.514 60.3145 166.791C60.3809 167.068 60.4824 167.312 60.6191 167.523C60.7559 167.734 60.9297 167.9 61.1406 168.021C61.3516 168.139 61.6035 168.197 61.8965 168.197C62.2559 168.197 62.5508 168.121 62.7812 167.969C63.0156 167.816 63.2031 167.615 63.3438 167.365C63.4844 167.115 63.5938 166.844 63.6719 166.551V165.139C63.625 164.924 63.5566 164.717 63.4668 164.518C63.3809 164.314 63.2676 164.135 63.127 163.979C62.9902 163.818 62.8203 163.691 62.6172 163.598C62.418 163.504 62.1816 163.457 61.9082 163.457C61.6113 163.457 61.3555 163.52 61.1406 163.645C60.9297 163.766 60.7559 163.934 60.6191 164.148C60.4824 164.359 60.3809 164.605 60.3145 164.887C60.252 165.164 60.2207 165.461 60.2207 165.777ZM70.0527 167.535V162.66H71.1426V169H70.1055L70.0527 167.535ZM70.2578 166.199L70.709 166.188C70.709 166.609 70.6641 167 70.5742 167.359C70.4883 167.715 70.3477 168.023 70.1523 168.285C69.957 168.547 69.7012 168.752 69.3848 168.9C69.0684 169.045 68.6836 169.117 68.2305 169.117C67.9219 169.117 67.6387 169.072 67.3809 168.982C67.127 168.893 66.9082 168.754 66.7246 168.566C66.541 168.379 66.3984 168.135 66.2969 167.834C66.1992 167.533 66.1504 167.172 66.1504 166.75V162.66H67.2344V166.762C67.2344 167.047 67.2656 167.283 67.3281 167.471C67.3945 167.654 67.4824 167.801 67.5918 167.91C67.7051 168.016 67.8301 168.09 67.9668 168.133C68.1074 168.176 68.252 168.197 68.4004 168.197C68.8613 168.197 69.2266 168.109 69.4961 167.934C69.7656 167.754 69.959 167.514 70.0762 167.213C70.1973 166.908 70.2578 166.57 70.2578 166.199ZM76.5332 167.916V164.652C76.5332 164.402 76.4824 164.186 76.3809 164.002C76.2832 163.814 76.1348 163.67 75.9355 163.568C75.7363 163.467 75.4902 163.416 75.1973 163.416C74.9238 163.416 74.6836 163.463 74.4766 163.557C74.2734 163.65 74.1133 163.773 73.9961 163.926C73.8828 164.078 73.8262 164.242 73.8262 164.418H72.7422C72.7422 164.191 72.8008 163.967 72.918 163.744C73.0352 163.521 73.2031 163.32 73.4219 163.141C73.6445 162.957 73.9102 162.812 74.2188 162.707C74.5312 162.598 74.8789 162.543 75.2617 162.543C75.7227 162.543 76.1289 162.621 76.4805 162.777C76.8359 162.934 77.1133 163.17 77.3125 163.486C77.5156 163.799 77.6172 164.191 77.6172 164.664V167.617C77.6172 167.828 77.6348 168.053 77.6699 168.291C77.709 168.529 77.7656 168.734 77.8398 168.906V169H76.709C76.6543 168.875 76.6113 168.709 76.5801 168.502C76.5488 168.291 76.5332 168.096 76.5332 167.916ZM76.7207 165.156L76.7324 165.918H75.6367C75.3281 165.918 75.0527 165.943 74.8105 165.994C74.5684 166.041 74.3652 166.113 74.2012 166.211C74.0371 166.309 73.9121 166.432 73.8262 166.58C73.7402 166.725 73.6973 166.895 73.6973 167.09C73.6973 167.289 73.7422 167.471 73.832 167.635C73.9219 167.799 74.0566 167.93 74.2363 168.027C74.4199 168.121 74.6445 168.168 74.9102 168.168C75.2422 168.168 75.5352 168.098 75.7891 167.957C76.043 167.816 76.2441 167.645 76.3926 167.441C76.5449 167.238 76.627 167.041 76.6387 166.85L77.1016 167.371C77.0742 167.535 77 167.717 76.8789 167.916C76.7578 168.115 76.5957 168.307 76.3926 168.49C76.1934 168.67 75.9551 168.82 75.6777 168.941C75.4043 169.059 75.0957 169.117 74.752 169.117C74.3223 169.117 73.9453 169.033 73.6211 168.865C73.3008 168.697 73.0508 168.473 72.8711 168.191C72.6953 167.906 72.6074 167.588 72.6074 167.236C72.6074 166.896 72.6738 166.598 72.8066 166.34C72.9395 166.078 73.1309 165.861 73.3809 165.689C73.6309 165.514 73.9316 165.381 74.2832 165.291C74.6348 165.201 75.0273 165.156 75.4609 165.156H76.7207ZM81.9766 162.66V163.492H78.5488V162.66H81.9766ZM79.709 161.119H80.793V167.43C80.793 167.645 80.8262 167.807 80.8926 167.916C80.959 168.025 81.0449 168.098 81.1504 168.133C81.2559 168.168 81.3691 168.186 81.4902 168.186C81.5801 168.186 81.6738 168.178 81.7715 168.162C81.873 168.143 81.9492 168.127 82 168.115L82.0059 169C81.9199 169.027 81.8066 169.053 81.666 169.076C81.5293 169.104 81.3633 169.117 81.168 169.117C80.9023 169.117 80.6582 169.064 80.4355 168.959C80.2129 168.854 80.0352 168.678 79.9023 168.432C79.7734 168.182 79.709 167.846 79.709 167.424V161.119ZM85.8789 169.117C85.4375 169.117 85.0371 169.043 84.6777 168.895C84.3223 168.742 84.0156 168.529 83.7578 168.256C83.5039 167.982 83.3086 167.658 83.1719 167.283C83.0352 166.908 82.9668 166.498 82.9668 166.053V165.807C82.9668 165.291 83.043 164.832 83.1953 164.43C83.3477 164.023 83.5547 163.68 83.8164 163.398C84.0781 163.117 84.375 162.904 84.707 162.76C85.0391 162.615 85.3828 162.543 85.7383 162.543C86.1914 162.543 86.582 162.621 86.9102 162.777C87.2422 162.934 87.5137 163.152 87.7246 163.434C87.9355 163.711 88.0918 164.039 88.1934 164.418C88.2949 164.793 88.3457 165.203 88.3457 165.648V166.135H83.6113V165.25H87.2617V165.168C87.2461 164.887 87.1875 164.613 87.0859 164.348C86.9883 164.082 86.832 163.863 86.6172 163.691C86.4023 163.52 86.1094 163.434 85.7383 163.434C85.4922 163.434 85.2656 163.486 85.0586 163.592C84.8516 163.693 84.6738 163.846 84.5254 164.049C84.377 164.252 84.2617 164.5 84.1797 164.793C84.0977 165.086 84.0566 165.424 84.0566 165.807V166.053C84.0566 166.354 84.0977 166.637 84.1797 166.902C84.2656 167.164 84.3887 167.395 84.5488 167.594C84.7129 167.793 84.9102 167.949 85.1406 168.062C85.375 168.176 85.6406 168.232 85.9375 168.232C86.3203 168.232 86.6445 168.154 86.9102 167.998C87.1758 167.842 87.4082 167.633 87.6074 167.371L88.2637 167.893C88.127 168.1 87.9531 168.297 87.7422 168.484C87.5312 168.672 87.2715 168.824 86.9629 168.941C86.6582 169.059 86.2969 169.117 85.8789 169.117ZM93.6074 167.77V160H94.6973V169H93.7012L93.6074 167.77ZM89.3418 165.9V165.777C89.3418 165.293 89.4004 164.854 89.5176 164.459C89.6387 164.061 89.8086 163.719 90.0273 163.434C90.25 163.148 90.5137 162.93 90.8184 162.777C91.127 162.621 91.4707 162.543 91.8496 162.543C92.248 162.543 92.5957 162.613 92.8926 162.754C93.1934 162.891 93.4473 163.092 93.6543 163.357C93.8652 163.619 94.0312 163.936 94.1523 164.307C94.2734 164.678 94.3574 165.098 94.4043 165.566V166.105C94.3613 166.57 94.2773 166.988 94.1523 167.359C94.0312 167.73 93.8652 168.047 93.6543 168.309C93.4473 168.57 93.1934 168.771 92.8926 168.912C92.5918 169.049 92.2402 169.117 91.8379 169.117C91.4668 169.117 91.127 169.037 90.8184 168.877C90.5137 168.717 90.25 168.492 90.0273 168.203C89.8086 167.914 89.6387 167.574 89.5176 167.184C89.4004 166.789 89.3418 166.361 89.3418 165.9ZM90.4316 165.777V165.9C90.4316 166.217 90.4629 166.514 90.5254 166.791C90.5918 167.068 90.6934 167.312 90.8301 167.523C90.9668 167.734 91.1406 167.9 91.3516 168.021C91.5625 168.139 91.8145 168.197 92.1074 168.197C92.4668 168.197 92.7617 168.121 92.9922 167.969C93.2266 167.816 93.4141 167.615 93.5547 167.365C93.6953 167.115 93.8047 166.844 93.8828 166.551V165.139C93.8359 164.924 93.7676 164.717 93.6777 164.518C93.5918 164.314 93.4785 164.135 93.3379 163.979C93.2012 163.818 93.0312 163.691 92.8281 163.598C92.6289 163.504 92.3926 163.457 92.1191 163.457C91.8223 163.457 91.5664 163.52 91.3516 163.645C91.1406 163.766 90.9668 163.934 90.8301 164.148C90.6934 164.359 90.5918 164.605 90.5254 164.887C90.4629 165.164 90.4316 165.461 90.4316 165.777ZM104.072 166.844C104.072 166.645 104.041 166.469 103.979 166.316C103.92 166.16 103.814 166.02 103.662 165.895C103.514 165.77 103.307 165.65 103.041 165.537C102.779 165.424 102.447 165.309 102.045 165.191C101.623 165.066 101.242 164.928 100.902 164.775C100.562 164.619 100.271 164.441 100.029 164.242C99.7871 164.043 99.6016 163.814 99.4727 163.557C99.3438 163.299 99.2793 163.004 99.2793 162.672C99.2793 162.34 99.3477 162.033 99.4844 161.752C99.6211 161.471 99.8164 161.227 100.07 161.02C100.328 160.809 100.635 160.645 100.99 160.527C101.346 160.41 101.742 160.352 102.18 160.352C102.82 160.352 103.363 160.475 103.809 160.721C104.258 160.963 104.6 161.281 104.834 161.676C105.068 162.066 105.186 162.484 105.186 162.93H104.061C104.061 162.609 103.992 162.326 103.855 162.08C103.719 161.83 103.512 161.635 103.234 161.494C102.957 161.35 102.605 161.277 102.18 161.277C101.777 161.277 101.445 161.338 101.184 161.459C100.922 161.58 100.727 161.744 100.598 161.951C100.473 162.158 100.41 162.395 100.41 162.66C100.41 162.84 100.447 163.004 100.521 163.152C100.6 163.297 100.719 163.432 100.879 163.557C101.043 163.682 101.25 163.797 101.5 163.902C101.754 164.008 102.057 164.109 102.408 164.207C102.893 164.344 103.311 164.496 103.662 164.664C104.014 164.832 104.303 165.021 104.529 165.232C104.76 165.439 104.93 165.676 105.039 165.941C105.152 166.203 105.209 166.5 105.209 166.832C105.209 167.18 105.139 167.494 104.998 167.775C104.857 168.057 104.656 168.297 104.395 168.496C104.133 168.695 103.818 168.85 103.451 168.959C103.088 169.064 102.682 169.117 102.232 169.117C101.838 169.117 101.449 169.062 101.066 168.953C100.688 168.844 100.342 168.68 100.029 168.461C99.7207 168.242 99.4727 167.973 99.2852 167.652C99.1016 167.328 99.0098 166.953 99.0098 166.527H100.135C100.135 166.82 100.191 167.072 100.305 167.283C100.418 167.49 100.572 167.662 100.768 167.799C100.967 167.936 101.191 168.037 101.441 168.104C101.695 168.166 101.959 168.197 102.232 168.197C102.627 168.197 102.961 168.143 103.234 168.033C103.508 167.924 103.715 167.768 103.855 167.564C104 167.361 104.072 167.121 104.072 166.844ZM109.141 162.66V163.492H105.713V162.66H109.141ZM106.873 161.119H107.957V167.43C107.957 167.645 107.99 167.807 108.057 167.916C108.123 168.025 108.209 168.098 108.314 168.133C108.42 168.168 108.533 168.186 108.654 168.186C108.744 168.186 108.838 168.178 108.936 168.162C109.037 168.143 109.113 168.127 109.164 168.115L109.17 169C109.084 169.027 108.971 169.053 108.83 169.076C108.693 169.104 108.527 169.117 108.332 169.117C108.066 169.117 107.822 169.064 107.6 168.959C107.377 168.854 107.199 168.678 107.066 168.432C106.938 168.182 106.873 167.846 106.873 167.424V161.119ZM114.291 167.535V162.66H115.381V169H114.344L114.291 167.535ZM114.496 166.199L114.947 166.188C114.947 166.609 114.902 167 114.812 167.359C114.727 167.715 114.586 168.023 114.391 168.285C114.195 168.547 113.939 168.752 113.623 168.9C113.307 169.045 112.922 169.117 112.469 169.117C112.16 169.117 111.877 169.072 111.619 168.982C111.365 168.893 111.146 168.754 110.963 168.566C110.779 168.379 110.637 168.135 110.535 167.834C110.438 167.533 110.389 167.172 110.389 166.75V162.66H111.473V166.762C111.473 167.047 111.504 167.283 111.566 167.471C111.633 167.654 111.721 167.801 111.83 167.91C111.943 168.016 112.068 168.09 112.205 168.133C112.346 168.176 112.49 168.197 112.639 168.197C113.1 168.197 113.465 168.109 113.734 167.934C114.004 167.754 114.197 167.514 114.314 167.213C114.436 166.908 114.496 166.57 114.496 166.199ZM121.029 167.77V160H122.119V169H121.123L121.029 167.77ZM116.764 165.9V165.777C116.764 165.293 116.822 164.854 116.939 164.459C117.061 164.061 117.23 163.719 117.449 163.434C117.672 163.148 117.936 162.93 118.24 162.777C118.549 162.621 118.893 162.543 119.271 162.543C119.67 162.543 120.018 162.613 120.314 162.754C120.615 162.891 120.869 163.092 121.076 163.357C121.287 163.619 121.453 163.936 121.574 164.307C121.695 164.678 121.779 165.098 121.826 165.566V166.105C121.783 166.57 121.699 166.988 121.574 167.359C121.453 167.73 121.287 168.047 121.076 168.309C120.869 168.57 120.615 168.771 120.314 168.912C120.014 169.049 119.662 169.117 119.26 169.117C118.889 169.117 118.549 169.037 118.24 168.877C117.936 168.717 117.672 168.492 117.449 168.203C117.23 167.914 117.061 167.574 116.939 167.184C116.822 166.789 116.764 166.361 116.764 165.9ZM117.854 165.777V165.9C117.854 166.217 117.885 166.514 117.947 166.791C118.014 167.068 118.115 167.312 118.252 167.523C118.389 167.734 118.562 167.9 118.773 168.021C118.984 168.139 119.236 168.197 119.529 168.197C119.889 168.197 120.184 168.121 120.414 167.969C120.648 167.816 120.836 167.615 120.977 167.365C121.117 167.115 121.227 166.844 121.305 166.551V165.139C121.258 164.924 121.189 164.717 121.1 164.518C121.014 164.314 120.9 164.135 120.76 163.979C120.623 163.818 120.453 163.691 120.25 163.598C120.051 163.504 119.814 163.457 119.541 163.457C119.244 163.457 118.988 163.52 118.773 163.645C118.562 163.766 118.389 163.934 118.252 164.148C118.115 164.359 118.014 164.605 117.947 164.887C117.885 165.164 117.854 165.461 117.854 165.777ZM126.438 169.117C125.996 169.117 125.596 169.043 125.236 168.895C124.881 168.742 124.574 168.529 124.316 168.256C124.062 167.982 123.867 167.658 123.73 167.283C123.594 166.908 123.525 166.498 123.525 166.053V165.807C123.525 165.291 123.602 164.832 123.754 164.43C123.906 164.023 124.113 163.68 124.375 163.398C124.637 163.117 124.934 162.904 125.266 162.76C125.598 162.615 125.941 162.543 126.297 162.543C126.75 162.543 127.141 162.621 127.469 162.777C127.801 162.934 128.072 163.152 128.283 163.434C128.494 163.711 128.65 164.039 128.752 164.418C128.854 164.793 128.904 165.203 128.904 165.648V166.135H124.17V165.25H127.82V165.168C127.805 164.887 127.746 164.613 127.645 164.348C127.547 164.082 127.391 163.863 127.176 163.691C126.961 163.52 126.668 163.434 126.297 163.434C126.051 163.434 125.824 163.486 125.617 163.592C125.41 163.693 125.232 163.846 125.084 164.049C124.936 164.252 124.82 164.5 124.738 164.793C124.656 165.086 124.615 165.424 124.615 165.807V166.053C124.615 166.354 124.656 166.637 124.738 166.902C124.824 167.164 124.947 167.395 125.107 167.594C125.271 167.793 125.469 167.949 125.699 168.062C125.934 168.176 126.199 168.232 126.496 168.232C126.879 168.232 127.203 168.154 127.469 167.998C127.734 167.842 127.967 167.633 128.166 167.371L128.822 167.893C128.686 168.1 128.512 168.297 128.301 168.484C128.09 168.672 127.83 168.824 127.521 168.941C127.217 169.059 126.855 169.117 126.438 169.117ZM131.254 164.014V169H130.17V162.66H131.195L131.254 164.014ZM130.996 165.59L130.545 165.572C130.549 165.139 130.613 164.738 130.738 164.371C130.863 164 131.039 163.678 131.266 163.404C131.492 163.131 131.762 162.92 132.074 162.771C132.391 162.619 132.74 162.543 133.123 162.543C133.436 162.543 133.717 162.586 133.967 162.672C134.217 162.754 134.43 162.887 134.605 163.07C134.785 163.254 134.922 163.492 135.016 163.785C135.109 164.074 135.156 164.428 135.156 164.846V169H134.066V164.834C134.066 164.502 134.018 164.236 133.92 164.037C133.822 163.834 133.68 163.688 133.492 163.598C133.305 163.504 133.074 163.457 132.801 163.457C132.531 163.457 132.285 163.514 132.062 163.627C131.844 163.74 131.654 163.896 131.494 164.096C131.338 164.295 131.215 164.523 131.125 164.781C131.039 165.035 130.996 165.305 130.996 165.59ZM139.457 162.66V163.492H136.029V162.66H139.457ZM137.189 161.119H138.273V167.43C138.273 167.645 138.307 167.807 138.373 167.916C138.439 168.025 138.525 168.098 138.631 168.133C138.736 168.168 138.85 168.186 138.971 168.186C139.061 168.186 139.154 168.178 139.252 168.162C139.354 168.143 139.43 168.127 139.48 168.115L139.486 169C139.4 169.027 139.287 169.053 139.146 169.076C139.01 169.104 138.844 169.117 138.648 169.117C138.383 169.117 138.139 169.064 137.916 168.959C137.693 168.854 137.516 168.678 137.383 168.432C137.254 168.182 137.189 167.846 137.189 167.424V161.119ZM144.42 167.318C144.42 167.162 144.385 167.018 144.314 166.885C144.248 166.748 144.109 166.625 143.898 166.516C143.691 166.402 143.379 166.305 142.961 166.223C142.609 166.148 142.291 166.061 142.006 165.959C141.725 165.857 141.484 165.734 141.285 165.59C141.09 165.445 140.939 165.275 140.834 165.08C140.729 164.885 140.676 164.656 140.676 164.395C140.676 164.145 140.73 163.908 140.84 163.686C140.953 163.463 141.111 163.266 141.314 163.094C141.521 162.922 141.77 162.787 142.059 162.689C142.348 162.592 142.67 162.543 143.025 162.543C143.533 162.543 143.967 162.633 144.326 162.812C144.686 162.992 144.961 163.232 145.152 163.533C145.344 163.83 145.439 164.16 145.439 164.523H144.355C144.355 164.348 144.303 164.178 144.197 164.014C144.096 163.846 143.945 163.707 143.746 163.598C143.551 163.488 143.311 163.434 143.025 163.434C142.725 163.434 142.48 163.48 142.293 163.574C142.109 163.664 141.975 163.779 141.889 163.92C141.807 164.061 141.766 164.209 141.766 164.365C141.766 164.482 141.785 164.588 141.824 164.682C141.867 164.771 141.941 164.855 142.047 164.934C142.152 165.008 142.301 165.078 142.492 165.145C142.684 165.211 142.928 165.277 143.225 165.344C143.744 165.461 144.172 165.602 144.508 165.766C144.844 165.93 145.094 166.131 145.258 166.369C145.422 166.607 145.504 166.896 145.504 167.236C145.504 167.514 145.445 167.768 145.328 167.998C145.215 168.229 145.049 168.428 144.83 168.596C144.615 168.76 144.357 168.889 144.057 168.982C143.76 169.072 143.426 169.117 143.055 169.117C142.496 169.117 142.023 169.018 141.637 168.818C141.25 168.619 140.957 168.361 140.758 168.045C140.559 167.729 140.459 167.395 140.459 167.043H141.549C141.564 167.34 141.65 167.576 141.807 167.752C141.963 167.924 142.154 168.047 142.381 168.121C142.607 168.191 142.832 168.227 143.055 168.227C143.352 168.227 143.6 168.188 143.799 168.109C144.002 168.031 144.156 167.924 144.262 167.787C144.367 167.65 144.42 167.494 144.42 167.318Z" fill="#3F3F3F"/>
<path d="M55.1486 72.2657C58.0333 72.3045 60.4326 70.0023 62.3531 67.7156C63.6285 66.1969 67.1299 60.3348 64.3206 59.2499C61.2285 58.0556 59.8947 64.0887 59.1085 65.953C58.3179 67.828 56.5802 69.0026 55.0459 70.2539C54.7674 70.4809 54.4839 70.7259 54.3339 71.0631C54.1838 71.4003 54.2101 71.8557 54.4864 72.0858C54.6689 72.2378 54.9164 72.2624 55.1486 72.2657Z" fill="#D3F4E8"/>
<path d="M171.522 79.9325C177.751 72.6517 179.15 63.0435 175.694 54.1916C173.203 47.8116 168.092 43.8652 162.255 41.2798C156.677 38.8099 149.311 38.3074 144.994 33.5239C141.47 29.6189 139.932 24.4157 135.769 21.0867C126.555 13.7173 114.033 13.6904 104.059 19.3598C94.0704 25.0375 90.7334 37.7676 80.0117 42.0965C74.1347 44.4693 68.2433 46.7435 66.9782 54.124C66.3459 57.8151 68.8175 62.1875 67.4297 65.7044C65.6997 70.0887 61.6164 72.8446 58.5017 76.1966C55.1049 79.8523 53.1451 84.3564 53.0095 89.3636C52.5909 104.824 66.1075 111.627 81.1838 114.668C96.3452 117.726 112.049 118.822 127.474 117.436C139.265 116.376 158.584 114.831 166.447 104.374C169.74 99.9953 167.259 94.2556 167.091 89.3409C166.944 85.082 168.943 82.947 171.522 79.9325Z" fill="#D3F4E8"/>
<path d="M149.357 33.6116C150.748 34.4003 152.265 34.9028 153.771 35.4005C153.771 35.4005 153.773 35.4011 153.776 35.4025C155.317 35.9116 156.858 36.421 158.398 36.9301C159.185 37.19 160.214 37.7636 161.039 37.8029C161.168 37.809 161.393 37.9951 161.518 37.9665C163.295 37.5579 158.968 35.3238 158.486 35.0362C157.202 34.2705 155.917 33.5047 154.633 32.739C152.712 31.5935 150.87 30.2336 149.473 28.306C148.378 26.7945 144.196 21.0977 142.564 24.0654C141.861 25.3427 143.289 27.1231 143.94 28.1665C145.325 30.3881 147.129 32.3484 149.357 33.6116Z" fill="#D3F4E8"/>
<path d="M170.09 83.4347C169.187 84.6849 168.606 86.1984 168.427 87.7626C168.325 88.6512 168.354 89.5576 168.528 90.434C168.593 90.7646 168.747 91.1569 169.064 91.1834C169.42 91.2133 169.621 90.7629 169.696 90.392C169.893 89.412 169.95 88.3625 170.454 87.5153C170.896 86.774 171.621 86.2898 172.283 85.7646C172.945 85.2397 173.598 84.5903 173.769 83.7321C173.878 83.1817 173.758 82.5696 173.4 82.1549C172.22 80.7876 170.802 82.4481 170.09 83.4347Z" fill="#D3F4E8"/>
<path d="M174.807 81.3671C175.458 81.3671 175.986 80.8064 175.986 80.1147C175.986 79.423 175.458 78.8623 174.807 78.8623C174.156 78.8623 173.628 79.423 173.628 80.1147C173.628 80.8064 174.156 81.3671 174.807 81.3671Z" fill="#D3F4E8"/>
<path d="M93.8837 23.634C95.1259 22.6878 96.0948 21.4379 97.162 20.2978C99.1279 18.198 101.472 16.457 104.035 15.1556C105.318 14.5047 106.656 13.9635 108.03 13.5416C108.94 13.2626 111.135 13.1831 111.596 12.3667C111.69 12.2012 106.954 12.2521 106.561 12.3205C103.716 12.8141 100.898 13.6917 98.4092 15.1805C95.6823 16.8116 93.6966 19.4172 91.8883 22.0297C91.5477 22.5217 91.1981 23.1424 91.4547 23.6827C91.8548 24.5249 93.1421 24.1988 93.8837 23.634Z" fill="#D3F4E8"/>
<path d="M89.1277 28.9195C90.0413 28.9195 90.7818 28.179 90.7818 27.2654C90.7818 26.3519 90.0413 25.6113 89.1277 25.6113C88.2142 25.6113 87.4736 26.3519 87.4736 27.2654C87.4736 28.179 88.2142 28.9195 89.1277 28.9195Z" fill="#D3F4E8"/>
<path d="M114.125 120.997C110.835 121.009 107.545 120.911 104.262 120.705C97.6227 120.288 91.1374 119.228 84.585 118.163C89.9326 120.787 96.1897 122.696 102.084 123.529C109.466 124.572 117.128 123.56 123.985 120.635C119.615 121.154 116.806 120.988 114.125 120.997Z" fill="#D3F4E8"/>
<path d="M79.2439 115.616C78.4538 115.616 77.8135 116.257 77.8135 117.047C77.8135 117.836 78.4538 118.477 79.2439 118.477C80.0337 118.477 80.6743 117.837 80.6743 117.047C80.674 116.257 80.0337 115.616 79.2439 115.616Z" fill="#D3F4E8"/>
<path d="M166.147 50.1943H135.293C134.913 50.1943 134.604 50.5027 134.604 50.8831V73.8684C134.604 74.2488 134.913 74.5572 135.293 74.5572H166.147C166.528 74.5572 166.836 74.2488 166.836 73.8684V50.8831C166.836 50.5027 166.528 50.1943 166.147 50.1943Z" fill="#FEFEFE"/>
<path d="M166.836 52.7354V50.8831C166.836 50.5027 166.528 50.1943 166.147 50.1943H135.293C134.913 50.1943 134.604 50.5027 134.604 50.8831V52.7354H166.836Z" fill="#92C8EF"/>
<path d="M164.963 52.1685C165.351 52.1685 165.666 51.8538 165.666 51.4656C165.666 51.0774 165.351 50.7627 164.963 50.7627C164.574 50.7627 164.26 51.0774 164.26 51.4656C164.26 51.8538 164.574 52.1685 164.963 52.1685Z" fill="#F96484"/>
<path d="M164.709 53.79H158.621V60.7367H164.709V53.79Z" fill="#B9DDEF"/>
<path d="M157.294 53.79H151.206V66.5636H157.294V53.79Z" fill="#B9DDEF"/>
<path d="M150.113 53.79H140.534V66.5636H150.113V53.79Z" fill="#B9DDEF"/>
<path d="M164.709 62.0635H158.621V62.8965H164.709V62.0635Z" fill="#B9DDEF"/>
<path d="M164.709 63.8594H158.621V64.6924H164.709V63.8594Z" fill="#B9DDEF"/>
<path d="M164.709 65.6543H158.621V66.4873H164.709V65.6543Z" fill="#B9DDEF"/>
<path d="M164.709 68.0742H139.699V72.5321H164.709V68.0742Z" fill="#B9DDEF"/>
<path d="M156.101 75.5957C156.101 78.2066 154.334 80.3233 154.334 80.3233C154.334 80.3233 152.567 78.2069 152.567 75.5957C152.567 72.9849 154.334 70.8682 154.334 70.8682C154.334 70.8682 156.101 72.9849 156.101 75.5957Z" fill="#66D15A"/>
<path d="M154.476 73.0742H154.193V86.0588H154.476V73.0742Z" fill="#53AF46"/>
<path d="M159.57 79.1647C158.557 81.5712 156.108 82.8369 156.108 82.8369C156.108 82.8369 155.3 80.2009 156.313 77.7943C157.325 75.3878 159.775 74.1221 159.775 74.1221C159.775 74.1221 160.583 76.7581 159.57 79.1647Z" fill="#66D15A"/>
<path d="M159.044 76.2064L158.783 76.0967L153.748 88.0648L154.008 88.1745L159.044 76.2064Z" fill="#53AF46"/>
<path d="M149.03 79.2428C150.043 81.6494 152.492 82.9151 152.492 82.9151C152.492 82.9151 153.3 80.279 152.287 77.8724C151.275 75.4659 148.826 74.2002 148.826 74.2002C148.826 74.2002 148.018 76.8362 149.03 79.2428Z" fill="#66D15A"/>
<path d="M154.592 88.2611L154.853 88.1514L149.817 76.1833L149.556 76.293L154.592 88.2611Z" fill="#53AF46"/>
<path d="M154.334 84.8252L148.999 84.9714L150.617 92.8892H154.334H158.051L159.669 84.9714L154.334 84.8252Z" fill="#ED4D2E"/>
<path d="M159.917 84.989H148.752C148.358 84.989 148.036 84.6668 148.036 84.2728C148.036 83.8789 148.358 83.5566 148.752 83.5566H159.917C160.311 83.5566 160.633 83.8789 160.633 84.2728C160.633 84.6668 160.311 84.989 159.917 84.989Z" fill="#ED4D2E"/>
<path d="M95.7378 66.2857L80.5164 58.873L65.4531 66.6024L65.462 67.4354L66.463 67.094L80.6748 74.0153L94.5483 66.8961L95.7464 67.1187L95.7378 66.2857Z" fill="#1E4960"/>
<path d="M80.525 59.7061L65.4619 67.4357L80.6833 74.8483L95.7464 67.1189L80.525 59.7061Z" fill="#2E5875"/>
<path d="M80.5861 65.4549C76.3212 65.4995 72.8723 66.3616 72.8828 67.3803L72.9509 73.9007L88.396 73.7393L88.3279 67.2189C88.3174 66.2002 84.8514 65.4104 80.5861 65.4549Z" fill="#3C718E"/>
<path d="M88.3963 73.7392C88.4068 74.7579 84.9579 75.62 80.693 75.6646C76.428 75.7091 72.9617 74.9196 72.9512 73.9008C72.9404 72.8821 76.3895 72.02 80.6545 71.9754C84.9195 71.9309 88.3855 72.7204 88.3963 73.7392Z" fill="#2E5875"/>
<path d="M87.7723 69.3314L87.1907 69.3375L87.1143 62.0068L87.6984 62.2712L87.7723 69.3314Z" fill="#F2A433"/>
<path d="M88.0875 68.0756L86.9141 68.0879L86.936 70.1764L88.1094 70.1641L88.0875 68.0756Z" fill="#DB881B"/>
<path d="M69.4213 89.3886C69.4213 88.1279 70.4469 87.1022 71.7077 87.1022H101.916V85.8877H68.5387C66.6053 85.8877 65.0381 87.4552 65.0381 89.3883C65.0381 91.3217 66.6055 92.8889 68.5387 92.8889H101.916V91.6744H71.7077C70.4469 91.675 69.4213 90.6493 69.4213 89.3886Z" fill="#5B83BD"/>
<path d="M66.9635 89.3886C66.9635 87.4552 68.5307 85.8877 70.4644 85.8877H68.5387C66.6053 85.8877 65.0381 87.4552 65.0381 89.3883C65.0381 91.3217 66.6055 92.8889 68.5387 92.8889H70.4644C68.531 92.8895 66.9635 91.322 66.9635 89.3886Z" fill="#4673AA"/>
<path d="M69.4216 89.3886C69.4216 88.1279 70.4473 87.1022 71.708 87.1022H73.6337H101.916V85.8877H70.4648C68.5313 85.8877 66.9639 87.4552 66.9639 89.3883C66.9639 91.3217 68.531 92.8889 70.4648 92.8889H101.916V91.6744H73.6337H71.708C70.4473 91.675 69.4216 90.6493 69.4216 89.3886Z" fill="#5B83BD"/>
<path d="M99.2175 89.388C99.2175 88.1272 100.243 87.1016 101.504 87.1016H71.7073C70.4466 87.1016 69.4209 88.1272 69.4209 89.388C69.4209 90.6487 70.4466 91.6741 71.7073 91.6741H101.504C100.243 91.6744 99.2175 90.6487 99.2175 89.388Z" fill="#EFD4AC"/>
<path d="M98.7753 88.2572H72.2736C72.1886 88.2572 72.1191 88.1877 72.1191 88.1027C72.1191 88.0177 72.1886 87.9482 72.2736 87.9482H98.7753C98.8603 87.9482 98.9298 88.0177 98.9298 88.1027C98.9298 88.1877 98.8603 88.2572 98.7753 88.2572Z" fill="#EAC89B"/>
<path d="M90.075 89.3895H70.8837C70.7705 89.3895 70.6777 89.2967 70.6777 89.1835C70.6777 89.0703 70.7705 88.9775 70.8837 88.9775H90.075C90.1882 88.9775 90.2809 89.0703 90.2809 89.1835C90.2806 89.2967 90.1882 89.3895 90.075 89.3895Z" fill="#EAC89B"/>
<path d="M98.3641 90.6244H82.0558C81.9709 90.6244 81.9014 90.5549 81.9014 90.4699C81.9014 90.3849 81.9709 90.3154 82.0558 90.3154H98.3641C98.4491 90.3154 98.5186 90.3849 98.5186 90.4699C98.5186 90.5549 98.4488 90.6244 98.3641 90.6244Z" fill="#EAC89B"/>
<path opacity="0.58" d="M71.7073 88.225H99.5365C99.9351 87.5531 100.668 87.1016 101.504 87.1016H71.7073C70.4466 87.1016 69.4209 88.1272 69.4209 89.388C69.4209 89.5818 69.4453 89.7697 69.4909 89.9497C69.742 88.9597 70.6404 88.225 71.7073 88.225Z" fill="#EFD4AC"/>
<path d="M76.0062 82.3974C76.0062 81.1367 77.0319 80.111 78.2926 80.111H97.0708V78.8965H65.8366C63.9031 78.8965 62.3359 80.4639 62.3359 82.3974C62.3359 84.3308 73.1902 85.8983 75.1236 85.8983H97.0708V84.6838H78.2926C77.0319 84.6835 76.0062 83.6581 76.0062 82.3974Z" fill="#5B83BD"/>
<path d="M73.5484 82.3974C73.5484 80.4639 75.1159 78.8965 77.0491 78.8965H65.8366C63.9031 78.8965 62.3359 80.4639 62.3359 82.3974C62.3359 84.3308 63.9031 85.8983 65.8366 85.8983H77.0491C75.1159 85.898 73.5484 84.3305 73.5484 82.3974Z" fill="#EF8229"/>
<path d="M76.0056 82.3974C76.0056 81.1367 77.0313 80.111 78.292 80.111H80.2177H97.0702V78.8965H77.0485C75.115 78.8965 73.5479 80.4639 73.5479 82.3974C73.5479 84.3308 75.1153 85.8983 77.0485 85.8983H97.0702V84.6838H80.2177H78.292C77.0313 84.6835 76.0056 83.6581 76.0056 82.3974Z" fill="#F2A433"/>
<path d="M94.3734 82.3968C94.3734 81.136 95.3991 80.1104 96.6595 80.1104H78.2932C77.0325 80.1104 76.0068 81.136 76.0068 82.3968C76.0068 83.6575 77.0325 84.6832 78.2932 84.6832H96.6595C95.3988 84.6829 94.3734 83.6575 94.3734 82.3968Z" fill="#EFD4AC"/>
<path d="M93.9302 81.265H78.8586C78.7736 81.265 78.7041 81.1955 78.7041 81.1105C78.7041 81.0255 78.7736 80.9561 78.8586 80.9561H93.9302C94.0152 80.9561 94.0847 81.0255 94.0847 81.1105C94.0847 81.1955 94.0152 81.265 93.9302 81.265Z" fill="#EAC89B"/>
<path d="M79.9396 82.3983H77.4696C77.3564 82.3983 77.2637 82.3055 77.2637 82.1923C77.2637 82.0791 77.3564 81.9863 77.4696 81.9863H79.9396C80.0528 81.9863 80.1456 82.0791 80.1456 82.1923C80.1456 82.3055 80.0528 82.3983 79.9396 82.3983Z" fill="#EAC89B"/>
<path d="M93.5189 83.6322H89.6457C89.5607 83.6322 89.4912 83.5627 89.4912 83.4777C89.4912 83.3927 89.5607 83.3232 89.6457 83.3232H93.5189C93.6039 83.3232 93.6734 83.3927 93.6734 83.4777C93.6734 83.5627 93.6039 83.6322 93.5189 83.6322Z" fill="#EAC89B"/>
<path opacity="0.58" d="M78.2932 81.2338H94.6923C95.091 80.5619 95.8235 80.1104 96.6595 80.1104H78.2932C77.0325 80.1104 76.0068 81.136 76.0068 82.3968C76.0068 82.5905 76.0312 82.7788 76.0769 82.9585C76.328 81.9685 77.2263 81.2338 78.2932 81.2338Z" fill="#EFD4AC"/>
<path d="M81.2697 76.3051C81.2697 75.3392 82.0554 74.5535 83.0213 74.5535H98.6452V73.623H69.9066C68.4253 73.623 67.2246 74.824 67.2246 76.3051C67.2246 77.7861 79.112 78.9871 80.5934 78.9871H98.6452V78.0566H83.0213C82.0554 78.0566 81.2697 77.2707 81.2697 76.3051Z" fill="#5B83BD"/>
<path d="M79.3867 76.3051C79.3867 74.824 80.5873 73.623 82.0687 73.623H69.9066C68.4253 73.623 67.2246 74.824 67.2246 76.3051C67.2246 77.7861 68.4253 78.9871 69.9066 78.9871H82.0687C80.5876 78.9868 79.3867 77.7861 79.3867 76.3051Z" fill="#ED4D2E"/>
<path d="M81.2688 76.3051C81.2688 75.3392 82.0545 74.5535 83.0203 74.5535H89.7868H98.6443V73.623H82.0678C80.5864 73.623 79.3857 74.824 79.3857 76.3051C79.3857 77.7861 80.5864 78.9871 82.0678 78.9871H98.6443V78.0566H89.7868H83.0203C82.0545 78.0566 81.2688 77.2707 81.2688 76.3051Z" fill="#FF5E48"/>
<path d="M96.5779 76.3053C96.5779 75.3394 97.3635 74.5537 98.3294 74.5537H83.0211C82.0552 74.5537 81.2695 75.3394 81.2695 76.3053C81.2695 77.2712 82.0552 78.0568 83.0211 78.0568H98.3294C97.3635 78.0568 96.5779 77.2709 96.5779 76.3053Z" fill="#EFD4AC"/>
<path d="M96.2392 75.4376H83.4551C83.3901 75.4376 83.3369 75.3844 83.3369 75.3194C83.3369 75.2543 83.3901 75.2012 83.4551 75.2012H96.2392C96.3043 75.2012 96.3574 75.2543 96.3574 75.3194C96.3577 75.3844 96.3043 75.4376 96.2392 75.4376Z" fill="#EAC89B"/>
<path d="M89.5736 76.3058H82.3902C82.3036 76.3058 82.2324 76.2347 82.2324 76.148C82.2324 76.0614 82.3033 75.9902 82.3902 75.9902H89.5736C89.6603 75.9902 89.7314 76.0614 89.7314 76.148C89.7314 76.2347 89.6603 76.3058 89.5736 76.3058Z" fill="#EAC89B"/>
<path d="M95.9226 77.2511H92.9551C92.8901 77.2511 92.8369 77.1979 92.8369 77.1329C92.8369 77.0678 92.8901 77.0146 92.9551 77.0146H95.9226C95.9876 77.0146 96.0408 77.0678 96.0408 77.1329C96.041 77.1976 95.9876 77.2511 95.9226 77.2511Z" fill="#EAC89B"/>
<path opacity="0.58" d="M83.0211 75.4144H96.8223C97.1277 74.8998 97.6888 74.5537 98.3294 74.5537H83.0211C82.0552 74.5537 81.2695 75.3394 81.2695 76.3053C81.2695 76.4537 81.2884 76.5979 81.3232 76.7355C81.5154 75.9772 82.2036 75.4144 83.0211 75.4144Z" fill="#EFD4AC"/>
<path d="M121.492 78.3926L118.001 79.0639L114.511 78.3926C115.048 86.0444 110.35 90.6086 110.35 90.6086H118.001H125.653C125.653 90.6086 120.955 86.0444 121.492 78.3926Z" fill="#79C2E2"/>
<path d="M121.491 78.3926L118 79.0639L114.51 78.3926C114.578 79.3599 114.562 80.2776 114.482 81.1432C116.041 81.3124 119.107 81.9165 122.053 84.0611C121.6 82.4352 121.34 80.535 121.491 78.3926Z" fill="#58A7BC"/>
<path d="M140.384 45.6904H94.2386C93.5196 45.6904 92.9316 46.2787 92.9316 46.9974V78.4387C92.9316 79.1577 93.5199 79.7457 94.2386 79.7457H140.384C141.103 79.7457 141.691 79.1574 141.691 78.4387V46.9974C141.691 46.2787 141.103 45.6904 140.384 45.6904Z" fill="#94D4FF"/>
<path d="M93.8955 74.9096V47.2197C93.8955 46.9118 94.1419 46.6621 94.4459 46.6621H140.177C140.481 46.6621 140.728 46.9118 140.728 47.2197V74.9093C140.728 75.2171 140.481 75.4668 140.177 75.4668H94.4459C94.1419 75.4668 93.8955 75.2174 93.8955 74.9096Z" fill="#184F7C"/>
<path d="M95.3789 73.4843V48.6439C95.3789 48.382 95.584 48.1699 95.8371 48.1699H138.786C139.039 48.1699 139.244 48.3823 139.244 48.6439V73.4843C139.244 73.7462 139.039 73.9582 138.786 73.9582H95.8371C95.584 73.9585 95.3789 73.7462 95.3789 73.4843Z" fill="#E2F2F7"/>
<path d="M126.191 92.8908H109.813C109.075 92.8908 108.471 92.2868 108.471 91.5484C108.471 90.8101 109.075 90.2061 109.813 90.2061H126.191C126.929 90.2061 127.533 90.8101 127.533 91.5484C127.533 92.2865 126.929 92.8908 126.191 92.8908Z" fill="#184F7C"/>
<path d="M103.955 71.6279H102.613L103.577 45.6846L103.955 71.6279Z" fill="#B5DEE8"/>
<path d="M130.663 71.6279H132.004L131.041 45.6846L130.663 71.6279Z" fill="#B5DEE8"/>
<path d="M131.024 34.1865H103.598V71.6281H131.024V34.1865Z" fill="white"/>
<path d="M119.014 74.5085L117.267 73.252L115.608 74.5085V69.1963H119.014V74.5085Z" fill="#E85049"/>
<path d="M120.973 67.2205C121.302 65.2005 119.932 63.2959 117.912 62.9666C115.892 62.6373 113.987 64.0079 113.658 66.028C113.328 68.048 114.699 69.9525 116.719 70.2818C118.739 70.6111 120.644 69.2405 120.973 67.2205Z" fill="#FFBE1A"/>
<path d="M117.312 69.4729C115.739 69.4729 114.46 68.1937 114.46 66.6212C114.46 65.0488 115.739 63.7695 117.312 63.7695C118.884 63.7695 120.163 65.0488 120.163 66.6212C120.163 68.1937 118.884 69.4729 117.312 69.4729ZM117.312 63.9448C115.836 63.9448 114.635 65.1454 114.635 66.6212C114.635 68.0971 115.836 69.2977 117.312 69.2977C118.787 69.2977 119.988 68.0971 119.988 66.6212C119.988 65.1454 118.787 63.9448 117.312 63.9448Z" fill="#FFE4A9"/>
<path d="M106.811 43.832V38.6758H108.539V39.3525H107.596V40.8525H108.492V41.5146H107.596V43.1553H108.574V43.832H106.811ZM109.154 43.832V38.6758H110.312C110.573 38.6758 110.783 38.7285 110.941 38.834C111.1 38.9375 111.214 39.0879 111.284 39.2852C111.356 39.4824 111.393 39.7207 111.393 40L111.396 42.3262C111.396 42.6641 111.358 42.9453 111.284 43.1699C111.212 43.3926 111.095 43.5586 110.933 43.668C110.771 43.7773 110.555 43.832 110.285 43.832H109.154ZM109.939 43.2227H110.197C110.289 43.2227 110.365 43.2041 110.426 43.167C110.488 43.1299 110.534 43.0645 110.563 42.9707C110.595 42.875 110.61 42.7402 110.61 42.5664L110.607 40.0205C110.607 39.7568 110.575 39.5674 110.511 39.4521C110.446 39.3369 110.333 39.2793 110.171 39.2793H109.939V43.2227ZM113.209 43.8906C112.941 43.8906 112.724 43.8408 112.556 43.7412C112.388 43.6396 112.265 43.4873 112.187 43.2842C112.108 43.0791 112.069 42.8203 112.069 42.5078V38.6758H112.854V42.4932C112.854 42.6377 112.86 42.7646 112.872 42.874C112.886 42.9834 112.917 43.0684 112.966 43.1289C113.015 43.1895 113.095 43.2197 113.206 43.2197C113.317 43.2197 113.397 43.1904 113.446 43.1318C113.497 43.0713 113.528 42.9863 113.54 42.877C113.552 42.7676 113.558 42.6396 113.558 42.4932V38.6758H114.343V42.5078C114.343 42.8203 114.304 43.0791 114.226 43.2842C114.149 43.4873 114.027 43.6396 113.859 43.7412C113.693 43.8408 113.477 43.8906 113.209 43.8906ZM107.868 51.8906C107.618 51.8906 107.41 51.833 107.244 51.7178C107.078 51.6025 106.953 51.4346 106.869 51.2139C106.787 50.9912 106.746 50.7227 106.746 50.4082V48.1611C106.746 47.9248 106.766 47.7119 106.805 47.5225C106.844 47.333 106.907 47.1709 106.995 47.0361C107.083 46.9014 107.2 46.7979 107.347 46.7256C107.493 46.6533 107.674 46.6172 107.889 46.6172C108.084 46.6172 108.25 46.6494 108.387 46.7139C108.525 46.7764 108.638 46.8672 108.724 46.9863C108.812 47.1055 108.875 47.25 108.914 47.4199C108.955 47.5879 108.976 47.7773 108.976 47.9883V48.6973H108.217V48.0381C108.217 47.7842 108.195 47.5977 108.152 47.4785C108.109 47.3574 108.023 47.2969 107.895 47.2969C107.752 47.2969 107.656 47.3623 107.607 47.4932C107.561 47.6221 107.537 47.8027 107.537 48.0352V50.4434C107.537 50.623 107.547 50.7705 107.566 50.8857C107.588 50.999 107.623 51.083 107.672 51.1377C107.721 51.1904 107.789 51.2168 107.877 51.2168C108.01 51.2168 108.1 51.1543 108.146 51.0293C108.193 50.9043 108.217 50.7061 108.217 50.4346V49.6963H108.987V50.4258C108.987 50.752 108.949 51.0244 108.873 51.2432C108.797 51.46 108.676 51.6221 108.51 51.7295C108.346 51.8369 108.132 51.8906 107.868 51.8906Z" fill="#639DD6"/>
<path d="M127.632 45.2819H106.989C106.855 45.2819 106.746 45.1728 106.746 45.0394C106.746 44.9059 106.855 44.7969 106.989 44.7969H127.632C127.766 44.7969 127.875 44.9059 127.875 45.0394C127.875 45.1725 127.766 45.2819 127.632 45.2819Z" fill="#C1E3EA"/>
<path d="M127.632 47.7887H106.989C106.855 47.7887 106.746 47.6797 106.746 47.5462C106.746 47.4128 106.855 47.3037 106.989 47.3037H127.632C127.766 47.3037 127.875 47.4128 127.875 47.5462C127.875 47.6794 127.766 47.7887 127.632 47.7887Z" fill="#C1E3EA"/>
<path d="M127.632 50.2965H106.989C106.855 50.2965 106.746 50.1875 106.746 50.054C106.746 49.9206 106.855 49.8115 106.989 49.8115H127.632C127.766 49.8115 127.875 49.9206 127.875 50.054C127.875 50.1872 127.766 50.2965 127.632 50.2965Z" fill="#C1E3EA"/>
<path d="M127.632 52.8024H106.989C106.855 52.8024 106.746 52.6933 106.746 52.5599C106.746 52.4265 106.855 52.3174 106.989 52.3174H127.632C127.766 52.3174 127.875 52.4265 127.875 52.5599C127.875 52.6931 127.766 52.8024 127.632 52.8024Z" fill="#C1E3EA"/>
<path d="M127.632 55.3102H106.989C106.855 55.3102 106.746 55.2011 106.746 55.0677C106.746 54.9343 106.855 54.8252 106.989 54.8252H127.632C127.766 54.8252 127.875 54.9343 127.875 55.0677C127.875 55.2009 127.766 55.3102 127.632 55.3102Z" fill="#C1E3EA"/>
<path d="M124.281 57.8164H110.341C110.208 57.8164 110.099 57.9255 110.099 58.0589C110.099 58.1924 110.208 58.3014 110.341 58.3014H124.281C124.415 58.3014 124.524 58.1924 124.524 58.0589C124.524 57.9258 124.415 57.8164 124.281 57.8164Z" fill="#C1E3EA"/>
<path opacity="0.15" d="M136.812 80.243C135.561 78.9903 135.232 76.9129 136.035 75.3349C136.834 73.7644 138.588 72.7216 138.988 71.0057C139.405 69.2215 138.212 67.1925 139.107 65.5941C139.375 65.1165 139.8 64.7503 140.148 64.3287C141.689 62.4658 141.598 59.7902 141.428 57.3789C142.157 58.8129 142.758 60.2453 143.177 61.7989C143.498 62.991 143.707 64.3256 143.116 65.4094C142.786 66.0157 142.226 66.4941 142.003 67.1477C141.502 68.613 142.883 70.0675 142.931 71.6153C142.977 73.0607 141.853 74.493 142.355 75.8493C142.586 76.4769 143.131 76.9425 143.402 77.554C143.848 78.5587 143.477 79.7189 143.104 80.7526C141.028 80.3271 138.93 80.2635 136.812 80.243Z" fill="#E2F2F7"/>
<path d="M136.06 92.8884H142.277C142.975 92.8884 143.649 92.6304 144.169 92.1642C145.706 90.787 146.677 88.789 146.677 86.5751V79.3904C146.677 78.8948 146.271 78.4893 145.776 78.4893H132.561C132.066 78.4893 131.66 78.8948 131.66 79.3904V86.5751C131.66 88.789 132.631 90.787 134.168 92.1642C134.688 92.6302 135.362 92.8884 136.06 92.8884Z" fill="#FFA403"/>
<path d="M147.459 89.4678C145.002 89.4678 143.004 87.4693 143.004 85.0132C143.004 82.5571 145.002 80.5586 147.459 80.5586C149.915 80.5586 151.913 82.5571 151.913 85.0132C151.913 87.4693 149.915 89.4678 147.459 89.4678ZM147.459 81.9854C145.789 81.9854 144.431 83.3436 144.431 85.0132C144.431 86.6828 145.789 88.041 147.459 88.041C149.128 88.041 150.487 86.6828 150.487 85.0132C150.487 83.3436 149.128 81.9854 147.459 81.9854Z" fill="#FFA403"/>
<path opacity="0.15" d="M143.325 73.769C143.617 73.2425 143.909 72.7082 144.062 72.1263C144.215 71.5443 144.217 70.901 143.944 70.365C143.661 69.8124 143.1 69.3894 143.006 68.7762C142.938 68.3375 143.13 67.9023 143.349 67.5158C143.626 67.0247 143.954 66.5621 144.326 66.1377C144.123 66.5469 144.042 67.1075 144.026 67.5637C144.014 67.8976 144.058 68.2475 144.246 68.524C144.398 68.7491 144.631 68.9052 144.828 69.0929C145.571 69.7992 145.76 71.0186 145.268 71.9172C144.921 72.5482 143.916 73.3574 143.325 73.769Z" fill="#E2F2F7"/>
<path d="M140.443 105.816H95.5596L99.6255 95.9277H136.377L140.443 105.816Z" fill="#184F7C"/>
<path d="M101.989 98.3488H99.748L100.432 96.584H102.589L101.989 98.3488Z" fill="#5584C3"/>
<path d="M105.409 98.3488H103.168L103.724 96.584H105.881L105.409 98.3488Z" fill="#5584C3"/>
<path d="M108.83 98.3488H106.589L107.017 96.584H109.174L108.83 98.3488Z" fill="#5584C3"/>
<path d="M112.251 98.3488H110.01L110.309 96.584H112.466L112.251 98.3488Z" fill="#5584C3"/>
<path d="M115.672 98.3488H113.431L113.602 96.584H115.759L115.672 98.3488Z" fill="#5584C3"/>
<path d="M119.093 98.3488H116.852L116.895 96.584H119.052L119.093 98.3488Z" fill="#5584C3"/>
<path d="M122.513 98.3488H120.272L120.187 96.584H122.344L122.513 98.3488Z" fill="#5584C3"/>
<path d="M125.936 98.3488H123.695L123.481 96.584H125.639L125.936 98.3488Z" fill="#5584C3"/>
<path d="M129.355 98.3488H127.114L126.772 96.584H128.93L129.355 98.3488Z" fill="#5584C3"/>
<path d="M132.777 98.3488H130.535L130.065 96.584H132.223L132.777 98.3488Z" fill="#5584C3"/>
<path d="M136.198 98.3488H133.956L133.358 96.584H135.516L136.198 98.3488Z" fill="#5584C3"/>
<path d="M101.014 101.215H98.6367L99.4047 99.2334H101.688L101.014 101.215Z" fill="#5584C3"/>
<path d="M104.642 101.215H102.265L102.889 99.2334H105.172L104.642 101.215Z" fill="#5584C3"/>
<path d="M108.273 101.215H105.896L106.376 99.2334H108.659L108.273 101.215Z" fill="#5584C3"/>
<path d="M111.902 101.215H109.524L109.86 99.2334H112.144L111.902 101.215Z" fill="#5584C3"/>
<path d="M115.531 101.215H113.153L113.345 99.2334H115.629L115.531 101.215Z" fill="#5584C3"/>
<path d="M119.16 101.215H116.782L116.83 99.2334H119.114L119.16 101.215Z" fill="#5584C3"/>
<path d="M122.79 101.215H120.412L120.316 99.2334H122.6L122.79 101.215Z" fill="#5584C3"/>
<path d="M126.418 101.215H124.04L123.801 99.2334H126.084L126.418 101.215Z" fill="#5584C3"/>
<path d="M130.047 101.215H127.67L127.286 99.2334H129.569L130.047 101.215Z" fill="#5584C3"/>
<path d="M133.677 101.215H131.299L130.771 99.2334H133.055L133.677 101.215Z" fill="#5584C3"/>
<path d="M137.306 101.215H134.928L134.257 99.2334H136.54L137.306 101.215Z" fill="#5584C3"/>
<path d="M99.9138 104.453H97.3818L98.2503 102.212H100.675L99.9138 104.453Z" fill="#5584C3"/>
<path d="M103.778 104.453H101.246L101.952 102.212H104.377L103.778 104.453Z" fill="#5584C3"/>
<path d="M126.919 104.453H105.11L105.653 102.212H126.544L126.919 104.453Z" fill="#5584C3"/>
<path d="M111.506 104.453H108.975L109.355 102.212H111.78L111.506 104.453Z" fill="#5584C3"/>
<path d="M115.37 104.453H112.838L113.055 102.212H115.48L115.37 104.453Z" fill="#5584C3"/>
<path d="M119.234 104.453H116.702L116.757 102.212H119.182L119.234 104.453Z" fill="#5584C3"/>
<path d="M123.099 104.453H120.567L120.459 102.212H122.884L123.099 104.453Z" fill="#5584C3"/>
<path d="M126.964 104.453H124.432L124.161 102.212H126.586L126.964 104.453Z" fill="#5584C3"/>
<path d="M130.828 104.453H128.296L127.862 102.212H130.287L130.828 104.453Z" fill="#5584C3"/>
<path d="M134.691 104.453H132.16L131.563 102.212H133.989L134.691 104.453Z" fill="#5584C3"/>
<path d="M138.556 104.453H136.025L135.266 102.212H137.691L138.556 104.453Z" fill="#5584C3"/>
<path d="M140.443 105.816H95.5596V107.25H140.443V105.816Z" fill="#144566"/>
<path d="M124.361 14.3075C122.903 14.3075 121.716 13.1207 121.716 11.6621C121.716 10.2034 122.903 9.0166 124.361 9.0166C125.82 9.0166 127.007 10.2034 127.007 11.6621C127.007 13.1207 125.82 14.3075 124.361 14.3075ZM124.361 10.124C123.513 10.124 122.823 10.8141 122.823 11.6621C122.823 12.51 123.513 13.2002 124.361 13.2002C125.21 13.2002 125.899 12.5103 125.899 11.6621C125.899 10.8138 125.21 10.124 124.361 10.124Z" fill="#D3F4E8"/>
<path d="M163.922 117.217C162.463 117.217 161.276 116.03 161.276 114.572C161.276 113.113 162.463 111.926 163.922 111.926C165.38 111.926 166.567 113.113 166.567 114.572C166.567 116.03 165.38 117.217 163.922 117.217ZM163.922 113.033C163.074 113.033 162.384 113.724 162.384 114.572C162.384 115.42 163.074 116.11 163.922 116.11C164.77 116.11 165.46 115.42 165.46 114.572C165.46 113.724 164.77 113.033 163.922 113.033Z" fill="#D3F4E8"/>
<path d="M65.9462 115.779C64.4876 115.779 63.3008 114.593 63.3008 113.134C63.3008 111.675 64.4876 110.488 65.9462 110.488C67.4049 110.488 68.5917 111.675 68.5917 113.134C68.5917 114.593 67.4049 115.779 65.9462 115.779ZM65.9462 111.596C65.0983 111.596 64.4081 112.286 64.4081 113.134C64.4081 113.983 65.098 114.672 65.9462 114.672C66.7942 114.672 67.4844 113.983 67.4844 113.134C67.4844 112.286 66.7945 111.596 65.9462 111.596Z" fill="#D3F4E8"/>
<path d="M72.5908 127.001C70.1278 127.001 68.124 124.997 68.124 122.533C68.124 120.07 70.1278 118.066 72.5908 118.066C75.0538 118.066 77.0576 120.07 77.0576 122.533C77.0576 124.997 75.0538 127.001 72.5908 127.001ZM72.5908 119.174C70.7385 119.174 69.2314 120.681 69.2314 122.534C69.2314 124.386 70.7385 125.893 72.5908 125.893C74.4431 125.893 75.9502 124.386 75.9502 122.534C75.9502 120.681 74.4431 119.174 72.5908 119.174Z" fill="#D3F4E8"/>
<path d="M135.72 18.2641C132.89 18.2641 130.588 15.9619 130.588 13.132C130.588 10.3022 132.89 8 135.72 8C138.55 8 140.852 10.3022 140.852 13.132C140.852 15.9619 138.549 18.2641 135.72 18.2641ZM135.72 9.10735C133.501 9.10735 131.695 10.9129 131.695 13.132C131.695 15.3512 133.501 17.1567 135.72 17.1567C137.939 17.1567 139.745 15.3512 139.745 13.132C139.745 10.9129 137.939 9.10735 135.72 9.10735Z" fill="#D3F4E8"/>
<path d="M80.3465 32.7043L75.6602 37.3906L76.4432 38.1736L81.1295 33.4873L80.3465 32.7043Z" fill="#D3F4E8"/>
<path d="M76.4412 32.7043L75.6582 33.4873L80.3445 38.1736L81.1275 37.3906L76.4412 32.7043Z" fill="#D3F4E8"/>
<path d="M59.7449 118.708L55.0586 123.395L55.8416 124.178L60.5279 119.491L59.7449 118.708Z" fill="#D3F4E8"/>
<path d="M55.8406 118.708L55.0576 119.491L59.7439 124.178L60.5269 123.395L55.8406 118.708Z" fill="#D3F4E8"/>
<path d="M174 104.595L169.313 109.281L170.096 110.064L174.783 105.378L174 104.595Z" fill="#D3F4E8"/>
<path d="M170.096 104.604L169.313 105.387L174 110.073L174.783 109.29L170.096 104.604Z" fill="#D3F4E8"/>
<path opacity="0.49" d="M122.446 57.0217C125.283 54.1846 125.283 49.5849 122.446 46.7478C119.609 43.9108 115.009 43.9108 112.172 46.7478C109.335 49.5849 109.335 54.1846 112.172 57.0217C115.009 59.8587 119.609 59.8587 122.446 57.0217Z" fill="#CDF1F7"/>
<path d="M117.308 57.7716C114.062 57.7716 111.421 55.1308 111.421 51.8843C111.421 48.6378 114.062 45.9971 117.308 45.9971C120.554 45.9971 123.195 48.6378 123.195 51.8843C123.195 55.1308 120.554 57.7716 117.308 57.7716ZM117.308 46.2742C114.214 46.2742 111.698 48.7909 111.698 51.8846C111.698 54.9783 114.214 57.495 117.308 57.495C120.402 57.495 122.919 54.9783 122.919 51.8846C122.919 48.7909 120.402 46.2742 117.308 46.2742Z" fill="#95DCEF"/>
<path d="M118.041 52.5576L119.356 59.4083L120.809 57.9551L123.854 60.9998L125.168 59.6851L126.483 58.3704L123.438 55.3254L124.891 53.8723L118.041 52.5576Z" fill="#95DCEF"/>
</svg>
