<svg width="230" height="180" viewBox="0 0 230 180" fill="none" xmlns="http://www.w3.org/2000/svg">
<rect width="230" height="180" rx="10" fill="white"/>
<path d="M19.6768 147.251V149H12.8828V147.251H19.6768ZM13.5068 136.203V149H11.3008V136.203H13.5068ZM18.7891 141.547V143.27H12.8828V141.547H18.7891ZM19.6328 136.203V137.961H12.8828V136.203H19.6328ZM26.8926 147.031V135.5H29.0195V149H27.0947L26.8926 147.031ZM20.7051 144.351V144.166C20.7051 143.445 20.79 142.789 20.96 142.197C21.1299 141.6 21.376 141.087 21.6982 140.659C22.0205 140.226 22.4131 139.895 22.876 139.666C23.3389 139.432 23.8604 139.314 24.4404 139.314C25.0146 139.314 25.5186 139.426 25.9521 139.648C26.3857 139.871 26.7549 140.19 27.0596 140.606C27.3643 141.017 27.6074 141.509 27.7891 142.083C27.9707 142.651 28.0996 143.284 28.1758 143.981V144.57C28.0996 145.25 27.9707 145.871 27.7891 146.434C27.6074 146.996 27.3643 147.482 27.0596 147.893C26.7549 148.303 26.3828 148.619 25.9434 148.842C25.5098 149.064 25.0029 149.176 24.4229 149.176C23.8486 149.176 23.3301 149.056 22.8672 148.815C22.4102 148.575 22.0205 148.238 21.6982 147.805C21.376 147.371 21.1299 146.861 20.96 146.275C20.79 145.684 20.7051 145.042 20.7051 144.351ZM22.8232 144.166V144.351C22.8232 144.784 22.8613 145.188 22.9375 145.563C23.0195 145.938 23.1455 146.27 23.3154 146.557C23.4854 146.838 23.7051 147.061 23.9746 147.225C24.25 147.383 24.5781 147.462 24.959 147.462C25.4395 147.462 25.835 147.356 26.1455 147.146C26.4561 146.935 26.6992 146.65 26.875 146.293C27.0566 145.93 27.1797 145.525 27.2441 145.08V143.489C27.209 143.144 27.1357 142.821 27.0244 142.522C26.9189 142.224 26.7754 141.963 26.5938 141.74C26.4121 141.512 26.1865 141.336 25.917 141.213C25.6533 141.084 25.3398 141.02 24.9766 141.02C24.5898 141.02 24.2617 141.102 23.9922 141.266C23.7227 141.43 23.5 141.655 23.3242 141.942C23.1543 142.229 23.0283 142.563 22.9463 142.944C22.8643 143.325 22.8232 143.732 22.8232 144.166ZM36.9561 146.759V139.49H39.083V149H37.0791L36.9561 146.759ZM37.2549 144.781L37.9668 144.764C37.9668 145.402 37.8965 145.991 37.7559 146.53C37.6152 147.063 37.3984 147.529 37.1055 147.928C36.8125 148.32 36.4375 148.628 35.9805 148.851C35.5234 149.067 34.9756 149.176 34.3369 149.176C33.874 149.176 33.4492 149.108 33.0625 148.974C32.6758 148.839 32.3418 148.631 32.0605 148.35C31.7852 148.068 31.5713 147.702 31.4189 147.251C31.2666 146.8 31.1904 146.261 31.1904 145.634V139.49H33.3086V145.651C33.3086 145.997 33.3496 146.287 33.4316 146.521C33.5137 146.75 33.625 146.935 33.7656 147.075C33.9062 147.216 34.0703 147.315 34.2578 147.374C34.4453 147.433 34.6445 147.462 34.8555 147.462C35.459 147.462 35.9336 147.345 36.2793 147.11C36.6309 146.87 36.8799 146.548 37.0264 146.144C37.1787 145.739 37.2549 145.285 37.2549 144.781ZM45.1387 147.488C45.4844 147.488 45.7949 147.421 46.0703 147.286C46.3516 147.146 46.5771 146.952 46.7471 146.706C46.9229 146.46 47.0195 146.176 47.0371 145.854H49.0322C49.0205 146.469 48.8389 147.028 48.4873 147.532C48.1357 148.036 47.6699 148.438 47.0898 148.736C46.5098 149.029 45.8682 149.176 45.165 149.176C44.4385 149.176 43.8057 149.053 43.2666 148.807C42.7275 148.555 42.2793 148.209 41.9219 147.77C41.5645 147.33 41.2949 146.823 41.1133 146.249C40.9375 145.675 40.8496 145.06 40.8496 144.403V144.096C40.8496 143.439 40.9375 142.824 41.1133 142.25C41.2949 141.67 41.5645 141.16 41.9219 140.721C42.2793 140.281 42.7275 139.938 43.2666 139.692C43.8057 139.44 44.4355 139.314 45.1562 139.314C45.918 139.314 46.5859 139.467 47.1602 139.771C47.7344 140.07 48.1855 140.489 48.5137 141.028C48.8477 141.562 49.0205 142.183 49.0322 142.892H47.0371C47.0195 142.54 46.9316 142.224 46.7734 141.942C46.6211 141.655 46.4043 141.427 46.123 141.257C45.8477 141.087 45.5166 141.002 45.1299 141.002C44.7021 141.002 44.3477 141.09 44.0664 141.266C43.7852 141.436 43.5654 141.67 43.4072 141.969C43.249 142.262 43.1348 142.593 43.0645 142.962C43 143.325 42.9678 143.703 42.9678 144.096V144.403C42.9678 144.796 43 145.177 43.0645 145.546C43.1289 145.915 43.2402 146.246 43.3984 146.539C43.5625 146.826 43.7852 147.058 44.0664 147.233C44.3477 147.403 44.7051 147.488 45.1387 147.488ZM56.0195 147.093V142.558C56.0195 142.218 55.958 141.925 55.835 141.679C55.7119 141.433 55.5244 141.242 55.2725 141.107C55.0264 140.973 54.7158 140.905 54.3408 140.905C53.9951 140.905 53.6963 140.964 53.4443 141.081C53.1924 141.198 52.9961 141.356 52.8555 141.556C52.7148 141.755 52.6445 141.98 52.6445 142.232H50.5352C50.5352 141.857 50.626 141.494 50.8076 141.143C50.9893 140.791 51.2529 140.478 51.5986 140.202C51.9443 139.927 52.3574 139.71 52.8379 139.552C53.3184 139.394 53.8574 139.314 54.4551 139.314C55.1699 139.314 55.8027 139.435 56.3535 139.675C56.9102 139.915 57.3467 140.278 57.6631 140.765C57.9854 141.245 58.1465 141.849 58.1465 142.575V146.803C58.1465 147.236 58.1758 147.626 58.2344 147.972C58.2988 148.312 58.3896 148.607 58.5068 148.859V149H56.3359C56.2363 148.771 56.1572 148.481 56.0986 148.13C56.0459 147.772 56.0195 147.427 56.0195 147.093ZM56.3271 143.217L56.3447 144.526H54.8242C54.4316 144.526 54.0859 144.564 53.7871 144.641C53.4883 144.711 53.2393 144.816 53.04 144.957C52.8408 145.098 52.6914 145.268 52.5918 145.467C52.4922 145.666 52.4424 145.892 52.4424 146.144C52.4424 146.396 52.501 146.627 52.6182 146.838C52.7354 147.043 52.9053 147.204 53.1279 147.321C53.3564 147.438 53.6318 147.497 53.9541 147.497C54.3877 147.497 54.7656 147.409 55.0879 147.233C55.416 147.052 55.6738 146.832 55.8613 146.574C56.0488 146.311 56.1484 146.062 56.1602 145.827L56.8457 146.768C56.7754 147.008 56.6553 147.266 56.4854 147.541C56.3154 147.816 56.0928 148.08 55.8174 148.332C55.5479 148.578 55.2227 148.78 54.8418 148.938C54.4668 149.097 54.0332 149.176 53.541 149.176C52.9199 149.176 52.3662 149.053 51.8799 148.807C51.3936 148.555 51.0127 148.218 50.7373 147.796C50.4619 147.368 50.3242 146.885 50.3242 146.346C50.3242 145.842 50.418 145.396 50.6055 145.01C50.7988 144.617 51.0801 144.289 51.4492 144.025C51.8242 143.762 52.2812 143.562 52.8203 143.428C53.3594 143.287 53.9746 143.217 54.666 143.217H56.3271ZM64.7207 139.49V141.037H59.3594V139.49H64.7207ZM60.9062 137.161H63.0244V146.372C63.0244 146.665 63.0654 146.891 63.1475 147.049C63.2354 147.201 63.3555 147.304 63.5078 147.356C63.6602 147.409 63.8389 147.436 64.0439 147.436C64.1904 147.436 64.3311 147.427 64.4658 147.409C64.6006 147.392 64.709 147.374 64.791 147.356L64.7998 148.974C64.624 149.026 64.4189 149.073 64.1846 149.114C63.9561 149.155 63.6924 149.176 63.3936 149.176C62.9072 149.176 62.4766 149.091 62.1016 148.921C61.7266 148.745 61.4336 148.461 61.2227 148.068C61.0117 147.676 60.9062 147.154 60.9062 146.504V137.161ZM68.623 139.49V149H66.4961V139.49H68.623ZM66.3555 136.994C66.3555 136.672 66.4609 136.405 66.6719 136.194C66.8887 135.978 67.1875 135.869 67.5684 135.869C67.9434 135.869 68.2393 135.978 68.4561 136.194C68.6729 136.405 68.7812 136.672 68.7812 136.994C68.7812 137.311 68.6729 137.574 68.4561 137.785C68.2393 137.996 67.9434 138.102 67.5684 138.102C67.1875 138.102 66.8887 137.996 66.6719 137.785C66.4609 137.574 66.3555 137.311 66.3555 136.994ZM70.5391 144.351V144.148C70.5391 143.463 70.6387 142.827 70.8379 142.241C71.0371 141.649 71.3242 141.137 71.6992 140.703C72.0801 140.264 72.543 139.924 73.0879 139.684C73.6387 139.438 74.2598 139.314 74.9512 139.314C75.6484 139.314 76.2695 139.438 76.8145 139.684C77.3652 139.924 77.8311 140.264 78.2119 140.703C78.5928 141.137 78.8828 141.649 79.082 142.241C79.2812 142.827 79.3809 143.463 79.3809 144.148V144.351C79.3809 145.036 79.2812 145.672 79.082 146.258C78.8828 146.844 78.5928 147.356 78.2119 147.796C77.8311 148.229 77.3682 148.569 76.8232 148.815C76.2783 149.056 75.6602 149.176 74.9688 149.176C74.2715 149.176 73.6475 149.056 73.0967 148.815C72.5518 148.569 72.0889 148.229 71.708 147.796C71.3271 147.356 71.0371 146.844 70.8379 146.258C70.6387 145.672 70.5391 145.036 70.5391 144.351ZM72.6572 144.148V144.351C72.6572 144.778 72.7012 145.183 72.7891 145.563C72.877 145.944 73.0146 146.278 73.2021 146.565C73.3896 146.853 73.6299 147.078 73.9229 147.242C74.2158 147.406 74.5645 147.488 74.9688 147.488C75.3613 147.488 75.7012 147.406 75.9883 147.242C76.2812 147.078 76.5215 146.853 76.709 146.565C76.8965 146.278 77.0342 145.944 77.1221 145.563C77.2158 145.183 77.2627 144.778 77.2627 144.351V144.148C77.2627 143.727 77.2158 143.328 77.1221 142.953C77.0342 142.572 76.8936 142.235 76.7002 141.942C76.5127 141.649 76.2725 141.421 75.9795 141.257C75.6924 141.087 75.3496 141.002 74.9512 141.002C74.5527 141.002 74.207 141.087 73.9141 141.257C73.627 141.421 73.3896 141.649 73.2021 141.942C73.0146 142.235 72.877 142.572 72.7891 142.953C72.7012 143.328 72.6572 143.727 72.6572 144.148ZM83.2568 141.521V149H81.1387V139.49H83.1338L83.2568 141.521ZM82.8789 143.894L82.1934 143.885C82.1992 143.211 82.293 142.593 82.4746 142.03C82.6621 141.468 82.9199 140.984 83.248 140.58C83.582 140.176 83.9805 139.865 84.4434 139.648C84.9062 139.426 85.4219 139.314 85.9902 139.314C86.4473 139.314 86.8604 139.379 87.2295 139.508C87.6045 139.631 87.9238 139.833 88.1875 140.114C88.457 140.396 88.6621 140.762 88.8027 141.213C88.9434 141.658 89.0137 142.206 89.0137 142.856V149H86.8867V142.848C86.8867 142.391 86.8193 142.03 86.6846 141.767C86.5557 141.497 86.3652 141.307 86.1133 141.195C85.8672 141.078 85.5596 141.02 85.1904 141.02C84.8271 141.02 84.502 141.096 84.2148 141.248C83.9277 141.4 83.6846 141.608 83.4854 141.872C83.292 142.136 83.1426 142.44 83.0371 142.786C82.9316 143.132 82.8789 143.501 82.8789 143.894Z" fill="#26C2AC"/>
<path d="M16.2988 168.109V169H10.7148V168.221L13.5098 165.109C13.8535 164.727 14.1191 164.402 14.3066 164.137C14.498 163.867 14.6309 163.627 14.7051 163.416C14.7832 163.201 14.8223 162.982 14.8223 162.76C14.8223 162.479 14.7637 162.225 14.6465 161.998C14.5332 161.768 14.3652 161.584 14.1426 161.447C13.9199 161.311 13.6504 161.242 13.334 161.242C12.9551 161.242 12.6387 161.316 12.3848 161.465C12.1348 161.609 11.9473 161.812 11.8223 162.074C11.6973 162.336 11.6348 162.637 11.6348 162.977H10.5508C10.5508 162.496 10.6562 162.057 10.8672 161.658C11.0781 161.26 11.3906 160.943 11.8047 160.709C12.2188 160.471 12.7285 160.352 13.334 160.352C13.873 160.352 14.334 160.447 14.7168 160.639C15.0996 160.826 15.3926 161.092 15.5957 161.436C15.8027 161.775 15.9062 162.174 15.9062 162.631C15.9062 162.881 15.8633 163.135 15.7773 163.393C15.6953 163.646 15.5801 163.9 15.4316 164.154C15.2871 164.408 15.1172 164.658 14.9219 164.904C14.7305 165.15 14.5254 165.393 14.3066 165.631L12.0215 168.109H16.2988ZM18.666 160V169H17.5762V160H18.666ZM22.5391 162.66L19.7734 165.619L18.2266 167.225L18.1387 166.07L19.2461 164.746L21.2148 162.66H22.5391ZM21.5488 169L19.2871 165.977L19.8496 165.01L22.8262 169H21.5488ZM33.1035 164.752V167.875C32.998 168.031 32.8301 168.207 32.5996 168.402C32.3691 168.594 32.0508 168.762 31.6445 168.906C31.2422 169.047 30.7227 169.117 30.0859 169.117C29.5664 169.117 29.0879 169.027 28.6504 168.848C28.2168 168.664 27.8398 168.398 27.5195 168.051C27.2031 167.699 26.957 167.273 26.7812 166.773C26.6094 166.27 26.5234 165.699 26.5234 165.062V164.4C26.5234 163.764 26.5977 163.195 26.7461 162.695C26.8984 162.195 27.1211 161.771 27.4141 161.424C27.707 161.072 28.0664 160.807 28.4922 160.627C28.918 160.443 29.4062 160.352 29.957 160.352C30.6094 160.352 31.1543 160.465 31.5918 160.691C32.0332 160.914 32.377 161.223 32.623 161.617C32.873 162.012 33.0332 162.461 33.1035 162.965H31.9727C31.9219 162.656 31.8203 162.375 31.668 162.121C31.5195 161.867 31.3066 161.664 31.0293 161.512C30.752 161.355 30.3945 161.277 29.957 161.277C29.5625 161.277 29.2207 161.35 28.9316 161.494C28.6426 161.639 28.4043 161.846 28.2168 162.115C28.0293 162.385 27.8887 162.711 27.7949 163.094C27.7051 163.477 27.6602 163.908 27.6602 164.389V165.062C27.6602 165.555 27.7168 165.994 27.8301 166.381C27.9473 166.768 28.1133 167.098 28.3281 167.371C28.543 167.641 28.7988 167.846 29.0957 167.986C29.3965 168.127 29.7285 168.197 30.0918 168.197C30.4941 168.197 30.8203 168.164 31.0703 168.098C31.3203 168.027 31.5156 167.945 31.6562 167.852C31.7969 167.754 31.9043 167.662 31.9785 167.576V165.666H30.0039V164.752H33.1035ZM35.8984 163.656V169H34.8145V162.66H35.8691L35.8984 163.656ZM37.8789 162.625L37.873 163.633C37.7832 163.613 37.6973 163.602 37.6152 163.598C37.5371 163.59 37.4473 163.586 37.3457 163.586C37.0957 163.586 36.875 163.625 36.6836 163.703C36.4922 163.781 36.3301 163.891 36.1973 164.031C36.0645 164.172 35.959 164.34 35.8809 164.535C35.8066 164.727 35.7578 164.938 35.7344 165.168L35.4297 165.344C35.4297 164.961 35.4668 164.602 35.541 164.266C35.6191 163.93 35.7383 163.633 35.8984 163.375C36.0586 163.113 36.2617 162.91 36.5078 162.766C36.7578 162.617 37.0547 162.543 37.3984 162.543C37.4766 162.543 37.5664 162.553 37.668 162.572C37.7695 162.588 37.8398 162.605 37.8789 162.625ZM42.3848 167.916V164.652C42.3848 164.402 42.334 164.186 42.2324 164.002C42.1348 163.814 41.9863 163.67 41.7871 163.568C41.5879 163.467 41.3418 163.416 41.0488 163.416C40.7754 163.416 40.5352 163.463 40.3281 163.557C40.125 163.65 39.9648 163.773 39.8477 163.926C39.7344 164.078 39.6777 164.242 39.6777 164.418H38.5938C38.5938 164.191 38.6523 163.967 38.7695 163.744C38.8867 163.521 39.0547 163.32 39.2734 163.141C39.4961 162.957 39.7617 162.812 40.0703 162.707C40.3828 162.598 40.7305 162.543 41.1133 162.543C41.5742 162.543 41.9805 162.621 42.332 162.777C42.6875 162.934 42.9648 163.17 43.1641 163.486C43.3672 163.799 43.4688 164.191 43.4688 164.664V167.617C43.4688 167.828 43.4863 168.053 43.5215 168.291C43.5605 168.529 43.6172 168.734 43.6914 168.906V169H42.5605C42.5059 168.875 42.4629 168.709 42.4316 168.502C42.4004 168.291 42.3848 168.096 42.3848 167.916ZM42.5723 165.156L42.584 165.918H41.4883C41.1797 165.918 40.9043 165.943 40.6621 165.994C40.4199 166.041 40.2168 166.113 40.0527 166.211C39.8887 166.309 39.7637 166.432 39.6777 166.58C39.5918 166.725 39.5488 166.895 39.5488 167.09C39.5488 167.289 39.5938 167.471 39.6836 167.635C39.7734 167.799 39.9082 167.93 40.0879 168.027C40.2715 168.121 40.4961 168.168 40.7617 168.168C41.0938 168.168 41.3867 168.098 41.6406 167.957C41.8945 167.816 42.0957 167.645 42.2441 167.441C42.3965 167.238 42.4785 167.041 42.4902 166.85L42.9531 167.371C42.9258 167.535 42.8516 167.717 42.7305 167.916C42.6094 168.115 42.4473 168.307 42.2441 168.49C42.0449 168.67 41.8066 168.82 41.5293 168.941C41.2559 169.059 40.9473 169.117 40.6035 169.117C40.1738 169.117 39.7969 169.033 39.4727 168.865C39.1523 168.697 38.9023 168.473 38.7227 168.191C38.5469 167.906 38.459 167.588 38.459 167.236C38.459 166.896 38.5254 166.598 38.6582 166.34C38.791 166.078 38.9824 165.861 39.2324 165.689C39.4824 165.514 39.7832 165.381 40.1348 165.291C40.4863 165.201 40.8789 165.156 41.3125 165.156H42.5723ZM49.1699 167.77V160H50.2598V169H49.2637L49.1699 167.77ZM44.9043 165.9V165.777C44.9043 165.293 44.9629 164.854 45.0801 164.459C45.2012 164.061 45.3711 163.719 45.5898 163.434C45.8125 163.148 46.0762 162.93 46.3809 162.777C46.6895 162.621 47.0332 162.543 47.4121 162.543C47.8105 162.543 48.1582 162.613 48.4551 162.754C48.7559 162.891 49.0098 163.092 49.2168 163.357C49.4277 163.619 49.5938 163.936 49.7148 164.307C49.8359 164.678 49.9199 165.098 49.9668 165.566V166.105C49.9238 166.57 49.8398 166.988 49.7148 167.359C49.5938 167.73 49.4277 168.047 49.2168 168.309C49.0098 168.57 48.7559 168.771 48.4551 168.912C48.1543 169.049 47.8027 169.117 47.4004 169.117C47.0293 169.117 46.6895 169.037 46.3809 168.877C46.0762 168.717 45.8125 168.492 45.5898 168.203C45.3711 167.914 45.2012 167.574 45.0801 167.184C44.9629 166.789 44.9043 166.361 44.9043 165.9ZM45.9941 165.777V165.9C45.9941 166.217 46.0254 166.514 46.0879 166.791C46.1543 167.068 46.2559 167.312 46.3926 167.523C46.5293 167.734 46.7031 167.9 46.9141 168.021C47.125 168.139 47.377 168.197 47.6699 168.197C48.0293 168.197 48.3242 168.121 48.5547 167.969C48.7891 167.816 48.9766 167.615 49.1172 167.365C49.2578 167.115 49.3672 166.844 49.4453 166.551V165.139C49.3984 164.924 49.3301 164.717 49.2402 164.518C49.1543 164.314 49.041 164.135 48.9004 163.979C48.7637 163.818 48.5938 163.691 48.3906 163.598C48.1914 163.504 47.9551 163.457 47.6816 163.457C47.3848 163.457 47.1289 163.52 46.9141 163.645C46.7031 163.766 46.5293 163.934 46.3926 164.148C46.2559 164.359 46.1543 164.605 46.0879 164.887C46.0254 165.164 45.9941 165.461 45.9941 165.777ZM55.8262 167.535V162.66H56.916V169H55.8789L55.8262 167.535ZM56.0312 166.199L56.4824 166.188C56.4824 166.609 56.4375 167 56.3477 167.359C56.2617 167.715 56.1211 168.023 55.9258 168.285C55.7305 168.547 55.4746 168.752 55.1582 168.9C54.8418 169.045 54.457 169.117 54.0039 169.117C53.6953 169.117 53.4121 169.072 53.1543 168.982C52.9004 168.893 52.6816 168.754 52.498 168.566C52.3145 168.379 52.1719 168.135 52.0703 167.834C51.9727 167.533 51.9238 167.172 51.9238 166.75V162.66H53.0078V166.762C53.0078 167.047 53.0391 167.283 53.1016 167.471C53.168 167.654 53.2559 167.801 53.3652 167.91C53.4785 168.016 53.6035 168.09 53.7402 168.133C53.8809 168.176 54.0254 168.197 54.1738 168.197C54.6348 168.197 55 168.109 55.2695 167.934C55.5391 167.754 55.7324 167.514 55.8496 167.213C55.9707 166.908 56.0312 166.57 56.0312 166.199ZM62.3066 167.916V164.652C62.3066 164.402 62.2559 164.186 62.1543 164.002C62.0566 163.814 61.9082 163.67 61.709 163.568C61.5098 163.467 61.2637 163.416 60.9707 163.416C60.6973 163.416 60.457 163.463 60.25 163.557C60.0469 163.65 59.8867 163.773 59.7695 163.926C59.6562 164.078 59.5996 164.242 59.5996 164.418H58.5156C58.5156 164.191 58.5742 163.967 58.6914 163.744C58.8086 163.521 58.9766 163.32 59.1953 163.141C59.418 162.957 59.6836 162.812 59.9922 162.707C60.3047 162.598 60.6523 162.543 61.0352 162.543C61.4961 162.543 61.9023 162.621 62.2539 162.777C62.6094 162.934 62.8867 163.17 63.0859 163.486C63.2891 163.799 63.3906 164.191 63.3906 164.664V167.617C63.3906 167.828 63.4082 168.053 63.4434 168.291C63.4824 168.529 63.5391 168.734 63.6133 168.906V169H62.4824C62.4277 168.875 62.3848 168.709 62.3535 168.502C62.3223 168.291 62.3066 168.096 62.3066 167.916ZM62.4941 165.156L62.5059 165.918H61.4102C61.1016 165.918 60.8262 165.943 60.584 165.994C60.3418 166.041 60.1387 166.113 59.9746 166.211C59.8105 166.309 59.6855 166.432 59.5996 166.58C59.5137 166.725 59.4707 166.895 59.4707 167.09C59.4707 167.289 59.5156 167.471 59.6055 167.635C59.6953 167.799 59.8301 167.93 60.0098 168.027C60.1934 168.121 60.418 168.168 60.6836 168.168C61.0156 168.168 61.3086 168.098 61.5625 167.957C61.8164 167.816 62.0176 167.645 62.166 167.441C62.3184 167.238 62.4004 167.041 62.4121 166.85L62.875 167.371C62.8477 167.535 62.7734 167.717 62.6523 167.916C62.5312 168.115 62.3691 168.307 62.166 168.49C61.9668 168.67 61.7285 168.82 61.4512 168.941C61.1777 169.059 60.8691 169.117 60.5254 169.117C60.0957 169.117 59.7188 169.033 59.3945 168.865C59.0742 168.697 58.8242 168.473 58.6445 168.191C58.4688 167.906 58.3809 167.588 58.3809 167.236C58.3809 166.896 58.4473 166.598 58.5801 166.34C58.7129 166.078 58.9043 165.861 59.1543 165.689C59.4043 165.514 59.7051 165.381 60.0566 165.291C60.4082 165.201 60.8008 165.156 61.2344 165.156H62.4941ZM67.75 162.66V163.492H64.3223V162.66H67.75ZM65.4824 161.119H66.5664V167.43C66.5664 167.645 66.5996 167.807 66.666 167.916C66.7324 168.025 66.8184 168.098 66.9238 168.133C67.0293 168.168 67.1426 168.186 67.2637 168.186C67.3535 168.186 67.4473 168.178 67.5449 168.162C67.6465 168.143 67.7227 168.127 67.7734 168.115L67.7793 169C67.6934 169.027 67.5801 169.053 67.4395 169.076C67.3027 169.104 67.1367 169.117 66.9414 169.117C66.6758 169.117 66.4316 169.064 66.209 168.959C65.9863 168.854 65.8086 168.678 65.6758 168.432C65.5469 168.182 65.4824 167.846 65.4824 167.424V161.119ZM71.6523 169.117C71.2109 169.117 70.8105 169.043 70.4512 168.895C70.0957 168.742 69.7891 168.529 69.5312 168.256C69.2773 167.982 69.082 167.658 68.9453 167.283C68.8086 166.908 68.7402 166.498 68.7402 166.053V165.807C68.7402 165.291 68.8164 164.832 68.9688 164.43C69.1211 164.023 69.3281 163.68 69.5898 163.398C69.8516 163.117 70.1484 162.904 70.4805 162.76C70.8125 162.615 71.1562 162.543 71.5117 162.543C71.9648 162.543 72.3555 162.621 72.6836 162.777C73.0156 162.934 73.2871 163.152 73.498 163.434C73.709 163.711 73.8652 164.039 73.9668 164.418C74.0684 164.793 74.1191 165.203 74.1191 165.648V166.135H69.3848V165.25H73.0352V165.168C73.0195 164.887 72.9609 164.613 72.8594 164.348C72.7617 164.082 72.6055 163.863 72.3906 163.691C72.1758 163.52 71.8828 163.434 71.5117 163.434C71.2656 163.434 71.0391 163.486 70.832 163.592C70.625 163.693 70.4473 163.846 70.2988 164.049C70.1504 164.252 70.0352 164.5 69.9531 164.793C69.8711 165.086 69.8301 165.424 69.8301 165.807V166.053C69.8301 166.354 69.8711 166.637 69.9531 166.902C70.0391 167.164 70.1621 167.395 70.3223 167.594C70.4863 167.793 70.6836 167.949 70.9141 168.062C71.1484 168.176 71.4141 168.232 71.7109 168.232C72.0938 168.232 72.418 168.154 72.6836 167.998C72.9492 167.842 73.1816 167.633 73.3809 167.371L74.0371 167.893C73.9004 168.1 73.7266 168.297 73.5156 168.484C73.3047 168.672 73.0449 168.824 72.7363 168.941C72.4316 169.059 72.0703 169.117 71.6523 169.117ZM79.3809 167.77V160H80.4707V169H79.4746L79.3809 167.77ZM75.1152 165.9V165.777C75.1152 165.293 75.1738 164.854 75.291 164.459C75.4121 164.061 75.582 163.719 75.8008 163.434C76.0234 163.148 76.2871 162.93 76.5918 162.777C76.9004 162.621 77.2441 162.543 77.623 162.543C78.0215 162.543 78.3691 162.613 78.666 162.754C78.9668 162.891 79.2207 163.092 79.4277 163.357C79.6387 163.619 79.8047 163.936 79.9258 164.307C80.0469 164.678 80.1309 165.098 80.1777 165.566V166.105C80.1348 166.57 80.0508 166.988 79.9258 167.359C79.8047 167.73 79.6387 168.047 79.4277 168.309C79.2207 168.57 78.9668 168.771 78.666 168.912C78.3652 169.049 78.0137 169.117 77.6113 169.117C77.2402 169.117 76.9004 169.037 76.5918 168.877C76.2871 168.717 76.0234 168.492 75.8008 168.203C75.582 167.914 75.4121 167.574 75.291 167.184C75.1738 166.789 75.1152 166.361 75.1152 165.9ZM76.2051 165.777V165.9C76.2051 166.217 76.2363 166.514 76.2988 166.791C76.3652 167.068 76.4668 167.312 76.6035 167.523C76.7402 167.734 76.9141 167.9 77.125 168.021C77.3359 168.139 77.5879 168.197 77.8809 168.197C78.2402 168.197 78.5352 168.121 78.7656 167.969C79 167.816 79.1875 167.615 79.3281 167.365C79.4688 167.115 79.5781 166.844 79.6562 166.551V165.139C79.6094 164.924 79.541 164.717 79.4512 164.518C79.3652 164.314 79.252 164.135 79.1113 163.979C78.9746 163.818 78.8047 163.691 78.6016 163.598C78.4023 163.504 78.166 163.457 77.8926 163.457C77.5957 163.457 77.3398 163.52 77.125 163.645C76.9141 163.766 76.7402 163.934 76.6035 164.148C76.4668 164.359 76.3652 164.605 76.2988 164.887C76.2363 165.164 76.2051 165.461 76.2051 165.777ZM89.8457 166.844C89.8457 166.645 89.8145 166.469 89.752 166.316C89.6934 166.16 89.5879 166.02 89.4355 165.895C89.2871 165.77 89.0801 165.65 88.8145 165.537C88.5527 165.424 88.2207 165.309 87.8184 165.191C87.3965 165.066 87.0156 164.928 86.6758 164.775C86.3359 164.619 86.0449 164.441 85.8027 164.242C85.5605 164.043 85.375 163.814 85.2461 163.557C85.1172 163.299 85.0527 163.004 85.0527 162.672C85.0527 162.34 85.1211 162.033 85.2578 161.752C85.3945 161.471 85.5898 161.227 85.8438 161.02C86.1016 160.809 86.4082 160.645 86.7637 160.527C87.1191 160.41 87.5156 160.352 87.9531 160.352C88.5938 160.352 89.1367 160.475 89.582 160.721C90.0312 160.963 90.373 161.281 90.6074 161.676C90.8418 162.066 90.959 162.484 90.959 162.93H89.834C89.834 162.609 89.7656 162.326 89.6289 162.08C89.4922 161.83 89.2852 161.635 89.0078 161.494C88.7305 161.35 88.3789 161.277 87.9531 161.277C87.5508 161.277 87.2188 161.338 86.957 161.459C86.6953 161.58 86.5 161.744 86.3711 161.951C86.2461 162.158 86.1836 162.395 86.1836 162.66C86.1836 162.84 86.2207 163.004 86.2949 163.152C86.373 163.297 86.4922 163.432 86.6523 163.557C86.8164 163.682 87.0234 163.797 87.2734 163.902C87.5273 164.008 87.8301 164.109 88.1816 164.207C88.666 164.344 89.084 164.496 89.4355 164.664C89.7871 164.832 90.0762 165.021 90.3027 165.232C90.5332 165.439 90.7031 165.676 90.8125 165.941C90.9258 166.203 90.9824 166.5 90.9824 166.832C90.9824 167.18 90.9121 167.494 90.7715 167.775C90.6309 168.057 90.4297 168.297 90.168 168.496C89.9062 168.695 89.5918 168.85 89.2246 168.959C88.8613 169.064 88.4551 169.117 88.0059 169.117C87.6113 169.117 87.2227 169.062 86.8398 168.953C86.4609 168.844 86.1152 168.68 85.8027 168.461C85.4941 168.242 85.2461 167.973 85.0586 167.652C84.875 167.328 84.7832 166.953 84.7832 166.527H85.9082C85.9082 166.82 85.9648 167.072 86.0781 167.283C86.1914 167.49 86.3457 167.662 86.541 167.799C86.7402 167.936 86.9648 168.037 87.2148 168.104C87.4688 168.166 87.7324 168.197 88.0059 168.197C88.4004 168.197 88.7344 168.143 89.0078 168.033C89.2812 167.924 89.4883 167.768 89.6289 167.564C89.7734 167.361 89.8457 167.121 89.8457 166.844ZM94.9141 162.66V163.492H91.4863V162.66H94.9141ZM92.6465 161.119H93.7305V167.43C93.7305 167.645 93.7637 167.807 93.8301 167.916C93.8965 168.025 93.9824 168.098 94.0879 168.133C94.1934 168.168 94.3066 168.186 94.4277 168.186C94.5176 168.186 94.6113 168.178 94.709 168.162C94.8105 168.143 94.8867 168.127 94.9375 168.115L94.9434 169C94.8574 169.027 94.7441 169.053 94.6035 169.076C94.4668 169.104 94.3008 169.117 94.1055 169.117C93.8398 169.117 93.5957 169.064 93.373 168.959C93.1504 168.854 92.9727 168.678 92.8398 168.432C92.7109 168.182 92.6465 167.846 92.6465 167.424V161.119ZM100.064 167.535V162.66H101.154V169H100.117L100.064 167.535ZM100.27 166.199L100.721 166.188C100.721 166.609 100.676 167 100.586 167.359C100.5 167.715 100.359 168.023 100.164 168.285C99.9688 168.547 99.7129 168.752 99.3965 168.9C99.0801 169.045 98.6953 169.117 98.2422 169.117C97.9336 169.117 97.6504 169.072 97.3926 168.982C97.1387 168.893 96.9199 168.754 96.7363 168.566C96.5527 168.379 96.4102 168.135 96.3086 167.834C96.2109 167.533 96.1621 167.172 96.1621 166.75V162.66H97.2461V166.762C97.2461 167.047 97.2773 167.283 97.3398 167.471C97.4062 167.654 97.4941 167.801 97.6035 167.91C97.7168 168.016 97.8418 168.09 97.9785 168.133C98.1191 168.176 98.2637 168.197 98.4121 168.197C98.873 168.197 99.2383 168.109 99.5078 167.934C99.7773 167.754 99.9707 167.514 100.088 167.213C100.209 166.908 100.27 166.57 100.27 166.199ZM106.803 167.77V160H107.893V169H106.896L106.803 167.77ZM102.537 165.9V165.777C102.537 165.293 102.596 164.854 102.713 164.459C102.834 164.061 103.004 163.719 103.223 163.434C103.445 163.148 103.709 162.93 104.014 162.777C104.322 162.621 104.666 162.543 105.045 162.543C105.443 162.543 105.791 162.613 106.088 162.754C106.389 162.891 106.643 163.092 106.85 163.357C107.061 163.619 107.227 163.936 107.348 164.307C107.469 164.678 107.553 165.098 107.6 165.566V166.105C107.557 166.57 107.473 166.988 107.348 167.359C107.227 167.73 107.061 168.047 106.85 168.309C106.643 168.57 106.389 168.771 106.088 168.912C105.787 169.049 105.436 169.117 105.033 169.117C104.662 169.117 104.322 169.037 104.014 168.877C103.709 168.717 103.445 168.492 103.223 168.203C103.004 167.914 102.834 167.574 102.713 167.184C102.596 166.789 102.537 166.361 102.537 165.9ZM103.627 165.777V165.9C103.627 166.217 103.658 166.514 103.721 166.791C103.787 167.068 103.889 167.312 104.025 167.523C104.162 167.734 104.336 167.9 104.547 168.021C104.758 168.139 105.01 168.197 105.303 168.197C105.662 168.197 105.957 168.121 106.188 167.969C106.422 167.816 106.609 167.615 106.75 167.365C106.891 167.115 107 166.844 107.078 166.551V165.139C107.031 164.924 106.963 164.717 106.873 164.518C106.787 164.314 106.674 164.135 106.533 163.979C106.396 163.818 106.227 163.691 106.023 163.598C105.824 163.504 105.588 163.457 105.314 163.457C105.018 163.457 104.762 163.52 104.547 163.645C104.336 163.766 104.162 163.934 104.025 164.148C103.889 164.359 103.787 164.605 103.721 164.887C103.658 165.164 103.627 165.461 103.627 165.777ZM112.211 169.117C111.77 169.117 111.369 169.043 111.01 168.895C110.654 168.742 110.348 168.529 110.09 168.256C109.836 167.982 109.641 167.658 109.504 167.283C109.367 166.908 109.299 166.498 109.299 166.053V165.807C109.299 165.291 109.375 164.832 109.527 164.43C109.68 164.023 109.887 163.68 110.148 163.398C110.41 163.117 110.707 162.904 111.039 162.76C111.371 162.615 111.715 162.543 112.07 162.543C112.523 162.543 112.914 162.621 113.242 162.777C113.574 162.934 113.846 163.152 114.057 163.434C114.268 163.711 114.424 164.039 114.525 164.418C114.627 164.793 114.678 165.203 114.678 165.648V166.135H109.943V165.25H113.594V165.168C113.578 164.887 113.52 164.613 113.418 164.348C113.32 164.082 113.164 163.863 112.949 163.691C112.734 163.52 112.441 163.434 112.07 163.434C111.824 163.434 111.598 163.486 111.391 163.592C111.184 163.693 111.006 163.846 110.857 164.049C110.709 164.252 110.594 164.5 110.512 164.793C110.43 165.086 110.389 165.424 110.389 165.807V166.053C110.389 166.354 110.43 166.637 110.512 166.902C110.598 167.164 110.721 167.395 110.881 167.594C111.045 167.793 111.242 167.949 111.473 168.062C111.707 168.176 111.973 168.232 112.27 168.232C112.652 168.232 112.977 168.154 113.242 167.998C113.508 167.842 113.74 167.633 113.939 167.371L114.596 167.893C114.459 168.1 114.285 168.297 114.074 168.484C113.863 168.672 113.604 168.824 113.295 168.941C112.99 169.059 112.629 169.117 112.211 169.117ZM117.027 164.014V169H115.943V162.66H116.969L117.027 164.014ZM116.77 165.59L116.318 165.572C116.322 165.139 116.387 164.738 116.512 164.371C116.637 164 116.812 163.678 117.039 163.404C117.266 163.131 117.535 162.92 117.848 162.771C118.164 162.619 118.514 162.543 118.896 162.543C119.209 162.543 119.49 162.586 119.74 162.672C119.99 162.754 120.203 162.887 120.379 163.07C120.559 163.254 120.695 163.492 120.789 163.785C120.883 164.074 120.93 164.428 120.93 164.846V169H119.84V164.834C119.84 164.502 119.791 164.236 119.693 164.037C119.596 163.834 119.453 163.688 119.266 163.598C119.078 163.504 118.848 163.457 118.574 163.457C118.305 163.457 118.059 163.514 117.836 163.627C117.617 163.74 117.428 163.896 117.268 164.096C117.111 164.295 116.988 164.523 116.898 164.781C116.812 165.035 116.77 165.305 116.77 165.59ZM125.23 162.66V163.492H121.803V162.66H125.23ZM122.963 161.119H124.047V167.43C124.047 167.645 124.08 167.807 124.146 167.916C124.213 168.025 124.299 168.098 124.404 168.133C124.51 168.168 124.623 168.186 124.744 168.186C124.834 168.186 124.928 168.178 125.025 168.162C125.127 168.143 125.203 168.127 125.254 168.115L125.26 169C125.174 169.027 125.061 169.053 124.92 169.076C124.783 169.104 124.617 169.117 124.422 169.117C124.156 169.117 123.912 169.064 123.689 168.959C123.467 168.854 123.289 168.678 123.156 168.432C123.027 168.182 122.963 167.846 122.963 167.424V161.119ZM130.193 167.318C130.193 167.162 130.158 167.018 130.088 166.885C130.021 166.748 129.883 166.625 129.672 166.516C129.465 166.402 129.152 166.305 128.734 166.223C128.383 166.148 128.064 166.061 127.779 165.959C127.498 165.857 127.258 165.734 127.059 165.59C126.863 165.445 126.713 165.275 126.607 165.08C126.502 164.885 126.449 164.656 126.449 164.395C126.449 164.145 126.504 163.908 126.613 163.686C126.727 163.463 126.885 163.266 127.088 163.094C127.295 162.922 127.543 162.787 127.832 162.689C128.121 162.592 128.443 162.543 128.799 162.543C129.307 162.543 129.74 162.633 130.1 162.812C130.459 162.992 130.734 163.232 130.926 163.533C131.117 163.83 131.213 164.16 131.213 164.523H130.129C130.129 164.348 130.076 164.178 129.971 164.014C129.869 163.846 129.719 163.707 129.52 163.598C129.324 163.488 129.084 163.434 128.799 163.434C128.498 163.434 128.254 163.48 128.066 163.574C127.883 163.664 127.748 163.779 127.662 163.92C127.58 164.061 127.539 164.209 127.539 164.365C127.539 164.482 127.559 164.588 127.598 164.682C127.641 164.771 127.715 164.855 127.82 164.934C127.926 165.008 128.074 165.078 128.266 165.145C128.457 165.211 128.701 165.277 128.998 165.344C129.518 165.461 129.945 165.602 130.281 165.766C130.617 165.93 130.867 166.131 131.031 166.369C131.195 166.607 131.277 166.896 131.277 167.236C131.277 167.514 131.219 167.768 131.102 167.998C130.988 168.229 130.822 168.428 130.604 168.596C130.389 168.76 130.131 168.889 129.83 168.982C129.533 169.072 129.199 169.117 128.828 169.117C128.27 169.117 127.797 169.018 127.41 168.818C127.023 168.619 126.73 168.361 126.531 168.045C126.332 167.729 126.232 167.395 126.232 167.043H127.322C127.338 167.34 127.424 167.576 127.58 167.752C127.736 167.924 127.928 168.047 128.154 168.121C128.381 168.191 128.605 168.227 128.828 168.227C129.125 168.227 129.373 168.188 129.572 168.109C129.775 168.031 129.93 167.924 130.035 167.787C130.141 167.65 130.193 167.494 130.193 167.318Z" fill="#3F3F3F"/>
<path d="M55.1486 72.2657C58.0333 72.3045 60.4326 70.0023 62.3531 67.7156C63.6285 66.1969 67.1299 60.3348 64.3206 59.2499C61.2285 58.0556 59.8947 64.0887 59.1085 65.953C58.3179 67.828 56.5802 69.0026 55.0459 70.2539C54.7674 70.4809 54.4839 70.7259 54.3339 71.0631C54.1838 71.4003 54.2101 71.8557 54.4864 72.0858C54.6689 72.2378 54.9164 72.2624 55.1486 72.2657Z" fill="#D3F4E8"/>
<path d="M171.522 79.9325C177.751 72.6517 179.15 63.0435 175.694 54.1916C173.203 47.8116 168.092 43.8652 162.255 41.2798C156.677 38.8099 149.311 38.3074 144.994 33.5239C141.47 29.6189 139.932 24.4157 135.769 21.0867C126.555 13.7173 114.033 13.6904 104.059 19.3598C94.0704 25.0375 90.7334 37.7676 80.0117 42.0965C74.1347 44.4693 68.2433 46.7435 66.9782 54.124C66.3459 57.8151 68.8175 62.1875 67.4297 65.7044C65.6997 70.0887 61.6164 72.8447 58.5017 76.1966C55.1049 79.8523 53.1451 84.3564 53.0095 89.3636C52.5909 104.824 66.1075 111.627 81.1838 114.668C96.3452 117.726 112.049 118.822 127.474 117.436C139.265 116.376 158.584 114.831 166.447 104.374C169.74 99.9953 167.259 94.2556 167.091 89.3409C166.944 85.082 168.943 82.947 171.522 79.9325Z" fill="#D3F4E8"/>
<path d="M149.357 33.6116C150.748 34.4003 152.265 34.9028 153.771 35.4005C153.771 35.4005 153.773 35.4011 153.776 35.4025C155.317 35.9116 156.858 36.421 158.398 36.9301C159.185 37.19 160.214 37.7636 161.039 37.8029C161.168 37.809 161.393 37.9951 161.518 37.9665C163.295 37.5579 158.968 35.3238 158.486 35.0362C157.202 34.2705 155.917 33.5047 154.633 32.739C152.712 31.5935 150.87 30.2336 149.473 28.306C148.378 26.7945 144.196 21.0977 142.564 24.0654C141.861 25.3427 143.289 27.1231 143.94 28.1665C145.325 30.3881 147.129 32.3484 149.357 33.6116Z" fill="#D3F4E8"/>
<path d="M170.09 83.4347C169.187 84.6849 168.606 86.1984 168.427 87.7626C168.325 88.6512 168.354 89.5576 168.528 90.434C168.593 90.7646 168.747 91.1569 169.064 91.1834C169.42 91.2133 169.621 90.7629 169.696 90.392C169.893 89.412 169.95 88.3625 170.454 87.5153C170.896 86.774 171.621 86.2898 172.283 85.7646C172.945 85.2397 173.598 84.5903 173.769 83.7321C173.878 83.1817 173.758 82.5696 173.4 82.1549C172.22 80.7876 170.802 82.4481 170.09 83.4347Z" fill="#D3F4E8"/>
<path d="M174.807 81.3671C175.458 81.3671 175.986 80.8064 175.986 80.1147C175.986 79.423 175.458 78.8623 174.807 78.8623C174.156 78.8623 173.628 79.423 173.628 80.1147C173.628 80.8064 174.156 81.3671 174.807 81.3671Z" fill="#D3F4E8"/>
<path d="M93.8837 23.634C95.1259 22.6878 96.0948 21.4379 97.162 20.2978C99.1279 18.198 101.472 16.457 104.035 15.1556C105.318 14.5047 106.656 13.9635 108.03 13.5416C108.94 13.2626 111.135 13.1831 111.596 12.3667C111.69 12.2012 106.954 12.2521 106.561 12.3205C103.716 12.8141 100.898 13.6917 98.4092 15.1805C95.6823 16.8116 93.6966 19.4172 91.8883 22.0297C91.5477 22.5217 91.1981 23.1424 91.4547 23.6827C91.8548 24.5249 93.1421 24.1988 93.8837 23.634Z" fill="#D3F4E8"/>
<path d="M89.1277 28.9195C90.0413 28.9195 90.7818 28.179 90.7818 27.2654C90.7818 26.3519 90.0413 25.6113 89.1277 25.6113C88.2142 25.6113 87.4736 26.3519 87.4736 27.2654C87.4736 28.179 88.2142 28.9195 89.1277 28.9195Z" fill="#D3F4E8"/>
<path d="M114.125 120.997C110.835 121.009 107.545 120.911 104.262 120.705C97.6227 120.288 91.1374 119.228 84.585 118.163C89.9326 120.787 96.1897 122.696 102.084 123.529C109.466 124.572 117.128 123.56 123.985 120.635C119.615 121.154 116.806 120.988 114.125 120.997Z" fill="#D3F4E8"/>
<path d="M79.2439 115.616C78.4538 115.616 77.8135 116.257 77.8135 117.047C77.8135 117.836 78.4538 118.477 79.2439 118.477C80.0337 118.477 80.6743 117.837 80.6743 117.047C80.674 116.257 80.0337 115.616 79.2439 115.616Z" fill="#D3F4E8"/>
<path d="M166.147 50.1943H135.293C134.913 50.1943 134.604 50.5027 134.604 50.8831V73.8684C134.604 74.2488 134.913 74.5572 135.293 74.5572H166.147C166.528 74.5572 166.836 74.2488 166.836 73.8684V50.8831C166.836 50.5027 166.528 50.1943 166.147 50.1943Z" fill="#FEFEFE"/>
<path d="M166.836 52.7354V50.8831C166.836 50.5027 166.528 50.1943 166.147 50.1943H135.293C134.913 50.1943 134.604 50.5027 134.604 50.8831V52.7354H166.836Z" fill="#92C8EF"/>
<path d="M164.963 52.1685C165.351 52.1685 165.666 51.8538 165.666 51.4656C165.666 51.0774 165.351 50.7627 164.963 50.7627C164.574 50.7627 164.26 51.0774 164.26 51.4656C164.26 51.8538 164.574 52.1685 164.963 52.1685Z" fill="#F96484"/>
<path d="M164.709 53.79H158.621V60.7367H164.709V53.79Z" fill="#B9DDEF"/>
<path d="M157.294 53.79H151.206V66.5636H157.294V53.79Z" fill="#B9DDEF"/>
<path d="M150.113 53.79H140.534V66.5636H150.113V53.79Z" fill="#B9DDEF"/>
<path d="M164.709 62.0635H158.621V62.8965H164.709V62.0635Z" fill="#B9DDEF"/>
<path d="M164.709 63.8594H158.621V64.6924H164.709V63.8594Z" fill="#B9DDEF"/>
<path d="M164.709 65.6543H158.621V66.4873H164.709V65.6543Z" fill="#B9DDEF"/>
<path d="M164.709 68.0742H139.699V72.5321H164.709V68.0742Z" fill="#B9DDEF"/>
<path d="M156.101 75.5957C156.101 78.2066 154.334 80.3233 154.334 80.3233C154.334 80.3233 152.567 78.2069 152.567 75.5957C152.567 72.9849 154.334 70.8682 154.334 70.8682C154.334 70.8682 156.101 72.9849 156.101 75.5957Z" fill="#66D15A"/>
<path d="M154.476 73.0742H154.193V86.0588H154.476V73.0742Z" fill="#53AF46"/>
<path d="M159.57 79.1647C158.557 81.5712 156.108 82.8369 156.108 82.8369C156.108 82.8369 155.3 80.2009 156.313 77.7943C157.325 75.3878 159.775 74.1221 159.775 74.1221C159.775 74.1221 160.583 76.7581 159.57 79.1647Z" fill="#66D15A"/>
<path d="M159.044 76.2064L158.783 76.0967L153.748 88.0648L154.008 88.1745L159.044 76.2064Z" fill="#53AF46"/>
<path d="M149.03 79.2428C150.043 81.6494 152.492 82.9151 152.492 82.9151C152.492 82.9151 153.3 80.279 152.287 77.8724C151.275 75.4659 148.826 74.2002 148.826 74.2002C148.826 74.2002 148.018 76.8362 149.03 79.2428Z" fill="#66D15A"/>
<path d="M154.592 88.2611L154.853 88.1514L149.817 76.1833L149.556 76.293L154.592 88.2611Z" fill="#53AF46"/>
<path d="M154.334 84.8252L148.999 84.9714L150.617 92.8892H154.334H158.051L159.669 84.9714L154.334 84.8252Z" fill="#ED4D2E"/>
<path d="M159.917 84.989H148.752C148.358 84.989 148.036 84.6668 148.036 84.2728C148.036 83.8789 148.358 83.5566 148.752 83.5566H159.917C160.311 83.5566 160.633 83.8789 160.633 84.2728C160.633 84.6668 160.311 84.989 159.917 84.989Z" fill="#ED4D2E"/>
<path d="M95.7378 66.2857L80.5164 58.873L65.4531 66.6024L65.462 67.4354L66.463 67.094L80.6748 74.0153L94.5483 66.8961L95.7464 67.1187L95.7378 66.2857Z" fill="#1E4960"/>
<path d="M80.525 59.7061L65.4619 67.4357L80.6833 74.8483L95.7464 67.1189L80.525 59.7061Z" fill="#2E5875"/>
<path d="M80.5861 65.4549C76.3212 65.4995 72.8723 66.3616 72.8828 67.3803L72.9509 73.9007L88.396 73.7393L88.3279 67.2189C88.3174 66.2002 84.8514 65.4104 80.5861 65.4549Z" fill="#3C718E"/>
<path d="M88.3963 73.7392C88.4068 74.7579 84.9579 75.62 80.693 75.6646C76.428 75.7091 72.9617 74.9196 72.9512 73.9008C72.9404 72.8821 76.3895 72.02 80.6545 71.9754C84.9195 71.9309 88.3855 72.7204 88.3963 73.7392Z" fill="#2E5875"/>
<path d="M87.7723 69.3314L87.1907 69.3375L87.1143 62.0068L87.6984 62.2712L87.7723 69.3314Z" fill="#F2A433"/>
<path d="M88.0875 68.0756L86.9141 68.0879L86.936 70.1764L88.1094 70.1641L88.0875 68.0756Z" fill="#DB881B"/>
<path d="M69.4213 89.3886C69.4213 88.1279 70.4469 87.1022 71.7077 87.1022H101.916V85.8877H68.5387C66.6053 85.8877 65.0381 87.4552 65.0381 89.3883C65.0381 91.3217 66.6055 92.8889 68.5387 92.8889H101.916V91.6744H71.7077C70.4469 91.675 69.4213 90.6493 69.4213 89.3886Z" fill="#5B83BD"/>
<path d="M66.9635 89.3886C66.9635 87.4552 68.5307 85.8877 70.4644 85.8877H68.5387C66.6053 85.8877 65.0381 87.4552 65.0381 89.3883C65.0381 91.3217 66.6055 92.8889 68.5387 92.8889H70.4644C68.531 92.8895 66.9635 91.322 66.9635 89.3886Z" fill="#4673AA"/>
<path d="M69.4216 89.3886C69.4216 88.1279 70.4473 87.1022 71.708 87.1022H73.6337H101.916V85.8877H70.4648C68.5313 85.8877 66.9639 87.4552 66.9639 89.3883C66.9639 91.3217 68.531 92.8889 70.4648 92.8889H101.916V91.6744H73.6337H71.708C70.4473 91.675 69.4216 90.6493 69.4216 89.3886Z" fill="#5B83BD"/>
<path d="M99.2175 89.388C99.2175 88.1272 100.243 87.1016 101.504 87.1016H71.7073C70.4466 87.1016 69.4209 88.1272 69.4209 89.388C69.4209 90.6487 70.4466 91.6741 71.7073 91.6741H101.504C100.243 91.6744 99.2175 90.6487 99.2175 89.388Z" fill="#EFD4AC"/>
<path d="M98.7753 88.2572H72.2736C72.1886 88.2572 72.1191 88.1877 72.1191 88.1027C72.1191 88.0177 72.1886 87.9482 72.2736 87.9482H98.7753C98.8603 87.9482 98.9298 88.0177 98.9298 88.1027C98.9298 88.1877 98.8603 88.2572 98.7753 88.2572Z" fill="#EAC89B"/>
<path d="M90.075 89.3895H70.8837C70.7705 89.3895 70.6777 89.2967 70.6777 89.1835C70.6777 89.0703 70.7705 88.9775 70.8837 88.9775H90.075C90.1882 88.9775 90.2809 89.0703 90.2809 89.1835C90.2806 89.2967 90.1882 89.3895 90.075 89.3895Z" fill="#EAC89B"/>
<path d="M98.3641 90.6244H82.0558C81.9709 90.6244 81.9014 90.5549 81.9014 90.4699C81.9014 90.3849 81.9709 90.3154 82.0558 90.3154H98.3641C98.4491 90.3154 98.5186 90.3849 98.5186 90.4699C98.5186 90.5549 98.4488 90.6244 98.3641 90.6244Z" fill="#EAC89B"/>
<path opacity="0.58" d="M71.7073 88.225H99.5365C99.9351 87.5531 100.668 87.1016 101.504 87.1016H71.7073C70.4466 87.1016 69.4209 88.1272 69.4209 89.388C69.4209 89.5818 69.4453 89.7697 69.4909 89.9497C69.742 88.9597 70.6404 88.225 71.7073 88.225Z" fill="#EFD4AC"/>
<path d="M76.0062 82.3974C76.0062 81.1367 77.0319 80.111 78.2926 80.111H97.0708V78.8965H65.8366C63.9031 78.8965 62.3359 80.4639 62.3359 82.3974C62.3359 84.3308 73.1902 85.8983 75.1236 85.8983H97.0708V84.6838H78.2926C77.0319 84.6835 76.0062 83.6581 76.0062 82.3974Z" fill="#5B83BD"/>
<path d="M73.5484 82.3974C73.5484 80.4639 75.1159 78.8965 77.0491 78.8965H65.8366C63.9031 78.8965 62.3359 80.4639 62.3359 82.3974C62.3359 84.3308 63.9031 85.8983 65.8366 85.8983H77.0491C75.1159 85.898 73.5484 84.3305 73.5484 82.3974Z" fill="#EF8229"/>
<path d="M76.0056 82.3974C76.0056 81.1367 77.0313 80.111 78.292 80.111H80.2177H97.0702V78.8965H77.0485C75.115 78.8965 73.5479 80.4639 73.5479 82.3974C73.5479 84.3308 75.1153 85.8983 77.0485 85.8983H97.0702V84.6838H80.2177H78.292C77.0313 84.6835 76.0056 83.6581 76.0056 82.3974Z" fill="#F2A433"/>
<path d="M94.3734 82.3968C94.3734 81.136 95.3991 80.1104 96.6595 80.1104H78.2932C77.0325 80.1104 76.0068 81.136 76.0068 82.3968C76.0068 83.6575 77.0325 84.6832 78.2932 84.6832H96.6595C95.3988 84.6829 94.3734 83.6575 94.3734 82.3968Z" fill="#EFD4AC"/>
<path d="M93.9302 81.265H78.8586C78.7736 81.265 78.7041 81.1955 78.7041 81.1105C78.7041 81.0255 78.7736 80.9561 78.8586 80.9561H93.9302C94.0152 80.9561 94.0847 81.0255 94.0847 81.1105C94.0847 81.1955 94.0152 81.265 93.9302 81.265Z" fill="#EAC89B"/>
<path d="M79.9396 82.3983H77.4696C77.3564 82.3983 77.2637 82.3055 77.2637 82.1923C77.2637 82.0791 77.3564 81.9863 77.4696 81.9863H79.9396C80.0528 81.9863 80.1456 82.0791 80.1456 82.1923C80.1456 82.3055 80.0528 82.3983 79.9396 82.3983Z" fill="#EAC89B"/>
<path d="M93.5189 83.6322H89.6457C89.5607 83.6322 89.4912 83.5627 89.4912 83.4777C89.4912 83.3927 89.5607 83.3232 89.6457 83.3232H93.5189C93.6039 83.3232 93.6734 83.3927 93.6734 83.4777C93.6734 83.5627 93.6039 83.6322 93.5189 83.6322Z" fill="#EAC89B"/>
<path opacity="0.58" d="M78.2932 81.2338H94.6923C95.091 80.5619 95.8235 80.1104 96.6595 80.1104H78.2932C77.0325 80.1104 76.0068 81.136 76.0068 82.3968C76.0068 82.5905 76.0312 82.7788 76.0769 82.9585C76.328 81.9685 77.2263 81.2338 78.2932 81.2338Z" fill="#EFD4AC"/>
<path d="M81.2697 76.3051C81.2697 75.3392 82.0554 74.5535 83.0213 74.5535H98.6452V73.623H69.9066C68.4253 73.623 67.2246 74.824 67.2246 76.3051C67.2246 77.7861 79.112 78.9871 80.5934 78.9871H98.6452V78.0566H83.0213C82.0554 78.0566 81.2697 77.2707 81.2697 76.3051Z" fill="#5B83BD"/>
<path d="M79.3867 76.3051C79.3867 74.824 80.5873 73.623 82.0687 73.623H69.9066C68.4253 73.623 67.2246 74.824 67.2246 76.3051C67.2246 77.7861 68.4253 78.9871 69.9066 78.9871H82.0687C80.5876 78.9868 79.3867 77.7861 79.3867 76.3051Z" fill="#ED4D2E"/>
<path d="M81.2688 76.3051C81.2688 75.3392 82.0545 74.5535 83.0203 74.5535H89.7868H98.6443V73.623H82.0678C80.5864 73.623 79.3857 74.824 79.3857 76.3051C79.3857 77.7861 80.5864 78.9871 82.0678 78.9871H98.6443V78.0566H89.7868H83.0203C82.0545 78.0566 81.2688 77.2707 81.2688 76.3051Z" fill="#FF5E48"/>
<path d="M96.5779 76.3053C96.5779 75.3394 97.3635 74.5537 98.3294 74.5537H83.0211C82.0552 74.5537 81.2695 75.3394 81.2695 76.3053C81.2695 77.2712 82.0552 78.0568 83.0211 78.0568H98.3294C97.3635 78.0568 96.5779 77.2709 96.5779 76.3053Z" fill="#EFD4AC"/>
<path d="M96.2392 75.4376H83.4551C83.3901 75.4376 83.3369 75.3844 83.3369 75.3194C83.3369 75.2543 83.3901 75.2012 83.4551 75.2012H96.2392C96.3043 75.2012 96.3574 75.2543 96.3574 75.3194C96.3577 75.3844 96.3043 75.4376 96.2392 75.4376Z" fill="#EAC89B"/>
<path d="M89.5736 76.3058H82.3902C82.3036 76.3058 82.2324 76.2347 82.2324 76.148C82.2324 76.0614 82.3033 75.9902 82.3902 75.9902H89.5736C89.6603 75.9902 89.7314 76.0614 89.7314 76.148C89.7314 76.2347 89.6603 76.3058 89.5736 76.3058Z" fill="#EAC89B"/>
<path d="M95.9226 77.2511H92.9551C92.8901 77.2511 92.8369 77.1979 92.8369 77.1329C92.8369 77.0678 92.8901 77.0146 92.9551 77.0146H95.9226C95.9876 77.0146 96.0408 77.0678 96.0408 77.1329C96.041 77.1976 95.9876 77.2511 95.9226 77.2511Z" fill="#EAC89B"/>
<path opacity="0.58" d="M83.0211 75.4144H96.8223C97.1277 74.8998 97.6888 74.5537 98.3294 74.5537H83.0211C82.0552 74.5537 81.2695 75.3394 81.2695 76.3053C81.2695 76.4537 81.2884 76.5979 81.3232 76.7355C81.5154 75.9772 82.2036 75.4144 83.0211 75.4144Z" fill="#EFD4AC"/>
<path d="M121.492 78.3926L118.001 79.0639L114.511 78.3926C115.048 86.0444 110.35 90.6086 110.35 90.6086H118.001H125.653C125.653 90.6086 120.955 86.0444 121.492 78.3926Z" fill="#79C2E2"/>
<path d="M121.491 78.3926L118 79.0639L114.51 78.3926C114.578 79.3599 114.562 80.2776 114.482 81.1432C116.041 81.3124 119.107 81.9165 122.053 84.0611C121.6 82.4352 121.34 80.535 121.491 78.3926Z" fill="#58A7BC"/>
<path d="M140.384 45.6904H94.2386C93.5196 45.6904 92.9316 46.2787 92.9316 46.9974V78.4387C92.9316 79.1577 93.5199 79.7457 94.2386 79.7457H140.384C141.103 79.7457 141.691 79.1574 141.691 78.4387V46.9974C141.691 46.2787 141.103 45.6904 140.384 45.6904Z" fill="#94D4FF"/>
<path d="M93.8955 74.9096V47.2197C93.8955 46.9118 94.1419 46.6621 94.4459 46.6621H140.177C140.481 46.6621 140.728 46.9118 140.728 47.2197V74.9093C140.728 75.2171 140.481 75.4668 140.177 75.4668H94.4459C94.1419 75.4668 93.8955 75.2174 93.8955 74.9096Z" fill="#184F7C"/>
<path d="M95.3789 73.4843V48.6439C95.3789 48.382 95.584 48.1699 95.8371 48.1699H138.786C139.039 48.1699 139.244 48.3823 139.244 48.6439V73.4843C139.244 73.7462 139.039 73.9582 138.786 73.9582H95.8371C95.584 73.9585 95.3789 73.7462 95.3789 73.4843Z" fill="#E2F2F7"/>
<path d="M126.191 92.8908H109.813C109.075 92.8908 108.471 92.2868 108.471 91.5484C108.471 90.8101 109.075 90.2061 109.813 90.2061H126.191C126.929 90.2061 127.533 90.8101 127.533 91.5484C127.533 92.2865 126.929 92.8908 126.191 92.8908Z" fill="#184F7C"/>
<path d="M103.955 71.6279H102.613L103.577 45.6846L103.955 71.6279Z" fill="#B5DEE8"/>
<path d="M130.663 71.6279H132.004L131.041 45.6846L130.663 71.6279Z" fill="#B5DEE8"/>
<path d="M131.024 34.1865H103.598V71.6281H131.024V34.1865Z" fill="white"/>
<path d="M119.014 74.5085L117.267 73.252L115.608 74.5085V69.1963H119.014V74.5085Z" fill="#E85049"/>
<path d="M120.973 67.2205C121.302 65.2005 119.932 63.2959 117.912 62.9666C115.892 62.6373 113.987 64.0079 113.658 66.028C113.328 68.048 114.699 69.9525 116.719 70.2818C118.739 70.6111 120.644 69.2405 120.973 67.2205Z" fill="#FFBE1A"/>
<path d="M117.312 69.4729C115.739 69.4729 114.46 68.1937 114.46 66.6212C114.46 65.0488 115.739 63.7695 117.312 63.7695C118.884 63.7695 120.163 65.0488 120.163 66.6212C120.163 68.1937 118.884 69.4729 117.312 69.4729ZM117.312 63.9448C115.836 63.9448 114.635 65.1454 114.635 66.6212C114.635 68.0971 115.836 69.2977 117.312 69.2977C118.787 69.2977 119.988 68.0971 119.988 66.6212C119.988 65.1454 118.787 63.9448 117.312 63.9448Z" fill="#FFE4A9"/>
<path d="M106.811 43.832V38.6758H108.539V39.3525H107.596V40.8525H108.492V41.5146H107.596V43.1553H108.574V43.832H106.811ZM109.154 43.832V38.6758H110.312C110.573 38.6758 110.783 38.7285 110.941 38.834C111.1 38.9375 111.214 39.0879 111.284 39.2852C111.356 39.4824 111.393 39.7207 111.393 40L111.396 42.3262C111.396 42.6641 111.358 42.9453 111.284 43.1699C111.212 43.3926 111.095 43.5586 110.933 43.668C110.771 43.7773 110.555 43.832 110.285 43.832H109.154ZM109.939 43.2227H110.197C110.289 43.2227 110.365 43.2041 110.426 43.167C110.488 43.1299 110.534 43.0645 110.563 42.9707C110.595 42.875 110.61 42.7402 110.61 42.5664L110.607 40.0205C110.607 39.7568 110.575 39.5674 110.511 39.4521C110.446 39.3369 110.333 39.2793 110.171 39.2793H109.939V43.2227ZM113.209 43.8906C112.941 43.8906 112.724 43.8408 112.556 43.7412C112.388 43.6396 112.265 43.4873 112.187 43.2842C112.108 43.0791 112.069 42.8203 112.069 42.5078V38.6758H112.854V42.4932C112.854 42.6377 112.86 42.7646 112.872 42.874C112.886 42.9834 112.917 43.0684 112.966 43.1289C113.015 43.1895 113.095 43.2197 113.206 43.2197C113.317 43.2197 113.397 43.1904 113.446 43.1318C113.497 43.0713 113.528 42.9863 113.54 42.877C113.552 42.7676 113.558 42.6396 113.558 42.4932V38.6758H114.343V42.5078C114.343 42.8203 114.304 43.0791 114.226 43.2842C114.149 43.4873 114.027 43.6396 113.859 43.7412C113.693 43.8408 113.477 43.8906 113.209 43.8906ZM107.868 51.8906C107.618 51.8906 107.41 51.833 107.244 51.7178C107.078 51.6025 106.953 51.4346 106.869 51.2139C106.787 50.9912 106.746 50.7227 106.746 50.4082V48.1611C106.746 47.9248 106.766 47.7119 106.805 47.5225C106.844 47.333 106.907 47.1709 106.995 47.0361C107.083 46.9014 107.2 46.7979 107.347 46.7256C107.493 46.6533 107.674 46.6172 107.889 46.6172C108.084 46.6172 108.25 46.6494 108.387 46.7139C108.525 46.7764 108.638 46.8672 108.724 46.9863C108.812 47.1055 108.875 47.25 108.914 47.4199C108.955 47.5879 108.976 47.7773 108.976 47.9883V48.6973H108.217V48.0381C108.217 47.7842 108.195 47.5977 108.152 47.4785C108.109 47.3574 108.023 47.2969 107.895 47.2969C107.752 47.2969 107.656 47.3623 107.607 47.4932C107.561 47.6221 107.537 47.8027 107.537 48.0352V50.4434C107.537 50.623 107.547 50.7705 107.566 50.8857C107.588 50.999 107.623 51.083 107.672 51.1377C107.721 51.1904 107.789 51.2168 107.877 51.2168C108.01 51.2168 108.1 51.1543 108.146 51.0293C108.193 50.9043 108.217 50.7061 108.217 50.4346V49.6963H108.987V50.4258C108.987 50.752 108.949 51.0244 108.873 51.2432C108.797 51.46 108.676 51.6221 108.51 51.7295C108.346 51.8369 108.132 51.8906 107.868 51.8906Z" fill="#639DD6"/>
<path d="M127.632 45.2819H106.989C106.855 45.2819 106.746 45.1728 106.746 45.0394C106.746 44.9059 106.855 44.7969 106.989 44.7969H127.632C127.766 44.7969 127.875 44.9059 127.875 45.0394C127.875 45.1725 127.766 45.2819 127.632 45.2819Z" fill="#C1E3EA"/>
<path d="M127.632 47.7887H106.989C106.855 47.7887 106.746 47.6797 106.746 47.5462C106.746 47.4128 106.855 47.3037 106.989 47.3037H127.632C127.766 47.3037 127.875 47.4128 127.875 47.5462C127.875 47.6794 127.766 47.7887 127.632 47.7887Z" fill="#C1E3EA"/>
<path d="M127.632 50.2965H106.989C106.855 50.2965 106.746 50.1875 106.746 50.054C106.746 49.9206 106.855 49.8115 106.989 49.8115H127.632C127.766 49.8115 127.875 49.9206 127.875 50.054C127.875 50.1872 127.766 50.2965 127.632 50.2965Z" fill="#C1E3EA"/>
<path d="M127.632 52.8024H106.989C106.855 52.8024 106.746 52.6933 106.746 52.5599C106.746 52.4265 106.855 52.3174 106.989 52.3174H127.632C127.766 52.3174 127.875 52.4265 127.875 52.5599C127.875 52.6931 127.766 52.8024 127.632 52.8024Z" fill="#C1E3EA"/>
<path d="M127.632 55.3102H106.989C106.855 55.3102 106.746 55.2011 106.746 55.0677C106.746 54.9343 106.855 54.8252 106.989 54.8252H127.632C127.766 54.8252 127.875 54.9343 127.875 55.0677C127.875 55.2009 127.766 55.3102 127.632 55.3102Z" fill="#C1E3EA"/>
<path d="M124.281 57.8164H110.341C110.208 57.8164 110.099 57.9255 110.099 58.0589C110.099 58.1924 110.208 58.3014 110.341 58.3014H124.281C124.415 58.3014 124.524 58.1924 124.524 58.0589C124.524 57.9258 124.415 57.8164 124.281 57.8164Z" fill="#C1E3EA"/>
<path opacity="0.15" d="M136.812 80.243C135.561 78.9903 135.232 76.9129 136.035 75.3349C136.834 73.7644 138.588 72.7216 138.988 71.0057C139.405 69.2215 138.212 67.1925 139.107 65.5941C139.375 65.1165 139.8 64.7503 140.148 64.3287C141.689 62.4658 141.598 59.7902 141.428 57.3789C142.157 58.8129 142.758 60.2453 143.177 61.7989C143.498 62.991 143.707 64.3256 143.116 65.4094C142.786 66.0157 142.226 66.4941 142.003 67.1477C141.502 68.613 142.883 70.0675 142.931 71.6153C142.977 73.0607 141.853 74.493 142.355 75.8493C142.586 76.4769 143.131 76.9425 143.402 77.554C143.848 78.5587 143.477 79.7189 143.104 80.7526C141.028 80.3271 138.93 80.2635 136.812 80.243Z" fill="#E2F2F7"/>
<path d="M136.06 92.8884H142.277C142.975 92.8884 143.649 92.6304 144.169 92.1642C145.706 90.787 146.677 88.789 146.677 86.5751V79.3904C146.677 78.8948 146.271 78.4893 145.776 78.4893H132.561C132.066 78.4893 131.66 78.8948 131.66 79.3904V86.5751C131.66 88.789 132.631 90.787 134.168 92.1642C134.688 92.6302 135.362 92.8884 136.06 92.8884Z" fill="#FFA403"/>
<path d="M147.459 89.4678C145.002 89.4678 143.004 87.4693 143.004 85.0132C143.004 82.5571 145.002 80.5586 147.459 80.5586C149.915 80.5586 151.913 82.5571 151.913 85.0132C151.913 87.4693 149.915 89.4678 147.459 89.4678ZM147.459 81.9854C145.789 81.9854 144.431 83.3436 144.431 85.0132C144.431 86.6828 145.789 88.041 147.459 88.041C149.128 88.041 150.487 86.6828 150.487 85.0132C150.487 83.3436 149.128 81.9854 147.459 81.9854Z" fill="#FFA403"/>
<path opacity="0.15" d="M143.325 73.769C143.617 73.2425 143.909 72.7082 144.062 72.1263C144.215 71.5443 144.217 70.901 143.944 70.365C143.661 69.8124 143.1 69.3894 143.006 68.7762C142.938 68.3375 143.13 67.9023 143.349 67.5158C143.626 67.0247 143.954 66.5621 144.326 66.1377C144.123 66.5469 144.042 67.1075 144.026 67.5637C144.014 67.8976 144.058 68.2475 144.246 68.524C144.398 68.7491 144.631 68.9052 144.828 69.0929C145.571 69.7992 145.76 71.0186 145.268 71.9172C144.921 72.5482 143.916 73.3574 143.325 73.769Z" fill="#E2F2F7"/>
<path d="M140.443 105.816H95.5596L99.6255 95.9277H136.377L140.443 105.816Z" fill="#184F7C"/>
<path d="M101.989 98.3488H99.748L100.432 96.584H102.589L101.989 98.3488Z" fill="#5584C3"/>
<path d="M105.409 98.3488H103.168L103.724 96.584H105.881L105.409 98.3488Z" fill="#5584C3"/>
<path d="M108.83 98.3488H106.589L107.017 96.584H109.174L108.83 98.3488Z" fill="#5584C3"/>
<path d="M112.251 98.3488H110.01L110.309 96.584H112.466L112.251 98.3488Z" fill="#5584C3"/>
<path d="M115.672 98.3488H113.431L113.602 96.584H115.759L115.672 98.3488Z" fill="#5584C3"/>
<path d="M119.093 98.3488H116.852L116.895 96.584H119.052L119.093 98.3488Z" fill="#5584C3"/>
<path d="M122.513 98.3488H120.272L120.187 96.584H122.344L122.513 98.3488Z" fill="#5584C3"/>
<path d="M125.936 98.3488H123.695L123.481 96.584H125.639L125.936 98.3488Z" fill="#5584C3"/>
<path d="M129.355 98.3488H127.114L126.772 96.584H128.93L129.355 98.3488Z" fill="#5584C3"/>
<path d="M132.777 98.3488H130.535L130.065 96.584H132.223L132.777 98.3488Z" fill="#5584C3"/>
<path d="M136.198 98.3488H133.956L133.358 96.584H135.516L136.198 98.3488Z" fill="#5584C3"/>
<path d="M101.014 101.215H98.6367L99.4047 99.2334H101.688L101.014 101.215Z" fill="#5584C3"/>
<path d="M104.642 101.215H102.265L102.889 99.2334H105.172L104.642 101.215Z" fill="#5584C3"/>
<path d="M108.273 101.215H105.896L106.376 99.2334H108.659L108.273 101.215Z" fill="#5584C3"/>
<path d="M111.902 101.215H109.524L109.86 99.2334H112.144L111.902 101.215Z" fill="#5584C3"/>
<path d="M115.531 101.215H113.153L113.345 99.2334H115.629L115.531 101.215Z" fill="#5584C3"/>
<path d="M119.16 101.215H116.782L116.83 99.2334H119.114L119.16 101.215Z" fill="#5584C3"/>
<path d="M122.79 101.215H120.412L120.316 99.2334H122.6L122.79 101.215Z" fill="#5584C3"/>
<path d="M126.418 101.215H124.04L123.801 99.2334H126.084L126.418 101.215Z" fill="#5584C3"/>
<path d="M130.047 101.215H127.67L127.286 99.2334H129.569L130.047 101.215Z" fill="#5584C3"/>
<path d="M133.677 101.215H131.299L130.771 99.2334H133.055L133.677 101.215Z" fill="#5584C3"/>
<path d="M137.306 101.215H134.928L134.257 99.2334H136.54L137.306 101.215Z" fill="#5584C3"/>
<path d="M99.9138 104.453H97.3818L98.2503 102.212H100.675L99.9138 104.453Z" fill="#5584C3"/>
<path d="M103.778 104.453H101.246L101.952 102.212H104.377L103.778 104.453Z" fill="#5584C3"/>
<path d="M126.919 104.453H105.11L105.653 102.212H126.544L126.919 104.453Z" fill="#5584C3"/>
<path d="M111.506 104.453H108.975L109.355 102.212H111.78L111.506 104.453Z" fill="#5584C3"/>
<path d="M115.37 104.453H112.838L113.055 102.212H115.48L115.37 104.453Z" fill="#5584C3"/>
<path d="M119.234 104.453H116.702L116.757 102.212H119.182L119.234 104.453Z" fill="#5584C3"/>
<path d="M123.099 104.453H120.567L120.459 102.212H122.884L123.099 104.453Z" fill="#5584C3"/>
<path d="M126.964 104.453H124.432L124.161 102.212H126.586L126.964 104.453Z" fill="#5584C3"/>
<path d="M130.828 104.453H128.296L127.862 102.212H130.287L130.828 104.453Z" fill="#5584C3"/>
<path d="M134.691 104.453H132.16L131.563 102.212H133.989L134.691 104.453Z" fill="#5584C3"/>
<path d="M138.556 104.453H136.025L135.266 102.212H137.691L138.556 104.453Z" fill="#5584C3"/>
<path d="M140.443 105.816H95.5596V107.25H140.443V105.816Z" fill="#144566"/>
<path d="M124.361 14.3075C122.903 14.3075 121.716 13.1207 121.716 11.6621C121.716 10.2034 122.903 9.0166 124.361 9.0166C125.82 9.0166 127.007 10.2034 127.007 11.6621C127.007 13.1207 125.82 14.3075 124.361 14.3075ZM124.361 10.124C123.513 10.124 122.823 10.8141 122.823 11.6621C122.823 12.51 123.513 13.2002 124.361 13.2002C125.21 13.2002 125.899 12.5103 125.899 11.6621C125.899 10.8138 125.21 10.124 124.361 10.124Z" fill="#D3F4E8"/>
<path d="M163.922 117.217C162.463 117.217 161.276 116.03 161.276 114.572C161.276 113.113 162.463 111.926 163.922 111.926C165.38 111.926 166.567 113.113 166.567 114.572C166.567 116.03 165.38 117.217 163.922 117.217ZM163.922 113.033C163.074 113.033 162.384 113.724 162.384 114.572C162.384 115.42 163.074 116.11 163.922 116.11C164.77 116.11 165.46 115.42 165.46 114.572C165.46 113.724 164.77 113.033 163.922 113.033Z" fill="#D3F4E8"/>
<path d="M65.9462 115.779C64.4876 115.779 63.3008 114.593 63.3008 113.134C63.3008 111.675 64.4876 110.488 65.9462 110.488C67.4049 110.488 68.5917 111.675 68.5917 113.134C68.5917 114.593 67.4049 115.779 65.9462 115.779ZM65.9462 111.596C65.0983 111.596 64.4081 112.286 64.4081 113.134C64.4081 113.983 65.098 114.672 65.9462 114.672C66.7942 114.672 67.4844 113.983 67.4844 113.134C67.4844 112.286 66.7945 111.596 65.9462 111.596Z" fill="#D3F4E8"/>
<path d="M72.5908 127.001C70.1278 127.001 68.124 124.997 68.124 122.533C68.124 120.07 70.1278 118.066 72.5908 118.066C75.0538 118.066 77.0576 120.07 77.0576 122.533C77.0576 124.997 75.0538 127.001 72.5908 127.001ZM72.5908 119.174C70.7385 119.174 69.2314 120.681 69.2314 122.534C69.2314 124.386 70.7385 125.893 72.5908 125.893C74.4431 125.893 75.9502 124.386 75.9502 122.534C75.9502 120.681 74.4431 119.174 72.5908 119.174Z" fill="#D3F4E8"/>
<path d="M135.72 18.2641C132.89 18.2641 130.588 15.9619 130.588 13.132C130.588 10.3022 132.89 8 135.72 8C138.55 8 140.852 10.3022 140.852 13.132C140.852 15.9619 138.549 18.2641 135.72 18.2641ZM135.72 9.10735C133.501 9.10735 131.695 10.9129 131.695 13.132C131.695 15.3512 133.501 17.1567 135.72 17.1567C137.939 17.1567 139.745 15.3512 139.745 13.132C139.745 10.9129 137.939 9.10735 135.72 9.10735Z" fill="#D3F4E8"/>
<path d="M80.3465 32.7043L75.6602 37.3906L76.4432 38.1736L81.1295 33.4873L80.3465 32.7043Z" fill="#D3F4E8"/>
<path d="M76.4412 32.7043L75.6582 33.4873L80.3445 38.1736L81.1275 37.3906L76.4412 32.7043Z" fill="#D3F4E8"/>
<path d="M59.7449 118.708L55.0586 123.395L55.8416 124.178L60.5279 119.491L59.7449 118.708Z" fill="#D3F4E8"/>
<path d="M55.8406 118.708L55.0576 119.491L59.7439 124.178L60.5269 123.395L55.8406 118.708Z" fill="#D3F4E8"/>
<path d="M174 104.595L169.313 109.281L170.096 110.064L174.783 105.378L174 104.595Z" fill="#D3F4E8"/>
<path d="M170.096 104.604L169.313 105.387L174 110.073L174.783 109.29L170.096 104.604Z" fill="#D3F4E8"/>
<path opacity="0.49" d="M122.446 57.0217C125.283 54.1846 125.283 49.5849 122.446 46.7478C119.609 43.9108 115.009 43.9108 112.172 46.7478C109.335 49.5849 109.335 54.1846 112.172 57.0217C115.009 59.8587 119.609 59.8587 122.446 57.0217Z" fill="#CDF1F7"/>
<path d="M117.308 57.7716C114.062 57.7716 111.421 55.1308 111.421 51.8843C111.421 48.6378 114.062 45.9971 117.308 45.9971C120.554 45.9971 123.195 48.6378 123.195 51.8843C123.195 55.1308 120.554 57.7716 117.308 57.7716ZM117.308 46.2742C114.214 46.2742 111.698 48.7909 111.698 51.8846C111.698 54.9783 114.214 57.495 117.308 57.495C120.402 57.495 122.919 54.9783 122.919 51.8846C122.919 48.7909 120.402 46.2742 117.308 46.2742Z" fill="#95DCEF"/>
<path d="M118.041 52.5576L119.356 59.4083L120.809 57.9551L123.854 60.9998L125.168 59.6851L126.483 58.3704L123.438 55.3254L124.891 53.8723L118.041 52.5576Z" fill="#95DCEF"/>
</svg>
