<svg width="148" height="124" viewBox="0 0 148 124" fill="none" xmlns="http://www.w3.org/2000/svg">
<path d="M116.414 63.0296C133.819 63.0296 147.929 48.9199 147.929 31.5148C147.929 14.1097 133.819 0 116.414 0C99.0091 0 84.8994 14.1097 84.8994 31.5148C84.8994 48.9199 99.0091 63.0296 116.414 63.0296Z" fill="#E5F1FF"/>
<path d="M48.2378 110.975C55.4311 103.782 55.4311 92.1189 48.2378 84.9256C41.0446 77.7323 29.3819 77.7323 22.1887 84.9256C14.9954 92.1189 14.9954 103.782 22.1887 110.975C29.3819 118.168 41.0446 118.168 48.2378 110.975Z" fill="#E5F1FF"/>
<path d="M34.9691 10.5054C25.6689 10.5054 18.1299 18.0448 18.1299 27.345C18.1299 36.6452 25.6693 44.1845 34.9691 44.1845C44.2693 44.1845 51.8087 36.6452 51.8087 27.345C51.8083 18.0448 44.2689 10.5054 34.9691 10.5054ZM34.9691 38.1111C29.0231 38.1111 24.203 33.291 24.203 27.345C24.203 21.3989 29.0231 16.5788 34.9691 16.5788C40.9151 16.5788 45.7352 21.3989 45.7352 27.345C45.7352 33.291 40.9148 38.1111 34.9691 38.1111Z" fill="#A9CCEA"/>
<path d="M98.5888 118.168C98.5888 119.235 97.7236 120.1 96.6565 120.1H47.7946C46.7275 120.1 45.8623 119.235 45.8623 118.168C45.8623 117.1 46.7275 116.235 47.7946 116.235H65.1402L67.5327 111.818H71.6734H72.7777H76.9184L79.3109 116.235H96.6565C97.7236 116.235 98.5888 117.1 98.5888 118.168Z" fill="#0F3157"/>
<path d="M75.8251 107.815H67.8193V110.162H75.8251V107.815Z" fill="#FF4D6B"/>
<path d="M75.8251 103.951H67.8193V106.298H75.8251V103.951Z" fill="#FF4D6B"/>
<path d="M135.563 96.01C134.171 96.5447 132.658 96.8373 131.078 96.8373C124.164 96.8373 118.559 91.2325 118.559 84.3181C118.559 77.4037 124.163 71.7988 131.078 71.7988C137.992 71.7988 143.597 77.4037 143.597 84.3181C143.597 86.1707 143.194 87.9293 142.472 89.5113" stroke="#FF4D6B" stroke-width="1.1276" stroke-miterlimit="10" stroke-linecap="round" stroke-linejoin="round"/>
<path d="M100.215 25.5442H98.2158C97.8008 23.7683 97.1024 22.1022 96.167 20.597L97.5801 19.1839C98.1893 18.5747 98.1893 17.5869 97.5801 16.9777L94.4404 13.8379C93.8312 13.2287 92.8433 13.2287 92.2341 13.8379L90.8211 15.2506C89.3162 14.3153 87.6501 13.6169 85.8743 13.2023V11.2035C85.8743 10.342 85.1758 9.64355 84.3143 9.64355H79.8743C79.0128 9.64355 78.3143 10.342 78.3143 11.2035V13.2023C76.5384 13.6169 74.8724 14.3157 73.3671 15.2506L71.9541 13.8379C71.3448 13.2287 70.357 13.2287 69.7478 13.8379L66.6084 16.9777C65.9992 17.5869 65.9992 18.5747 66.6084 19.1839L68.0215 20.597C67.0862 22.1018 66.3877 23.7679 65.9728 25.5442H63.974C63.1125 25.5442 62.4141 26.2426 62.4141 27.1041V31.5442C62.4141 32.4057 63.1125 33.1041 63.974 33.1041H65.9728C66.3874 34.88 67.0862 36.5461 68.0211 38.0513L66.6084 39.4644C65.9992 40.0736 65.9992 41.0614 66.6084 41.6706L69.7478 44.8103C70.357 45.4196 71.3448 45.4196 71.9541 44.8103L73.3671 43.3976C74.872 44.333 76.5381 45.0314 78.3143 45.4464V47.4451C78.3143 48.3066 79.0128 49.0051 79.8743 49.0051H84.3143C85.1758 49.0051 85.8743 48.3066 85.8743 47.4451V45.4464C87.6501 45.0314 89.3162 44.333 90.8214 43.3976L92.2345 44.8103C92.8437 45.4196 93.8315 45.4196 94.4408 44.8103L97.5805 41.6706C98.1897 41.0614 98.1897 40.0736 97.5805 39.4644L96.1674 38.0513C97.1027 36.5464 97.8012 34.8804 98.2161 33.1041H100.215C101.076 33.1041 101.775 32.4057 101.775 31.5442V27.1041C101.774 26.2422 101.076 25.5442 100.215 25.5442ZM82.0945 37.2441C77.7205 37.2441 74.1746 33.6983 74.1746 29.324C74.1746 24.95 77.7205 21.4041 82.0945 21.4041C86.4684 21.4041 90.0147 24.95 90.0147 29.324C90.0147 33.6983 86.4688 37.2441 82.0945 37.2441Z" fill="#289DF2"/>
<path d="M17.2256 102.896C14.9 102.896 13.0146 101.011 13.0146 98.6849V32.7826C13.0146 30.4566 14.9 28.5713 17.2259 28.5713H127.226C129.551 28.5713 131.437 30.4566 131.437 32.7822V98.6845C131.437 101.01 129.552 102.896 127.226 102.896H17.2256V102.896Z" fill="#0F3775"/>
<path d="M33.865 37.7666H21.6494V40.4583H33.865V37.7666Z" fill="#284D89"/>
<path d="M48.5642 37.7666H36.3486V40.4583H48.5642V37.7666Z" fill="#284D89"/>
<path d="M85.8318 37.7666H73.6162V40.4583H85.8318V37.7666Z" fill="#284D89"/>
<path d="M123.099 37.7666H110.884V40.4583H123.099V37.7666Z" fill="#284D89"/>
<path d="M72.0637 37.7666H50.2207V40.4583H72.0637V37.7666Z" fill="#FF4D6B"/>
<path d="M109.124 37.7666H87.2812V40.4583H109.124V37.7666Z" fill="#2889DB"/>
<path d="M23.8582 35.627H21.7188V36.9383H23.8582V35.627Z" fill="#2889DB"/>
<path d="M44.0426 42.666H21.7168V43.9774H44.0426V42.666Z" fill="white"/>
<path d="M28.3422 44.9775H21.7168V46.2889H28.3422V44.9775Z" fill="white"/>
<path d="M45.3556 93.4601H24.6514C23.1076 93.4601 21.8564 92.2086 21.8564 90.6652V53.1904C21.8564 51.6466 23.1079 50.3955 24.6514 50.3955H45.3556C46.8994 50.3955 48.1505 51.647 48.1505 53.1904V90.6652C48.1505 92.2086 46.8994 93.4601 45.3556 93.4601Z" fill="#284D89"/>
<path d="M33.9683 56.7109H25.1689V58.0568H33.9683V56.7109Z" fill="white"/>
<path d="M33.9683 59.7129H25.1689V61.0587H33.9683V59.7129Z" fill="white"/>
<path d="M33.9683 62.7148H25.1689V64.0607H33.9683V62.7148Z" fill="white"/>
<path d="M30.552 75.2412H25.1689V76.5871H30.552V75.2412Z" fill="white"/>
<path d="M30.552 78.2432H25.1689V79.589H30.552V78.2432Z" fill="white"/>
<path d="M39.8001 78.2432H34.417V79.589H39.8001V78.2432Z" fill="white"/>
<path d="M28.5507 71.8252H25.1689V73.1711H28.5507V71.8252Z" fill="white"/>
<path d="M41.4563 71.8252H39.6621V73.1711H41.4563V71.8252Z" fill="white"/>
<path d="M38.9707 71.8252H29.7227V73.1711H38.9707V71.8252Z" fill="#FF4D6B"/>
<path d="M26.463 66.752H25.1689V68.0978H26.463V66.752Z" fill="#2889DB"/>
<path d="M26.463 69.1328H25.1689V70.4787H26.463V69.1328Z" fill="#FF4D6B"/>
<path d="M32.3456 79.8652H31.8623L33.0183 78.1396H33.5016L32.3456 79.8652Z" fill="white"/>
<path d="M45.1486 82.1768H25.1689V83.3155H45.1486V82.1768Z" fill="#282E5C"/>
<path d="M45.1486 84.7656H25.1689V85.9044H45.1486V84.7656Z" fill="#282E5C"/>
<path d="M141.25 68.2013H86.3147C84.9424 68.2013 83.8301 67.089 83.8301 65.7167V50.8098C83.8301 49.4375 84.9424 48.3252 86.3147 48.3252H141.25C142.622 48.3252 143.735 49.4375 143.735 50.8098V65.7167C143.734 67.089 142.622 68.2013 141.25 68.2013Z" fill="#289DF2"/>
<path d="M101.637 61.1626C101.637 61.1626 104.673 53.7092 113.369 55.5034C122.065 57.2976 126.482 67.0976 137.662 59.0922" stroke="white" stroke-width="1.1276" stroke-miterlimit="10"/>
<path d="M129.793 61.5762H128.551V62.8185H129.793V61.5762Z" fill="#289DF2" stroke="white" stroke-width="1.1276" stroke-miterlimit="10"/>
<path d="M103.154 55.1572H118.889" stroke="white" stroke-width="0.5638" stroke-miterlimit="10"/>
<path d="M121.306 62.543H137.041" stroke="white" stroke-width="0.5638" stroke-miterlimit="10"/>
<path d="M111.023 54.5361H109.78V55.7784H111.023V54.5361Z" fill="#289DF2" stroke="white" stroke-width="1.1276" stroke-miterlimit="10"/>
<path d="M94.3199 73.3092H82.4495C81.4584 73.3092 80.6553 72.5058 80.6553 71.515V53.7093C80.6553 52.7181 81.4588 51.915 82.4495 51.915H94.3199C95.311 51.915 96.1141 52.7185 96.1141 53.7093V71.515C96.1141 72.5058 95.311 73.3092 94.3199 73.3092Z" fill="#284D89"/>
<path d="M91.8696 54.9512H83.0703V56.1645H91.8696V54.9512Z" fill="white"/>
<path d="M91.8696 57.6572H83.0703V58.8705H91.8696V57.6572Z" fill="white"/>
<path d="M86.383 60.3643H83.0703V61.5776H86.383V60.3643Z" fill="white"/>
<path d="M88.7986 63.1641H83.0703V64.3774H88.7986V63.1641Z" fill="#289DF2"/>
<path d="M86.9349 65.8701H83.0703V67.0834H86.9349V65.8701Z" fill="#289DF2"/>
<path d="M86.9349 68.5771H83.0703V69.7904H86.9349V68.5771Z" fill="white"/>
<path d="M134.072 45.6338H140.284" stroke="#284D89" stroke-width="2.2552" stroke-miterlimit="10" stroke-linecap="round" stroke-linejoin="round"/>
<path d="M120.117 80.68L117.973 82.3579L114.897 82.9171C114.897 82.9171 112.008 82.7306 111.728 82.7306C111.449 82.7306 109.492 81.146 109.492 81.146L105.856 79.8413L103.34 80.7733L100.357 80.1208L95.8835 79.841L91.5962 81.5188L88.0544 82.0781L84.8853 83.1033L81.3434 83.3831L77.5222 80.4006L73.9803 79.748L70.3452 81.7986L67.4559 82.7306L64.1756 82.6373L60.0414 85.1539H57.5763L53.4131 86.6139" stroke="#FF5C66" stroke-width="1.0152" stroke-miterlimit="10"/>
<path d="M53.4746 86.6768H120.209" stroke="#F7F7F7" stroke-width="0.2538" stroke-miterlimit="10"/>
<path d="M53.5057 85.8369H52.8223V87.5147H53.5057V85.8369Z" fill="#F7F7F7"/>
<path d="M120.489 85.8369H119.806V87.5147H120.489V85.8369Z" fill="#F7F7F7"/>
<path d="M120.147 86.6763V81.0527" stroke="#F7F7F7" stroke-width="0.2538" stroke-miterlimit="10"/>
<path d="M120.52 80.7732C120.52 81.0648 120.284 81.3012 119.992 81.3012C119.7 81.3012 119.464 81.0648 119.464 80.7732C119.464 80.4816 119.7 80.2451 119.992 80.2451C120.284 80.2451 120.52 80.4816 120.52 80.7732Z" fill="#F7F7F7"/>
<path d="M53.2642 91V88.8182H53.5156V89.6236H53.5369C53.5554 89.5952 53.581 89.5589 53.6136 89.5149C53.647 89.4702 53.6946 89.4304 53.7564 89.3956C53.8189 89.3601 53.9034 89.3423 54.0099 89.3423C54.1477 89.3423 54.2692 89.3768 54.3743 89.4457C54.4794 89.5146 54.5614 89.6122 54.6204 89.7386C54.6793 89.8651 54.7088 90.0142 54.7088 90.1861C54.7088 90.3594 54.6793 90.5096 54.6204 90.6367C54.5614 90.7631 54.4798 90.8612 54.3754 90.9308C54.271 90.9996 54.1506 91.0341 54.0142 91.0341C53.9091 91.0341 53.8249 91.0167 53.7617 90.9819C53.6985 90.9464 53.6499 90.9062 53.6158 90.8615C53.5817 90.8161 53.5554 90.7784 53.5369 90.7486H53.5071V91H53.2642ZM53.5114 90.1818C53.5114 90.3054 53.5295 90.4144 53.5657 90.5089C53.6019 90.6026 53.6548 90.6761 53.7244 90.7294C53.794 90.782 53.8793 90.8082 53.9801 90.8082C54.0852 90.8082 54.1729 90.7805 54.2433 90.7251C54.3143 90.669 54.3675 90.5937 54.4031 90.4993C54.4393 90.4041 54.4574 90.2983 54.4574 90.1818C54.4574 90.0668 54.4396 89.9631 54.4041 89.8707C54.3693 89.7777 54.3164 89.7042 54.2454 89.6502C54.1751 89.5955 54.0866 89.5682 53.9801 89.5682C53.8778 89.5682 53.7919 89.5941 53.7223 89.646C53.6527 89.6971 53.6001 89.7688 53.5646 89.8612C53.5291 89.9528 53.5114 90.0597 53.5114 90.1818ZM55.7795 91.0341C55.6218 91.0341 55.4858 90.9993 55.3714 90.9297C55.2578 90.8594 55.1701 90.7614 55.1083 90.6357C55.0472 90.5092 55.0167 90.3622 55.0167 90.1946C55.0167 90.027 55.0472 89.8793 55.1083 89.7514C55.1701 89.6229 55.256 89.5227 55.3661 89.451C55.4769 89.3786 55.6062 89.3423 55.7539 89.3423C55.8391 89.3423 55.9233 89.3565 56.0064 89.3849C56.0895 89.4134 56.1651 89.4595 56.2333 89.5234C56.3015 89.5866 56.3558 89.6705 56.3963 89.7749C56.4368 89.8793 56.457 90.0078 56.457 90.1605V90.267H55.1957V90.0497H56.2013C56.2013 89.9574 56.1829 89.875 56.146 89.8026C56.1097 89.7301 56.0579 89.6729 55.9904 89.631C55.9237 89.5891 55.8448 89.5682 55.7539 89.5682C55.6538 89.5682 55.5671 89.593 55.494 89.6428C55.4215 89.6918 55.3658 89.7557 55.3267 89.8345C55.2876 89.9134 55.2681 89.9979 55.2681 90.0881V90.233C55.2681 90.3565 55.2894 90.4613 55.332 90.5472C55.3754 90.6325 55.4354 90.6974 55.5121 90.7422C55.5888 90.7862 55.6779 90.8082 55.7795 90.8082C55.8455 90.8082 55.9052 90.799 55.9585 90.7805C56.0124 90.7614 56.0589 90.733 56.098 90.6953C56.1371 90.657 56.1673 90.6094 56.1886 90.5526L56.4315 90.6207C56.4059 90.7031 56.3629 90.7756 56.3026 90.8381C56.2422 90.8999 56.1676 90.9482 56.0788 90.983C55.9901 91.017 55.8903 91.0341 55.7795 91.0341ZM57.5511 89.3636V89.5767H56.7031V89.3636H57.5511ZM56.9503 88.9716H57.2017V90.5312C57.2017 90.6023 57.212 90.6555 57.2326 90.6911C57.2539 90.7259 57.2809 90.7493 57.3136 90.7614C57.3469 90.7727 57.3821 90.7784 57.419 90.7784C57.4467 90.7784 57.4695 90.777 57.4872 90.7741C57.505 90.7706 57.5192 90.7678 57.5298 90.7656L57.581 90.9915C57.5639 90.9979 57.5401 91.0043 57.5096 91.0107C57.479 91.0178 57.4403 91.0213 57.3935 91.0213C57.3224 91.0213 57.2528 91.006 57.1847 90.9755C57.1172 90.945 57.0611 90.8984 57.0163 90.8359C56.9723 90.7734 56.9503 90.6946 56.9503 90.5994V88.9716ZM58.4109 91.0384C58.3072 91.0384 58.2131 91.0188 58.1286 90.9798C58.044 90.94 57.9769 90.8828 57.9272 90.8082C57.8775 90.733 57.8526 90.642 57.8526 90.5355C57.8526 90.4418 57.8711 90.3658 57.908 90.3075C57.945 90.2486 57.9943 90.2024 58.0561 90.169C58.1179 90.1357 58.1861 90.1108 58.2607 90.0945C58.3359 90.0774 58.4116 90.0639 58.4876 90.054C58.587 90.0412 58.6676 90.0316 58.7294 90.0252C58.7919 90.0181 58.8374 90.0064 58.8658 89.9901C58.8949 89.9737 58.9094 89.9453 58.9094 89.9048V89.8963C58.9094 89.7912 58.8807 89.7095 58.8232 89.6513C58.7663 89.593 58.68 89.5639 58.5643 89.5639C58.4442 89.5639 58.3501 89.5902 58.282 89.6428C58.2138 89.6953 58.1658 89.7514 58.1381 89.8111L57.8995 89.7259C57.9421 89.6264 57.9989 89.549 58.07 89.4936C58.1417 89.4375 58.2198 89.3984 58.3043 89.3764C58.3896 89.3537 58.4734 89.3423 58.5558 89.3423C58.6083 89.3423 58.6687 89.3487 58.7369 89.3615C58.8058 89.3736 58.8722 89.3988 58.9361 89.4371C59.0007 89.4755 59.0543 89.5334 59.0969 89.6108C59.1396 89.6882 59.1609 89.7919 59.1609 89.9219V91H58.9094V90.7784H58.8967C58.8796 90.8139 58.8512 90.8519 58.8114 90.8924C58.7717 90.9329 58.7188 90.9673 58.6527 90.9957C58.5866 91.0241 58.506 91.0384 58.4109 91.0384ZM58.4492 90.8125C58.5487 90.8125 58.6325 90.793 58.7006 90.7539C58.7695 90.7148 58.8214 90.6644 58.8562 90.6026C58.8917 90.5408 58.9094 90.4759 58.9094 90.4077V90.1776C58.8988 90.1903 58.8754 90.2021 58.8391 90.2127C58.8036 90.2227 58.7624 90.2315 58.7156 90.2393C58.6694 90.2464 58.6243 90.2528 58.5803 90.2585C58.5369 90.2635 58.5018 90.2678 58.4748 90.2713C58.4094 90.2798 58.3484 90.2937 58.2915 90.3129C58.2354 90.3313 58.19 90.3594 58.1552 90.397C58.1211 90.4339 58.104 90.4844 58.104 90.5483C58.104 90.6357 58.1364 90.7017 58.201 90.7464C58.2663 90.7905 58.3491 90.8125 58.4492 90.8125ZM61.1752 89.3636V89.5767H60.3271V89.3636H61.1752ZM60.5743 88.9716H60.8257V90.5312C60.8257 90.6023 60.836 90.6555 60.8566 90.6911C60.8779 90.7259 60.9049 90.7493 60.9376 90.7614C60.971 90.7727 61.0061 90.7784 61.0431 90.7784C61.0708 90.7784 61.0935 90.777 61.1112 90.7741C61.129 90.7706 61.1432 90.7678 61.1539 90.7656L61.205 90.9915C61.1879 90.9979 61.1642 91.0043 61.1336 91.0107C61.1031 91.0178 61.0644 91.0213 61.0175 91.0213C60.9465 91.0213 60.8769 91.006 60.8087 90.9755C60.7412 90.945 60.6851 90.8984 60.6404 90.8359C60.5963 90.7734 60.5743 90.6946 60.5743 90.5994V88.9716ZM62.2219 91.0341C62.0642 91.0341 61.9282 90.9993 61.8138 90.9297C61.7002 90.8594 61.6125 90.7614 61.5507 90.6357C61.4896 90.5092 61.4591 90.3622 61.4591 90.1946C61.4591 90.027 61.4896 89.8793 61.5507 89.7514C61.6125 89.6229 61.6984 89.5227 61.8085 89.451C61.9193 89.3786 62.0486 89.3423 62.1963 89.3423C62.2815 89.3423 62.3657 89.3565 62.4488 89.3849C62.5319 89.4134 62.6075 89.4595 62.6757 89.5234C62.7439 89.5866 62.7982 89.6705 62.8387 89.7749C62.8792 89.8793 62.8994 90.0078 62.8994 90.1605V90.267H61.6381V90.0497H62.6437C62.6437 89.9574 62.6253 89.875 62.5883 89.8026C62.5521 89.7301 62.5003 89.6729 62.4328 89.631C62.366 89.5891 62.2872 89.5682 62.1963 89.5682C62.0961 89.5682 62.0095 89.593 61.9363 89.6428C61.8639 89.6918 61.8081 89.7557 61.7691 89.8345C61.73 89.9134 61.7105 89.9979 61.7105 90.0881V90.233C61.7105 90.3565 61.7318 90.4613 61.7744 90.5472C61.8177 90.6325 61.8778 90.6974 61.9545 90.7422C62.0312 90.7862 62.1203 90.8082 62.2219 90.8082C62.2879 90.8082 62.3476 90.799 62.4008 90.7805C62.4548 90.7614 62.5013 90.733 62.5404 90.6953C62.5795 90.657 62.6096 90.6094 62.6309 90.5526L62.8738 90.6207C62.8483 90.7031 62.8053 90.7756 62.7449 90.8381C62.6846 90.8999 62.61 90.9482 62.5212 90.983C62.4324 91.017 62.3327 91.0341 62.2219 91.0341ZM64.441 89.7301L64.2151 89.794C64.2009 89.7564 64.18 89.7198 64.1523 89.6843C64.1253 89.6481 64.0883 89.6183 64.0415 89.5948C63.9946 89.5714 63.9346 89.5597 63.8614 89.5597C63.7613 89.5597 63.6778 89.5827 63.6111 89.6289C63.545 89.6744 63.512 89.7322 63.512 89.8026C63.512 89.8651 63.5347 89.9144 63.5802 89.9506C63.6256 89.9869 63.6966 90.017 63.7932 90.0412L64.0361 90.1009C64.1824 90.1364 64.2915 90.1907 64.3632 90.2638C64.4349 90.3363 64.4708 90.4297 64.4708 90.544C64.4708 90.6378 64.4438 90.7216 64.3898 90.7955C64.3366 90.8693 64.262 90.9276 64.1661 90.9702C64.0702 91.0128 63.9587 91.0341 63.8316 91.0341C63.6647 91.0341 63.5265 90.9979 63.4172 90.9254C63.3078 90.853 63.2385 90.7472 63.2094 90.608L63.4481 90.5483C63.4708 90.6364 63.5138 90.7024 63.577 90.7464C63.6409 90.7905 63.7243 90.8125 63.8273 90.8125C63.9445 90.8125 64.0376 90.7876 64.1064 90.7379C64.176 90.6875 64.2108 90.6271 64.2108 90.5568C64.2108 90.5 64.191 90.4524 64.1512 90.4141C64.1114 90.375 64.0503 90.3459 63.968 90.3267L63.6952 90.2628C63.5454 90.2273 63.4353 90.1722 63.365 90.0977C63.2954 90.0224 63.2606 89.9283 63.2606 89.8153C63.2606 89.723 63.2865 89.6413 63.3383 89.5703C63.3909 89.4993 63.4623 89.4435 63.5525 89.4031C63.6434 89.3626 63.7464 89.3423 63.8614 89.3423C64.0233 89.3423 64.1505 89.3778 64.2428 89.4489C64.3358 89.5199 64.4019 89.6136 64.441 89.7301ZM65.5609 89.3636V89.5767H64.7129V89.3636H65.5609ZM64.96 88.9716H65.2115V90.5312C65.2115 90.6023 65.2218 90.6555 65.2424 90.6911C65.2637 90.7259 65.2907 90.7493 65.3233 90.7614C65.3567 90.7727 65.3919 90.7784 65.4288 90.7784C65.4565 90.7784 65.4792 90.777 65.497 90.7741C65.5147 90.7706 65.5289 90.7678 65.5396 90.7656L65.5907 90.9915C65.5737 90.9979 65.5499 91.0043 65.5194 91.0107C65.4888 91.0178 65.4501 91.0213 65.4032 91.0213C65.3322 91.0213 65.2626 91.006 65.1944 90.9755C65.127 90.945 65.0708 90.8984 65.0261 90.8359C64.9821 90.7734 64.96 90.6946 64.96 90.5994V88.9716Z" fill="#F7F7F7"/>
<path d="M110.392 89.1006H68.8848V89.846H110.392V89.1006Z" fill="#28385E"/>
<path d="M94.3606 89.1006H68.8848V89.846H94.3606V89.1006Z" fill="#FF4D6B"/>
<path d="M89.2967 90.5283H68.8848V91.2738H89.2967V90.5283Z" fill="#28385E"/>
<path d="M55.9457 92.75H58.4623L58.7887 92.0508H53.709V93.216H55.4797L55.9457 92.75Z" fill="#FF4D6B"/>
<path d="M61.1617 92.043H60.8818V92.3224H61.1617V92.043Z" fill="#F7F7F7"/>
<path d="M62.8966 92.043H62.6172V92.3224H62.8966V92.043Z" fill="#F7F7F7"/>
<path d="M64.6333 92.043H64.3535V92.3224H64.6333V92.043Z" fill="#F7F7F7"/>
<path d="M117.21 79.0398C117.044 79.0398 116.893 79.0066 116.76 78.9403C116.626 78.8741 116.519 78.7831 116.439 78.6676C116.358 78.5521 116.314 78.4205 116.307 78.2727H116.648C116.661 78.4044 116.721 78.5133 116.827 78.5994C116.934 78.6847 117.062 78.7273 117.21 78.7273C117.33 78.7273 117.436 78.6993 117.528 78.6435C117.622 78.5876 117.696 78.5109 117.749 78.4134C117.803 78.3149 117.83 78.2036 117.83 78.0795C117.83 77.9527 117.802 77.8395 117.746 77.7401C117.691 77.6397 117.615 77.5606 117.518 77.5028C117.422 77.4451 117.312 77.4157 117.188 77.4148C117.098 77.4138 117.007 77.4276 116.913 77.456C116.82 77.4834 116.742 77.5189 116.682 77.5625L116.352 77.5227L116.528 76.0909H118.04V76.4034H116.824L116.722 77.2614H116.739C116.798 77.214 116.873 77.1747 116.963 77.1435C117.053 77.1122 117.147 77.0966 117.244 77.0966C117.422 77.0966 117.581 77.1392 117.72 77.2244C117.86 77.3087 117.97 77.4242 118.05 77.571C118.13 77.7178 118.17 77.8854 118.17 78.0739C118.17 78.2595 118.129 78.4252 118.045 78.571C117.963 78.7159 117.849 78.8305 117.705 78.9148C117.56 78.9981 117.395 79.0398 117.21 79.0398ZM119.684 79.0398C119.47 79.0398 119.287 78.9815 119.137 78.8651C118.986 78.7476 118.871 78.5777 118.792 78.3551C118.712 78.1316 118.672 77.8617 118.672 77.5455C118.672 77.2311 118.712 76.9626 118.792 76.7401C118.872 76.5166 118.988 76.3461 119.138 76.2287C119.29 76.1103 119.471 76.0511 119.684 76.0511C119.896 76.0511 120.077 76.1103 120.228 76.2287C120.379 76.3461 120.495 76.5166 120.574 76.7401C120.655 76.9626 120.695 77.2311 120.695 77.5455C120.695 77.8617 120.655 78.1316 120.576 78.3551C120.496 78.5777 120.381 78.7476 120.23 78.8651C120.08 78.9815 119.898 79.0398 119.684 79.0398ZM119.684 78.7273C119.896 78.7273 120.06 78.625 120.178 78.4205C120.295 78.2159 120.354 77.9242 120.354 77.5455C120.354 77.2936 120.327 77.0791 120.273 76.902C120.22 76.7249 120.143 76.59 120.043 76.4972C119.944 76.4044 119.824 76.358 119.684 76.358C119.473 76.358 119.309 76.4616 119.191 76.669C119.072 76.8755 119.013 77.1676 119.013 77.5455C119.013 77.7973 119.04 78.0114 119.093 78.1875C119.146 78.3636 119.222 78.4976 119.321 78.5895C119.422 78.6813 119.542 78.7273 119.684 78.7273ZM122.184 79.0398C121.97 79.0398 121.787 78.9815 121.637 78.8651C121.486 78.7476 121.371 78.5777 121.292 78.3551C121.212 78.1316 121.172 77.8617 121.172 77.5455C121.172 77.2311 121.212 76.9626 121.292 76.7401C121.372 76.5166 121.488 76.3461 121.638 76.2287C121.79 76.1103 121.971 76.0511 122.184 76.0511C122.396 76.0511 122.577 76.1103 122.728 76.2287C122.879 76.3461 122.995 76.5166 123.074 76.7401C123.155 76.9626 123.195 77.2311 123.195 77.5455C123.195 77.8617 123.155 78.1316 123.076 78.3551C122.996 78.5777 122.881 78.7476 122.73 78.8651C122.58 78.9815 122.398 79.0398 122.184 79.0398ZM122.184 78.7273C122.396 78.7273 122.56 78.625 122.678 78.4205C122.795 78.2159 122.854 77.9242 122.854 77.5455C122.854 77.2936 122.827 77.0791 122.773 76.902C122.72 76.7249 122.643 76.59 122.543 76.4972C122.444 76.4044 122.324 76.358 122.184 76.358C121.973 76.358 121.809 76.4616 121.691 76.669C121.572 76.8755 121.513 77.1676 121.513 77.5455C121.513 77.7973 121.54 78.0114 121.593 78.1875C121.646 78.3636 121.722 78.4976 121.821 78.5895C121.922 78.6813 122.042 78.7273 122.184 78.7273Z" fill="#F7F7F7"/>
<path d="M113.376 91.3363H112.754L111.76 89.0996H112.381L113.376 91.3363Z" fill="#28385E"/>
<path d="M114.991 91.3363H114.37L113.376 89.0996H113.997L114.991 91.3363Z" fill="#28385E"/>
<path d="M116.606 91.3363H115.984L114.99 89.0996H115.612L116.606 91.3363Z" fill="#28385E"/>
<path d="M118.222 91.3363H117.601L116.606 89.0996H117.228L118.222 91.3363Z" fill="#28385E"/>
<path d="M119.807 91.3363H119.185L118.191 89.0996H118.813L119.807 91.3363Z" fill="#28385E"/>
<path d="M117.107 14.3228H107.004V16.1324H117.107V14.3228Z" fill="#A9CCEA"/>
<path d="M122.238 17.561H107.004V19.3703H122.238V17.561Z" fill="#A9CCEA"/>
<path d="M125.79 20.7988H107.004V22.6085H125.79V20.7988Z" fill="#A9CCEA"/>
<path d="M114.187 24.0371H107.004V25.8468H114.187V24.0371Z" fill="#A9CCEA"/>
<path d="M11.1033 36.1299H1V37.9395H11.1033V36.1299Z" fill="#2889DB"/>
<path d="M16.2337 39.3682H1V41.1775H16.2337V39.3682Z" fill="#A9CCEA"/>
<path d="M19.7859 42.6055H1V44.4151H19.7859V42.6055Z" fill="#A9CCEA"/>
<path d="M8.18282 45.8438H1V47.6534H8.18282V45.8438Z" fill="#A9CCEA"/>
<path d="M69.2687 99.6719H26.2041V105.262H69.2687V99.6719Z" stroke="#289DF2" stroke-width="1.1276" stroke-miterlimit="10"/>
<path d="M49.0469 55.6416H46.9766V68.3401H49.0469V55.6416Z" stroke="#289DF2" stroke-width="1.1276" stroke-miterlimit="10"/>
<path d="M132.205 91.3609C136.096 90.7335 138.741 87.0708 138.114 83.18C137.486 79.2893 133.824 76.6438 129.933 77.2712C126.043 77.8986 123.397 81.5613 124.025 85.4521C124.652 89.3428 128.315 91.9883 132.205 91.3609Z" fill="#FF4D6B"/>
<path d="M130.56 83.6498L127.726 84.6883L130.56 85.7183V86.7825L126.509 85.2416V84.1352L130.56 82.5947V83.6498Z" fill="#F9FBFC"/>
<path d="M131.485 82.5938L135.537 84.1342V85.2407L131.485 86.7815V85.7173L134.32 84.6873L131.485 83.6488V82.5938Z" fill="#F9FBFC"/>
<path d="M142.976 90.1475C142.976 90.6619 142.558 91.0791 142.044 91.0791C141.529 91.0791 141.112 90.6619 141.112 90.1475C141.112 89.633 141.529 89.2158 142.044 89.2158C142.558 89.2158 142.976 89.633 142.976 90.1475Z" stroke="#FF4D6B" stroke-width="1.1276" stroke-miterlimit="10"/>
<path d="M57.6736 22.6523H23.9258V26.1721H57.6736V22.6523Z" stroke="#289DF2" stroke-width="1.1276" stroke-miterlimit="10"/>
<path d="M46.2873 23.7915H25.376V24.8267H46.2873V23.7915Z" fill="#289DF2"/>
<path d="M77.3426 50.1201H52.6357V51.3624H77.3426V50.1201Z" fill="#284D89"/>
<path d="M63.8334 50.1201H52.6357V51.3624H63.8334V50.1201Z" fill="#2889DB"/>
<path d="M77.3426 53.3281H52.6357V54.5704H77.3426V53.3281Z" fill="#284D89"/>
<path d="M69.8374 53.3281H52.6357V54.5704H69.8374V53.3281Z" fill="#FF4D6B"/>
<path d="M77.3426 56.5381H52.6357V57.7804H77.3426V56.5381Z" fill="#284D89"/>
<path d="M57.6736 56.5381H52.6357V57.7804H57.6736V56.5381Z" fill="#1AE5FF"/>
<path d="M53.2235 47.9463H52.7402V48.4295H53.2235V47.9463Z" fill="#284D89"/>
<path d="M54.8797 47.9463H54.3965V48.4295H54.8797V47.9463Z" fill="#284D89"/>
<path d="M56.536 47.9463H56.0527V48.4295H56.536V47.9463Z" fill="#284D89"/>
<path d="M99.5188 64.8662H98.7139V65.6715H99.5188V64.8662Z" fill="white"/>
<path d="M102.28 64.8662H101.475V65.6715H102.28V64.8662Z" fill="white"/>
<path d="M105.041 64.8662H104.235V65.6715H105.041V64.8662Z" fill="white"/>
<path d="M111.846 32.8711H110.336V34.3807H111.846V32.8711Z" fill="white"/>
<path d="M117.021 32.8711H115.512V34.3807H117.021V32.8711Z" fill="white"/>
<path d="M122.198 32.8711H120.688V34.3807H122.198V32.8711Z" fill="white"/>
<path d="M90.452 95.2598H88.9424V96.7694H90.452V95.2598Z" fill="white"/>
<path d="M95.6278 95.2598H94.1182V96.7694H95.6278V95.2598Z" fill="white"/>
<path d="M100.804 95.2598H99.2939V96.7694H100.804V95.2598Z" fill="white"/>
<path d="M26.4114 53.4551H25.6064V54.2604H26.4114V53.4551Z" fill="white"/>
<path d="M29.1715 53.4551H28.3662V54.2604H29.1715V53.4551Z" fill="white"/>
<path d="M31.9332 53.4551H31.1279V54.2604H31.9332V53.4551Z" fill="white"/>
<path d="M138.49 52.4668H125.102V53.7781H138.49V52.4668Z" fill="white"/>
<path d="M129.075 54.7783H125.102V56.0897H129.075V54.7783Z" fill="#287DD1"/>
<path d="M17.0941 55.1582H14.1957V52.2598H11.5039V55.1582H8.60547V57.8499H11.5039V60.7484H14.1957V57.8499H17.0941V55.1582Z" fill="#1AE5FF"/>
<path d="M9.33746 63.2323H7.57003V61.4648H5.92893V63.2323H4.16113V64.8734H5.92893V66.6408H7.57003V64.8734H9.33746V63.2323Z" fill="#2889DB"/>
<path d="M57.7126 61.6895C55.2093 61.6895 53.1797 63.7191 53.1797 66.2224C53.1797 68.7261 55.2093 70.7554 57.7126 70.7554C60.2163 70.7554 62.2456 68.7258 62.2456 66.2224C62.2456 63.7191 60.216 61.6895 57.7126 61.6895ZM57.7126 68.5847C56.4079 68.5847 55.3507 67.5271 55.3507 66.2224C55.3507 64.9177 56.4083 63.8601 57.7126 63.8601C59.0174 63.8601 60.075 64.9177 60.075 66.2224C60.075 67.5271 59.017 68.5847 57.7126 68.5847Z" fill="#284D89"/>
<path d="M54.6269 65.7755C55.0481 65.7755 55.4172 65.5251 55.6089 65.1498C55.9992 64.3845 56.7946 63.8601 57.7127 63.8601C58.6311 63.8601 59.4261 64.3845 59.8168 65.1498C60.0082 65.5251 60.3776 65.7755 60.7988 65.7755C61.592 65.7755 62.1347 64.9445 61.7859 64.2317C61.0489 62.7261 59.5021 61.6895 57.7131 61.6895C55.924 61.6895 54.3772 62.7261 53.6402 64.2321C53.291 64.9445 53.8334 65.7755 54.6269 65.7755Z" fill="#289DF2"/>
<path d="M65.3262 66.2224C65.3262 68.7258 67.3558 70.7554 69.8591 70.7554C72.3628 70.7554 74.3921 68.7258 74.3921 66.2224C74.3921 63.7187 72.3625 61.6895 69.8591 61.6895C67.3558 61.6895 65.3262 63.7191 65.3262 66.2224ZM72.2215 66.2224C72.2215 67.5268 71.1639 68.5844 69.8591 68.5844C68.5544 68.5844 67.4968 67.5268 67.4968 66.2224C67.4968 64.9177 68.5544 63.8601 69.8591 63.8601C71.1639 63.8601 72.2215 64.9177 72.2215 66.2224Z" fill="#284D89"/>
<path d="M69.4126 69.3087C69.4126 68.8875 69.1622 68.5184 68.7869 68.3268C68.0216 67.9364 67.4972 67.141 67.4972 66.223C67.4972 65.3045 68.0216 64.5095 68.7869 64.1188C69.1622 63.9275 69.4126 63.558 69.4126 63.1368C69.4126 62.3436 68.5816 61.8009 67.8688 62.1498C66.3632 62.8868 65.3262 64.4335 65.3262 66.223C65.3262 68.0121 66.3632 69.5588 67.8688 70.2958C68.5812 70.6446 69.4126 70.1023 69.4126 69.3087Z" fill="#FF4D6B"/>
<path d="M44.7679 48.3262H36.4863V68.2023H44.7679V48.3262Z" stroke="#289DF2" stroke-width="1.1276" stroke-miterlimit="10"/>
<path d="M40.0757 52.1562H37.6602V52.8701H40.0757V52.1562Z" fill="#1AE5FF"/>
<path d="M40.0757 53.749H37.6602V54.4629H40.0757V53.749Z" fill="#1AE5FF"/>
<path d="M40.0757 55.3408H37.6602V56.0547H40.0757V55.3408Z" fill="#1AE5FF"/>
<path d="M40.0757 63.623H37.6602V64.3369H40.0757V63.623Z" fill="#1AE5FF"/>
<path d="M41.18 57.6768H37.6602V58.3906H41.18V57.6768Z" fill="#1AE5FF"/>
<path d="M41.18 59.2695H37.6602V59.9834H41.18V59.2695Z" fill="white"/>
<path d="M41.18 60.8613H37.6602V61.5752H41.18V60.8613Z" fill="white"/>
<path d="M17.3015 73.1709H6.81152V83.6609H17.3015V73.1709Z" fill="#289DF2"/>
<path d="M11.78 75.6553H1.29004V86.1453H11.78V75.6553Z" stroke="#289DF2" stroke-width="1.1276" stroke-miterlimit="10"/>
<path d="M136.006 103.536H131.589V107.953H136.006V103.536Z" stroke="#289DF2" stroke-width="1.1276" stroke-miterlimit="10"/>
<path d="M78.585 96.5655H82.3119L84.3823 98.6359H105.915L109.227 95.3232H120.822" stroke="white" stroke-width="1.1276" stroke-miterlimit="10"/>
<path d="M77.4981 97.7052C78.0984 97.7052 78.5851 97.2185 78.5851 96.6182C78.5851 96.0179 78.0984 95.5312 77.4981 95.5312C76.8978 95.5312 76.4111 96.0179 76.4111 96.6182C76.4111 97.2185 76.8978 97.7052 77.4981 97.7052Z" stroke="white" stroke-width="1.1276" stroke-miterlimit="10"/>
<path d="M121.943 96.3585C122.544 96.3585 123.03 95.8719 123.03 95.2715C123.03 94.6712 122.544 94.1846 121.943 94.1846C121.343 94.1846 120.856 94.6712 120.856 95.2715C120.856 95.8719 121.343 96.3585 121.943 96.3585Z" stroke="white" stroke-width="1.1276" stroke-miterlimit="10"/>
<path d="M136.558 38.1118C136.558 38.8742 135.94 39.4922 135.177 39.4922C134.415 39.4922 133.797 38.8742 133.797 38.1118C133.797 37.3495 134.415 36.7314 135.177 36.7314C135.94 36.7314 136.558 37.3495 136.558 38.1118Z" fill="#289DF2"/>
<path d="M9.01955 91.9429C9.01955 92.7052 8.40151 93.3233 7.63917 93.3233C6.87682 93.3233 6.25879 92.7052 6.25879 91.9429C6.25879 91.1805 6.87682 90.5625 7.63917 90.5625C8.40188 90.5625 9.01955 91.1805 9.01955 91.9429Z" fill="#FF4D6B"/>
<path d="M15.3682 97.0494C15.3682 98.3835 14.2868 99.4649 12.9527 99.4649C11.6186 99.4649 10.5371 98.3835 10.5371 97.0494C10.5371 95.7153 11.6186 94.6338 12.9527 94.6338C14.2868 94.6338 15.3682 95.7153 15.3682 97.0494Z" fill="#FF4D6B"/>
<path d="M97.6326 105.193H87.9707V107.402H97.6326V105.193Z" stroke="#289DF2" stroke-width="1.1276" stroke-miterlimit="10"/>
<path d="M109.158 109.334H87.9707V111.542H109.158V109.334Z" stroke="#289DF2" stroke-width="1.1276" stroke-miterlimit="10"/>
<path d="M28.7812 107.308L26.4395 109.649" stroke="#289DF2" stroke-width="1.1276" stroke-miterlimit="10" stroke-linecap="round" stroke-linejoin="round"/>
<path d="M31.0322 107.308L28.6904 109.649" stroke="#289DF2" stroke-width="1.1276" stroke-miterlimit="10" stroke-linecap="round" stroke-linejoin="round"/>
<path d="M33.2841 107.308L30.9424 109.649" stroke="#289DF2" stroke-width="1.1276" stroke-miterlimit="10" stroke-linecap="round" stroke-linejoin="round"/>
<path d="M35.5361 107.308L33.1943 109.649" stroke="#289DF2" stroke-width="1.1276" stroke-miterlimit="10" stroke-linecap="round" stroke-linejoin="round"/>
<path d="M37.7871 107.308L35.4453 109.649" stroke="#289DF2" stroke-width="1.1276" stroke-miterlimit="10" stroke-linecap="round" stroke-linejoin="round"/>
</svg>
