<svg width="37" height="19" viewBox="0 0 37 19" fill="none" xmlns="http://www.w3.org/2000/svg">
<path d="M13.9999 7.96133C13.9999 7.59199 13.95 7.23263 13.8501 6.88325C13.7603 6.53386 13.6056 6.22442 13.386 5.9549C13.1763 5.67541 12.8968 5.45081 12.5475 5.2811C12.1981 5.11139 11.7739 5.02656 11.2747 5.02656C10.3963 5.02656 9.70753 5.2811 9.20841 5.79019C8.70932 6.28931 8.37991 7.01301 8.22018 7.96133H13.9999ZM8.16028 10.6565C8.31001 11.9542 8.70432 12.8975 9.34317 13.4865C9.98206 14.0654 10.8056 14.3549 11.8138 14.3549C12.3528 14.3549 12.817 14.29 13.2063 14.1603C13.5956 14.0305 13.94 13.8858 14.2394 13.7261C14.5489 13.5663 14.8284 13.4216 15.078 13.2918C15.3375 13.1621 15.607 13.0972 15.8865 13.0972C16.256 13.0972 16.5354 13.2319 16.725 13.5015L17.6234 14.5945C17.1098 15.0437 16.5108 15.4929 15.7622 16.0918C15.2132 16.4311 15.0135 16.9902 14.4146 17.14C13.9654 17.5892 13.6659 17.7389 13.0566 17.709C12.4776 17.7889 11.9236 17.8287 11.3945 17.8287C10.3065 17.8287 9.28328 17.6542 8.32499 17.3047C7.3767 16.9453 6.54316 16.4162 5.82445 15.7175C5.11573 15.0188 4.55171 14.1503 4.13246 13.1121C3.72321 12.074 3.51855 10.8661 3.51855 9.4886C3.51855 8.45044 3.69326 7.46721 4.04262 6.53886C4.40198 5.61051 4.91107 4.79696 5.5699 4.09821C6.23873 3.39947 7.04228 2.84545 7.9806 2.43617C8.92892 2.02689 9.99703 1.82227 11.1849 1.82227C12.2131 1.82227 13.1514 1.98197 13.9999 2.30141C14.8584 2.62085 15.592 3.08503 16.2009 3.69393C16.8199 4.30283 17.299 5.0515 17.6383 5.93993C17.9878 6.81835 18.1624 7.81659 18.1624 8.93459C18.1624 9.28398 18.1474 9.56847 18.1175 9.78807C18.0875 10.0077 18.0327 10.1824 17.9528 10.3121C17.8731 10.4419 17.7632 10.5317 17.6234 10.5817C17.4937 10.6316 17.3239 10.6565 17.1143 10.6565H8.16028Z" fill="black" fill-opacity="0.2"/>
<path d="M23.1223 10.182C23.1453 10.6149 23.2546 11.0145 23.4511 11.3809C23.6541 11.7402 23.891 12.0499 24.162 12.3099C24.5899 12.7205 25.1119 12.9614 25.7285 13.0325C26.3592 13.1034 27.0147 13.041 27.6957 12.8453C28.3836 12.6425 29.0691 12.3278 29.7521 11.9014C30.4352 11.475 31.0539 10.973 31.6082 10.3955C32.3201 9.65399 32.7258 8.99561 32.8259 8.42042C32.9331 7.8521 32.7869 7.37633 32.3874 6.99314C32.1239 6.73994 31.7604 6.57616 31.2977 6.5018C30.8488 6.42717 30.3352 6.42723 29.7563 6.50204C29.1918 6.57655 28.5869 6.72877 27.9416 6.9587C27.2962 7.18866 26.6524 7.48148 26.0097 7.83715L23.1223 10.182ZM29.6228 4.58621C30.8548 4.34421 31.9972 4.31723 33.0493 4.50529C34.1085 4.6862 35.0054 5.12905 35.7397 5.83387C36.1961 6.27181 36.5309 6.75069 36.7441 7.2705C36.9648 7.79717 37.0426 8.35819 36.978 8.95362C36.9274 9.54878 36.7234 10.175 36.3665 10.8324C36.0167 11.4966 35.4998 12.1852 34.8155 12.8982C34.2064 13.5327 33.5434 14.088 32.8262 14.5641C32.123 15.0399 31.3974 15.4322 30.6487 15.7411C29.9004 16.0499 29.143 16.2682 28.3767 16.3958C27.6244 16.5231 26.8913 16.5593 26.1774 16.5039C25.4701 16.4416 24.7993 16.2841 24.1653 16.0317C23.5448 15.7788 22.9959 15.4232 22.5182 14.9647C22.0406 14.5062 21.6878 14.0103 21.4602 13.4768C21.2326 12.9433 21.1128 12.397 21.1015 11.8381L16.4199 15.6457L13.5537 12.8949L29.3398 0L30.8479 1.44726C31.1542 1.74149 31.3213 2.04559 31.3489 2.35955C31.3761 2.67352 31.2324 2.99448 30.9177 3.32246L29.6228 4.58621Z" fill="black" fill-opacity="0.3"/>
<path d="M11.5295 7.89701C11.5295 7.49072 11.4746 7.09543 11.3647 6.71112C11.2659 6.32682 11.0957 5.98641 10.8542 5.68994C10.6236 5.38248 10.3161 5.13542 9.9318 4.94876C9.54749 4.7621 9.08084 4.66876 8.53179 4.66876C7.56554 4.66876 6.80789 4.94876 6.25884 5.50876C5.70983 6.05778 5.34748 6.85388 5.17178 7.89701H11.5295ZM5.1059 10.8617C5.27061 12.2892 5.70435 13.3268 6.40708 13.9747C7.10984 14.6115 8.01572 14.93 9.12474 14.93C9.71768 14.93 10.2283 14.8586 10.6565 14.7159C11.0847 14.5731 11.4636 14.4139 11.793 14.2382C12.1334 14.0625 12.4528 13.7685 12.7273 13.6258C13.0128 13.483 13.3183 13.1766 13.6257 13.1766C14.032 13.1766 14.3185 13.6947 14.5271 13.9911L16.0095 15.8194C15.4824 16.4234 14.9114 16.9175 14.2965 17.3017C13.6926 17.6752 13.0667 17.9717 12.4189 18.1912C11.782 18.3999 11.1397 18.5424 10.4918 18.6194C9.85496 18.7071 9.24554 18.7512 8.66356 18.7512C7.46671 18.7512 6.3412 18.5589 5.28708 18.1747C4.24395 17.7794 3.32707 17.1975 2.53648 16.4288C1.75688 15.6602 1.13647 14.7049 0.675297 13.5629C0.225109 12.421 0 11.0923 0 9.57701C0 8.43506 0.192167 7.35348 0.576472 6.3323C0.971768 5.31112 1.53177 4.41622 2.25648 3.64758C2.99218 2.87894 3.87611 2.26953 4.90825 1.81934C5.95141 1.36915 7.12631 1.14404 8.43297 1.14404C9.56396 1.14404 10.5961 1.31974 11.5295 1.6711C12.4738 2.02247 13.2809 2.53306 13.9506 3.20287C14.6314 3.87269 15.1585 4.69622 15.5318 5.67347C15.9162 6.63976 16.1082 7.73778 16.1082 8.9676C16.1082 9.3519 16.0918 9.66485 16.0589 9.90643C16.0259 10.148 15.9656 10.3401 15.8777 10.4829C15.7899 10.6257 15.6691 10.7245 15.5153 10.7794C15.3726 10.8343 15.1859 10.8617 14.9553 10.8617H5.1059Z" fill="#3D44C3"/>
<path d="M21.6252 11.3798C21.6482 11.8127 21.7576 12.2123 21.954 12.5787C22.157 12.938 22.3939 13.2476 22.6649 13.5076C23.0929 13.9182 23.6148 14.1591 24.2314 14.2303C24.8621 14.3012 25.5176 14.2388 26.1986 14.0431C26.8865 13.8402 27.572 13.5256 28.2551 13.0992C28.9382 12.6728 29.5569 12.1708 30.1112 11.5932C30.823 10.8517 31.2288 10.1934 31.3288 9.61818C31.436 9.04985 31.2899 8.57409 30.8904 8.19089C30.6268 7.93769 30.2633 7.77391 29.8006 7.69955C29.3517 7.62493 28.8381 7.62499 28.2593 7.69979C27.6948 7.7743 27.0898 7.92652 26.4445 8.15645C25.7991 8.38641 25.1553 8.67923 24.5126 9.03491L21.6252 11.3798ZM28.1257 5.78396C29.3577 5.54196 30.5002 5.51498 31.5522 5.70305C32.6114 5.88395 33.5083 6.3268 34.2426 7.03163C34.699 7.46956 35.0338 7.94844 35.247 8.46826C35.4677 8.99493 35.5456 9.55595 35.4809 10.1514C35.4303 10.7465 35.2263 11.3728 34.8694 12.0301C34.5196 12.6943 34.0027 13.3829 33.3184 14.0959C32.7093 14.7305 32.0463 15.2858 31.3291 15.7618C30.6259 16.2376 29.9003 16.6299 29.1517 16.9389C28.4033 17.2477 27.646 17.466 26.8796 17.5936C26.1274 17.7208 25.3943 17.7571 24.6803 17.7017C23.973 17.6394 23.3022 17.4819 22.6682 17.2294C22.0477 16.9767 21.4988 16.6209 21.0212 16.1624C20.5435 15.704 20.1907 15.208 19.9631 14.6745C19.7356 14.141 19.6158 13.5948 19.6044 13.0359L14.9229 16.8434L12.0566 14.0927L27.8427 1.19775L29.3508 2.64501C29.6572 2.93924 29.8243 3.24335 29.8518 3.55731C29.8791 3.87127 29.7353 4.19224 29.4206 4.52021L28.1257 5.78396Z" fill="#3D44C3"/>
</svg>
