<svg width="230" height="180" viewBox="0 0 230 180" fill="none" xmlns="http://www.w3.org/2000/svg">
<rect width="230" height="180" rx="10" fill="white"/>
<path d="M21.5049 142.25V142.953C21.5049 143.92 21.3789 144.787 21.127 145.555C20.875 146.322 20.5146 146.976 20.0459 147.515C19.583 148.054 19.0264 148.467 18.376 148.754C17.7256 149.035 17.0049 149.176 16.2139 149.176C15.4287 149.176 14.7109 149.035 14.0605 148.754C13.416 148.467 12.8564 148.054 12.3818 147.515C11.9072 146.976 11.5381 146.322 11.2744 145.555C11.0166 144.787 10.8877 143.92 10.8877 142.953V142.25C10.8877 141.283 11.0166 140.419 11.2744 139.657C11.5322 138.89 11.8955 138.236 12.3643 137.697C12.8389 137.152 13.3984 136.739 14.043 136.458C14.6934 136.171 15.4111 136.027 16.1963 136.027C16.9873 136.027 17.708 136.171 18.3584 136.458C19.0088 136.739 19.5684 137.152 20.0371 137.697C20.5059 138.236 20.8662 138.89 21.1182 139.657C21.376 140.419 21.5049 141.283 21.5049 142.25ZM19.2988 142.953V142.232C19.2988 141.518 19.2285 140.888 19.0879 140.343C18.9531 139.792 18.751 139.332 18.4814 138.963C18.2178 138.588 17.8926 138.307 17.5059 138.119C17.1191 137.926 16.6826 137.829 16.1963 137.829C15.71 137.829 15.2764 137.926 14.8955 138.119C14.5146 138.307 14.1895 138.588 13.9199 138.963C13.6562 139.332 13.4541 139.792 13.3135 140.343C13.1729 140.888 13.1025 141.518 13.1025 142.232V142.953C13.1025 143.668 13.1729 144.301 13.3135 144.852C13.4541 145.402 13.6592 145.868 13.9287 146.249C14.2041 146.624 14.5322 146.908 14.9131 147.102C15.2939 147.289 15.7275 147.383 16.2139 147.383C16.7061 147.383 17.1426 147.289 17.5234 147.102C17.9043 146.908 18.2266 146.624 18.4902 146.249C18.7539 145.868 18.9531 145.402 19.0879 144.852C19.2285 144.301 19.2988 143.668 19.2988 142.953ZM26.3652 149H24.2471V138.576C24.2471 137.867 24.3789 137.272 24.6426 136.792C24.9121 136.306 25.2959 135.939 25.7939 135.693C26.292 135.441 26.8809 135.315 27.5605 135.315C27.7715 135.315 27.9795 135.33 28.1846 135.359C28.3896 135.383 28.5889 135.421 28.7822 135.474L28.7295 137.108C28.6123 137.079 28.4834 137.059 28.3428 137.047C28.208 137.035 28.0615 137.029 27.9033 137.029C27.5811 137.029 27.3027 137.091 27.0684 137.214C26.8398 137.331 26.6641 137.504 26.541 137.732C26.4238 137.961 26.3652 138.242 26.3652 138.576V149ZM28.3779 139.49V141.037H22.7881V139.49H28.3779ZM31.8145 149H29.6963V138.875C29.6963 138.107 29.8486 137.46 30.1533 136.933C30.458 136.405 30.8975 136.004 31.4717 135.729C32.0518 135.453 32.7402 135.315 33.5371 135.315C34.0059 135.315 34.46 135.365 34.8994 135.465C35.3389 135.564 35.79 135.69 36.2529 135.843L35.9277 137.565C35.6348 137.466 35.3037 137.372 34.9346 137.284C34.5713 137.19 34.1553 137.144 33.6865 137.144C33.0479 137.144 32.5762 137.29 32.2715 137.583C31.9668 137.87 31.8145 138.301 31.8145 138.875V149ZM33.7305 139.49V141.037H28.2373V139.49H33.7305ZM37.2637 139.49V149H35.1367V139.49H37.2637ZM43.4863 147.488C43.832 147.488 44.1426 147.421 44.418 147.286C44.6992 147.146 44.9248 146.952 45.0947 146.706C45.2705 146.46 45.3672 146.176 45.3848 145.854H47.3799C47.3682 146.469 47.1865 147.028 46.835 147.532C46.4834 148.036 46.0176 148.438 45.4375 148.736C44.8574 149.029 44.2158 149.176 43.5127 149.176C42.7861 149.176 42.1533 149.053 41.6143 148.807C41.0752 148.555 40.627 148.209 40.2695 147.77C39.9121 147.33 39.6426 146.823 39.4609 146.249C39.2852 145.675 39.1973 145.06 39.1973 144.403V144.096C39.1973 143.439 39.2852 142.824 39.4609 142.25C39.6426 141.67 39.9121 141.16 40.2695 140.721C40.627 140.281 41.0752 139.938 41.6143 139.692C42.1533 139.44 42.7832 139.314 43.5039 139.314C44.2656 139.314 44.9336 139.467 45.5078 139.771C46.082 140.07 46.5332 140.489 46.8613 141.028C47.1953 141.562 47.3682 142.183 47.3799 142.892H45.3848C45.3672 142.54 45.2793 142.224 45.1211 141.942C44.9688 141.655 44.752 141.427 44.4707 141.257C44.1953 141.087 43.8643 141.002 43.4775 141.002C43.0498 141.002 42.6953 141.09 42.4141 141.266C42.1328 141.436 41.9131 141.67 41.7549 141.969C41.5967 142.262 41.4824 142.593 41.4121 142.962C41.3477 143.325 41.3154 143.703 41.3154 144.096V144.403C41.3154 144.796 41.3477 145.177 41.4121 145.546C41.4766 145.915 41.5879 146.246 41.7461 146.539C41.9102 146.826 42.1328 147.058 42.4141 147.233C42.6953 147.403 43.0527 147.488 43.4863 147.488ZM53.1982 149.176C52.4951 149.176 51.8594 149.062 51.291 148.833C50.7285 148.599 50.248 148.273 49.8496 147.857C49.457 147.441 49.1553 146.952 48.9443 146.39C48.7334 145.827 48.6279 145.221 48.6279 144.57V144.219C48.6279 143.475 48.7363 142.801 48.9531 142.197C49.1699 141.594 49.4717 141.078 49.8584 140.65C50.2451 140.217 50.7021 139.886 51.2295 139.657C51.7568 139.429 52.3281 139.314 52.9434 139.314C53.623 139.314 54.2178 139.429 54.7275 139.657C55.2373 139.886 55.6592 140.208 55.9932 140.624C56.333 141.034 56.585 141.523 56.749 142.092C56.9189 142.66 57.0039 143.287 57.0039 143.973V144.878H49.6562V143.357H54.9121V143.19C54.9004 142.81 54.8242 142.452 54.6836 142.118C54.5488 141.784 54.3408 141.515 54.0596 141.31C53.7783 141.104 53.4033 141.002 52.9346 141.002C52.583 141.002 52.2695 141.078 51.9941 141.23C51.7246 141.377 51.499 141.591 51.3174 141.872C51.1357 142.153 50.9951 142.493 50.8955 142.892C50.8018 143.284 50.7549 143.727 50.7549 144.219V144.57C50.7549 144.986 50.8105 145.373 50.9219 145.73C51.0391 146.082 51.209 146.39 51.4316 146.653C51.6543 146.917 51.9238 147.125 52.2402 147.277C52.5566 147.424 52.917 147.497 53.3213 147.497C53.8311 147.497 54.2852 147.395 54.6836 147.189C55.082 146.984 55.4277 146.694 55.7207 146.319L56.8369 147.4C56.6318 147.699 56.3652 147.986 56.0371 148.262C55.709 148.531 55.3076 148.751 54.833 148.921C54.3643 149.091 53.8193 149.176 53.1982 149.176ZM68.333 137.908L64.5098 149H62.1982L67.0146 136.203H68.4912L68.333 137.908ZM71.5322 149L67.7002 137.908L67.5332 136.203H69.0186L73.8525 149H71.5322ZM71.3477 144.254V146.003H64.3867V144.254H71.3477ZM80.875 147.031V135.5H83.002V149H81.0771L80.875 147.031ZM74.6875 144.351V144.166C74.6875 143.445 74.7725 142.789 74.9424 142.197C75.1123 141.6 75.3584 141.087 75.6807 140.659C76.0029 140.226 76.3955 139.895 76.8584 139.666C77.3213 139.432 77.8428 139.314 78.4229 139.314C78.9971 139.314 79.501 139.426 79.9346 139.648C80.3682 139.871 80.7373 140.19 81.042 140.606C81.3467 141.017 81.5898 141.509 81.7715 142.083C81.9531 142.651 82.082 143.284 82.1582 143.981V144.57C82.082 145.25 81.9531 145.871 81.7715 146.434C81.5898 146.996 81.3467 147.482 81.042 147.893C80.7373 148.303 80.3652 148.619 79.9258 148.842C79.4922 149.064 78.9854 149.176 78.4053 149.176C77.8311 149.176 77.3125 149.056 76.8496 148.815C76.3926 148.575 76.0029 148.238 75.6807 147.805C75.3584 147.371 75.1123 146.861 74.9424 146.275C74.7725 145.684 74.6875 145.042 74.6875 144.351ZM76.8057 144.166V144.351C76.8057 144.784 76.8438 145.188 76.9199 145.563C77.002 145.938 77.1279 146.27 77.2979 146.557C77.4678 146.838 77.6875 147.061 77.957 147.225C78.2324 147.383 78.5605 147.462 78.9414 147.462C79.4219 147.462 79.8174 147.356 80.1279 147.146C80.4385 146.935 80.6816 146.65 80.8574 146.293C81.0391 145.93 81.1621 145.525 81.2266 145.08V143.489C81.1914 143.144 81.1182 142.821 81.0068 142.522C80.9014 142.224 80.7578 141.963 80.5762 141.74C80.3945 141.512 80.1689 141.336 79.8994 141.213C79.6357 141.084 79.3223 141.02 78.959 141.02C78.5723 141.02 78.2441 141.102 77.9746 141.266C77.7051 141.43 77.4824 141.655 77.3066 141.942C77.1367 142.229 77.0107 142.563 76.9287 142.944C76.8467 143.325 76.8057 143.732 76.8057 144.166ZM87.335 141.424V149H85.2168V139.49H87.2119L87.335 141.424ZM86.9922 143.894L86.2715 143.885C86.2715 143.229 86.3535 142.622 86.5176 142.065C86.6816 141.509 86.9219 141.025 87.2383 140.615C87.5547 140.199 87.9473 139.88 88.416 139.657C88.8906 139.429 89.4385 139.314 90.0596 139.314C90.4932 139.314 90.8887 139.379 91.2461 139.508C91.6094 139.631 91.9229 139.827 92.1865 140.097C92.4561 140.366 92.6611 140.712 92.8018 141.134C92.9482 141.556 93.0215 142.065 93.0215 142.663V149H90.9033V142.848C90.9033 142.385 90.833 142.021 90.6924 141.758C90.5576 141.494 90.3613 141.307 90.1035 141.195C89.8516 141.078 89.5498 141.02 89.1982 141.02C88.7998 141.02 88.46 141.096 88.1787 141.248C87.9033 141.4 87.6777 141.608 87.502 141.872C87.3262 142.136 87.1973 142.44 87.1152 142.786C87.0332 143.132 86.9922 143.501 86.9922 143.894ZM92.8896 143.331L91.8965 143.551C91.8965 142.977 91.9756 142.435 92.1338 141.925C92.2979 141.409 92.5352 140.958 92.8457 140.571C93.1621 140.179 93.5518 139.871 94.0146 139.648C94.4775 139.426 95.0078 139.314 95.6055 139.314C96.0918 139.314 96.5254 139.382 96.9062 139.517C97.293 139.646 97.6211 139.851 97.8906 140.132C98.1602 140.413 98.3652 140.779 98.5059 141.23C98.6465 141.676 98.7168 142.215 98.7168 142.848V149H96.5898V142.839C96.5898 142.358 96.5195 141.986 96.3789 141.723C96.2441 141.459 96.0508 141.277 95.7988 141.178C95.5469 141.072 95.2451 141.02 94.8936 141.02C94.5654 141.02 94.2754 141.081 94.0234 141.204C93.7773 141.321 93.5693 141.488 93.3994 141.705C93.2295 141.916 93.1006 142.159 93.0127 142.435C92.9307 142.71 92.8896 143.009 92.8896 143.331ZM103.164 139.49V149H101.037V139.49H103.164ZM100.896 136.994C100.896 136.672 101.002 136.405 101.213 136.194C101.43 135.978 101.729 135.869 102.109 135.869C102.484 135.869 102.78 135.978 102.997 136.194C103.214 136.405 103.322 136.672 103.322 136.994C103.322 137.311 103.214 137.574 102.997 137.785C102.78 137.996 102.484 138.102 102.109 138.102C101.729 138.102 101.43 137.996 101.213 137.785C101.002 137.574 100.896 137.311 100.896 136.994ZM107.585 141.521V149H105.467V139.49H107.462L107.585 141.521ZM107.207 143.894L106.521 143.885C106.527 143.211 106.621 142.593 106.803 142.03C106.99 141.468 107.248 140.984 107.576 140.58C107.91 140.176 108.309 139.865 108.771 139.648C109.234 139.426 109.75 139.314 110.318 139.314C110.775 139.314 111.188 139.379 111.558 139.508C111.933 139.631 112.252 139.833 112.516 140.114C112.785 140.396 112.99 140.762 113.131 141.213C113.271 141.658 113.342 142.206 113.342 142.856V149H111.215V142.848C111.215 142.391 111.147 142.03 111.013 141.767C110.884 141.497 110.693 141.307 110.441 141.195C110.195 141.078 109.888 141.02 109.519 141.02C109.155 141.02 108.83 141.096 108.543 141.248C108.256 141.4 108.013 141.608 107.813 141.872C107.62 142.136 107.471 142.44 107.365 142.786C107.26 143.132 107.207 143.501 107.207 143.894ZM117.771 139.49V149H115.645V139.49H117.771ZM115.504 136.994C115.504 136.672 115.609 136.405 115.82 136.194C116.037 135.978 116.336 135.869 116.717 135.869C117.092 135.869 117.388 135.978 117.604 136.194C117.821 136.405 117.93 136.672 117.93 136.994C117.93 137.311 117.821 137.574 117.604 137.785C117.388 137.996 117.092 138.102 116.717 138.102C116.336 138.102 116.037 137.996 115.82 137.785C115.609 137.574 115.504 137.311 115.504 136.994ZM125.427 146.425C125.427 146.214 125.374 146.023 125.269 145.854C125.163 145.678 124.961 145.52 124.662 145.379C124.369 145.238 123.936 145.109 123.361 144.992C122.857 144.881 122.395 144.749 121.973 144.597C121.557 144.438 121.199 144.248 120.9 144.025C120.602 143.803 120.37 143.539 120.206 143.234C120.042 142.93 119.96 142.578 119.96 142.18C119.96 141.793 120.045 141.427 120.215 141.081C120.385 140.735 120.628 140.431 120.944 140.167C121.261 139.903 121.645 139.695 122.096 139.543C122.553 139.391 123.062 139.314 123.625 139.314C124.422 139.314 125.104 139.449 125.673 139.719C126.247 139.982 126.687 140.343 126.991 140.8C127.296 141.251 127.448 141.761 127.448 142.329H125.33C125.33 142.077 125.266 141.843 125.137 141.626C125.014 141.403 124.826 141.225 124.574 141.09C124.322 140.949 124.006 140.879 123.625 140.879C123.262 140.879 122.96 140.938 122.72 141.055C122.485 141.166 122.31 141.312 122.192 141.494C122.081 141.676 122.025 141.875 122.025 142.092C122.025 142.25 122.055 142.394 122.113 142.522C122.178 142.646 122.283 142.76 122.43 142.865C122.576 142.965 122.775 143.059 123.027 143.146C123.285 143.234 123.607 143.319 123.994 143.401C124.721 143.554 125.345 143.75 125.866 143.99C126.394 144.225 126.798 144.529 127.079 144.904C127.36 145.273 127.501 145.742 127.501 146.311C127.501 146.732 127.41 147.119 127.229 147.471C127.053 147.816 126.795 148.118 126.455 148.376C126.115 148.628 125.708 148.824 125.233 148.965C124.765 149.105 124.237 149.176 123.651 149.176C122.79 149.176 122.061 149.023 121.463 148.719C120.865 148.408 120.411 148.013 120.101 147.532C119.796 147.046 119.644 146.542 119.644 146.021H121.691C121.715 146.413 121.823 146.727 122.017 146.961C122.216 147.189 122.462 147.356 122.755 147.462C123.054 147.562 123.361 147.611 123.678 147.611C124.059 147.611 124.378 147.562 124.636 147.462C124.894 147.356 125.09 147.216 125.225 147.04C125.359 146.858 125.427 146.653 125.427 146.425ZM133.715 139.49V141.037H128.354V139.49H133.715ZM129.9 137.161H132.019V146.372C132.019 146.665 132.06 146.891 132.142 147.049C132.229 147.201 132.35 147.304 132.502 147.356C132.654 147.409 132.833 147.436 133.038 147.436C133.185 147.436 133.325 147.427 133.46 147.409C133.595 147.392 133.703 147.374 133.785 147.356L133.794 148.974C133.618 149.026 133.413 149.073 133.179 149.114C132.95 149.155 132.687 149.176 132.388 149.176C131.901 149.176 131.471 149.091 131.096 148.921C130.721 148.745 130.428 148.461 130.217 148.068C130.006 147.676 129.9 147.154 129.9 146.504V137.161ZM137.477 141.301V149H135.358V139.49H137.38L137.477 141.301ZM140.386 139.429L140.368 141.397C140.239 141.374 140.099 141.356 139.946 141.345C139.8 141.333 139.653 141.327 139.507 141.327C139.144 141.327 138.824 141.38 138.549 141.485C138.273 141.585 138.042 141.731 137.854 141.925C137.673 142.112 137.532 142.341 137.433 142.61C137.333 142.88 137.274 143.182 137.257 143.516L136.773 143.551C136.773 142.953 136.832 142.399 136.949 141.89C137.066 141.38 137.242 140.932 137.477 140.545C137.717 140.158 138.016 139.856 138.373 139.64C138.736 139.423 139.155 139.314 139.63 139.314C139.759 139.314 139.896 139.326 140.043 139.35C140.195 139.373 140.31 139.399 140.386 139.429ZM146.758 147.093V142.558C146.758 142.218 146.696 141.925 146.573 141.679C146.45 141.433 146.263 141.242 146.011 141.107C145.765 140.973 145.454 140.905 145.079 140.905C144.733 140.905 144.435 140.964 144.183 141.081C143.931 141.198 143.734 141.356 143.594 141.556C143.453 141.755 143.383 141.98 143.383 142.232H141.273C141.273 141.857 141.364 141.494 141.546 141.143C141.728 140.791 141.991 140.478 142.337 140.202C142.683 139.927 143.096 139.71 143.576 139.552C144.057 139.394 144.596 139.314 145.193 139.314C145.908 139.314 146.541 139.435 147.092 139.675C147.648 139.915 148.085 140.278 148.401 140.765C148.724 141.245 148.885 141.849 148.885 142.575V146.803C148.885 147.236 148.914 147.626 148.973 147.972C149.037 148.312 149.128 148.607 149.245 148.859V149H147.074C146.975 148.771 146.896 148.481 146.837 148.13C146.784 147.772 146.758 147.427 146.758 147.093ZM147.065 143.217L147.083 144.526H145.562C145.17 144.526 144.824 144.564 144.525 144.641C144.227 144.711 143.978 144.816 143.778 144.957C143.579 145.098 143.43 145.268 143.33 145.467C143.23 145.666 143.181 145.892 143.181 146.144C143.181 146.396 143.239 146.627 143.356 146.838C143.474 147.043 143.644 147.204 143.866 147.321C144.095 147.438 144.37 147.497 144.692 147.497C145.126 147.497 145.504 147.409 145.826 147.233C146.154 147.052 146.412 146.832 146.6 146.574C146.787 146.311 146.887 146.062 146.898 145.827L147.584 146.768C147.514 147.008 147.394 147.266 147.224 147.541C147.054 147.816 146.831 148.08 146.556 148.332C146.286 148.578 145.961 148.78 145.58 148.938C145.205 149.097 144.771 149.176 144.279 149.176C143.658 149.176 143.104 149.053 142.618 148.807C142.132 148.555 141.751 148.218 141.476 147.796C141.2 147.368 141.062 146.885 141.062 146.346C141.062 145.842 141.156 145.396 141.344 145.01C141.537 144.617 141.818 144.289 142.188 144.025C142.562 143.762 143.02 143.562 143.559 143.428C144.098 143.287 144.713 143.217 145.404 143.217H147.065ZM155.459 139.49V141.037H150.098V139.49H155.459ZM151.645 137.161H153.763V146.372C153.763 146.665 153.804 146.891 153.886 147.049C153.974 147.201 154.094 147.304 154.246 147.356C154.398 147.409 154.577 147.436 154.782 147.436C154.929 147.436 155.069 147.427 155.204 147.409C155.339 147.392 155.447 147.374 155.529 147.356L155.538 148.974C155.362 149.026 155.157 149.073 154.923 149.114C154.694 149.155 154.431 149.176 154.132 149.176C153.646 149.176 153.215 149.091 152.84 148.921C152.465 148.745 152.172 148.461 151.961 148.068C151.75 147.676 151.645 147.154 151.645 146.504V137.161ZM159.361 139.49V149H157.234V139.49H159.361ZM157.094 136.994C157.094 136.672 157.199 136.405 157.41 136.194C157.627 135.978 157.926 135.869 158.307 135.869C158.682 135.869 158.978 135.978 159.194 136.194C159.411 136.405 159.52 136.672 159.52 136.994C159.52 137.311 159.411 137.574 159.194 137.785C158.978 137.996 158.682 138.102 158.307 138.102C157.926 138.102 157.627 137.996 157.41 137.785C157.199 137.574 157.094 137.311 157.094 136.994ZM161.277 144.351V144.148C161.277 143.463 161.377 142.827 161.576 142.241C161.775 141.649 162.062 141.137 162.438 140.703C162.818 140.264 163.281 139.924 163.826 139.684C164.377 139.438 164.998 139.314 165.689 139.314C166.387 139.314 167.008 139.438 167.553 139.684C168.104 139.924 168.569 140.264 168.95 140.703C169.331 141.137 169.621 141.649 169.82 142.241C170.02 142.827 170.119 143.463 170.119 144.148V144.351C170.119 145.036 170.02 145.672 169.82 146.258C169.621 146.844 169.331 147.356 168.95 147.796C168.569 148.229 168.106 148.569 167.562 148.815C167.017 149.056 166.398 149.176 165.707 149.176C165.01 149.176 164.386 149.056 163.835 148.815C163.29 148.569 162.827 148.229 162.446 147.796C162.065 147.356 161.775 146.844 161.576 146.258C161.377 145.672 161.277 145.036 161.277 144.351ZM163.396 144.148V144.351C163.396 144.778 163.439 145.183 163.527 145.563C163.615 145.944 163.753 146.278 163.94 146.565C164.128 146.853 164.368 147.078 164.661 147.242C164.954 147.406 165.303 147.488 165.707 147.488C166.1 147.488 166.439 147.406 166.727 147.242C167.02 147.078 167.26 146.853 167.447 146.565C167.635 146.278 167.772 145.944 167.86 145.563C167.954 145.183 168.001 144.778 168.001 144.351V144.148C168.001 143.727 167.954 143.328 167.86 142.953C167.772 142.572 167.632 142.235 167.438 141.942C167.251 141.649 167.011 141.421 166.718 141.257C166.431 141.087 166.088 141.002 165.689 141.002C165.291 141.002 164.945 141.087 164.652 141.257C164.365 141.421 164.128 141.649 163.94 141.942C163.753 142.235 163.615 142.572 163.527 142.953C163.439 143.328 163.396 143.727 163.396 144.148ZM173.995 141.521V149H171.877V139.49H173.872L173.995 141.521ZM173.617 143.894L172.932 143.885C172.938 143.211 173.031 142.593 173.213 142.03C173.4 141.468 173.658 140.984 173.986 140.58C174.32 140.176 174.719 139.865 175.182 139.648C175.645 139.426 176.16 139.314 176.729 139.314C177.186 139.314 177.599 139.379 177.968 139.508C178.343 139.631 178.662 139.833 178.926 140.114C179.195 140.396 179.4 140.762 179.541 141.213C179.682 141.658 179.752 142.206 179.752 142.856V149H177.625V142.848C177.625 142.391 177.558 142.03 177.423 141.767C177.294 141.497 177.104 141.307 176.852 141.195C176.605 141.078 176.298 141.02 175.929 141.02C175.565 141.02 175.24 141.096 174.953 141.248C174.666 141.4 174.423 141.608 174.224 141.872C174.03 142.136 173.881 142.44 173.775 142.786C173.67 143.132 173.617 143.501 173.617 143.894Z" fill="#027FFF"/>
<path d="M14.2715 160.422V169H13.1875V161.775L11.002 162.572V161.594L14.1016 160.422H14.2715ZM17.5938 168.426C17.5938 168.242 17.6504 168.088 17.7637 167.963C17.8809 167.834 18.0488 167.77 18.2676 167.77C18.4863 167.77 18.6523 167.834 18.7656 167.963C18.8828 168.088 18.9414 168.242 18.9414 168.426C18.9414 168.605 18.8828 168.758 18.7656 168.883C18.6523 169.008 18.4863 169.07 18.2676 169.07C18.0488 169.07 17.8809 169.008 17.7637 168.883C17.6504 168.758 17.5938 168.605 17.5938 168.426ZM24.1855 160.422V169H23.1016V161.775L20.916 162.572V161.594L24.0156 160.422H24.1855ZM28.5801 160V169H27.4902V160H28.5801ZM32.4531 162.66L29.6875 165.619L28.1406 167.225L28.0527 166.07L29.1602 164.746L31.1289 162.66H32.4531ZM31.4629 169L29.2012 165.977L29.7637 165.01L32.7402 169H31.4629ZM43.0176 164.752V167.875C42.9121 168.031 42.7441 168.207 42.5137 168.402C42.2832 168.594 41.9648 168.762 41.5586 168.906C41.1562 169.047 40.6367 169.117 40 169.117C39.4805 169.117 39.002 169.027 38.5645 168.848C38.1309 168.664 37.7539 168.398 37.4336 168.051C37.1172 167.699 36.8711 167.273 36.6953 166.773C36.5234 166.27 36.4375 165.699 36.4375 165.062V164.4C36.4375 163.764 36.5117 163.195 36.6602 162.695C36.8125 162.195 37.0352 161.771 37.3281 161.424C37.6211 161.072 37.9805 160.807 38.4062 160.627C38.832 160.443 39.3203 160.352 39.8711 160.352C40.5234 160.352 41.0684 160.465 41.5059 160.691C41.9473 160.914 42.291 161.223 42.5371 161.617C42.7871 162.012 42.9473 162.461 43.0176 162.965H41.8867C41.8359 162.656 41.7344 162.375 41.582 162.121C41.4336 161.867 41.2207 161.664 40.9434 161.512C40.666 161.355 40.3086 161.277 39.8711 161.277C39.4766 161.277 39.1348 161.35 38.8457 161.494C38.5566 161.639 38.3184 161.846 38.1309 162.115C37.9434 162.385 37.8027 162.711 37.709 163.094C37.6191 163.477 37.5742 163.908 37.5742 164.389V165.062C37.5742 165.555 37.6309 165.994 37.7441 166.381C37.8613 166.768 38.0273 167.098 38.2422 167.371C38.457 167.641 38.7129 167.846 39.0098 167.986C39.3105 168.127 39.6426 168.197 40.0059 168.197C40.4082 168.197 40.7344 168.164 40.9844 168.098C41.2344 168.027 41.4297 167.945 41.5703 167.852C41.7109 167.754 41.8184 167.662 41.8926 167.576V165.666H39.918V164.752H43.0176ZM45.8125 163.656V169H44.7285V162.66H45.7832L45.8125 163.656ZM47.793 162.625L47.7871 163.633C47.6973 163.613 47.6113 163.602 47.5293 163.598C47.4512 163.59 47.3613 163.586 47.2598 163.586C47.0098 163.586 46.7891 163.625 46.5977 163.703C46.4062 163.781 46.2441 163.891 46.1113 164.031C45.9785 164.172 45.873 164.34 45.7949 164.535C45.7207 164.727 45.6719 164.938 45.6484 165.168L45.3438 165.344C45.3438 164.961 45.3809 164.602 45.4551 164.266C45.5332 163.93 45.6523 163.633 45.8125 163.375C45.9727 163.113 46.1758 162.91 46.4219 162.766C46.6719 162.617 46.9688 162.543 47.3125 162.543C47.3906 162.543 47.4805 162.553 47.582 162.572C47.6836 162.588 47.7539 162.605 47.793 162.625ZM52.2988 167.916V164.652C52.2988 164.402 52.248 164.186 52.1465 164.002C52.0488 163.814 51.9004 163.67 51.7012 163.568C51.502 163.467 51.2559 163.416 50.9629 163.416C50.6895 163.416 50.4492 163.463 50.2422 163.557C50.0391 163.65 49.8789 163.773 49.7617 163.926C49.6484 164.078 49.5918 164.242 49.5918 164.418H48.5078C48.5078 164.191 48.5664 163.967 48.6836 163.744C48.8008 163.521 48.9688 163.32 49.1875 163.141C49.4102 162.957 49.6758 162.812 49.9844 162.707C50.2969 162.598 50.6445 162.543 51.0273 162.543C51.4883 162.543 51.8945 162.621 52.2461 162.777C52.6016 162.934 52.8789 163.17 53.0781 163.486C53.2812 163.799 53.3828 164.191 53.3828 164.664V167.617C53.3828 167.828 53.4004 168.053 53.4355 168.291C53.4746 168.529 53.5312 168.734 53.6055 168.906V169H52.4746C52.4199 168.875 52.377 168.709 52.3457 168.502C52.3145 168.291 52.2988 168.096 52.2988 167.916ZM52.4863 165.156L52.498 165.918H51.4023C51.0938 165.918 50.8184 165.943 50.5762 165.994C50.334 166.041 50.1309 166.113 49.9668 166.211C49.8027 166.309 49.6777 166.432 49.5918 166.58C49.5059 166.725 49.4629 166.895 49.4629 167.09C49.4629 167.289 49.5078 167.471 49.5977 167.635C49.6875 167.799 49.8223 167.93 50.002 168.027C50.1855 168.121 50.4102 168.168 50.6758 168.168C51.0078 168.168 51.3008 168.098 51.5547 167.957C51.8086 167.816 52.0098 167.645 52.1582 167.441C52.3105 167.238 52.3926 167.041 52.4043 166.85L52.8672 167.371C52.8398 167.535 52.7656 167.717 52.6445 167.916C52.5234 168.115 52.3613 168.307 52.1582 168.49C51.959 168.67 51.7207 168.82 51.4434 168.941C51.1699 169.059 50.8613 169.117 50.5176 169.117C50.0879 169.117 49.7109 169.033 49.3867 168.865C49.0664 168.697 48.8164 168.473 48.6367 168.191C48.4609 167.906 48.373 167.588 48.373 167.236C48.373 166.896 48.4395 166.598 48.5723 166.34C48.7051 166.078 48.8965 165.861 49.1465 165.689C49.3965 165.514 49.6973 165.381 50.0488 165.291C50.4004 165.201 50.793 165.156 51.2266 165.156H52.4863ZM59.084 167.77V160H60.1738V169H59.1777L59.084 167.77ZM54.8184 165.9V165.777C54.8184 165.293 54.877 164.854 54.9941 164.459C55.1152 164.061 55.2852 163.719 55.5039 163.434C55.7266 163.148 55.9902 162.93 56.2949 162.777C56.6035 162.621 56.9473 162.543 57.3262 162.543C57.7246 162.543 58.0723 162.613 58.3691 162.754C58.6699 162.891 58.9238 163.092 59.1309 163.357C59.3418 163.619 59.5078 163.936 59.6289 164.307C59.75 164.678 59.834 165.098 59.8809 165.566V166.105C59.8379 166.57 59.7539 166.988 59.6289 167.359C59.5078 167.73 59.3418 168.047 59.1309 168.309C58.9238 168.57 58.6699 168.771 58.3691 168.912C58.0684 169.049 57.7168 169.117 57.3145 169.117C56.9434 169.117 56.6035 169.037 56.2949 168.877C55.9902 168.717 55.7266 168.492 55.5039 168.203C55.2852 167.914 55.1152 167.574 54.9941 167.184C54.877 166.789 54.8184 166.361 54.8184 165.9ZM55.9082 165.777V165.9C55.9082 166.217 55.9395 166.514 56.002 166.791C56.0684 167.068 56.1699 167.312 56.3066 167.523C56.4434 167.734 56.6172 167.9 56.8281 168.021C57.0391 168.139 57.291 168.197 57.584 168.197C57.9434 168.197 58.2383 168.121 58.4688 167.969C58.7031 167.816 58.8906 167.615 59.0312 167.365C59.1719 167.115 59.2812 166.844 59.3594 166.551V165.139C59.3125 164.924 59.2441 164.717 59.1543 164.518C59.0684 164.314 58.9551 164.135 58.8145 163.979C58.6777 163.818 58.5078 163.691 58.3047 163.598C58.1055 163.504 57.8691 163.457 57.5957 163.457C57.2988 163.457 57.043 163.52 56.8281 163.645C56.6172 163.766 56.4434 163.934 56.3066 164.148C56.1699 164.359 56.0684 164.605 56.002 164.887C55.9395 165.164 55.9082 165.461 55.9082 165.777ZM65.7402 167.535V162.66H66.8301V169H65.793L65.7402 167.535ZM65.9453 166.199L66.3965 166.188C66.3965 166.609 66.3516 167 66.2617 167.359C66.1758 167.715 66.0352 168.023 65.8398 168.285C65.6445 168.547 65.3887 168.752 65.0723 168.9C64.7559 169.045 64.3711 169.117 63.918 169.117C63.6094 169.117 63.3262 169.072 63.0684 168.982C62.8145 168.893 62.5957 168.754 62.4121 168.566C62.2285 168.379 62.0859 168.135 61.9844 167.834C61.8867 167.533 61.8379 167.172 61.8379 166.75V162.66H62.9219V166.762C62.9219 167.047 62.9531 167.283 63.0156 167.471C63.082 167.654 63.1699 167.801 63.2793 167.91C63.3926 168.016 63.5176 168.09 63.6543 168.133C63.7949 168.176 63.9395 168.197 64.0879 168.197C64.5488 168.197 64.9141 168.109 65.1836 167.934C65.4531 167.754 65.6465 167.514 65.7637 167.213C65.8848 166.908 65.9453 166.57 65.9453 166.199ZM72.2207 167.916V164.652C72.2207 164.402 72.1699 164.186 72.0684 164.002C71.9707 163.814 71.8223 163.67 71.623 163.568C71.4238 163.467 71.1777 163.416 70.8848 163.416C70.6113 163.416 70.3711 163.463 70.1641 163.557C69.9609 163.65 69.8008 163.773 69.6836 163.926C69.5703 164.078 69.5137 164.242 69.5137 164.418H68.4297C68.4297 164.191 68.4883 163.967 68.6055 163.744C68.7227 163.521 68.8906 163.32 69.1094 163.141C69.332 162.957 69.5977 162.812 69.9062 162.707C70.2188 162.598 70.5664 162.543 70.9492 162.543C71.4102 162.543 71.8164 162.621 72.168 162.777C72.5234 162.934 72.8008 163.17 73 163.486C73.2031 163.799 73.3047 164.191 73.3047 164.664V167.617C73.3047 167.828 73.3223 168.053 73.3574 168.291C73.3965 168.529 73.4531 168.734 73.5273 168.906V169H72.3965C72.3418 168.875 72.2988 168.709 72.2676 168.502C72.2363 168.291 72.2207 168.096 72.2207 167.916ZM72.4082 165.156L72.4199 165.918H71.3242C71.0156 165.918 70.7402 165.943 70.498 165.994C70.2559 166.041 70.0527 166.113 69.8887 166.211C69.7246 166.309 69.5996 166.432 69.5137 166.58C69.4277 166.725 69.3848 166.895 69.3848 167.09C69.3848 167.289 69.4297 167.471 69.5195 167.635C69.6094 167.799 69.7441 167.93 69.9238 168.027C70.1074 168.121 70.332 168.168 70.5977 168.168C70.9297 168.168 71.2227 168.098 71.4766 167.957C71.7305 167.816 71.9316 167.645 72.0801 167.441C72.2324 167.238 72.3145 167.041 72.3262 166.85L72.7891 167.371C72.7617 167.535 72.6875 167.717 72.5664 167.916C72.4453 168.115 72.2832 168.307 72.0801 168.49C71.8809 168.67 71.6426 168.82 71.3652 168.941C71.0918 169.059 70.7832 169.117 70.4395 169.117C70.0098 169.117 69.6328 169.033 69.3086 168.865C68.9883 168.697 68.7383 168.473 68.5586 168.191C68.3828 167.906 68.2949 167.588 68.2949 167.236C68.2949 166.896 68.3613 166.598 68.4941 166.34C68.627 166.078 68.8184 165.861 69.0684 165.689C69.3184 165.514 69.6191 165.381 69.9707 165.291C70.3223 165.201 70.7148 165.156 71.1484 165.156H72.4082ZM77.6641 162.66V163.492H74.2363V162.66H77.6641ZM75.3965 161.119H76.4805V167.43C76.4805 167.645 76.5137 167.807 76.5801 167.916C76.6465 168.025 76.7324 168.098 76.8379 168.133C76.9434 168.168 77.0566 168.186 77.1777 168.186C77.2676 168.186 77.3613 168.178 77.459 168.162C77.5605 168.143 77.6367 168.127 77.6875 168.115L77.6934 169C77.6074 169.027 77.4941 169.053 77.3535 169.076C77.2168 169.104 77.0508 169.117 76.8555 169.117C76.5898 169.117 76.3457 169.064 76.123 168.959C75.9004 168.854 75.7227 168.678 75.5898 168.432C75.4609 168.182 75.3965 167.846 75.3965 167.424V161.119ZM81.5664 169.117C81.125 169.117 80.7246 169.043 80.3652 168.895C80.0098 168.742 79.7031 168.529 79.4453 168.256C79.1914 167.982 78.9961 167.658 78.8594 167.283C78.7227 166.908 78.6543 166.498 78.6543 166.053V165.807C78.6543 165.291 78.7305 164.832 78.8828 164.43C79.0352 164.023 79.2422 163.68 79.5039 163.398C79.7656 163.117 80.0625 162.904 80.3945 162.76C80.7266 162.615 81.0703 162.543 81.4258 162.543C81.8789 162.543 82.2695 162.621 82.5977 162.777C82.9297 162.934 83.2012 163.152 83.4121 163.434C83.623 163.711 83.7793 164.039 83.8809 164.418C83.9824 164.793 84.0332 165.203 84.0332 165.648V166.135H79.2988V165.25H82.9492V165.168C82.9336 164.887 82.875 164.613 82.7734 164.348C82.6758 164.082 82.5195 163.863 82.3047 163.691C82.0898 163.52 81.7969 163.434 81.4258 163.434C81.1797 163.434 80.9531 163.486 80.7461 163.592C80.5391 163.693 80.3613 163.846 80.2129 164.049C80.0645 164.252 79.9492 164.5 79.8672 164.793C79.7852 165.086 79.7441 165.424 79.7441 165.807V166.053C79.7441 166.354 79.7852 166.637 79.8672 166.902C79.9531 167.164 80.0762 167.395 80.2363 167.594C80.4004 167.793 80.5977 167.949 80.8281 168.062C81.0625 168.176 81.3281 168.232 81.625 168.232C82.0078 168.232 82.332 168.154 82.5977 167.998C82.8633 167.842 83.0957 167.633 83.2949 167.371L83.9512 167.893C83.8145 168.1 83.6406 168.297 83.4297 168.484C83.2188 168.672 82.959 168.824 82.6504 168.941C82.3457 169.059 81.9844 169.117 81.5664 169.117ZM89.2949 167.77V160H90.3848V169H89.3887L89.2949 167.77ZM85.0293 165.9V165.777C85.0293 165.293 85.0879 164.854 85.2051 164.459C85.3262 164.061 85.4961 163.719 85.7148 163.434C85.9375 163.148 86.2012 162.93 86.5059 162.777C86.8145 162.621 87.1582 162.543 87.5371 162.543C87.9355 162.543 88.2832 162.613 88.5801 162.754C88.8809 162.891 89.1348 163.092 89.3418 163.357C89.5527 163.619 89.7188 163.936 89.8398 164.307C89.9609 164.678 90.0449 165.098 90.0918 165.566V166.105C90.0488 166.57 89.9648 166.988 89.8398 167.359C89.7188 167.73 89.5527 168.047 89.3418 168.309C89.1348 168.57 88.8809 168.771 88.5801 168.912C88.2793 169.049 87.9277 169.117 87.5254 169.117C87.1543 169.117 86.8145 169.037 86.5059 168.877C86.2012 168.717 85.9375 168.492 85.7148 168.203C85.4961 167.914 85.3262 167.574 85.2051 167.184C85.0879 166.789 85.0293 166.361 85.0293 165.9ZM86.1191 165.777V165.9C86.1191 166.217 86.1504 166.514 86.2129 166.791C86.2793 167.068 86.3809 167.312 86.5176 167.523C86.6543 167.734 86.8281 167.9 87.0391 168.021C87.25 168.139 87.502 168.197 87.7949 168.197C88.1543 168.197 88.4492 168.121 88.6797 167.969C88.9141 167.816 89.1016 167.615 89.2422 167.365C89.3828 167.115 89.4922 166.844 89.5703 166.551V165.139C89.5234 164.924 89.4551 164.717 89.3652 164.518C89.2793 164.314 89.166 164.135 89.0254 163.979C88.8887 163.818 88.7188 163.691 88.5156 163.598C88.3164 163.504 88.0801 163.457 87.8066 163.457C87.5098 163.457 87.2539 163.52 87.0391 163.645C86.8281 163.766 86.6543 163.934 86.5176 164.148C86.3809 164.359 86.2793 164.605 86.2129 164.887C86.1504 165.164 86.1191 165.461 86.1191 165.777ZM99.7598 166.844C99.7598 166.645 99.7285 166.469 99.666 166.316C99.6074 166.16 99.502 166.02 99.3496 165.895C99.2012 165.77 98.9941 165.65 98.7285 165.537C98.4668 165.424 98.1348 165.309 97.7324 165.191C97.3105 165.066 96.9297 164.928 96.5898 164.775C96.25 164.619 95.959 164.441 95.7168 164.242C95.4746 164.043 95.2891 163.814 95.1602 163.557C95.0312 163.299 94.9668 163.004 94.9668 162.672C94.9668 162.34 95.0352 162.033 95.1719 161.752C95.3086 161.471 95.5039 161.227 95.7578 161.02C96.0156 160.809 96.3223 160.645 96.6777 160.527C97.0332 160.41 97.4297 160.352 97.8672 160.352C98.5078 160.352 99.0508 160.475 99.4961 160.721C99.9453 160.963 100.287 161.281 100.521 161.676C100.756 162.066 100.873 162.484 100.873 162.93H99.748C99.748 162.609 99.6797 162.326 99.543 162.08C99.4062 161.83 99.1992 161.635 98.9219 161.494C98.6445 161.35 98.293 161.277 97.8672 161.277C97.4648 161.277 97.1328 161.338 96.8711 161.459C96.6094 161.58 96.4141 161.744 96.2852 161.951C96.1602 162.158 96.0977 162.395 96.0977 162.66C96.0977 162.84 96.1348 163.004 96.209 163.152C96.2871 163.297 96.4062 163.432 96.5664 163.557C96.7305 163.682 96.9375 163.797 97.1875 163.902C97.4414 164.008 97.7441 164.109 98.0957 164.207C98.5801 164.344 98.998 164.496 99.3496 164.664C99.7012 164.832 99.9902 165.021 100.217 165.232C100.447 165.439 100.617 165.676 100.727 165.941C100.84 166.203 100.896 166.5 100.896 166.832C100.896 167.18 100.826 167.494 100.686 167.775C100.545 168.057 100.344 168.297 100.082 168.496C99.8203 168.695 99.5059 168.85 99.1387 168.959C98.7754 169.064 98.3691 169.117 97.9199 169.117C97.5254 169.117 97.1367 169.062 96.7539 168.953C96.375 168.844 96.0293 168.68 95.7168 168.461C95.4082 168.242 95.1602 167.973 94.9727 167.652C94.7891 167.328 94.6973 166.953 94.6973 166.527H95.8223C95.8223 166.82 95.8789 167.072 95.9922 167.283C96.1055 167.49 96.2598 167.662 96.4551 167.799C96.6543 167.936 96.8789 168.037 97.1289 168.104C97.3828 168.166 97.6465 168.197 97.9199 168.197C98.3145 168.197 98.6484 168.143 98.9219 168.033C99.1953 167.924 99.4023 167.768 99.543 167.564C99.6875 167.361 99.7598 167.121 99.7598 166.844ZM104.828 162.66V163.492H101.4V162.66H104.828ZM102.561 161.119H103.645V167.43C103.645 167.645 103.678 167.807 103.744 167.916C103.811 168.025 103.896 168.098 104.002 168.133C104.107 168.168 104.221 168.186 104.342 168.186C104.432 168.186 104.525 168.178 104.623 168.162C104.725 168.143 104.801 168.127 104.852 168.115L104.857 169C104.771 169.027 104.658 169.053 104.518 169.076C104.381 169.104 104.215 169.117 104.02 169.117C103.754 169.117 103.51 169.064 103.287 168.959C103.064 168.854 102.887 168.678 102.754 168.432C102.625 168.182 102.561 167.846 102.561 167.424V161.119ZM109.979 167.535V162.66H111.068V169H110.031L109.979 167.535ZM110.184 166.199L110.635 166.188C110.635 166.609 110.59 167 110.5 167.359C110.414 167.715 110.273 168.023 110.078 168.285C109.883 168.547 109.627 168.752 109.311 168.9C108.994 169.045 108.609 169.117 108.156 169.117C107.848 169.117 107.564 169.072 107.307 168.982C107.053 168.893 106.834 168.754 106.65 168.566C106.467 168.379 106.324 168.135 106.223 167.834C106.125 167.533 106.076 167.172 106.076 166.75V162.66H107.16V166.762C107.16 167.047 107.191 167.283 107.254 167.471C107.32 167.654 107.408 167.801 107.518 167.91C107.631 168.016 107.756 168.09 107.893 168.133C108.033 168.176 108.178 168.197 108.326 168.197C108.787 168.197 109.152 168.109 109.422 167.934C109.691 167.754 109.885 167.514 110.002 167.213C110.123 166.908 110.184 166.57 110.184 166.199ZM116.717 167.77V160H117.807V169H116.811L116.717 167.77ZM112.451 165.9V165.777C112.451 165.293 112.51 164.854 112.627 164.459C112.748 164.061 112.918 163.719 113.137 163.434C113.359 163.148 113.623 162.93 113.928 162.777C114.236 162.621 114.58 162.543 114.959 162.543C115.357 162.543 115.705 162.613 116.002 162.754C116.303 162.891 116.557 163.092 116.764 163.357C116.975 163.619 117.141 163.936 117.262 164.307C117.383 164.678 117.467 165.098 117.514 165.566V166.105C117.471 166.57 117.387 166.988 117.262 167.359C117.141 167.73 116.975 168.047 116.764 168.309C116.557 168.57 116.303 168.771 116.002 168.912C115.701 169.049 115.35 169.117 114.947 169.117C114.576 169.117 114.236 169.037 113.928 168.877C113.623 168.717 113.359 168.492 113.137 168.203C112.918 167.914 112.748 167.574 112.627 167.184C112.51 166.789 112.451 166.361 112.451 165.9ZM113.541 165.777V165.9C113.541 166.217 113.572 166.514 113.635 166.791C113.701 167.068 113.803 167.312 113.939 167.523C114.076 167.734 114.25 167.9 114.461 168.021C114.672 168.139 114.924 168.197 115.217 168.197C115.576 168.197 115.871 168.121 116.102 167.969C116.336 167.816 116.523 167.615 116.664 167.365C116.805 167.115 116.914 166.844 116.992 166.551V165.139C116.945 164.924 116.877 164.717 116.787 164.518C116.701 164.314 116.588 164.135 116.447 163.979C116.311 163.818 116.141 163.691 115.938 163.598C115.738 163.504 115.502 163.457 115.229 163.457C114.932 163.457 114.676 163.52 114.461 163.645C114.25 163.766 114.076 163.934 113.939 164.148C113.803 164.359 113.701 164.605 113.635 164.887C113.572 165.164 113.541 165.461 113.541 165.777ZM122.125 169.117C121.684 169.117 121.283 169.043 120.924 168.895C120.568 168.742 120.262 168.529 120.004 168.256C119.75 167.982 119.555 167.658 119.418 167.283C119.281 166.908 119.213 166.498 119.213 166.053V165.807C119.213 165.291 119.289 164.832 119.441 164.43C119.594 164.023 119.801 163.68 120.062 163.398C120.324 163.117 120.621 162.904 120.953 162.76C121.285 162.615 121.629 162.543 121.984 162.543C122.438 162.543 122.828 162.621 123.156 162.777C123.488 162.934 123.76 163.152 123.971 163.434C124.182 163.711 124.338 164.039 124.439 164.418C124.541 164.793 124.592 165.203 124.592 165.648V166.135H119.857V165.25H123.508V165.168C123.492 164.887 123.434 164.613 123.332 164.348C123.234 164.082 123.078 163.863 122.863 163.691C122.648 163.52 122.355 163.434 121.984 163.434C121.738 163.434 121.512 163.486 121.305 163.592C121.098 163.693 120.92 163.846 120.771 164.049C120.623 164.252 120.508 164.5 120.426 164.793C120.344 165.086 120.303 165.424 120.303 165.807V166.053C120.303 166.354 120.344 166.637 120.426 166.902C120.512 167.164 120.635 167.395 120.795 167.594C120.959 167.793 121.156 167.949 121.387 168.062C121.621 168.176 121.887 168.232 122.184 168.232C122.566 168.232 122.891 168.154 123.156 167.998C123.422 167.842 123.654 167.633 123.854 167.371L124.51 167.893C124.373 168.1 124.199 168.297 123.988 168.484C123.777 168.672 123.518 168.824 123.209 168.941C122.904 169.059 122.543 169.117 122.125 169.117ZM126.941 164.014V169H125.857V162.66H126.883L126.941 164.014ZM126.684 165.59L126.232 165.572C126.236 165.139 126.301 164.738 126.426 164.371C126.551 164 126.727 163.678 126.953 163.404C127.18 163.131 127.449 162.92 127.762 162.771C128.078 162.619 128.428 162.543 128.811 162.543C129.123 162.543 129.404 162.586 129.654 162.672C129.904 162.754 130.117 162.887 130.293 163.07C130.473 163.254 130.609 163.492 130.703 163.785C130.797 164.074 130.844 164.428 130.844 164.846V169H129.754V164.834C129.754 164.502 129.705 164.236 129.607 164.037C129.51 163.834 129.367 163.688 129.18 163.598C128.992 163.504 128.762 163.457 128.488 163.457C128.219 163.457 127.973 163.514 127.75 163.627C127.531 163.74 127.342 163.896 127.182 164.096C127.025 164.295 126.902 164.523 126.812 164.781C126.727 165.035 126.684 165.305 126.684 165.59ZM135.145 162.66V163.492H131.717V162.66H135.145ZM132.877 161.119H133.961V167.43C133.961 167.645 133.994 167.807 134.061 167.916C134.127 168.025 134.213 168.098 134.318 168.133C134.424 168.168 134.537 168.186 134.658 168.186C134.748 168.186 134.842 168.178 134.939 168.162C135.041 168.143 135.117 168.127 135.168 168.115L135.174 169C135.088 169.027 134.975 169.053 134.834 169.076C134.697 169.104 134.531 169.117 134.336 169.117C134.07 169.117 133.826 169.064 133.604 168.959C133.381 168.854 133.203 168.678 133.07 168.432C132.941 168.182 132.877 167.846 132.877 167.424V161.119ZM140.107 167.318C140.107 167.162 140.072 167.018 140.002 166.885C139.936 166.748 139.797 166.625 139.586 166.516C139.379 166.402 139.066 166.305 138.648 166.223C138.297 166.148 137.979 166.061 137.693 165.959C137.412 165.857 137.172 165.734 136.973 165.59C136.777 165.445 136.627 165.275 136.521 165.08C136.416 164.885 136.363 164.656 136.363 164.395C136.363 164.145 136.418 163.908 136.527 163.686C136.641 163.463 136.799 163.266 137.002 163.094C137.209 162.922 137.457 162.787 137.746 162.689C138.035 162.592 138.357 162.543 138.713 162.543C139.221 162.543 139.654 162.633 140.014 162.812C140.373 162.992 140.648 163.232 140.84 163.533C141.031 163.83 141.127 164.16 141.127 164.523H140.043C140.043 164.348 139.99 164.178 139.885 164.014C139.783 163.846 139.633 163.707 139.434 163.598C139.238 163.488 138.998 163.434 138.713 163.434C138.412 163.434 138.168 163.48 137.98 163.574C137.797 163.664 137.662 163.779 137.576 163.92C137.494 164.061 137.453 164.209 137.453 164.365C137.453 164.482 137.473 164.588 137.512 164.682C137.555 164.771 137.629 164.855 137.734 164.934C137.84 165.008 137.988 165.078 138.18 165.145C138.371 165.211 138.615 165.277 138.912 165.344C139.432 165.461 139.859 165.602 140.195 165.766C140.531 165.93 140.781 166.131 140.945 166.369C141.109 166.607 141.191 166.896 141.191 167.236C141.191 167.514 141.133 167.768 141.016 167.998C140.902 168.229 140.736 168.428 140.518 168.596C140.303 168.76 140.045 168.889 139.744 168.982C139.447 169.072 139.113 169.117 138.742 169.117C138.184 169.117 137.711 169.018 137.324 168.818C136.938 168.619 136.645 168.361 136.445 168.045C136.246 167.729 136.146 167.395 136.146 167.043H137.236C137.252 167.34 137.338 167.576 137.494 167.752C137.65 167.924 137.842 168.047 138.068 168.121C138.295 168.191 138.52 168.227 138.742 168.227C139.039 168.227 139.287 168.188 139.486 168.109C139.689 168.031 139.844 167.924 139.949 167.787C140.055 167.65 140.107 167.494 140.107 167.318Z" fill="#3F3F3F"/>
<path opacity="0.62" d="M200.209 56.2644C206.295 61.6738 211.164 68.8033 211.63 76.2078C212.017 82.3516 209.333 88.0713 205.42 92.5942C195.89 103.611 178.531 108.044 162.694 103.506C150.932 97.9523 137.553 99.2353 125.68 102.039C113.807 104.842 102.225 109.042 89.6286 108.882C70.6912 108.64 51.0998 97.5796 41.0716 81.6023C31.0431 65.6249 30.9845 45.5121 40.795 31.4968C50.6054 17.4812 69.7902 10.1373 88.8 12.9829C104.838 15.3834 119.558 24.183 134.996 29.8759C157.207 38.0658 182.603 40.6174 200.209 56.2644Z" fill="#D9DEF3"/>
<path d="M159.764 8H84.6191V63.2227H159.764V8Z" fill="#D9DEF3"/>
<path d="M158.445 9.63477H86.0234V61.7263H158.445V9.63477Z" fill="white"/>
<path opacity="0.62" d="M87.7129 61.7258V46.6125H94.8396V52.8263H100.626V39.7059H106.499V49.0905H110.369V25.9102H128.286V48.4142H137.053V52.2965H144.794V35.3338H153.378V46.6125H158.445V61.7258H87.7129Z" fill="#D9DEF3"/>
<path d="M158.444 11.502H86.0225V13.8229H158.444V11.502Z" fill="#D9DEF3"/>
<path d="M158.444 15.5312H86.0225V17.8522H158.444V15.5312Z" fill="#D9DEF3"/>
<path d="M158.444 19.5605H86.0225V21.8815H158.444V19.5605Z" fill="#D9DEF3"/>
<path d="M158.444 23.5898H86.0225V25.9108H158.444V23.5898Z" fill="#D9DEF3"/>
<path d="M158.444 27.6191H86.0225V29.9401H158.444V27.6191Z" fill="#D9DEF3"/>
<path d="M158.444 31.6475H86.0225V33.9684H158.444V31.6475Z" fill="#D9DEF3"/>
<path d="M158.444 35.6777H86.0225V37.9987H158.444V35.6777Z" fill="#D9DEF3"/>
<path d="M158.444 39.7061H86.0225V42.027H158.444V39.7061Z" fill="#D9DEF3"/>
<path d="M36.1577 121.845C42.1204 121.845 46.9542 121.106 46.9542 120.194C46.9542 119.283 42.1204 118.544 36.1577 118.544C30.195 118.544 25.3613 119.283 25.3613 120.194C25.3613 121.106 30.195 121.845 36.1577 121.845Z" fill="#C2CEF2"/>
<path d="M36.0558 91.7037C40.5982 91.7037 44.2805 91.4454 44.2805 91.1267C44.2805 90.8081 40.5982 90.5498 36.0558 90.5498C31.5134 90.5498 27.8311 90.8081 27.8311 91.1267C27.8311 91.4454 31.5134 91.7037 36.0558 91.7037Z" fill="#072847"/>
<path d="M36.8613 83.0886C36.8613 83.0886 43.2865 80.4054 45.363 57.0098" stroke="#92C5F4" stroke-width="0.7534" stroke-miterlimit="10"/>
<path d="M47.9166 58.42C45.1443 59.5615 44.6992 61.9359 44.6992 61.9359C44.6992 61.9359 47.1111 61.8005 48.6005 59.1982C48.8614 58.742 48.4028 58.2197 47.9166 58.42Z" fill="#92C5F4"/>
<path d="M42.2114 57.8704C44.7149 59.5201 44.699 61.9356 44.699 61.9356C44.699 61.9356 42.3573 61.3425 41.3918 58.5038C41.2224 58.0062 41.7723 57.5812 42.2114 57.8704Z" fill="#92C5F4"/>
<path d="M47.3769 64.387C44.5037 65.2445 43.8223 67.5618 43.8223 67.5618C43.8223 67.5618 46.2357 67.6693 47.9788 65.23C48.2845 64.8024 47.8806 64.2369 47.3769 64.387Z" fill="#92C5F4"/>
<path d="M41.756 63.2675C44.0811 65.1604 43.8223 67.5621 43.8223 67.5621C43.8223 67.5621 41.5521 66.7365 40.8767 63.8153C40.7586 63.3029 41.3482 62.9356 41.756 63.2675Z" fill="#92C5F4"/>
<path d="M46.553 69.4915C43.6243 70.1339 42.7734 72.3947 42.7734 72.3947C42.7734 72.3947 45.1721 72.6807 47.0912 70.3769C47.4273 69.9729 47.0666 69.3789 46.553 69.4915Z" fill="#92C5F4"/>
<path d="M41.0308 67.9592C43.2096 70.0192 42.7736 72.3951 42.7736 72.3951C42.7736 72.3951 40.5707 71.4037 40.1136 68.4407C40.0334 67.9211 40.6487 67.598 41.0308 67.9592Z" fill="#92C5F4"/>
<path d="M44.9567 52.6281C43.89 55.4302 45.3153 57.3805 45.3153 57.3805C45.3153 57.3805 46.8683 55.5302 45.9919 52.663C45.8382 52.1602 45.1435 52.1368 44.9567 52.6281Z" fill="#92C5F4"/>
<path d="M36.0562 94.5661C36.0562 94.5661 22.6187 77.4184 36.0562 52.9814C36.0562 94.5661 36.0562 94.5661 36.0562 94.5661Z" fill="#FFB700"/>
<path d="M36.0566 94.5661C36.0566 94.5661 49.4944 77.4184 36.0566 52.9814C36.0566 94.5661 36.0566 94.5661 36.0566 94.5661Z" fill="#B77E00"/>
<path d="M37.9182 93.9629C37.9182 93.9629 33.6623 81.3793 46.3394 70.0459C37.9182 93.9629 37.9182 93.9629 37.9182 93.9629Z" fill="#FFB700"/>
<path d="M37.9189 93.9629C37.9189 93.9629 49.1199 86.8218 46.3401 70.0459C37.9189 93.9629 37.9189 93.9629 37.9189 93.9629Z" fill="#B77E00"/>
<path d="M41.276 99.975C41.276 99.975 32.6936 98.6884 23.0615 71.0449" stroke="#92C5F4" stroke-width="0.9428" stroke-miterlimit="10"/>
<path d="M20.4032 73.5264C24.1014 74.0622 25.3622 76.7963 25.3622 76.7963C25.3622 76.7963 22.4057 77.3669 19.8136 74.6751C19.3595 74.2033 19.7548 73.4327 20.4032 73.5264Z" fill="#92C5F4"/>
<path d="M27.1313 71.1256C24.6076 73.8817 25.3626 76.7964 25.3626 76.7964C25.3626 76.7964 28.0121 75.3665 28.3149 71.6419C28.3677 70.9887 27.5736 70.6424 27.1313 71.1256Z" fill="#92C5F4"/>
<path d="M22.8737 80.573C26.6071 80.7343 28.1363 83.3279 28.1363 83.3279C28.1363 83.3279 25.2523 84.1925 22.4028 81.7752C21.9031 81.3511 22.219 80.5448 22.8737 80.573Z" fill="#92C5F4"/>
<path d="M29.3261 77.5084C27.0923 80.5041 28.1362 83.3281 28.1362 83.3281C28.1362 83.3281 30.6286 81.6391 30.5554 77.903C30.5427 77.2477 29.7177 76.9831 29.3261 77.5084Z" fill="#92C5F4"/>
<path d="M25.4214 86.4941C29.1566 86.3788 30.8736 88.852 30.8736 88.852C30.8736 88.852 28.0616 89.9278 25.0409 87.7279C24.5112 87.342 24.7667 86.5143 25.4214 86.4941Z" fill="#92C5F4"/>
<path d="M31.6301 82.9598C29.6239 86.1126 30.8742 88.8516 30.8742 88.8516C30.8742 88.8516 33.2347 86.9827 32.8851 83.2622C32.8239 82.6099 31.9818 82.4072 31.6301 82.9598Z" fill="#92C5F4"/>
<path d="M22.2179 65.6254C24.3601 68.6872 23.2312 71.4785 23.2312 71.4785C23.2312 71.4785 20.791 69.715 20.9769 65.9828C21.0096 65.3284 21.8421 65.0887 22.2179 65.6254Z" fill="#92C5F4"/>
<path d="M36.0558 91.7039C31.5134 91.7039 27.8311 91.4456 27.8311 91.127C27.8311 103.839 31.6764 119.298 31.6764 119.298C31.6764 119.617 33.6373 119.875 36.0558 119.875C38.4743 119.875 40.4351 119.617 40.4351 119.298C40.4351 119.298 44.2805 103.838 44.2805 91.127C44.2805 91.4456 40.5982 91.7039 36.0558 91.7039Z" fill="#8EBEED"/>
<path d="M38.9937 91.6651C38.8255 94.9741 38.1152 105.451 35.4297 119.869C35.6348 119.873 35.8426 119.875 36.0559 119.875C38.4744 119.875 40.4352 119.617 40.4352 119.298C40.4352 119.298 44.2806 103.838 44.2806 91.127C44.2806 91.3726 42.0831 91.5819 38.9937 91.6651Z" fill="#708CC9"/>
<path opacity="0.62" d="M188.352 35.4149C194.24 33.4074 197.386 27.0065 195.378 21.1183C193.371 15.23 186.97 12.084 181.082 14.0916C175.193 16.0991 172.047 22.5 174.055 28.3882C176.062 34.2765 182.463 37.4225 188.352 35.4149Z" fill="#D9DEF3"/>
<path d="M125.09 128.959C175.721 128.959 216.765 127.23 216.765 125.098C216.765 122.965 175.721 121.236 125.09 121.236C74.4594 121.236 33.415 122.965 33.415 125.098C33.415 127.23 74.4594 128.959 125.09 128.959Z" fill="#C2CEF2"/>
<path d="M135.959 104.964H107.516V60.4808C107.516 58.2095 109.357 56.3682 111.629 56.3682H131.846C134.118 56.3682 135.959 58.2095 135.959 60.4808V104.964Z" fill="#544768"/>
<path d="M110.003 61.7188C110.003 61.7188 107.449 64.0925 106.569 68.4043C105.689 72.7161 101.465 86.9368 101.465 86.9368H114.312L110.003 61.7188Z" fill="#DCE7F4"/>
<path d="M133.228 61.7188C133.228 61.7188 135.783 64.0925 136.663 68.4043C137.543 72.7161 141.766 86.9368 141.766 86.9368H128.919L133.228 61.7188Z" fill="#DCE7F4"/>
<path d="M121.615 56.0693L110.003 61.7194L112.534 92.6959C112.534 92.6959 114.296 93.4746 121.615 93.4746C128.935 93.4746 130.697 92.6959 130.697 92.6959L133.228 61.7194L121.615 56.0693Z" fill="#F1F2F7"/>
<path d="M123.224 59.8495L121.615 58.8125L120.007 59.8495L120.749 62.5798L120.007 79.7575L121.615 81.8051L123.224 79.7575L122.482 62.5798L123.224 59.8495Z" fill="#FFB700"/>
<path d="M121.615 58.8126L118.612 61.5864L119.195 57.2461L121.615 58.8126Z" fill="#DCE7F4"/>
<path d="M103.115 81.2852H116.759C116.759 81.2852 121.668 81.4906 121.668 86.9367C107.977 86.9367 101.465 86.9367 101.465 86.9367L103.115 81.2852Z" fill="#F1F2F7"/>
<path d="M121.615 58.8126L124.618 61.5864L124.035 57.2461L121.615 58.8126Z" fill="#DCE7F4"/>
<path d="M123.996 57.2271L121.616 56.0693L116.952 58.3386C122.903 61.1563 123.871 57.8359 123.996 57.2271Z" fill="#072847"/>
<path d="M121.616 45.0848C115.142 44.8388 117.519 52.7064 117.519 52.7064L121.616 51.682L125.714 52.7064C125.714 52.7064 128.091 44.8388 121.616 45.0848Z" fill="#9B3321"/>
<path d="M126.279 53.0429C126.279 53.7421 125.713 54.3085 125.014 54.3085C124.315 54.3085 123.748 53.7418 123.748 53.0429C123.748 52.3438 124.315 51.7773 125.014 51.7773C125.713 51.7773 126.279 52.3441 126.279 53.0429Z" fill="#D86260"/>
<path d="M118.218 54.3085C118.917 54.3085 119.483 53.7419 119.483 53.0429C119.483 52.344 118.917 51.7773 118.218 51.7773C117.519 51.7773 116.952 52.344 116.952 53.0429C116.952 53.7419 117.519 54.3085 118.218 54.3085Z" fill="#D86260"/>
<path d="M121.615 47.6934C116.888 48.0435 117.763 51.3706 118.463 55.0477C119.164 58.7249 121.615 58.8126 121.615 58.8126C121.615 58.8126 124.067 58.7252 124.767 55.0477C125.468 51.3706 126.343 48.0435 121.615 47.6934Z" fill="#F99F8C"/>
<path d="M123.748 54.1434C123.748 54.3185 123.606 54.4605 123.43 54.4605C123.255 54.4605 123.113 54.3185 123.113 54.1434V53.5701C123.113 53.395 123.255 53.2529 123.43 53.2529C123.606 53.2529 123.748 53.395 123.748 53.5701V54.1434Z" fill="#9B3321"/>
<path d="M123.749 47.6928C123.749 47.6928 121.189 52.168 118.022 52.5806C117.437 51.1493 117.888 47.9121 118.748 47.2565C119.608 46.6008 123.749 47.6928 123.749 47.6928Z" fill="#9B3321"/>
<path d="M121.067 56.2469C121.067 56.2469 121.535 56.3716 121.925 56.2469C121.925 54.3594 121.925 54.3594 121.925 54.3594" stroke="#9B3321" stroke-width="0.5458" stroke-miterlimit="10" stroke-linecap="round"/>
<path d="M122.674 52.4083C122.674 52.4083 123.296 51.9665 124.234 52.4083" stroke="#9B3321" stroke-width="1.0915" stroke-miterlimit="10" stroke-linecap="round"/>
<path d="M119.483 54.1434C119.483 54.3185 119.625 54.4605 119.801 54.4605C119.976 54.4605 120.118 54.3185 120.118 54.1434V53.5701C120.118 53.395 119.976 53.2529 119.801 53.2529C119.625 53.2529 119.483 53.395 119.483 53.5701V54.1434Z" fill="#9B3321"/>
<path d="M120.558 52.4083C120.558 52.4083 119.935 51.9665 118.998 52.4083" stroke="#9B3321" stroke-width="1.0915" stroke-miterlimit="10" stroke-linecap="round"/>
<path d="M121.067 57.1328H122.067" stroke="#9B3321" stroke-width="0.5458" stroke-miterlimit="10" stroke-linecap="round"/>
<path opacity="0.3" d="M122.674 45.1253C122.35 45.0863 122 45.0703 121.616 45.0848C117.412 44.925 116.94 48.1853 117.126 50.4921C120.43 49.5023 122.089 46.4618 122.674 45.1253Z" fill="#FEFEFE"/>
<path opacity="0.39" d="M123.183 47.9746L123.113 48.2356C123.113 48.2356 123.953 57.4616 121.615 58.8119C121.615 58.8119 124.067 58.7245 124.767 55.047C125.377 51.847 126.117 48.9131 123.183 47.9746Z" fill="white"/>
<path d="M140.117 81.2852H126.473C126.473 81.2852 121.563 81.4906 121.563 86.9367C135.255 86.9367 141.767 86.9367 141.767 86.9367L140.117 81.2852Z" fill="#F1F2F7"/>
<path d="M123.816 72.3564H121.593H107.168L109.28 85.1536H121.593H123.225H133.852L135.959 72.3564H123.816Z" fill="#8EBEED"/>
<path d="M133.906 85.1533H109.279V86.8835H133.906V85.1533Z" fill="#708CC9"/>
<path d="M124.217 80.3559C124.217 81.2401 123.103 81.9567 121.729 81.9567C120.354 81.9567 119.24 81.2401 119.24 80.3559C119.24 79.4718 120.354 78.7549 121.729 78.7549C123.103 78.7549 124.217 79.4718 124.217 80.3559Z" fill="white"/>
<path d="M135.96 71.8174H107.168V72.3571H135.96V71.8174Z" fill="#708CC9"/>
<path d="M130.855 90.7627L130.697 92.4998L135.959 94.5714L135.378 102.656L121.737 100.674V90.7627H130.855Z" fill="#072847"/>
<path d="M125.752 122.146L127.047 99.6856C127.231 96.4944 130.248 94.0356 133.801 94.1831L133.932 94.1885C137.515 94.3371 140.279 97.0791 140.09 100.298L138.806 122.118L125.752 122.146Z" fill="#072847"/>
<path d="M138.806 122.119C138.806 122.119 141.046 122.938 141.23 125.152C124.343 125.152 125.4 125.152 125.4 125.152L125.752 122.147L138.806 122.119Z" fill="#708CC9"/>
<path opacity="0.26" d="M140.091 99.9642C140.077 96.8922 137.39 94.3316 133.931 94.1884L133.801 94.183C132.729 94.1385 131.707 94.3349 130.795 94.7136C130.101 95.5422 129.685 96.5693 129.685 97.6863C129.685 100.422 132.153 102.64 135.198 102.64C137.328 102.64 139.172 101.553 140.091 99.9642Z" fill="#708CC9"/>
<path d="M138.013 122.891H130.454C130.227 122.891 130.044 122.726 130.044 122.522V122.515C130.044 122.312 130.227 122.146 130.454 122.146H138.013C138.239 122.146 138.423 122.311 138.423 122.515V122.522C138.423 122.726 138.239 122.891 138.013 122.891Z" fill="#FEFEFE"/>
<path d="M112.377 90.7627L112.527 92.5986L107.516 94.5714L108.097 102.656L121.737 100.674V90.7627H112.377Z" fill="#072847"/>
<path d="M117.723 122.146L116.428 99.6856C116.244 96.4944 113.227 94.0356 109.674 94.1831L109.543 94.1885C105.96 94.3371 103.196 97.0791 103.385 100.298L104.669 122.118L117.723 122.146Z" fill="#072847"/>
<path d="M104.669 122.119C104.669 122.119 102.428 122.938 102.244 125.152C119.131 125.152 118.075 125.152 118.075 125.152L117.723 122.147L104.669 122.119Z" fill="#708CC9"/>
<path opacity="0.26" d="M103.385 99.9642C103.399 96.8922 106.085 94.3316 109.544 94.1884L109.674 94.183C110.746 94.1385 111.768 94.3349 112.68 94.7136C113.374 95.5422 113.79 96.5693 113.79 97.6863C113.79 100.422 111.322 102.64 108.277 102.64C106.147 102.64 104.303 101.553 103.385 99.9642Z" fill="#708CC9"/>
<path d="M105.462 122.891H113.021C113.247 122.891 113.431 122.726 113.431 122.522V122.515C113.431 122.312 113.247 122.146 113.021 122.146H105.462C105.235 122.146 105.052 122.311 105.052 122.515V122.522C105.052 122.726 105.235 122.891 105.462 122.891Z" fill="#FEFEFE"/>
<path d="M109.279 85.1533H133.851" stroke="#091255" stroke-width="1.1547" stroke-miterlimit="10"/>
<path opacity="0.35" d="M133.905 122.118L135.571 99.2669C135.663 98.0131 134.96 96.8358 133.813 96.321L126.572 93.0718V90.7617" stroke="#708CC9" stroke-width="1.172" stroke-miterlimit="10"/>
<path opacity="0.35" d="M109.569 122.118L107.902 99.2669C107.811 98.0131 108.514 96.8358 109.661 96.321L116.901 93.0718V90.7617" stroke="#708CC9" stroke-width="1.172" stroke-miterlimit="10"/>
<path d="M134.488 81.2852H138.599" stroke="#708CC9" stroke-width="1.172" stroke-miterlimit="10"/>
<path d="M108.64 81.2852H105.072" stroke="#708CC9" stroke-width="1.172" stroke-miterlimit="10"/>
<path d="M73.1089 100.478H54.4668V123.694H73.1089V100.478Z" stroke="#7396C0" stroke-width="3.2907" stroke-miterlimit="10"/>
<path d="M79.5396 100.478H60.8975V123.694H79.5396V100.478Z" stroke="#7396C0" stroke-width="3.2907" stroke-miterlimit="10"/>
<path d="M78.7017 103.124H55.0378C51.2856 103.124 48.1021 100.369 47.5639 96.6554L43.0101 65.2308C42.7317 63.309 44.2222 61.5869 46.1641 61.5869H60.8972L64.1092 96.4755L79.3318 99.0361L78.7017 103.124Z" fill="#544768"/>
<path d="M69.841 121.903L68.8154 124.974H84.8672C84.8672 124.974 85.0288 122.999 82.9298 121.903C76.311 121.903 69.841 121.903 69.841 121.903Z" fill="#072847"/>
<path d="M71.4688 90.1045L84.6135 91.9629C86.7725 92.268 88.2363 94.3181 87.8246 96.4591L82.9311 121.904H69.842L75.8815 99.8915L64.3145 97.0462L71.4688 90.1045Z" fill="#072847"/>
<path d="M55.4092 95.2791C55.4092 95.2791 57.3129 102.181 63.4219 102.181C69.5308 102.181 75.3427 102.181 75.3427 102.181L81.1546 121.904H93.101L84.6477 97.0907C83.69 94.2799 81.2609 92.226 78.33 91.7488L73.5131 90.9649L65.6299 90.1045L55.4092 95.2791Z" fill="#5B5D8E"/>
<path d="M81.1543 121.903L82.1228 124.974H97.298C97.298 124.974 95.845 121.903 93.1007 121.903C90.3563 121.903 81.1543 121.903 81.1543 121.903Z" fill="#072847"/>
<path d="M68.5576 58.9199L75.881 62.337L73.5133 90.9646L65.63 90.1042L55.4322 95.9161L54.2354 62.337L63.4223 57.957L68.5576 58.9199Z" fill="#708CC9"/>
<path d="M68.5576 75.964C68.5576 75.964 72.5829 72.5397 72.2255 60.6312C68.5576 58.9199 68.5576 58.9199 68.5576 58.9199V75.964Z" fill="#5B5D8E"/>
<path d="M68.5579 75.964C68.5579 75.964 59.5043 71.1852 59.2334 59.9542C63.4223 57.957 63.4223 57.957 63.4223 57.957L68.5579 75.964Z" fill="#5B5D8E"/>
<path d="M63.4229 57.957L63.9127 63.3055C63.9127 63.3055 65.2167 72.4787 68.5581 75.964C69.7468 67.6104 69.4852 62.337 69.4852 62.337L68.5581 58.9202L63.4229 57.957Z" fill="#FEFEFE"/>
<path d="M68.1648 56.2445L68.557 58.9192L67.0593 59.9535L63.4217 57.9563L62.7021 52.7496L64.1861 52.3799L68.1648 56.2445Z" fill="#F99F8C"/>
<path d="M63.9121 54.2252L65.8895 54.0342L68.1653 56.2449L68.5575 58.9196C64.5512 57.9709 63.9121 54.2252 63.9121 54.2252Z" fill="#6D3E3B"/>
<path d="M68.8784 48.8275C68.8784 48.8275 69.8769 48.0785 69.4847 46.5093C69.0925 44.9401 67.6314 44.7287 66.4712 45.2969C65.1837 45.9273 62.1886 47.149 61.8886 47.2226C61.1873 47.395 60.302 51.9203 63.9125 54.2253C64.0281 53.0711 64.6345 49.8973 64.6345 49.8973L65.2408 48.571L68.8784 48.8275Z" fill="#072847"/>
<path d="M61.2588 51.7333C61.2588 52.531 61.9054 53.1776 62.7031 53.1776C63.5007 53.1776 64.1473 52.531 64.1473 51.7333C64.1473 50.9357 63.5007 50.2891 62.7031 50.2891C61.9054 50.2891 61.2588 50.9357 61.2588 51.7333Z" fill="#FF9588"/>
<path d="M63.8716 48.5554C63.8716 48.5554 66.0255 46.6294 68.5696 48.0028C70.6265 49.1131 70.7803 56.6618 70.7803 56.6618C70.7803 56.6618 65.8982 58.5962 64.4242 55.4644C62.9502 52.3323 62.9502 49.2005 62.9502 49.2005L63.8716 48.5554Z" fill="#FF9588"/>
<path d="M67.1884 52.8933C68.4942 52.6191 69.7162 52.6221 70.4325 52.6602C70.74 54.7193 70.7803 56.6615 70.7803 56.6615C70.7803 56.6615 65.8982 58.5959 64.4242 55.4641C62.9502 52.332 62.9502 49.2002 62.9502 49.2002L63.8488 48.5713C63.8557 49.5591 64.0317 50.4297 64.3122 51.2556C64.7164 52.4449 65.9589 53.1513 67.1884 52.8933Z" fill="#072847"/>
<path d="M66.3818 50.9489C66.3818 51.136 66.5335 51.2876 66.7206 51.2876C66.9077 51.2876 67.0594 51.136 67.0594 50.9489V50.6278C67.0594 50.4407 66.9077 50.2891 66.7206 50.2891C66.5335 50.2891 66.3818 50.4407 66.3818 50.6278V50.9489Z" fill="#091255"/>
<path d="M69.8412 51.1093C69.8412 51.2078 69.7613 51.2876 69.6628 51.2876C69.5643 51.2876 69.4844 51.2078 69.4844 51.1093V50.4675C69.4844 50.369 69.5643 50.2891 69.6628 50.2891C69.7613 50.2891 69.8412 50.369 69.8412 50.4675V51.1093Z" fill="#091255"/>
<path d="M67.4517 49.6121C67.4517 49.6121 66.3462 49.0415 65.4902 49.8974" stroke="#091255" stroke-width="1.1991" stroke-miterlimit="10" stroke-linecap="round"/>
<path d="M69.1631 49.6615C69.1631 49.6615 69.27 49.5684 69.8406 49.6615" stroke="#091255" stroke-width="1.1991" stroke-miterlimit="10" stroke-linecap="round"/>
<path opacity="0.52" d="M66.4704 45.2969C67.6294 44.7263 69.0917 44.9404 69.4839 46.5093C69.7377 47.5241 69.41 48.1938 69.1466 48.5419C70.6543 50.5977 70.7792 56.6615 70.7792 56.6615C70.7792 56.6615 69.8037 57.0472 68.594 57.1949C66.1716 56.3288 64.6456 50.6265 65.2403 47.7737C64.7474 47.3124 64.4705 46.7481 64.3135 46.2495C65.1319 45.9075 65.9569 45.5495 66.4704 45.2969Z" fill="white"/>
<path d="M69.8413 53.4414L67.79 53.6339C67.79 53.6339 69.3292 54.7127 69.8413 53.4414Z" fill="#FEFEFE"/>
<path d="M67.0604 59.9542L63.9127 63.3055L63.4229 57.957L67.0604 59.9542Z" fill="#DCE7F4"/>
<path d="M67.0596 59.9542L69.4844 62.337L68.5573 58.9199L67.0596 59.9542Z" fill="#DCE7F4"/>
<path d="M75.8805 62.3369C75.8805 62.3369 78.1446 63.037 78.4966 66.0288C78.8486 69.0207 81.1542 81.9572 81.1542 81.9572H88.1377C90.7733 81.9572 93.2072 83.3693 94.5151 85.6578L95.2161 86.8843H73.8506L75.8805 62.3369Z" fill="#5B5D8E"/>
<path d="M68.5572 75.9648C68.8184 74.1281 69.0098 72.4405 69.1491 70.9248L67.7898 62.6835L68.2718 61.1465L67.0594 59.9551L65.6299 61.4771L66.4654 62.7754V72.6123C67.0486 73.9244 67.7418 75.1146 68.5572 75.9648Z" fill="#FFB700"/>
<path d="M93.1015 122.519C93.1015 122.724 92.9348 122.891 92.7294 122.891H85.2432C85.0378 122.891 84.8711 122.724 84.8711 122.519C84.8711 122.313 85.0378 122.146 85.2432 122.146H92.7294C92.9348 122.146 93.1015 122.313 93.1015 122.519Z" fill="#FEFEFE"/>
<path d="M63.4215 74.3281H57.5V75.5231H63.4215V74.3281Z" fill="#5B5D8E"/>
<path d="M81.1543 81.958H76.8428" stroke="#091255" stroke-width="1.1547" stroke-miterlimit="10"/>
<path d="M94.5151 85.6586C93.2072 83.3701 90.7737 81.958 88.1377 81.958H86.1385C85.7153 83.0113 85.2858 84.685 85.4693 86.8851H95.2161L94.5151 85.6586Z" fill="#FF9588"/>
<path d="M62.0625 51.5488L63.2278 52.1924" stroke="#CE455F" stroke-width="1.172" stroke-miterlimit="10" stroke-linecap="round"/>
<path d="M55.4316 95.9161C55.4316 95.9161 56.8297 98.4716 57.5003 99.2188C65.6295 90.1045 65.6295 90.1045 65.6295 90.1045L55.4316 95.9161Z" fill="#072847"/>
<path opacity="0.6" d="M85.4192 99.3556L84.6477 97.0905C83.6902 94.2798 81.2609 92.2258 78.33 91.7486L77.0128 91.5342C76.3046 92.494 75.8809 93.6764 75.8809 94.9606C75.8809 98.1552 78.4706 100.745 81.6648 100.745C83.0989 100.745 84.4086 100.22 85.4192 99.3556Z" fill="#072847"/>
<path d="M79.8717 84.9414H69.9883V86.9356H79.8717V84.9414Z" fill="white"/>
<path d="M95.2172 84.9414H79.8721V86.9356H95.2172V84.9414Z" fill="#AEDCFF"/>
<path d="M85.5074 71.0703H100.853L95.2172 84.9415H79.8721L85.5074 71.0703Z" fill="#8EBEED"/>
<path d="M85.5064 71.0703L79.8711 84.9415" stroke="#091255" stroke-width="1.1547" stroke-miterlimit="10"/>
<path d="M91.2525 76.9668C90.3509 77.8771 90.0968 79.0874 90.6852 79.6703C91.2735 80.253 92.4814 79.9875 93.383 79.0772C94.2846 78.1669 94.5387 76.9566 93.9503 76.3736C93.362 75.7907 92.1541 76.0562 91.2525 76.9668Z" fill="#7396C0"/>
<path d="M78.061 85.4629H74.3652V86.3428H78.061V85.4629Z" fill="#AEDCFF"/>
<path d="M54.2352 62.3369C54.2352 62.3369 51.0427 63.2598 49.9868 67.9002C49.2423 71.1716 48.2356 79.2927 47.7061 83.7991C47.5097 85.4701 48.8152 86.9372 50.4979 86.9372H71.8094C71.8094 86.9372 70.3618 81.9572 65.6299 81.9572C60.8979 81.9572 54.9103 81.9572 54.9103 81.9572L54.2352 62.3369Z" fill="#5B5D8E"/>
<path d="M61.0332 86.938H71.8095C71.8095 86.938 70.3619 81.958 65.63 81.958C64.9143 81.958 64.1701 81.958 63.422 81.958C63.422 81.958 61.4374 82.9965 61.0332 86.938Z" fill="#FF9588"/>
<path d="M54.9101 81.958H51.4014" stroke="#091255" stroke-width="1.1547" stroke-miterlimit="10"/>
<path d="M66.2344 84.1123C66.2344 84.1123 68.5571 84.6985 68.5571 86.9381" stroke="#CE455F" stroke-width="1.172" stroke-miterlimit="10" stroke-linecap="round"/>
<path d="M190.398 99.8779H171.273V123.695H190.398V99.8779Z" stroke="#7396C0" stroke-width="3.3759" stroke-miterlimit="10"/>
<path d="M183.801 99.8779H164.676V123.695H183.801V99.8779Z" stroke="#7396C0" stroke-width="3.3759" stroke-miterlimit="10"/>
<path d="M165.535 102.592H189.811C193.661 102.592 196.926 99.7655 197.479 95.9555L202.15 63.7176C202.436 61.746 200.907 59.9795 198.915 59.9795H186.375L180.505 95.7711L164.889 98.3978L165.535 102.592Z" fill="#544768"/>
<path d="M155.663 88.7705H156.517H166.043C166.043 88.7705 172.5 95.0798 168.682 99.5717H163.704L168.582 118.484L170.256 124.975H154.553C154.553 124.975 155.331 121.876 158.607 121.876L151.904 93.522C151.331 91.0959 153.171 88.7705 155.663 88.7705Z" fill="#D86260"/>
<path d="M154.58 124.975C154.58 124.975 155.356 121.887 158.62 121.887C158.62 121.887 163.967 122.289 168.561 118.507L170.229 124.975H154.58Z" fill="#072847"/>
<path d="M170.821 100.97H166.117L172.309 124.975H157.47C157.47 124.975 158.205 122.047 161.301 122.047L154.967 95.2526C154.425 92.9605 156.164 90.7627 158.519 90.7627H168.328C168.328 90.7627 174.43 96.7251 170.821 100.97Z" fill="#F99F8C"/>
<path d="M191.371 88.1787L190.462 94.1657C189.868 98.0829 186.602 100.97 182.764 100.97H167.531C167.531 100.97 167.891 88.7256 160.066 88.7256C187.609 88.7256 191.371 88.7256 191.371 88.7256" fill="#072847"/>
<path d="M181.036 61.7197C181.036 61.7197 177.632 62.2492 175.968 70.0403C174.304 77.8313 172.867 82.9747 172.867 82.9747H164.517C162.091 82.9747 159.988 84.6532 159.451 87.0186L159.441 87.0594H178.216L180.204 80.403L181.944 65.8045L181.036 61.7197Z" fill="#F99F8C"/>
<path opacity="0.58" d="M180.203 80.403L178.252 86.9366L178.251 86.9378C178.251 86.9378 179.207 81.8686 178.114 77.9662C177.02 74.0637 181.035 61.7197 181.035 61.7197L181.439 70.0348L180.203 80.403Z" fill="#DD7D76"/>
<path d="M185.368 59.9795L181.036 61.7193C181.036 61.7193 178.349 70.2614 179.677 75.1288C179.985 76.2575 180.026 77.4431 179.815 78.5937C178.239 87.159 177.783 89.1769 177.783 89.1769H191.246L197.45 64.2853L189.356 59.9795H185.368Z" fill="#FFB700"/>
<path d="M191.245 89.1767H190.192H189.203C189.438 84.1039 193.678 68.1809 193.678 68.1809L195.911 67.1709L196.399 68.4989L191.245 89.1767Z" fill="#B77E00"/>
<path d="M197.449 64.2842C197.449 64.2842 198.508 64.1385 199.34 67.3911C199.95 69.7744 201.738 79.2263 202.649 84.1066C202.936 85.6413 201.758 87.0576 200.197 87.0576H180.506C180.506 87.0576 181.565 82.2166 185.801 82.2166C190.036 82.2166 196.088 82.2166 196.088 82.2166L193.667 69.9627C193.667 69.9627 192.911 64.6566 197.449 64.2842Z" fill="#F99F8C"/>
<path d="M157.47 124.975C157.47 124.975 158.205 122.047 161.301 122.047C161.301 122.047 166.371 122.429 170.727 118.842L172.309 124.975H157.47V124.975Z" fill="#708CC9"/>
<path opacity="0.65" d="M158.519 90.7627H159.326C159.761 91.518 160.014 92.3917 160.014 93.326C160.014 95.8808 158.151 97.9948 155.71 98.3979L154.967 95.2523C154.425 92.9602 156.163 90.7627 158.519 90.7627Z" fill="#DD7D76"/>
<path opacity="0.24" d="M198.332 86.2788C198.332 84.0135 200.038 82.1491 202.234 81.8926C202.385 82.695 202.525 83.4444 202.649 84.1075C202.936 85.6421 201.758 87.0585 200.197 87.0585H198.405C198.36 86.805 198.332 86.5452 198.332 86.2788Z" fill="#DD7D76"/>
<path d="M183.111 86.9368C183.111 86.9368 183.82 84.4756 185.643 84.4756" stroke="#CE455F" stroke-width="1.172" stroke-miterlimit="10" stroke-linecap="round"/>
<path d="M179.418 80.7339C179.541 80.0698 179.673 79.3593 179.814 78.5937C179.992 77.6264 179.988 76.6341 179.8 75.6719C179.8 75.6728 181.048 79.3244 183.472 80.1744C185.574 80.9114 180.89 80.663 179.418 80.7339Z" fill="#B77E00"/>
<path d="M196.088 82.2178H198.333" stroke="#CE455F" stroke-width="1.172" stroke-miterlimit="10" stroke-linecap="round"/>
<path d="M172.866 82.9746H175.611" stroke="#CE455F" stroke-width="1.015" stroke-miterlimit="10" stroke-linecap="round"/>
<path opacity="0.65" d="M166.117 100.969L172.309 124.974H167.628C162.581 107.082 166.117 100.969 166.117 100.969Z" fill="#DD7D76"/>
<path d="M192.625 61.7193C192.667 61.6586 191.309 63.4891 190.012 65.6956C188.946 67.5096 185.365 67.7012 183.834 65.8701C182.303 64.039 183.417 60.7627 183.417 60.7627L185.298 59.9795H189.355L192.625 61.7193Z" fill="#F99F8C"/>
<path d="M192.936 50.8901C194.914 50.8901 196.517 49.2869 196.517 47.3093C196.517 45.3317 194.914 43.7285 192.936 43.7285C190.959 43.7285 189.355 45.3317 189.355 47.3093C189.355 49.2869 190.959 50.8901 192.936 50.8901Z" fill="#5B71AA"/>
<path opacity="0.39" d="M196.517 47.3095C196.517 45.3699 194.974 43.7944 193.049 43.7344C192.978 44.0158 192.937 44.3086 192.937 44.6122C192.937 46.5517 194.48 48.1272 196.404 48.1873C196.476 47.9059 196.517 47.6128 196.517 47.3095Z" fill="white"/>
<path d="M193.156 48.1728C193.156 48.9834 192.499 49.6405 191.688 49.6405C190.878 49.6405 190.221 48.9834 190.221 48.1728C190.221 47.3622 190.878 46.7051 191.688 46.7051C192.499 46.7051 193.156 47.3622 193.156 48.1728Z" fill="#072847"/>
<path d="M183.834 49.6396C183.834 49.6396 184.836 47.2619 188.002 47.1691C190.377 47.0994 192.336 47.9205 192.831 50.3558C193.209 52.2113 192.473 54.1246 191.024 55.3446C189.782 56.3915 188.393 57.2579 188.393 57.2579L183.834 49.6396Z" fill="#5B71AA"/>
<path d="M185.725 56.8025L185.12 61.4167C185.12 61.4167 185.044 62.7781 185.725 63.1565C188.297 62.3243 189.355 59.9796 189.355 59.9796V54.9873L185.725 56.8025Z" fill="#F99F8C"/>
<path d="M185.725 56.8028L189.356 54.9873V56.2772L189.271 56.4883C189.271 56.4883 187.354 59.0807 185.367 59.5303L185.725 56.8028Z" fill="#6D3E3B"/>
<path d="M183.834 49.6406C183.834 49.6406 183.041 54.8303 183.642 57.4749C183.73 57.8587 184.073 58.1311 184.466 58.1368C188.238 58.1939 190.862 55.949 190.639 52.9355C187.823 51.9856 184.89 50.9329 183.834 49.6406Z" fill="#F99F8C"/>
<path d="M184.908 51.9699C184.908 51.9699 185.702 51.6524 186.376 52.1285" stroke="#006488" stroke-width="1.172" stroke-miterlimit="10" stroke-linecap="round"/>
<path d="M189.194 51.998C189.194 51.998 189.702 53.3264 189.567 54.4796C190.818 54.1439 191.246 52.6275 191.246 52.6275L189.194 51.998Z" fill="#5B71AA"/>
<path d="M189.271 54.9864C189.271 55.7492 189.89 56.3673 190.652 56.3673C191.415 56.3673 192.033 55.7489 192.033 54.9864C192.033 54.2235 191.415 53.6055 190.652 53.6055C189.89 53.6055 189.271 54.2235 189.271 54.9864Z" fill="#FF9588"/>
<path d="M190.653 54.9873L189.932 55.7045" stroke="#CE455F" stroke-width="1.172" stroke-miterlimit="10" stroke-linecap="round"/>
<path d="M185.047 53.3178C185.003 53.6086 185.079 53.8617 185.218 53.8828C185.357 53.9038 185.506 53.6851 185.55 53.3944C185.594 53.1037 185.517 52.8505 185.378 52.8295C185.239 52.8085 185.091 53.0271 185.047 53.3178Z" fill="#006488"/>
<path opacity="0.39" d="M183.642 57.4743C183.041 54.8296 183.834 49.64 183.834 49.64C183.834 49.64 184.175 48.8699 184.99 48.1924C185.708 49.154 187.725 52.1756 186.607 54.4791C185.782 56.1804 185.378 57.4151 185.189 58.1176C184.953 58.1332 184.712 58.1398 184.466 58.1362C184.072 58.1305 183.729 57.8581 183.642 57.4743Z" fill="white"/>
<path d="M183.432 55.626L184.717 56.008C184.717 56.008 183.857 56.7792 183.432 55.626Z" fill="#FEFEFE"/>
<path d="M184.038 54.9873L183.419 54.7471C183.419 54.7471 183.451 55.2276 184.038 54.9873Z" fill="#CE455F"/>
<path d="M193.769 78.04H186.553L187.257 87.1754H193.065L193.769 78.04Z" fill="#FEFEFE"/>
<path d="M194.532 77.5732H185.79V78.6445H194.532V77.5732Z" fill="#072847"/>
<path d="M193.769 76.6094H186.553V77.5731H193.769V76.6094Z" fill="#5B71AA"/>
<path d="M193.369 83.245L193.539 81.0322H186.784L186.955 83.245H193.369Z" fill="#FFB700"/>
<path d="M211.785 86.9375H33.415V89.177H211.785V86.9375Z" fill="#92C5F4"/>
<path d="M179.768 85.1016H162.779V87.0954H179.768V85.1016Z" fill="white"/>
<path d="M162.78 85.1016H146.878V87.0954H162.78V85.1016Z" fill="#AEDCFF"/>
<path d="M142.286 72.3574H158.187L162.779 85.1017H146.878L142.286 72.3574Z" fill="#8EBEED"/>
<path d="M158.188 72.3574L162.779 85.1017" stroke="#091255" stroke-width="1.1547" stroke-miterlimit="10"/>
<path d="M153.036 77.1258C153.938 78.036 154.192 79.2464 153.604 79.8293C153.015 80.4119 151.807 80.1464 150.906 79.2362C150.004 78.3259 149.75 77.1155 150.339 76.5326C150.927 75.95 152.135 76.2155 153.036 77.1258Z" fill="white"/>
<path d="M168.444 85.6699H165.596V86.5048H168.444V85.6699Z" fill="#AEDCFF"/>
<path d="M172.422 85.6699H169.573V86.5048H172.422V85.6699Z" fill="#AEDCFF"/>
<path d="M195.428 89.1777H192.033V127.45H195.428V89.1777Z" fill="#92C5F4"/>
<path d="M195.428 89.1777H192.033V92.9561H195.428V89.1777Z" fill="#7396C0"/>
<path d="M12.0448 53.2598H11" stroke="#FF9588" stroke-width="0.6932" stroke-miterlimit="10" stroke-linecap="round"/>
</svg>
