<svg width="230" height="180" viewBox="0 0 230 180" fill="none" xmlns="http://www.w3.org/2000/svg">
<rect width="230" height="180" rx="10" fill="white"/>
<path d="M16.1611 144.228H12.8301V142.479H16.1611C16.7412 142.479 17.21 142.385 17.5674 142.197C17.9248 142.01 18.1855 141.752 18.3496 141.424C18.5195 141.09 18.6045 140.709 18.6045 140.281C18.6045 139.877 18.5195 139.499 18.3496 139.147C18.1855 138.79 17.9248 138.503 17.5674 138.286C17.21 138.069 16.7412 137.961 16.1611 137.961H13.5068V149H11.3008V136.203H16.1611C17.1514 136.203 17.9922 136.379 18.6836 136.73C19.3809 137.076 19.9111 137.557 20.2744 138.172C20.6377 138.781 20.8193 139.479 20.8193 140.264C20.8193 141.09 20.6377 141.799 20.2744 142.391C19.9111 142.982 19.3809 143.437 18.6836 143.753C17.9922 144.069 17.1514 144.228 16.1611 144.228ZM28.3076 146.759V139.49H30.4346V149H28.4307L28.3076 146.759ZM28.6064 144.781L29.3184 144.764C29.3184 145.402 29.248 145.991 29.1074 146.53C28.9668 147.063 28.75 147.529 28.457 147.928C28.1641 148.32 27.7891 148.628 27.332 148.851C26.875 149.067 26.3271 149.176 25.6885 149.176C25.2256 149.176 24.8008 149.108 24.4141 148.974C24.0273 148.839 23.6934 148.631 23.4121 148.35C23.1367 148.068 22.9229 147.702 22.7705 147.251C22.6182 146.8 22.542 146.261 22.542 145.634V139.49H24.6602V145.651C24.6602 145.997 24.7012 146.287 24.7832 146.521C24.8652 146.75 24.9766 146.935 25.1172 147.075C25.2578 147.216 25.4219 147.315 25.6094 147.374C25.7969 147.433 25.9961 147.462 26.207 147.462C26.8105 147.462 27.2852 147.345 27.6309 147.11C27.9824 146.87 28.2314 146.548 28.3779 146.144C28.5303 145.739 28.6064 145.285 28.6064 144.781ZM32.6143 135.5H34.7324V146.97L34.5303 149H32.6143V135.5ZM40.9375 144.157V144.342C40.9375 145.045 40.8584 145.692 40.7002 146.284C40.5479 146.87 40.3135 147.38 39.9971 147.813C39.6865 148.247 39.2998 148.584 38.8369 148.824C38.3799 149.059 37.8496 149.176 37.2461 149.176C36.6543 149.176 36.1387 149.064 35.6992 148.842C35.2598 148.619 34.8906 148.303 34.5918 147.893C34.2988 147.482 34.0615 146.993 33.8799 146.425C33.6982 145.856 33.5693 145.229 33.4932 144.544V143.955C33.5693 143.264 33.6982 142.637 33.8799 142.074C34.0615 141.506 34.2988 141.017 34.5918 140.606C34.8906 140.19 35.2568 139.871 35.6904 139.648C36.1299 139.426 36.6426 139.314 37.2285 139.314C37.8379 139.314 38.374 139.432 38.8369 139.666C39.3057 139.9 39.6953 140.234 40.0059 140.668C40.3164 141.096 40.5479 141.605 40.7002 142.197C40.8584 142.789 40.9375 143.442 40.9375 144.157ZM38.8193 144.342V144.157C38.8193 143.729 38.7842 143.328 38.7139 142.953C38.6436 142.572 38.5264 142.238 38.3623 141.951C38.2041 141.664 37.9873 141.438 37.7119 141.274C37.4424 141.104 37.1055 141.02 36.7012 141.02C36.3262 141.02 36.0039 141.084 35.7344 141.213C35.4648 141.342 35.2393 141.518 35.0576 141.74C34.876 141.963 34.7324 142.221 34.627 142.514C34.5273 142.807 34.46 143.123 34.4248 143.463V145.054C34.4775 145.493 34.5889 145.897 34.7588 146.267C34.9346 146.63 35.1807 146.923 35.4971 147.146C35.8135 147.362 36.2207 147.471 36.7188 147.471C37.1113 147.471 37.4424 147.392 37.7119 147.233C37.9814 147.075 38.1953 146.855 38.3535 146.574C38.5176 146.287 38.6348 145.953 38.7051 145.572C38.7812 145.191 38.8193 144.781 38.8193 144.342ZM44.998 135.5V149H42.8711V135.5H44.998ZM49.5859 139.49V149H47.459V139.49H49.5859ZM47.3184 136.994C47.3184 136.672 47.4238 136.405 47.6348 136.194C47.8516 135.978 48.1504 135.869 48.5312 135.869C48.9062 135.869 49.2021 135.978 49.4189 136.194C49.6357 136.405 49.7441 136.672 49.7441 136.994C49.7441 137.311 49.6357 137.574 49.4189 137.785C49.2021 137.996 48.9062 138.102 48.5312 138.102C48.1504 138.102 47.8516 137.996 47.6348 137.785C47.4238 137.574 47.3184 137.311 47.3184 136.994ZM55.791 147.488C56.1367 147.488 56.4473 147.421 56.7227 147.286C57.0039 147.146 57.2295 146.952 57.3994 146.706C57.5752 146.46 57.6719 146.176 57.6895 145.854H59.6846C59.6729 146.469 59.4912 147.028 59.1396 147.532C58.7881 148.036 58.3223 148.438 57.7422 148.736C57.1621 149.029 56.5205 149.176 55.8174 149.176C55.0908 149.176 54.458 149.053 53.9189 148.807C53.3799 148.555 52.9316 148.209 52.5742 147.77C52.2168 147.33 51.9473 146.823 51.7656 146.249C51.5898 145.675 51.502 145.06 51.502 144.403V144.096C51.502 143.439 51.5898 142.824 51.7656 142.25C51.9473 141.67 52.2168 141.16 52.5742 140.721C52.9316 140.281 53.3799 139.938 53.9189 139.692C54.458 139.44 55.0879 139.314 55.8086 139.314C56.5703 139.314 57.2383 139.467 57.8125 139.771C58.3867 140.07 58.8379 140.489 59.166 141.028C59.5 141.562 59.6729 142.183 59.6846 142.892H57.6895C57.6719 142.54 57.584 142.224 57.4258 141.942C57.2734 141.655 57.0566 141.427 56.7754 141.257C56.5 141.087 56.1689 141.002 55.7822 141.002C55.3545 141.002 55 141.09 54.7188 141.266C54.4375 141.436 54.2178 141.67 54.0596 141.969C53.9014 142.262 53.7871 142.593 53.7168 142.962C53.6523 143.325 53.6201 143.703 53.6201 144.096V144.403C53.6201 144.796 53.6523 145.177 53.7168 145.546C53.7812 145.915 53.8926 146.246 54.0508 146.539C54.2148 146.826 54.4375 147.058 54.7188 147.233C55 147.403 55.3574 147.488 55.791 147.488ZM70.9873 137.908L67.1641 149H64.8525L69.6689 136.203H71.1455L70.9873 137.908ZM74.1865 149L70.3545 137.908L70.1875 136.203H71.6729L76.5068 149H74.1865ZM74.002 144.254V146.003H67.041V144.254H74.002ZM83.5293 147.031V135.5H85.6562V149H83.7314L83.5293 147.031ZM77.3418 144.351V144.166C77.3418 143.445 77.4268 142.789 77.5967 142.197C77.7666 141.6 78.0127 141.087 78.335 140.659C78.6572 140.226 79.0498 139.895 79.5127 139.666C79.9756 139.432 80.4971 139.314 81.0771 139.314C81.6514 139.314 82.1553 139.426 82.5889 139.648C83.0225 139.871 83.3916 140.19 83.6963 140.606C84.001 141.017 84.2441 141.509 84.4258 142.083C84.6074 142.651 84.7363 143.284 84.8125 143.981V144.57C84.7363 145.25 84.6074 145.871 84.4258 146.434C84.2441 146.996 84.001 147.482 83.6963 147.893C83.3916 148.303 83.0195 148.619 82.5801 148.842C82.1465 149.064 81.6396 149.176 81.0596 149.176C80.4854 149.176 79.9668 149.056 79.5039 148.815C79.0469 148.575 78.6572 148.238 78.335 147.805C78.0127 147.371 77.7666 146.861 77.5967 146.275C77.4268 145.684 77.3418 145.042 77.3418 144.351ZM79.46 144.166V144.351C79.46 144.784 79.498 145.188 79.5742 145.563C79.6562 145.938 79.7822 146.27 79.9521 146.557C80.1221 146.838 80.3418 147.061 80.6113 147.225C80.8867 147.383 81.2148 147.462 81.5957 147.462C82.0762 147.462 82.4717 147.356 82.7822 147.146C83.0928 146.935 83.3359 146.65 83.5117 146.293C83.6934 145.93 83.8164 145.525 83.8809 145.08V143.489C83.8457 143.144 83.7725 142.821 83.6611 142.522C83.5557 142.224 83.4121 141.963 83.2305 141.74C83.0488 141.512 82.8232 141.336 82.5537 141.213C82.29 141.084 81.9766 141.02 81.6133 141.02C81.2266 141.02 80.8984 141.102 80.6289 141.266C80.3594 141.43 80.1367 141.655 79.9609 141.942C79.791 142.229 79.665 142.563 79.583 142.944C79.501 143.325 79.46 143.732 79.46 144.166ZM89.9893 141.424V149H87.8711V139.49H89.8662L89.9893 141.424ZM89.6465 143.894L88.9258 143.885C88.9258 143.229 89.0078 142.622 89.1719 142.065C89.3359 141.509 89.5762 141.025 89.8926 140.615C90.209 140.199 90.6016 139.88 91.0703 139.657C91.5449 139.429 92.0928 139.314 92.7139 139.314C93.1475 139.314 93.543 139.379 93.9004 139.508C94.2637 139.631 94.5771 139.827 94.8408 140.097C95.1104 140.366 95.3154 140.712 95.4561 141.134C95.6025 141.556 95.6758 142.065 95.6758 142.663V149H93.5576V142.848C93.5576 142.385 93.4873 142.021 93.3467 141.758C93.2119 141.494 93.0156 141.307 92.7578 141.195C92.5059 141.078 92.2041 141.02 91.8525 141.02C91.4541 141.02 91.1143 141.096 90.833 141.248C90.5576 141.4 90.332 141.608 90.1562 141.872C89.9805 142.136 89.8516 142.44 89.7695 142.786C89.6875 143.132 89.6465 143.501 89.6465 143.894ZM95.5439 143.331L94.5508 143.551C94.5508 142.977 94.6299 142.435 94.7881 141.925C94.9521 141.409 95.1895 140.958 95.5 140.571C95.8164 140.179 96.2061 139.871 96.6689 139.648C97.1318 139.426 97.6621 139.314 98.2598 139.314C98.7461 139.314 99.1797 139.382 99.5605 139.517C99.9473 139.646 100.275 139.851 100.545 140.132C100.814 140.413 101.02 140.779 101.16 141.23C101.301 141.676 101.371 142.215 101.371 142.848V149H99.2441V142.839C99.2441 142.358 99.1738 141.986 99.0332 141.723C98.8984 141.459 98.7051 141.277 98.4531 141.178C98.2012 141.072 97.8994 141.02 97.5479 141.02C97.2197 141.02 96.9297 141.081 96.6777 141.204C96.4316 141.321 96.2236 141.488 96.0537 141.705C95.8838 141.916 95.7549 142.159 95.667 142.435C95.585 142.71 95.5439 143.009 95.5439 143.331ZM105.818 139.49V149H103.691V139.49H105.818ZM103.551 136.994C103.551 136.672 103.656 136.405 103.867 136.194C104.084 135.978 104.383 135.869 104.764 135.869C105.139 135.869 105.435 135.978 105.651 136.194C105.868 136.405 105.977 136.672 105.977 136.994C105.977 137.311 105.868 137.574 105.651 137.785C105.435 137.996 105.139 138.102 104.764 138.102C104.383 138.102 104.084 137.996 103.867 137.785C103.656 137.574 103.551 137.311 103.551 136.994ZM110.239 141.521V149H108.121V139.49H110.116L110.239 141.521ZM109.861 143.894L109.176 143.885C109.182 143.211 109.275 142.593 109.457 142.03C109.645 141.468 109.902 140.984 110.23 140.58C110.564 140.176 110.963 139.865 111.426 139.648C111.889 139.426 112.404 139.314 112.973 139.314C113.43 139.314 113.843 139.379 114.212 139.508C114.587 139.631 114.906 139.833 115.17 140.114C115.439 140.396 115.645 140.762 115.785 141.213C115.926 141.658 115.996 142.206 115.996 142.856V149H113.869V142.848C113.869 142.391 113.802 142.03 113.667 141.767C113.538 141.497 113.348 141.307 113.096 141.195C112.85 141.078 112.542 141.02 112.173 141.02C111.81 141.02 111.484 141.096 111.197 141.248C110.91 141.4 110.667 141.608 110.468 141.872C110.274 142.136 110.125 142.44 110.02 142.786C109.914 143.132 109.861 143.501 109.861 143.894ZM120.426 139.49V149H118.299V139.49H120.426ZM118.158 136.994C118.158 136.672 118.264 136.405 118.475 136.194C118.691 135.978 118.99 135.869 119.371 135.869C119.746 135.869 120.042 135.978 120.259 136.194C120.476 136.405 120.584 136.672 120.584 136.994C120.584 137.311 120.476 137.574 120.259 137.785C120.042 137.996 119.746 138.102 119.371 138.102C118.99 138.102 118.691 137.996 118.475 137.785C118.264 137.574 118.158 137.311 118.158 136.994ZM128.081 146.425C128.081 146.214 128.028 146.023 127.923 145.854C127.817 145.678 127.615 145.52 127.316 145.379C127.023 145.238 126.59 145.109 126.016 144.992C125.512 144.881 125.049 144.749 124.627 144.597C124.211 144.438 123.854 144.248 123.555 144.025C123.256 143.803 123.024 143.539 122.86 143.234C122.696 142.93 122.614 142.578 122.614 142.18C122.614 141.793 122.699 141.427 122.869 141.081C123.039 140.735 123.282 140.431 123.599 140.167C123.915 139.903 124.299 139.695 124.75 139.543C125.207 139.391 125.717 139.314 126.279 139.314C127.076 139.314 127.759 139.449 128.327 139.719C128.901 139.982 129.341 140.343 129.646 140.8C129.95 141.251 130.103 141.761 130.103 142.329H127.984C127.984 142.077 127.92 141.843 127.791 141.626C127.668 141.403 127.48 141.225 127.229 141.09C126.977 140.949 126.66 140.879 126.279 140.879C125.916 140.879 125.614 140.938 125.374 141.055C125.14 141.166 124.964 141.312 124.847 141.494C124.735 141.676 124.68 141.875 124.68 142.092C124.68 142.25 124.709 142.394 124.768 142.522C124.832 142.646 124.938 142.76 125.084 142.865C125.23 142.965 125.43 143.059 125.682 143.146C125.939 143.234 126.262 143.319 126.648 143.401C127.375 143.554 127.999 143.75 128.521 143.99C129.048 144.225 129.452 144.529 129.733 144.904C130.015 145.273 130.155 145.742 130.155 146.311C130.155 146.732 130.064 147.119 129.883 147.471C129.707 147.816 129.449 148.118 129.109 148.376C128.77 148.628 128.362 148.824 127.888 148.965C127.419 149.105 126.892 149.176 126.306 149.176C125.444 149.176 124.715 149.023 124.117 148.719C123.52 148.408 123.065 148.013 122.755 147.532C122.45 147.046 122.298 146.542 122.298 146.021H124.346C124.369 146.413 124.478 146.727 124.671 146.961C124.87 147.189 125.116 147.356 125.409 147.462C125.708 147.562 126.016 147.611 126.332 147.611C126.713 147.611 127.032 147.562 127.29 147.462C127.548 147.356 127.744 147.216 127.879 147.04C128.014 146.858 128.081 146.653 128.081 146.425ZM136.369 139.49V141.037H131.008V139.49H136.369ZM132.555 137.161H134.673V146.372C134.673 146.665 134.714 146.891 134.796 147.049C134.884 147.201 135.004 147.304 135.156 147.356C135.309 147.409 135.487 147.436 135.692 147.436C135.839 147.436 135.979 147.427 136.114 147.409C136.249 147.392 136.357 147.374 136.439 147.356L136.448 148.974C136.272 149.026 136.067 149.073 135.833 149.114C135.604 149.155 135.341 149.176 135.042 149.176C134.556 149.176 134.125 149.091 133.75 148.921C133.375 148.745 133.082 148.461 132.871 148.068C132.66 147.676 132.555 147.154 132.555 146.504V137.161ZM140.131 141.301V149H138.013V139.49H140.034L140.131 141.301ZM143.04 139.429L143.022 141.397C142.894 141.374 142.753 141.356 142.601 141.345C142.454 141.333 142.308 141.327 142.161 141.327C141.798 141.327 141.479 141.38 141.203 141.485C140.928 141.585 140.696 141.731 140.509 141.925C140.327 142.112 140.187 142.341 140.087 142.61C139.987 142.88 139.929 143.182 139.911 143.516L139.428 143.551C139.428 142.953 139.486 142.399 139.604 141.89C139.721 141.38 139.896 140.932 140.131 140.545C140.371 140.158 140.67 139.856 141.027 139.64C141.391 139.423 141.81 139.314 142.284 139.314C142.413 139.314 142.551 139.326 142.697 139.35C142.85 139.373 142.964 139.399 143.04 139.429ZM149.412 147.093V142.558C149.412 142.218 149.351 141.925 149.228 141.679C149.104 141.433 148.917 141.242 148.665 141.107C148.419 140.973 148.108 140.905 147.733 140.905C147.388 140.905 147.089 140.964 146.837 141.081C146.585 141.198 146.389 141.356 146.248 141.556C146.107 141.755 146.037 141.98 146.037 142.232H143.928C143.928 141.857 144.019 141.494 144.2 141.143C144.382 140.791 144.646 140.478 144.991 140.202C145.337 139.927 145.75 139.71 146.23 139.552C146.711 139.394 147.25 139.314 147.848 139.314C148.562 139.314 149.195 139.435 149.746 139.675C150.303 139.915 150.739 140.278 151.056 140.765C151.378 141.245 151.539 141.849 151.539 142.575V146.803C151.539 147.236 151.568 147.626 151.627 147.972C151.691 148.312 151.782 148.607 151.899 148.859V149H149.729C149.629 148.771 149.55 148.481 149.491 148.13C149.438 147.772 149.412 147.427 149.412 147.093ZM149.72 143.217L149.737 144.526H148.217C147.824 144.526 147.479 144.564 147.18 144.641C146.881 144.711 146.632 144.816 146.433 144.957C146.233 145.098 146.084 145.268 145.984 145.467C145.885 145.666 145.835 145.892 145.835 146.144C145.835 146.396 145.894 146.627 146.011 146.838C146.128 147.043 146.298 147.204 146.521 147.321C146.749 147.438 147.024 147.497 147.347 147.497C147.78 147.497 148.158 147.409 148.48 147.233C148.809 147.052 149.066 146.832 149.254 146.574C149.441 146.311 149.541 146.062 149.553 145.827L150.238 146.768C150.168 147.008 150.048 147.266 149.878 147.541C149.708 147.816 149.485 148.08 149.21 148.332C148.94 148.578 148.615 148.78 148.234 148.938C147.859 149.097 147.426 149.176 146.934 149.176C146.312 149.176 145.759 149.053 145.272 148.807C144.786 148.555 144.405 148.218 144.13 147.796C143.854 147.368 143.717 146.885 143.717 146.346C143.717 145.842 143.811 145.396 143.998 145.01C144.191 144.617 144.473 144.289 144.842 144.025C145.217 143.762 145.674 143.562 146.213 143.428C146.752 143.287 147.367 143.217 148.059 143.217H149.72ZM158.113 139.49V141.037H152.752V139.49H158.113ZM154.299 137.161H156.417V146.372C156.417 146.665 156.458 146.891 156.54 147.049C156.628 147.201 156.748 147.304 156.9 147.356C157.053 147.409 157.231 147.436 157.437 147.436C157.583 147.436 157.724 147.427 157.858 147.409C157.993 147.392 158.102 147.374 158.184 147.356L158.192 148.974C158.017 149.026 157.812 149.073 157.577 149.114C157.349 149.155 157.085 149.176 156.786 149.176C156.3 149.176 155.869 149.091 155.494 148.921C155.119 148.745 154.826 148.461 154.615 148.068C154.404 147.676 154.299 147.154 154.299 146.504V137.161ZM162.016 139.49V149H159.889V139.49H162.016ZM159.748 136.994C159.748 136.672 159.854 136.405 160.064 136.194C160.281 135.978 160.58 135.869 160.961 135.869C161.336 135.869 161.632 135.978 161.849 136.194C162.065 136.405 162.174 136.672 162.174 136.994C162.174 137.311 162.065 137.574 161.849 137.785C161.632 137.996 161.336 138.102 160.961 138.102C160.58 138.102 160.281 137.996 160.064 137.785C159.854 137.574 159.748 137.311 159.748 136.994ZM163.932 144.351V144.148C163.932 143.463 164.031 142.827 164.23 142.241C164.43 141.649 164.717 141.137 165.092 140.703C165.473 140.264 165.936 139.924 166.48 139.684C167.031 139.438 167.652 139.314 168.344 139.314C169.041 139.314 169.662 139.438 170.207 139.684C170.758 139.924 171.224 140.264 171.604 140.703C171.985 141.137 172.275 141.649 172.475 142.241C172.674 142.827 172.773 143.463 172.773 144.148V144.351C172.773 145.036 172.674 145.672 172.475 146.258C172.275 146.844 171.985 147.356 171.604 147.796C171.224 148.229 170.761 148.569 170.216 148.815C169.671 149.056 169.053 149.176 168.361 149.176C167.664 149.176 167.04 149.056 166.489 148.815C165.944 148.569 165.481 148.229 165.101 147.796C164.72 147.356 164.43 146.844 164.23 146.258C164.031 145.672 163.932 145.036 163.932 144.351ZM166.05 144.148V144.351C166.05 144.778 166.094 145.183 166.182 145.563C166.27 145.944 166.407 146.278 166.595 146.565C166.782 146.853 167.022 147.078 167.315 147.242C167.608 147.406 167.957 147.488 168.361 147.488C168.754 147.488 169.094 147.406 169.381 147.242C169.674 147.078 169.914 146.853 170.102 146.565C170.289 146.278 170.427 145.944 170.515 145.563C170.608 145.183 170.655 144.778 170.655 144.351V144.148C170.655 143.727 170.608 143.328 170.515 142.953C170.427 142.572 170.286 142.235 170.093 141.942C169.905 141.649 169.665 141.421 169.372 141.257C169.085 141.087 168.742 141.002 168.344 141.002C167.945 141.002 167.6 141.087 167.307 141.257C167.02 141.421 166.782 141.649 166.595 141.942C166.407 142.235 166.27 142.572 166.182 142.953C166.094 143.328 166.05 143.727 166.05 144.148ZM176.649 141.521V149H174.531V139.49H176.526L176.649 141.521ZM176.271 143.894L175.586 143.885C175.592 143.211 175.686 142.593 175.867 142.03C176.055 141.468 176.312 140.984 176.641 140.58C176.975 140.176 177.373 139.865 177.836 139.648C178.299 139.426 178.814 139.314 179.383 139.314C179.84 139.314 180.253 139.379 180.622 139.508C180.997 139.631 181.316 139.833 181.58 140.114C181.85 140.396 182.055 140.762 182.195 141.213C182.336 141.658 182.406 142.206 182.406 142.856V149H180.279V142.848C180.279 142.391 180.212 142.03 180.077 141.767C179.948 141.497 179.758 141.307 179.506 141.195C179.26 141.078 178.952 141.02 178.583 141.02C178.22 141.02 177.895 141.096 177.607 141.248C177.32 141.4 177.077 141.608 176.878 141.872C176.685 142.136 176.535 142.44 176.43 142.786C176.324 143.132 176.271 143.501 176.271 143.894Z" fill="#049CB7"/>
<path d="M16.2988 168.109V169H10.7148V168.221L13.5098 165.109C13.8535 164.727 14.1191 164.402 14.3066 164.137C14.498 163.867 14.6309 163.627 14.7051 163.416C14.7832 163.201 14.8223 162.982 14.8223 162.76C14.8223 162.479 14.7637 162.225 14.6465 161.998C14.5332 161.768 14.3652 161.584 14.1426 161.447C13.9199 161.311 13.6504 161.242 13.334 161.242C12.9551 161.242 12.6387 161.316 12.3848 161.465C12.1348 161.609 11.9473 161.812 11.8223 162.074C11.6973 162.336 11.6348 162.637 11.6348 162.977H10.5508C10.5508 162.496 10.6562 162.057 10.8672 161.658C11.0781 161.26 11.3906 160.943 11.8047 160.709C12.2188 160.471 12.7285 160.352 13.334 160.352C13.873 160.352 14.334 160.447 14.7168 160.639C15.0996 160.826 15.3926 161.092 15.5957 161.436C15.8027 161.775 15.9062 162.174 15.9062 162.631C15.9062 162.881 15.8633 163.135 15.7773 163.393C15.6953 163.646 15.5801 163.9 15.4316 164.154C15.2871 164.408 15.1172 164.658 14.9219 164.904C14.7305 165.15 14.5254 165.393 14.3066 165.631L12.0215 168.109H16.2988ZM18.666 160V169H17.5762V160H18.666ZM22.5391 162.66L19.7734 165.619L18.2266 167.225L18.1387 166.07L19.2461 164.746L21.2148 162.66H22.5391ZM21.5488 169L19.2871 165.977L19.8496 165.01L22.8262 169H21.5488ZM33.1035 164.752V167.875C32.998 168.031 32.8301 168.207 32.5996 168.402C32.3691 168.594 32.0508 168.762 31.6445 168.906C31.2422 169.047 30.7227 169.117 30.0859 169.117C29.5664 169.117 29.0879 169.027 28.6504 168.848C28.2168 168.664 27.8398 168.398 27.5195 168.051C27.2031 167.699 26.957 167.273 26.7812 166.773C26.6094 166.27 26.5234 165.699 26.5234 165.062V164.4C26.5234 163.764 26.5977 163.195 26.7461 162.695C26.8984 162.195 27.1211 161.771 27.4141 161.424C27.707 161.072 28.0664 160.807 28.4922 160.627C28.918 160.443 29.4062 160.352 29.957 160.352C30.6094 160.352 31.1543 160.465 31.5918 160.691C32.0332 160.914 32.377 161.223 32.623 161.617C32.873 162.012 33.0332 162.461 33.1035 162.965H31.9727C31.9219 162.656 31.8203 162.375 31.668 162.121C31.5195 161.867 31.3066 161.664 31.0293 161.512C30.752 161.355 30.3945 161.277 29.957 161.277C29.5625 161.277 29.2207 161.35 28.9316 161.494C28.6426 161.639 28.4043 161.846 28.2168 162.115C28.0293 162.385 27.8887 162.711 27.7949 163.094C27.7051 163.477 27.6602 163.908 27.6602 164.389V165.062C27.6602 165.555 27.7168 165.994 27.8301 166.381C27.9473 166.768 28.1133 167.098 28.3281 167.371C28.543 167.641 28.7988 167.846 29.0957 167.986C29.3965 168.127 29.7285 168.197 30.0918 168.197C30.4941 168.197 30.8203 168.164 31.0703 168.098C31.3203 168.027 31.5156 167.945 31.6562 167.852C31.7969 167.754 31.9043 167.662 31.9785 167.576V165.666H30.0039V164.752H33.1035ZM35.8984 163.656V169H34.8145V162.66H35.8691L35.8984 163.656ZM37.8789 162.625L37.873 163.633C37.7832 163.613 37.6973 163.602 37.6152 163.598C37.5371 163.59 37.4473 163.586 37.3457 163.586C37.0957 163.586 36.875 163.625 36.6836 163.703C36.4922 163.781 36.3301 163.891 36.1973 164.031C36.0645 164.172 35.959 164.34 35.8809 164.535C35.8066 164.727 35.7578 164.938 35.7344 165.168L35.4297 165.344C35.4297 164.961 35.4668 164.602 35.541 164.266C35.6191 163.93 35.7383 163.633 35.8984 163.375C36.0586 163.113 36.2617 162.91 36.5078 162.766C36.7578 162.617 37.0547 162.543 37.3984 162.543C37.4766 162.543 37.5664 162.553 37.668 162.572C37.7695 162.588 37.8398 162.605 37.8789 162.625ZM42.3848 167.916V164.652C42.3848 164.402 42.334 164.186 42.2324 164.002C42.1348 163.814 41.9863 163.67 41.7871 163.568C41.5879 163.467 41.3418 163.416 41.0488 163.416C40.7754 163.416 40.5352 163.463 40.3281 163.557C40.125 163.65 39.9648 163.773 39.8477 163.926C39.7344 164.078 39.6777 164.242 39.6777 164.418H38.5938C38.5938 164.191 38.6523 163.967 38.7695 163.744C38.8867 163.521 39.0547 163.32 39.2734 163.141C39.4961 162.957 39.7617 162.812 40.0703 162.707C40.3828 162.598 40.7305 162.543 41.1133 162.543C41.5742 162.543 41.9805 162.621 42.332 162.777C42.6875 162.934 42.9648 163.17 43.1641 163.486C43.3672 163.799 43.4688 164.191 43.4688 164.664V167.617C43.4688 167.828 43.4863 168.053 43.5215 168.291C43.5605 168.529 43.6172 168.734 43.6914 168.906V169H42.5605C42.5059 168.875 42.4629 168.709 42.4316 168.502C42.4004 168.291 42.3848 168.096 42.3848 167.916ZM42.5723 165.156L42.584 165.918H41.4883C41.1797 165.918 40.9043 165.943 40.6621 165.994C40.4199 166.041 40.2168 166.113 40.0527 166.211C39.8887 166.309 39.7637 166.432 39.6777 166.58C39.5918 166.725 39.5488 166.895 39.5488 167.09C39.5488 167.289 39.5938 167.471 39.6836 167.635C39.7734 167.799 39.9082 167.93 40.0879 168.027C40.2715 168.121 40.4961 168.168 40.7617 168.168C41.0938 168.168 41.3867 168.098 41.6406 167.957C41.8945 167.816 42.0957 167.645 42.2441 167.441C42.3965 167.238 42.4785 167.041 42.4902 166.85L42.9531 167.371C42.9258 167.535 42.8516 167.717 42.7305 167.916C42.6094 168.115 42.4473 168.307 42.2441 168.49C42.0449 168.67 41.8066 168.82 41.5293 168.941C41.2559 169.059 40.9473 169.117 40.6035 169.117C40.1738 169.117 39.7969 169.033 39.4727 168.865C39.1523 168.697 38.9023 168.473 38.7227 168.191C38.5469 167.906 38.459 167.588 38.459 167.236C38.459 166.896 38.5254 166.598 38.6582 166.34C38.791 166.078 38.9824 165.861 39.2324 165.689C39.4824 165.514 39.7832 165.381 40.1348 165.291C40.4863 165.201 40.8789 165.156 41.3125 165.156H42.5723ZM49.1699 167.77V160H50.2598V169H49.2637L49.1699 167.77ZM44.9043 165.9V165.777C44.9043 165.293 44.9629 164.854 45.0801 164.459C45.2012 164.061 45.3711 163.719 45.5898 163.434C45.8125 163.148 46.0762 162.93 46.3809 162.777C46.6895 162.621 47.0332 162.543 47.4121 162.543C47.8105 162.543 48.1582 162.613 48.4551 162.754C48.7559 162.891 49.0098 163.092 49.2168 163.357C49.4277 163.619 49.5938 163.936 49.7148 164.307C49.8359 164.678 49.9199 165.098 49.9668 165.566V166.105C49.9238 166.57 49.8398 166.988 49.7148 167.359C49.5938 167.73 49.4277 168.047 49.2168 168.309C49.0098 168.57 48.7559 168.771 48.4551 168.912C48.1543 169.049 47.8027 169.117 47.4004 169.117C47.0293 169.117 46.6895 169.037 46.3809 168.877C46.0762 168.717 45.8125 168.492 45.5898 168.203C45.3711 167.914 45.2012 167.574 45.0801 167.184C44.9629 166.789 44.9043 166.361 44.9043 165.9ZM45.9941 165.777V165.9C45.9941 166.217 46.0254 166.514 46.0879 166.791C46.1543 167.068 46.2559 167.312 46.3926 167.523C46.5293 167.734 46.7031 167.9 46.9141 168.021C47.125 168.139 47.377 168.197 47.6699 168.197C48.0293 168.197 48.3242 168.121 48.5547 167.969C48.7891 167.816 48.9766 167.615 49.1172 167.365C49.2578 167.115 49.3672 166.844 49.4453 166.551V165.139C49.3984 164.924 49.3301 164.717 49.2402 164.518C49.1543 164.314 49.041 164.135 48.9004 163.979C48.7637 163.818 48.5938 163.691 48.3906 163.598C48.1914 163.504 47.9551 163.457 47.6816 163.457C47.3848 163.457 47.1289 163.52 46.9141 163.645C46.7031 163.766 46.5293 163.934 46.3926 164.148C46.2559 164.359 46.1543 164.605 46.0879 164.887C46.0254 165.164 45.9941 165.461 45.9941 165.777ZM55.8262 167.535V162.66H56.916V169H55.8789L55.8262 167.535ZM56.0312 166.199L56.4824 166.188C56.4824 166.609 56.4375 167 56.3477 167.359C56.2617 167.715 56.1211 168.023 55.9258 168.285C55.7305 168.547 55.4746 168.752 55.1582 168.9C54.8418 169.045 54.457 169.117 54.0039 169.117C53.6953 169.117 53.4121 169.072 53.1543 168.982C52.9004 168.893 52.6816 168.754 52.498 168.566C52.3145 168.379 52.1719 168.135 52.0703 167.834C51.9727 167.533 51.9238 167.172 51.9238 166.75V162.66H53.0078V166.762C53.0078 167.047 53.0391 167.283 53.1016 167.471C53.168 167.654 53.2559 167.801 53.3652 167.91C53.4785 168.016 53.6035 168.09 53.7402 168.133C53.8809 168.176 54.0254 168.197 54.1738 168.197C54.6348 168.197 55 168.109 55.2695 167.934C55.5391 167.754 55.7324 167.514 55.8496 167.213C55.9707 166.908 56.0312 166.57 56.0312 166.199ZM62.3066 167.916V164.652C62.3066 164.402 62.2559 164.186 62.1543 164.002C62.0566 163.814 61.9082 163.67 61.709 163.568C61.5098 163.467 61.2637 163.416 60.9707 163.416C60.6973 163.416 60.457 163.463 60.25 163.557C60.0469 163.65 59.8867 163.773 59.7695 163.926C59.6562 164.078 59.5996 164.242 59.5996 164.418H58.5156C58.5156 164.191 58.5742 163.967 58.6914 163.744C58.8086 163.521 58.9766 163.32 59.1953 163.141C59.418 162.957 59.6836 162.812 59.9922 162.707C60.3047 162.598 60.6523 162.543 61.0352 162.543C61.4961 162.543 61.9023 162.621 62.2539 162.777C62.6094 162.934 62.8867 163.17 63.0859 163.486C63.2891 163.799 63.3906 164.191 63.3906 164.664V167.617C63.3906 167.828 63.4082 168.053 63.4434 168.291C63.4824 168.529 63.5391 168.734 63.6133 168.906V169H62.4824C62.4277 168.875 62.3848 168.709 62.3535 168.502C62.3223 168.291 62.3066 168.096 62.3066 167.916ZM62.4941 165.156L62.5059 165.918H61.4102C61.1016 165.918 60.8262 165.943 60.584 165.994C60.3418 166.041 60.1387 166.113 59.9746 166.211C59.8105 166.309 59.6855 166.432 59.5996 166.58C59.5137 166.725 59.4707 166.895 59.4707 167.09C59.4707 167.289 59.5156 167.471 59.6055 167.635C59.6953 167.799 59.8301 167.93 60.0098 168.027C60.1934 168.121 60.418 168.168 60.6836 168.168C61.0156 168.168 61.3086 168.098 61.5625 167.957C61.8164 167.816 62.0176 167.645 62.166 167.441C62.3184 167.238 62.4004 167.041 62.4121 166.85L62.875 167.371C62.8477 167.535 62.7734 167.717 62.6523 167.916C62.5312 168.115 62.3691 168.307 62.166 168.49C61.9668 168.67 61.7285 168.82 61.4512 168.941C61.1777 169.059 60.8691 169.117 60.5254 169.117C60.0957 169.117 59.7188 169.033 59.3945 168.865C59.0742 168.697 58.8242 168.473 58.6445 168.191C58.4688 167.906 58.3809 167.588 58.3809 167.236C58.3809 166.896 58.4473 166.598 58.5801 166.34C58.7129 166.078 58.9043 165.861 59.1543 165.689C59.4043 165.514 59.7051 165.381 60.0566 165.291C60.4082 165.201 60.8008 165.156 61.2344 165.156H62.4941ZM67.75 162.66V163.492H64.3223V162.66H67.75ZM65.4824 161.119H66.5664V167.43C66.5664 167.645 66.5996 167.807 66.666 167.916C66.7324 168.025 66.8184 168.098 66.9238 168.133C67.0293 168.168 67.1426 168.186 67.2637 168.186C67.3535 168.186 67.4473 168.178 67.5449 168.162C67.6465 168.143 67.7227 168.127 67.7734 168.115L67.7793 169C67.6934 169.027 67.5801 169.053 67.4395 169.076C67.3027 169.104 67.1367 169.117 66.9414 169.117C66.6758 169.117 66.4316 169.064 66.209 168.959C65.9863 168.854 65.8086 168.678 65.6758 168.432C65.5469 168.182 65.4824 167.846 65.4824 167.424V161.119ZM71.6523 169.117C71.2109 169.117 70.8105 169.043 70.4512 168.895C70.0957 168.742 69.7891 168.529 69.5312 168.256C69.2773 167.982 69.082 167.658 68.9453 167.283C68.8086 166.908 68.7402 166.498 68.7402 166.053V165.807C68.7402 165.291 68.8164 164.832 68.9688 164.43C69.1211 164.023 69.3281 163.68 69.5898 163.398C69.8516 163.117 70.1484 162.904 70.4805 162.76C70.8125 162.615 71.1562 162.543 71.5117 162.543C71.9648 162.543 72.3555 162.621 72.6836 162.777C73.0156 162.934 73.2871 163.152 73.498 163.434C73.709 163.711 73.8652 164.039 73.9668 164.418C74.0684 164.793 74.1191 165.203 74.1191 165.648V166.135H69.3848V165.25H73.0352V165.168C73.0195 164.887 72.9609 164.613 72.8594 164.348C72.7617 164.082 72.6055 163.863 72.3906 163.691C72.1758 163.52 71.8828 163.434 71.5117 163.434C71.2656 163.434 71.0391 163.486 70.832 163.592C70.625 163.693 70.4473 163.846 70.2988 164.049C70.1504 164.252 70.0352 164.5 69.9531 164.793C69.8711 165.086 69.8301 165.424 69.8301 165.807V166.053C69.8301 166.354 69.8711 166.637 69.9531 166.902C70.0391 167.164 70.1621 167.395 70.3223 167.594C70.4863 167.793 70.6836 167.949 70.9141 168.062C71.1484 168.176 71.4141 168.232 71.7109 168.232C72.0938 168.232 72.418 168.154 72.6836 167.998C72.9492 167.842 73.1816 167.633 73.3809 167.371L74.0371 167.893C73.9004 168.1 73.7266 168.297 73.5156 168.484C73.3047 168.672 73.0449 168.824 72.7363 168.941C72.4316 169.059 72.0703 169.117 71.6523 169.117ZM79.3809 167.77V160H80.4707V169H79.4746L79.3809 167.77ZM75.1152 165.9V165.777C75.1152 165.293 75.1738 164.854 75.291 164.459C75.4121 164.061 75.582 163.719 75.8008 163.434C76.0234 163.148 76.2871 162.93 76.5918 162.777C76.9004 162.621 77.2441 162.543 77.623 162.543C78.0215 162.543 78.3691 162.613 78.666 162.754C78.9668 162.891 79.2207 163.092 79.4277 163.357C79.6387 163.619 79.8047 163.936 79.9258 164.307C80.0469 164.678 80.1309 165.098 80.1777 165.566V166.105C80.1348 166.57 80.0508 166.988 79.9258 167.359C79.8047 167.73 79.6387 168.047 79.4277 168.309C79.2207 168.57 78.9668 168.771 78.666 168.912C78.3652 169.049 78.0137 169.117 77.6113 169.117C77.2402 169.117 76.9004 169.037 76.5918 168.877C76.2871 168.717 76.0234 168.492 75.8008 168.203C75.582 167.914 75.4121 167.574 75.291 167.184C75.1738 166.789 75.1152 166.361 75.1152 165.9ZM76.2051 165.777V165.9C76.2051 166.217 76.2363 166.514 76.2988 166.791C76.3652 167.068 76.4668 167.312 76.6035 167.523C76.7402 167.734 76.9141 167.9 77.125 168.021C77.3359 168.139 77.5879 168.197 77.8809 168.197C78.2402 168.197 78.5352 168.121 78.7656 167.969C79 167.816 79.1875 167.615 79.3281 167.365C79.4688 167.115 79.5781 166.844 79.6562 166.551V165.139C79.6094 164.924 79.541 164.717 79.4512 164.518C79.3652 164.314 79.252 164.135 79.1113 163.979C78.9746 163.818 78.8047 163.691 78.6016 163.598C78.4023 163.504 78.166 163.457 77.8926 163.457C77.5957 163.457 77.3398 163.52 77.125 163.645C76.9141 163.766 76.7402 163.934 76.6035 164.148C76.4668 164.359 76.3652 164.605 76.2988 164.887C76.2363 165.164 76.2051 165.461 76.2051 165.777ZM89.8457 166.844C89.8457 166.645 89.8145 166.469 89.752 166.316C89.6934 166.16 89.5879 166.02 89.4355 165.895C89.2871 165.77 89.0801 165.65 88.8145 165.537C88.5527 165.424 88.2207 165.309 87.8184 165.191C87.3965 165.066 87.0156 164.928 86.6758 164.775C86.3359 164.619 86.0449 164.441 85.8027 164.242C85.5605 164.043 85.375 163.814 85.2461 163.557C85.1172 163.299 85.0527 163.004 85.0527 162.672C85.0527 162.34 85.1211 162.033 85.2578 161.752C85.3945 161.471 85.5898 161.227 85.8438 161.02C86.1016 160.809 86.4082 160.645 86.7637 160.527C87.1191 160.41 87.5156 160.352 87.9531 160.352C88.5938 160.352 89.1367 160.475 89.582 160.721C90.0312 160.963 90.373 161.281 90.6074 161.676C90.8418 162.066 90.959 162.484 90.959 162.93H89.834C89.834 162.609 89.7656 162.326 89.6289 162.08C89.4922 161.83 89.2852 161.635 89.0078 161.494C88.7305 161.35 88.3789 161.277 87.9531 161.277C87.5508 161.277 87.2188 161.338 86.957 161.459C86.6953 161.58 86.5 161.744 86.3711 161.951C86.2461 162.158 86.1836 162.395 86.1836 162.66C86.1836 162.84 86.2207 163.004 86.2949 163.152C86.373 163.297 86.4922 163.432 86.6523 163.557C86.8164 163.682 87.0234 163.797 87.2734 163.902C87.5273 164.008 87.8301 164.109 88.1816 164.207C88.666 164.344 89.084 164.496 89.4355 164.664C89.7871 164.832 90.0762 165.021 90.3027 165.232C90.5332 165.439 90.7031 165.676 90.8125 165.941C90.9258 166.203 90.9824 166.5 90.9824 166.832C90.9824 167.18 90.9121 167.494 90.7715 167.775C90.6309 168.057 90.4297 168.297 90.168 168.496C89.9062 168.695 89.5918 168.85 89.2246 168.959C88.8613 169.064 88.4551 169.117 88.0059 169.117C87.6113 169.117 87.2227 169.062 86.8398 168.953C86.4609 168.844 86.1152 168.68 85.8027 168.461C85.4941 168.242 85.2461 167.973 85.0586 167.652C84.875 167.328 84.7832 166.953 84.7832 166.527H85.9082C85.9082 166.82 85.9648 167.072 86.0781 167.283C86.1914 167.49 86.3457 167.662 86.541 167.799C86.7402 167.936 86.9648 168.037 87.2148 168.104C87.4688 168.166 87.7324 168.197 88.0059 168.197C88.4004 168.197 88.7344 168.143 89.0078 168.033C89.2812 167.924 89.4883 167.768 89.6289 167.564C89.7734 167.361 89.8457 167.121 89.8457 166.844ZM94.9141 162.66V163.492H91.4863V162.66H94.9141ZM92.6465 161.119H93.7305V167.43C93.7305 167.645 93.7637 167.807 93.8301 167.916C93.8965 168.025 93.9824 168.098 94.0879 168.133C94.1934 168.168 94.3066 168.186 94.4277 168.186C94.5176 168.186 94.6113 168.178 94.709 168.162C94.8105 168.143 94.8867 168.127 94.9375 168.115L94.9434 169C94.8574 169.027 94.7441 169.053 94.6035 169.076C94.4668 169.104 94.3008 169.117 94.1055 169.117C93.8398 169.117 93.5957 169.064 93.373 168.959C93.1504 168.854 92.9727 168.678 92.8398 168.432C92.7109 168.182 92.6465 167.846 92.6465 167.424V161.119ZM100.064 167.535V162.66H101.154V169H100.117L100.064 167.535ZM100.27 166.199L100.721 166.188C100.721 166.609 100.676 167 100.586 167.359C100.5 167.715 100.359 168.023 100.164 168.285C99.9688 168.547 99.7129 168.752 99.3965 168.9C99.0801 169.045 98.6953 169.117 98.2422 169.117C97.9336 169.117 97.6504 169.072 97.3926 168.982C97.1387 168.893 96.9199 168.754 96.7363 168.566C96.5527 168.379 96.4102 168.135 96.3086 167.834C96.2109 167.533 96.1621 167.172 96.1621 166.75V162.66H97.2461V166.762C97.2461 167.047 97.2773 167.283 97.3398 167.471C97.4062 167.654 97.4941 167.801 97.6035 167.91C97.7168 168.016 97.8418 168.09 97.9785 168.133C98.1191 168.176 98.2637 168.197 98.4121 168.197C98.873 168.197 99.2383 168.109 99.5078 167.934C99.7773 167.754 99.9707 167.514 100.088 167.213C100.209 166.908 100.27 166.57 100.27 166.199ZM106.803 167.77V160H107.893V169H106.896L106.803 167.77ZM102.537 165.9V165.777C102.537 165.293 102.596 164.854 102.713 164.459C102.834 164.061 103.004 163.719 103.223 163.434C103.445 163.148 103.709 162.93 104.014 162.777C104.322 162.621 104.666 162.543 105.045 162.543C105.443 162.543 105.791 162.613 106.088 162.754C106.389 162.891 106.643 163.092 106.85 163.357C107.061 163.619 107.227 163.936 107.348 164.307C107.469 164.678 107.553 165.098 107.6 165.566V166.105C107.557 166.57 107.473 166.988 107.348 167.359C107.227 167.73 107.061 168.047 106.85 168.309C106.643 168.57 106.389 168.771 106.088 168.912C105.787 169.049 105.436 169.117 105.033 169.117C104.662 169.117 104.322 169.037 104.014 168.877C103.709 168.717 103.445 168.492 103.223 168.203C103.004 167.914 102.834 167.574 102.713 167.184C102.596 166.789 102.537 166.361 102.537 165.9ZM103.627 165.777V165.9C103.627 166.217 103.658 166.514 103.721 166.791C103.787 167.068 103.889 167.312 104.025 167.523C104.162 167.734 104.336 167.9 104.547 168.021C104.758 168.139 105.01 168.197 105.303 168.197C105.662 168.197 105.957 168.121 106.188 167.969C106.422 167.816 106.609 167.615 106.75 167.365C106.891 167.115 107 166.844 107.078 166.551V165.139C107.031 164.924 106.963 164.717 106.873 164.518C106.787 164.314 106.674 164.135 106.533 163.979C106.396 163.818 106.227 163.691 106.023 163.598C105.824 163.504 105.588 163.457 105.314 163.457C105.018 163.457 104.762 163.52 104.547 163.645C104.336 163.766 104.162 163.934 104.025 164.148C103.889 164.359 103.787 164.605 103.721 164.887C103.658 165.164 103.627 165.461 103.627 165.777ZM112.211 169.117C111.77 169.117 111.369 169.043 111.01 168.895C110.654 168.742 110.348 168.529 110.09 168.256C109.836 167.982 109.641 167.658 109.504 167.283C109.367 166.908 109.299 166.498 109.299 166.053V165.807C109.299 165.291 109.375 164.832 109.527 164.43C109.68 164.023 109.887 163.68 110.148 163.398C110.41 163.117 110.707 162.904 111.039 162.76C111.371 162.615 111.715 162.543 112.07 162.543C112.523 162.543 112.914 162.621 113.242 162.777C113.574 162.934 113.846 163.152 114.057 163.434C114.268 163.711 114.424 164.039 114.525 164.418C114.627 164.793 114.678 165.203 114.678 165.648V166.135H109.943V165.25H113.594V165.168C113.578 164.887 113.52 164.613 113.418 164.348C113.32 164.082 113.164 163.863 112.949 163.691C112.734 163.52 112.441 163.434 112.07 163.434C111.824 163.434 111.598 163.486 111.391 163.592C111.184 163.693 111.006 163.846 110.857 164.049C110.709 164.252 110.594 164.5 110.512 164.793C110.43 165.086 110.389 165.424 110.389 165.807V166.053C110.389 166.354 110.43 166.637 110.512 166.902C110.598 167.164 110.721 167.395 110.881 167.594C111.045 167.793 111.242 167.949 111.473 168.062C111.707 168.176 111.973 168.232 112.27 168.232C112.652 168.232 112.977 168.154 113.242 167.998C113.508 167.842 113.74 167.633 113.939 167.371L114.596 167.893C114.459 168.1 114.285 168.297 114.074 168.484C113.863 168.672 113.604 168.824 113.295 168.941C112.99 169.059 112.629 169.117 112.211 169.117ZM117.027 164.014V169H115.943V162.66H116.969L117.027 164.014ZM116.77 165.59L116.318 165.572C116.322 165.139 116.387 164.738 116.512 164.371C116.637 164 116.812 163.678 117.039 163.404C117.266 163.131 117.535 162.92 117.848 162.771C118.164 162.619 118.514 162.543 118.896 162.543C119.209 162.543 119.49 162.586 119.74 162.672C119.99 162.754 120.203 162.887 120.379 163.07C120.559 163.254 120.695 163.492 120.789 163.785C120.883 164.074 120.93 164.428 120.93 164.846V169H119.84V164.834C119.84 164.502 119.791 164.236 119.693 164.037C119.596 163.834 119.453 163.688 119.266 163.598C119.078 163.504 118.848 163.457 118.574 163.457C118.305 163.457 118.059 163.514 117.836 163.627C117.617 163.74 117.428 163.896 117.268 164.096C117.111 164.295 116.988 164.523 116.898 164.781C116.812 165.035 116.77 165.305 116.77 165.59ZM125.23 162.66V163.492H121.803V162.66H125.23ZM122.963 161.119H124.047V167.43C124.047 167.645 124.08 167.807 124.146 167.916C124.213 168.025 124.299 168.098 124.404 168.133C124.51 168.168 124.623 168.186 124.744 168.186C124.834 168.186 124.928 168.178 125.025 168.162C125.127 168.143 125.203 168.127 125.254 168.115L125.26 169C125.174 169.027 125.061 169.053 124.92 169.076C124.783 169.104 124.617 169.117 124.422 169.117C124.156 169.117 123.912 169.064 123.689 168.959C123.467 168.854 123.289 168.678 123.156 168.432C123.027 168.182 122.963 167.846 122.963 167.424V161.119ZM130.193 167.318C130.193 167.162 130.158 167.018 130.088 166.885C130.021 166.748 129.883 166.625 129.672 166.516C129.465 166.402 129.152 166.305 128.734 166.223C128.383 166.148 128.064 166.061 127.779 165.959C127.498 165.857 127.258 165.734 127.059 165.59C126.863 165.445 126.713 165.275 126.607 165.08C126.502 164.885 126.449 164.656 126.449 164.395C126.449 164.145 126.504 163.908 126.613 163.686C126.727 163.463 126.885 163.266 127.088 163.094C127.295 162.922 127.543 162.787 127.832 162.689C128.121 162.592 128.443 162.543 128.799 162.543C129.307 162.543 129.74 162.633 130.1 162.812C130.459 162.992 130.734 163.232 130.926 163.533C131.117 163.83 131.213 164.16 131.213 164.523H130.129C130.129 164.348 130.076 164.178 129.971 164.014C129.869 163.846 129.719 163.707 129.52 163.598C129.324 163.488 129.084 163.434 128.799 163.434C128.498 163.434 128.254 163.48 128.066 163.574C127.883 163.664 127.748 163.779 127.662 163.92C127.58 164.061 127.539 164.209 127.539 164.365C127.539 164.482 127.559 164.588 127.598 164.682C127.641 164.771 127.715 164.855 127.82 164.934C127.926 165.008 128.074 165.078 128.266 165.145C128.457 165.211 128.701 165.277 128.998 165.344C129.518 165.461 129.945 165.602 130.281 165.766C130.617 165.93 130.867 166.131 131.031 166.369C131.195 166.607 131.277 166.896 131.277 167.236C131.277 167.514 131.219 167.768 131.102 167.998C130.988 168.229 130.822 168.428 130.604 168.596C130.389 168.76 130.131 168.889 129.83 168.982C129.533 169.072 129.199 169.117 128.828 169.117C128.27 169.117 127.797 169.018 127.41 168.818C127.023 168.619 126.73 168.361 126.531 168.045C126.332 167.729 126.232 167.395 126.232 167.043H127.322C127.338 167.34 127.424 167.576 127.58 167.752C127.736 167.924 127.928 168.047 128.154 168.121C128.381 168.191 128.605 168.227 128.828 168.227C129.125 168.227 129.373 168.188 129.572 168.109C129.775 168.031 129.93 167.924 130.035 167.787C130.141 167.65 130.193 167.494 130.193 167.318Z" fill="#3F3F3F"/>
<path d="M64.2918 42.3736H41.414C40.5915 42.3736 39.9248 41.7069 39.9248 40.8844V37.2702C39.9248 31.5004 44.8704 27.2761 49.7475 32.067C53.9372 28.0488 58.8824 31.9124 58.8824 35.673C62.247 34.5354 65.1344 36.5383 65.7621 40.6409C65.9013 41.5498 65.2109 42.3736 64.2918 42.3736Z" fill="#BEDCE0"/>
<path d="M49.4663 102.212L45.0859 126.926H47.7203L54.2683 102.212H49.4663Z" fill="#BEDCE0"/>
<path d="M53.6422 104.575L48.5566 107.345L49.4665 102.212H54.2685L53.6422 104.575Z" fill="#A4CACF"/>
<path d="M58.6493 102.212L54.2686 126.926H56.9032L63.4512 102.212H58.6493Z" fill="#BEDCE0"/>
<path d="M62.8248 104.575L57.7393 107.345L58.6492 102.212H63.4511L62.8248 104.575Z" fill="#A4CACF"/>
<path d="M82.743 102.212L87.1237 126.926H84.489L77.9414 102.212H82.743Z" fill="#BEDCE0"/>
<path d="M78.5673 104.575L83.6529 107.345L82.743 102.212H77.9414L78.5673 104.575Z" fill="#A4CACF"/>
<path d="M73.5607 102.212L77.9415 126.926H75.3068L68.7588 102.212H73.5607Z" fill="#BEDCE0"/>
<path d="M69.3851 104.575L74.4706 107.345L73.5607 102.212H68.7588L69.3851 104.575Z" fill="#A4CACF"/>
<path d="M72.5494 99.8656H49.8599L42.32 70.5441C42.128 69.7974 42.6918 69.0703 43.4628 69.0703H63.7159C64.2543 69.0703 64.7245 69.4349 64.8586 69.9562L72.5494 99.8656Z" fill="#BEDCE0"/>
<path d="M46.9863 88.6924L70.834 93.1963L72.5489 99.8653H49.8597L46.9863 88.6924Z" fill="#A4CACF"/>
<path d="M84.5042 102.213H47.7207C47.7207 98.451 50.77 95.4014 54.5321 95.4014H77.6932C81.4545 95.4014 84.5042 98.4507 84.5042 102.213Z" fill="#BEDCE0"/>
<path d="M77.2907 95.6759L75.6448 117.531L78.0682 123.143L81.8368 126.919L78.0926 126.925C77.2111 126.926 76.3585 126.61 75.6907 126.035L73.127 123.825L73.1318 126.914L72.1211 126.915L71.2898 121.875C71.2212 121.459 71.2383 121.033 71.3398 120.624L72.2741 116.862L70.4443 95.4111L77.2907 95.6759Z" fill="#DE6767"/>
<path d="M72.1211 126.915L73.1318 126.913L73.127 123.825L75.6907 126.034C76.3585 126.61 77.2111 126.926 78.0925 126.924L81.8367 126.919L78.0682 123.143L76.8551 120.334L74.514 121.913L71.713 119.12L71.3395 120.623C71.2376 121.033 71.2208 121.459 71.2894 121.875L72.1211 126.915Z" fill="#1B2536"/>
<path d="M56.6446 95.6775L53.7771 117.529L50.1934 123.146L45.6436 126.927H49.3878C50.2692 126.927 51.1873 126.61 51.9741 126.033L54.9953 123.819L54.3526 126.908H55.3637L57.2363 121.867C57.3909 121.451 57.4619 121.025 57.4448 120.615L57.287 116.855L63.5483 95.4014L56.6446 95.6775Z" fill="#DE6767"/>
<path d="M55.3637 126.909H54.3526L54.9953 123.82L51.9741 126.034C51.1873 126.61 50.2692 126.927 49.3878 126.927H45.6436L50.1934 123.146L51.9868 120.335L54.0024 121.91L57.3813 119.113L57.4445 120.616C57.4616 121.025 57.3906 121.451 57.2359 121.867L55.3637 126.909Z" fill="#1B2536"/>
<path d="M73.979 39.3927C74.0702 41.2965 75.3759 42.0757 76.7872 43.3814C78.1982 44.6871 78.1711 47.5896 76.682 48.8782C74.8076 50.4997 64.7123 49.5096 63.182 49.3625C60.9918 49.1519 59.3164 47.5982 60.1282 44.8555C60.739 42.7915 64.465 40.7162 64.7264 38.4951L73.979 39.3927Z" fill="#28364F"/>
<path d="M82.9501 57.1128L80.1133 50.6691C79.3214 48.8702 77.7757 47.5127 75.8897 46.9595L72.6915 46.0215H65.6054L62.4072 46.9595C60.5212 47.5127 58.9754 48.8702 58.1835 50.6691L55.3468 57.1128H52.0615L52.6048 61.1111C52.8967 63.2602 54.7319 64.8629 56.9008 64.8629C58.5975 64.8629 60.1381 63.8734 60.8436 62.3307L62.1706 59.4292L63.0551 62.2933L59.5729 70.4649H78.7236L75.2418 62.2937L76.1263 59.4295L77.4533 62.3311C78.1588 63.8737 79.6994 64.8632 81.3961 64.8632C83.565 64.8632 85.4002 63.2605 85.6921 61.1115L86.2354 57.1131L82.9501 57.1128Z" fill="#6E3C3C"/>
<path d="M59.9199 50.958L62.1708 59.4297" stroke="#1B2536" stroke-width="0.6759" stroke-miterlimit="10"/>
<path d="M56.3154 57.3799L59.1518 61.4797" stroke="#1B2536" stroke-width="0.6759" stroke-miterlimit="10"/>
<path d="M78.3772 50.958L76.126 59.4297" stroke="#1B2536" stroke-width="0.6759" stroke-miterlimit="10"/>
<path d="M81.9805 57.3799L79.1445 61.4797" stroke="#1B2536" stroke-width="0.6759" stroke-miterlimit="10"/>
<path d="M65.8486 48.7588H72.4477L69.1483 61.0302L65.8486 48.7588Z" fill="white"/>
<path d="M65.6052 46.0215L69.7754 62.0831L66.0699 57.6104C65.3123 56.6957 65.0681 55.46 65.4214 54.3262L65.8521 52.943L64.6144 51.1472C63.6897 49.8055 63.8094 48.0038 64.9035 46.7963L65.6052 46.0215Z" fill="#D9956A"/>
<path d="M72.6917 46.0215L68.5215 62.0831L72.2269 57.6104C72.9845 56.6957 73.2287 55.46 72.8755 54.3262L72.4447 52.943L73.6825 51.1472C74.6071 49.8055 74.4874 48.0038 73.3934 46.7963L72.6917 46.0215Z" fill="#D9956A"/>
<path d="M71.0905 44.7828L70.9046 42.1035H69.1482H67.3919L67.206 44.7828C67.1768 45.2016 66.9011 45.5624 66.5046 45.7002L65.582 46.0213L66.5403 49.7716H69.1482H71.7562L72.7144 46.0213L71.7918 45.7002C71.3954 45.5624 71.1193 45.2012 71.0905 44.7828Z" fill="#DE6767"/>
<path d="M71.0605 44.3476L70.9048 42.1035H69.1485H67.3921L67.2988 43.4466C67.8946 44.09 68.7455 44.5345 69.8814 44.5345C70.317 44.5345 70.7069 44.4645 71.0605 44.3476Z" fill="#28364F"/>
<path d="M72.815 38.6134C72.8078 36.6941 71.7885 34.9028 70.0942 33.8293L69.1487 33.2305L68.2031 33.8293C66.5088 34.9028 65.4895 36.6941 65.4823 38.6134C65.4806 39.0459 65.4772 39.4735 65.4703 39.8573C65.4405 41.5705 66.5469 43.9009 69.1487 43.9009C71.7504 43.9009 72.8568 41.5701 72.827 39.8573C72.8202 39.4735 72.8164 39.0459 72.815 38.6134Z" fill="#DE6767"/>
<path d="M68.0874 40.8616C68.0874 41.2495 67.7729 41.564 67.385 41.564C66.9971 41.564 66.6826 41.2495 66.6826 40.8616C66.6826 40.4737 66.9971 40.1592 67.385 40.1592C67.7729 40.1592 68.0874 40.4737 68.0874 40.8616Z" fill="#D65353"/>
<path d="M70.9124 41.564C71.3003 41.564 71.6148 41.2495 71.6148 40.8616C71.6148 40.4737 71.3003 40.1592 70.9124 40.1592C70.5244 40.1592 70.21 40.4737 70.21 40.8616C70.21 41.2495 70.5244 41.564 70.9124 41.564Z" fill="#D65353"/>
<path d="M65.6523 38.706C65.6523 38.706 67.7022 37.0632 67.969 35.0836C67.969 35.0836 70.2014 38.5349 73.0659 39.3927H73.9786C73.9786 39.3927 74.2032 32.6396 68.9801 32.6406C65.75 32.6413 64.5153 36.6842 64.7259 38.4955L65.6523 38.706Z" fill="#28364F"/>
<path d="M65.9491 38.8838C66.4681 39.5581 66.4485 40.4433 65.9059 40.861C65.363 41.2787 64.5022 41.0712 63.9832 40.397C63.4643 39.7227 63.4839 38.8375 64.0265 38.4197C64.5694 38.002 65.4302 38.2095 65.9491 38.8838Z" fill="#DE6767"/>
<path d="M64.1855 39.1419C64.1855 39.1419 65.1685 38.3977 65.8284 40.0124" stroke="#6E3C3C" stroke-width="0.5" stroke-miterlimit="10"/>
<path d="M64.8311 39.8158L64.9658 38.9707" stroke="#6E3C3C" stroke-width="0.5" stroke-miterlimit="10"/>
<path d="M72.3465 38.8838C71.8276 39.5581 71.8471 40.4433 72.39 40.861C72.933 41.2787 73.7938 41.0712 74.3127 40.397C74.8316 39.7227 74.8121 38.8375 74.2695 38.4197C73.7263 38.002 72.8654 38.2095 72.3465 38.8838Z" fill="#DE6767"/>
<path d="M74.1096 39.1419C74.1096 39.1419 73.1267 38.3977 72.4668 40.0124" stroke="#6E3C3C" stroke-width="0.5" stroke-miterlimit="10"/>
<path d="M73.4639 39.8158L73.3291 38.9707" stroke="#6E3C3C" stroke-width="0.5" stroke-miterlimit="10"/>
<path d="M67.6048 38.7842C67.3294 38.7842 67.1064 39.0075 67.1064 39.2825C67.1064 39.3309 67.1157 39.3768 67.1284 39.4211L67.4786 39.3525L67.268 39.6478C67.3568 39.7297 67.4745 39.7808 67.6048 39.7808C67.8802 39.7808 68.1031 39.5576 68.1031 39.2825C68.1031 39.0075 67.8798 38.7842 67.6048 38.7842Z" fill="#28364F"/>
<path d="M70.6936 38.7842C70.9691 38.7842 71.192 39.0075 71.192 39.2825C71.192 39.3309 71.1831 39.3768 71.17 39.4211L70.8199 39.3525L71.0304 39.6478C70.9416 39.7297 70.824 39.7808 70.6936 39.7808C70.4182 39.7808 70.1953 39.5576 70.1953 39.2825C70.1953 39.0075 70.4182 38.7842 70.6936 38.7842Z" fill="#28364F"/>
<path d="M66.835 38.4532C66.835 38.4532 67.6632 37.9477 68.3231 38.4532" stroke="#28364F" stroke-miterlimit="10"/>
<path d="M71.4608 38.4532C71.4608 38.4532 70.6325 37.9477 69.9727 38.4532" stroke="#28364F" stroke-miterlimit="10"/>
<path d="M69.1548 38.6924L69.4974 40.363H68.8125" stroke="#6E3C3C" stroke-width="0.5" stroke-miterlimit="10"/>
<path d="M67.9443 41.0225H70.353C70.353 41.0225 70.1507 42.5387 69.1488 42.5387C68.147 42.5387 67.9443 41.0225 67.9443 41.0225Z" fill="#6E3C3C"/>
<path d="M69.1482 41.6855C68.7935 41.6855 68.4729 41.773 68.2383 41.9136C68.4204 42.2436 68.7064 42.5385 69.1482 42.5385C69.5903 42.5385 69.8763 42.2432 70.0581 41.9136C69.8235 41.773 69.5028 41.6855 69.1482 41.6855Z" fill="#943232"/>
<path d="M78.7237 70.4658L77.2517 96.4969C74.3436 97.4236 70.4684 96.5068 66.3404 96.8388C62.2124 97.1708 59.2639 97.6763 56.3154 97.4236L59.573 70.4658H78.7237Z" fill="#6E3C3C"/>
<path d="M56.9424 92.2389L77.6063 90.2311L78.0254 82.8213H58.0804L56.9424 92.2389Z" fill="#1B2536"/>
<path d="M92.3256 89.0194H49.2452C47.591 89.0194 46.25 87.6784 46.25 86.0239V59.584C46.25 57.9299 47.591 56.5889 49.2452 56.5889H92.3256C93.9797 56.5889 95.3207 57.9299 95.3207 59.584V86.0239C95.3207 87.6784 93.9797 89.0194 92.3256 89.0194Z" fill="#4A75C9"/>
<path d="M55.2867 79.0605H52.2744V82.8219H55.2867V79.0605Z" fill="#BEDCE0"/>
<path d="M62.0885 74.4082H59.0762V82.8216H62.0885V74.4082Z" fill="#BEDCE0"/>
<path d="M68.8902 70.9766H65.8779V82.8217H68.8902V70.9766Z" fill="#BEDCE0"/>
<path d="M75.692 69.0713H72.6797V82.8216H75.692V69.0713Z" fill="#BEDCE0"/>
<path d="M82.4937 64.3057H79.4814V82.8216H82.4937V64.3057Z" fill="#BEDCE0"/>
<path d="M89.2965 72.6787H86.2842V82.822H89.2965V72.6787Z" fill="#BEDCE0"/>
<path d="M55.2867 70.7832H52.2744V82.8221H55.2867V70.7832Z" stroke="#28364F" stroke-width="0.5971" stroke-miterlimit="10"/>
<path d="M62.0885 72.6787H59.0762V82.822H62.0885V72.6787Z" stroke="#28364F" stroke-width="0.5481" stroke-miterlimit="10"/>
<path d="M68.8902 65.9951H65.8779V82.8219H68.8902V65.9951Z" stroke="#28364F" stroke-width="0.7059" stroke-miterlimit="10"/>
<path d="M75.692 64.5488H72.6797V82.8216H75.692V64.5488Z" stroke="#28364F" stroke-width="0.7356" stroke-miterlimit="10"/>
<path d="M82.4937 61.4463H79.4814V82.8219H82.4937V61.4463Z" stroke="#28364F" stroke-width="0.7956" stroke-miterlimit="10"/>
<path d="M89.2965 67.752H86.2842V82.8217H89.2965V67.752Z" stroke="#28364F" stroke-width="0.6681" stroke-miterlimit="10"/>
<path d="M49.2402 82.8223H92.3306" stroke="#28364F" stroke-width="0.5481" stroke-miterlimit="10"/>
<path d="M185.366 102.212L189.747 126.926H187.112L180.564 102.212H185.366Z" fill="#BEDCE0"/>
<path d="M181.191 104.575L186.276 107.345L185.366 102.212H180.564L181.191 104.575Z" fill="#A4CACF"/>
<path d="M176.185 102.212L180.565 126.926H177.931L171.383 102.212H176.185Z" fill="#BEDCE0"/>
<path d="M172.009 104.575L177.094 107.345L176.185 102.212H171.383L172.009 104.575Z" fill="#A4CACF"/>
<path d="M152.091 102.212L147.71 126.926H150.345L156.893 102.212H152.091Z" fill="#BEDCE0"/>
<path d="M156.266 104.575L151.181 107.345L152.091 102.212H156.892L156.266 104.575Z" fill="#A4CACF"/>
<path d="M161.273 102.212L156.893 126.926H159.527L166.075 102.212H161.273Z" fill="#BEDCE0"/>
<path d="M165.449 104.575L160.363 107.345L161.273 102.212H166.075L165.449 104.575Z" fill="#A4CACF"/>
<path d="M162.284 99.8656H184.974L192.514 70.5441C192.706 69.7974 192.142 69.0703 191.371 69.0703H171.118C170.579 69.0703 170.109 69.4349 169.975 69.9562L162.284 99.8656Z" fill="#BEDCE0"/>
<path d="M187.847 88.6924L163.999 93.1963L162.284 99.8653H184.974L187.847 88.6924Z" fill="#A4CACF"/>
<path d="M150.329 102.213H187.113C187.113 98.451 184.063 95.4014 180.302 95.4014H157.14C153.378 95.4014 150.329 98.4507 150.329 102.213Z" fill="#BEDCE0"/>
<path d="M31.2861 126.908H199.519" stroke="#28364F" stroke-width="1.3993" stroke-miterlimit="10"/>
<path d="M174.32 118.38L174.241 122.154C174.233 122.555 174.3 122.954 174.44 123.33L175.321 125.697C175.54 126.285 175.106 126.91 174.479 126.91H165.42C164.889 126.91 164.681 126.22 165.124 125.926L169.144 123.257C169.716 122.878 170.045 122.225 170.011 121.54L169.855 118.38H174.32V118.38Z" fill="#946351"/>
<path d="M169.592 122.839C169.466 122.998 169.318 123.141 169.144 123.256L165.124 125.926C164.681 126.22 164.889 126.909 165.42 126.909H174.479C175.106 126.909 175.54 126.284 175.321 125.696L174.669 123.943L172.375 124.309C171.758 124.407 171.15 124.157 170.74 123.686C170.382 123.275 169.928 123.002 169.592 122.839Z" fill="#28364F"/>
<path d="M162.041 116.646L162.828 120.338C162.912 120.73 163.069 121.103 163.291 121.437L164.69 123.541C165.037 124.062 164.757 124.77 164.147 124.914L155.329 126.986C154.811 127.107 154.451 126.484 154.815 126.096L158.118 122.578C158.588 122.078 158.759 121.367 158.57 120.708L157.695 117.668L162.041 116.646Z" fill="#946351"/>
<path d="M158.458 122.068C158.372 122.252 158.261 122.425 158.118 122.577L154.815 126.095C154.451 126.483 154.811 127.106 155.329 126.985L164.147 124.913C164.757 124.77 165.037 124.062 164.69 123.54L163.654 121.982L161.504 122.863C160.926 123.1 160.278 122.996 159.771 122.631C159.328 122.312 158.823 122.15 158.458 122.068Z" fill="#28364F"/>
<path d="M168.752 37.4242C168.748 37.3628 170.487 35.0001 170.908 33.7366C171.329 32.4731 170.387 31.757 168.752 31.9254C168.752 31.9254 169.413 29.7774 167.412 29.8192C165.411 29.8614 164.8 30.3025 163.748 29.8185C162.695 29.3346 161.22 29.7561 160.989 30.9565C160.757 32.1569 162.132 34.3159 163.242 35.4844C164.843 37.1694 168.752 37.4242 168.752 37.4242Z" fill="#1B2536"/>
<path d="M160.666 65.2997H171.913L170.104 41.8652H163.674L160.666 65.2997Z" fill="#D4B5A5"/>
<path d="M154.973 46.537L147.524 56.7627L139.661 58.7845V66.7033L146.696 65.0265C149.177 64.4352 151.428 63.1251 153.168 61.26L158.307 55.7516L161.532 42.7764L159.687 43.2819C157.792 43.8012 156.129 44.9491 154.973 46.537Z" fill="#415780"/>
<path d="M146.547 57.0137L145.673 65.2991L142.303 66.0736L143.144 57.8889L146.547 57.0137Z" fill="#28364F"/>
<path d="M153.168 61.2607L157.931 56.1549L157.352 48.6758L151.768 62.5554C152.263 62.1603 152.732 61.7282 153.168 61.2607Z" fill="#28364F"/>
<path d="M175.942 66.7031L175.183 119.158H168.002L166.11 74.9306H164.737L160.272 93.8012L162.963 116.449L156.06 118.063L151.592 99.0774C150.778 95.6199 150.853 92.0129 151.81 88.5921L157.931 66.7031H175.942Z" fill="#415780"/>
<path d="M154.931 77.3667L164.54 75.7088L164.737 74.8816H166.11L166.133 75.4341L175.839 73.7594L175.941 66.7031H157.931L154.931 77.3667Z" fill="#28364F"/>
<path d="M174.228 70.2295L173.674 119.159" stroke="#1B2536" stroke-width="0.6175" stroke-miterlimit="10"/>
<path d="M163.083 74.3291L158.419 93.4373L161.701 116.746" stroke="#1B2536" stroke-width="0.6175" stroke-miterlimit="10"/>
<path d="M166.11 66.5703V74.9312" stroke="#1B2536" stroke-width="0.6175" stroke-miterlimit="10"/>
<path d="M164.506 66.9072V70.2004C164.506 71.2773 165.08 72.2726 166.013 72.8111L166.11 72.867" stroke="#1B2536" stroke-width="0.6175" stroke-miterlimit="10"/>
<path d="M161.389 74.426L168.718 74.0049" stroke="#1B2536" stroke-width="0.6175" stroke-miterlimit="10"/>
<path d="M173.274 65.2988H158.945V67.3206H173.274V65.2988Z" fill="#6E4C2E"/>
<path d="M167.021 65.2988H163.594V67.3206H167.021V65.2988Z" fill="#1B2536"/>
<path d="M167.622 32.8096C167.622 32.8096 166.759 35.2738 168.654 36.053L168.97 40.4969L165.895 42.3503L164.358 41.213V39.8861C164.358 39.8861 161.746 39.3596 162.778 35.4844L162.694 33.6522C162.694 33.6522 165.727 34.0734 167.622 32.8096Z" fill="#946351"/>
<path d="M170.408 37.188C169.991 37.9614 169.093 38.2862 168.402 37.9141C167.71 37.542 167.488 36.6132 167.904 35.8402C168.32 35.0668 169.218 34.742 169.91 35.1141C170.601 35.4862 170.824 36.415 170.408 37.188Z" fill="#946351"/>
<path d="M168.292 37.1039C168.102 35.9244 169.503 34.924 170.103 36.0612" stroke="#422424" stroke-width="0.655" stroke-miterlimit="10"/>
<path d="M169.384 36.6162L168.854 35.7471" stroke="#422424" stroke-width="0.655" stroke-miterlimit="10"/>
<path d="M164.52 39.9351C165.369 40.1878 166.731 40.1107 167.693 39.3174" stroke="#422424" stroke-width="0.655" stroke-miterlimit="10"/>
<path d="M169.396 41.3135L168.007 68.9414C167.893 71.207 169.699 73.1061 171.968 73.1061H177.963L175.885 64.4008L178.223 50.0602C178.572 47.917 177.534 45.7861 175.631 44.7404L169.396 41.3135Z" fill="#415780"/>
<path d="M173.695 53.6172L175.942 63.7194L176.77 58.6393L173.695 53.6172Z" fill="#28364F"/>
<path d="M163.698 42.1826L162.018 69.3846C161.889 71.476 160.155 73.1058 158.06 73.1058H154.6L157.632 62.7721L156.975 48.6987C156.849 46.0012 158.61 43.5768 161.215 42.8634L163.698 42.1826Z" fill="#415780"/>
<path d="M162.537 42.9609L161.694 44.0259C160.702 45.2791 160.414 46.9497 160.928 48.4629L161.578 50.3746L160.469 52.5023C159.86 53.6698 159.768 55.0383 160.215 56.2767L161.915 60.9891" stroke="#28364F" stroke-width="0.655" stroke-miterlimit="10"/>
<path d="M170.129 42.5762L170.84 43.8356C171.536 45.0678 171.641 46.5474 171.126 47.8654L170.129 50.4158L171.011 51.9036C171.804 53.2394 171.886 54.8802 171.232 56.2888L168.971 61.1565" stroke="#28364F" stroke-width="0.655" stroke-miterlimit="10"/>
<path d="M156.903 47.2158L157.353 56.7751" stroke="#1B2536" stroke-width="0.6175" stroke-miterlimit="10"/>
<path d="M160.654 65.948L156.888 67.5303L157.219 68.3198L160.986 66.7375L160.654 65.948Z" fill="white"/>
<path d="M173.959 67.5188L170.192 65.9365L169.861 66.726L173.627 68.3083L173.959 67.5188Z" fill="white"/>
<path d="M165.106 43.7345L165.896 42.3506L166.865 43.7345L166.549 44.7936L167.496 60.6943L165.559 63.98L163.698 60.6943L165.453 44.7936L165.106 43.7345Z" fill="white"/>
<path d="M182.168 81.0732H181.172C179.892 81.0732 178.672 81.61 177.807 82.5531L174.812 85.8189H188.529L185.534 82.5531C184.669 81.61 183.448 81.0732 182.168 81.0732Z" stroke="#D65353" stroke-width="2" stroke-miterlimit="10"/>
<path d="M191.835 84.9482H171.505V91.9122H191.835V84.9482Z" fill="#D65353"/>
<path d="M191.835 91.9121H171.505V99.5494H191.835V91.9121Z" fill="#1B2536"/>
<path d="M188.346 90.2002H186.998V96.5606H188.346V90.2002Z" stroke="white" stroke-width="0.655" stroke-miterlimit="10"/>
<path d="M176.341 90.2002H174.993V96.5606H176.341V90.2002Z" stroke="white" stroke-width="0.655" stroke-miterlimit="10"/>
<path d="M163.847 35.4398L164.15 35.5307C164.161 35.4933 164.169 35.4545 164.169 35.4134C164.169 35.1808 163.98 34.9922 163.747 34.9922C163.515 34.9922 163.326 35.1808 163.326 35.4134C163.326 35.6459 163.515 35.8345 163.747 35.8345C163.878 35.8345 163.993 35.7742 164.07 35.6812L163.847 35.4398Z" fill="#1B2536"/>
<path d="M166.029 35.4398L166.332 35.5307C166.343 35.4933 166.35 35.4545 166.35 35.4134C166.35 35.1808 166.162 34.9922 165.929 34.9922C165.696 34.9922 165.508 35.1808 165.508 35.4134C165.508 35.6459 165.696 35.8345 165.929 35.8345C166.059 35.8345 166.174 35.7742 166.251 35.6812L166.029 35.4398Z" fill="#1B2536"/>
<path d="M164.597 34.8242L164.703 35.4913L164.529 36.3278C164.473 36.5933 164.676 36.8422 164.947 36.8422H165.508" stroke="#422424" stroke-width="0.655" stroke-miterlimit="10"/>
<path d="M164.373 37.4029C164.373 37.4029 165.254 37.7305 166.189 37.1035" stroke="#422424" stroke-width="0.655" stroke-miterlimit="10"/>
<path d="M165.149 34.3777C165.149 34.3777 165.865 34.2244 166.478 34.3777" stroke="#1B2536" stroke-miterlimit="10"/>
<path d="M163.083 34.3777C163.083 34.3777 163.799 34.2244 164.412 34.3777" stroke="#1B2536" stroke-miterlimit="10"/>
<path d="M165.896 42.35L169.321 40.2812L170.386 41.6555L167.11 44.0841L165.896 42.35Z" fill="#B3988B"/>
<path d="M165.896 42.3508L164.832 44.2145L162.958 42.3508L163.937 40.9395L165.896 42.3508Z" fill="#B3988B"/>
<path d="M180.09 77.7321L180.169 78.6516L179.488 80.1247C179.327 80.4725 179.581 80.87 179.964 80.87L179.891 81.6008C179.841 82.1108 180.241 82.5533 180.754 82.5533H183.062C183.593 82.5533 183.999 82.08 183.919 81.5549L183.481 78.7003L183.523 77.7314H180.09V77.7321Z" fill="#946351"/>
<path d="M179.936 49.2735L184.552 60.6636C185.354 62.6422 185.693 64.7778 185.545 66.9077L184.759 78.2167H179.087L178.806 66.2543L173.695 53.6179L175.144 44.4727L176.169 45.0362C177.875 45.9735 179.205 47.4699 179.936 49.2735Z" fill="#415780"/>
<path d="M144.939 90.1986H92.0762V56.4659C92.0762 54.8117 93.4172 53.4707 95.0713 53.4707H141.944C143.598 53.4707 144.939 54.8117 144.939 56.4659V90.1986Z" fill="#415780"/>
<path d="M141.944 126.927H95.0713C93.4172 126.927 92.0762 125.586 92.0762 123.932V90.1992H144.939V123.932C144.939 125.586 143.598 126.927 141.944 126.927Z" fill="#6E9296"/>
<path d="M104.853 69.5576H96.3779V85.9409H109.242V73.9459L104.853 69.5576Z" fill="#1B2536"/>
<path d="M104.226 68.9082H95.751V85.2919H108.615V73.2965L104.226 68.9082Z" fill="white"/>
<path d="M104.227 68.9082V73.2965H108.615L104.227 68.9082Z" fill="#D9B59E"/>
<path d="M101.434 72.543H97.3477V73.2961H101.434V72.543Z" fill="#415780"/>
<path d="M107.019 74.5146H97.3486V74.8912H107.019V74.5146Z" fill="#415780"/>
<path d="M107.019 75.8457H97.3486V76.2223H107.019V75.8457Z" fill="#415780"/>
<path d="M107.019 77.1777H97.3486V77.5543H107.019V77.1777Z" fill="#415780"/>
<path d="M107.019 78.5088H97.3486V78.8854H107.019V78.5088Z" fill="#415780"/>
<path d="M107.019 79.8398H97.3486V80.2164H107.019V79.8398Z" fill="#415780"/>
<path d="M101.435 81.1719H97.3486V81.5485H101.435V81.1719Z" fill="#415780"/>
<path d="M120.866 69.5576H112.391V85.9409H125.255V73.9459L120.866 69.5576Z" fill="#1B2536"/>
<path d="M120.239 68.9082H111.764V85.2919H124.628V73.2965L120.239 68.9082Z" fill="white"/>
<path d="M120.239 68.9082V73.2965H124.628L120.239 68.9082Z" fill="#D9B59E"/>
<path d="M117.447 72.543H113.36V73.2961H117.447V72.543Z" fill="#415780"/>
<path d="M123.03 74.5146H113.36V74.8912H123.03V74.5146Z" fill="#415780"/>
<path d="M123.03 75.8457H113.36V76.2223H123.03V75.8457Z" fill="#415780"/>
<path d="M123.03 77.1777H113.36V77.5543H123.03V77.1777Z" fill="#415780"/>
<path d="M123.03 78.5088H113.36V78.8854H123.03V78.5088Z" fill="#415780"/>
<path d="M123.03 79.8398H113.36V80.2164H123.03V79.8398Z" fill="#415780"/>
<path d="M117.447 81.1719H113.36V81.5485H117.447V81.1719Z" fill="#415780"/>
<path d="M136.878 69.5576H128.402V85.9409H141.266V73.9459L136.878 69.5576Z" fill="#1B2536"/>
<path d="M136.251 68.9082H127.775V85.2919H140.639V73.2965L136.251 68.9082Z" fill="white"/>
<path d="M136.251 68.9082V73.2965H140.639L136.251 68.9082Z" fill="#D9B59E"/>
<path d="M133.46 72.543H129.373V73.2961H133.46V72.543Z" fill="#415780"/>
<path d="M139.042 74.5146H129.372V74.8912H139.042V74.5146Z" fill="#415780"/>
<path d="M139.042 75.8457H129.372V76.2223H139.042V75.8457Z" fill="#415780"/>
<path d="M139.042 77.1777H129.372V77.5543H139.042V77.1777Z" fill="#415780"/>
<path d="M139.042 78.5088H129.372V78.8854H139.042V78.5088Z" fill="#415780"/>
<path d="M139.042 79.8398H129.372V80.2164H139.042V79.8398Z" fill="#415780"/>
<path d="M133.459 81.1719H129.372V81.5485H133.459V81.1719Z" fill="#415780"/>
<path d="M139.551 102.981H98.5547C97.6078 102.981 96.8398 102.213 96.8398 101.266V97.0234C96.8398 96.0765 97.6078 95.3086 98.5547 95.3086H139.551C140.498 95.3086 141.266 96.0765 141.266 97.0234V101.266C141.266 102.213 140.498 102.981 139.551 102.981Z" fill="#496163"/>
<path d="M139.006 102.212H98.0098C97.0625 102.212 96.2949 101.445 96.2949 100.497V96.2549C96.2949 95.3079 97.0625 94.54 98.0098 94.54H139.006C139.953 94.54 140.721 95.3079 140.721 96.2549V100.497C140.721 101.444 139.953 102.212 139.006 102.212Z" fill="white"/>
<path d="M103.509 100.847C104.875 100.249 105.497 98.6567 104.899 97.291C104.301 95.9254 102.709 95.3032 101.343 95.9013C99.9772 96.4995 99.355 98.0915 99.9532 99.4571C100.551 100.823 102.143 101.445 103.509 100.847Z" fill="#D9B59E"/>
<path d="M106.873 96.8389H137.292" stroke="#28364F" stroke-width="0.75" stroke-miterlimit="10" stroke-linecap="round" stroke-linejoin="round"/>
<path d="M106.873 98.377H137.292" stroke="#28364F" stroke-width="0.75" stroke-miterlimit="10" stroke-linecap="round" stroke-linejoin="round"/>
<path d="M106.873 99.915H137.292" stroke="#28364F" stroke-width="0.75" stroke-miterlimit="10" stroke-linecap="round" stroke-linejoin="round"/>
<path d="M139.55 112.784H98.5537C97.6068 112.784 96.8389 112.016 96.8389 111.069V106.826C96.8389 105.879 97.6068 105.111 98.5537 105.111H139.55C140.497 105.111 141.265 105.879 141.265 106.826V111.069C141.265 112.016 140.497 112.784 139.55 112.784Z" fill="#496163"/>
<path d="M139.006 112.015H98.0098C97.0625 112.015 96.2949 111.247 96.2949 110.3V106.058C96.2949 105.111 97.0625 104.343 98.0098 104.343H139.006C139.953 104.343 140.721 105.111 140.721 106.058V110.3C140.721 111.247 139.953 112.015 139.006 112.015Z" fill="white"/>
<path d="M103.509 110.65C104.875 110.051 105.497 108.459 104.899 107.094C104.301 105.728 102.709 105.106 101.343 105.704C99.9772 106.302 99.355 107.894 99.9532 109.26C100.551 110.626 102.143 111.248 103.509 110.65Z" fill="#D9B59E"/>
<path d="M106.873 106.642H137.292" stroke="#28364F" stroke-width="0.75" stroke-miterlimit="10" stroke-linecap="round" stroke-linejoin="round"/>
<path d="M106.873 108.18H137.292" stroke="#28364F" stroke-width="0.75" stroke-miterlimit="10" stroke-linecap="round" stroke-linejoin="round"/>
<path d="M106.873 109.718H137.292" stroke="#28364F" stroke-width="0.75" stroke-miterlimit="10" stroke-linecap="round" stroke-linejoin="round"/>
<path d="M139.55 122.585H98.5537C97.6068 122.585 96.8389 121.817 96.8389 120.87V116.628C96.8389 115.681 97.6068 114.913 98.5537 114.913H139.55C140.497 114.913 141.265 115.681 141.265 116.628V120.87C141.265 121.817 140.497 122.585 139.55 122.585Z" fill="#496163"/>
<path d="M139.006 121.817H98.0098C97.0625 121.817 96.2949 121.049 96.2949 120.102V115.859C96.2949 114.912 97.0625 114.145 98.0098 114.145H139.006C139.953 114.145 140.721 114.912 140.721 115.859V120.102C140.721 121.049 139.953 121.817 139.006 121.817Z" fill="white"/>
<path d="M103.509 120.45C104.875 119.852 105.497 118.26 104.899 116.895C104.301 115.529 102.709 114.907 101.343 115.505C99.9772 116.103 99.355 117.695 99.9532 119.061C100.551 120.426 102.143 121.049 103.509 120.45Z" fill="#D9B59E"/>
<path d="M106.872 116.442H137.291" stroke="#28364F" stroke-width="0.75" stroke-miterlimit="10" stroke-linecap="round" stroke-linejoin="round"/>
<path d="M106.872 117.98H137.291" stroke="#28364F" stroke-width="0.75" stroke-miterlimit="10" stroke-linecap="round" stroke-linejoin="round"/>
<path d="M106.872 119.519H137.291" stroke="#28364F" stroke-width="0.75" stroke-miterlimit="10" stroke-linecap="round" stroke-linejoin="round"/>
<path d="M147.281 101.298H133.34C132.467 101.298 131.76 100.591 131.76 99.7183V89.9892C131.76 89.1167 132.467 88.4092 133.34 88.4092H147.281C148.153 88.4092 148.861 89.1167 148.861 89.9892V99.7183C148.861 100.591 148.154 101.298 147.281 101.298Z" fill="#D65353"/>
<path d="M147.261 89.8916H133.36V99.4111H147.261V89.8916Z" fill="white"/>
<path d="M139.313 91.2109H146.053" stroke="#415780" stroke-width="0.8713" stroke-miterlimit="10"/>
<path d="M139.313 92.5029H146.053" stroke="#415780" stroke-width="0.8713" stroke-miterlimit="10"/>
<path d="M138.125 93.9836L137.478 91.8174C137.278 91.1493 136.664 90.6914 135.966 90.6914H130.024C129.233 90.6914 128.783 91.3331 129.019 92.1247L131.332 99.8648C131.568 100.656 132.402 101.298 133.193 101.298H147.428C148.219 101.298 148.669 100.656 148.433 99.8648L147.012 95.1089C146.813 94.4408 146.198 93.9829 145.501 93.9829H138.125V93.9836Z" fill="#EBBC3B"/>
<path d="M194.175 23.9629H178.936C177.282 23.9629 175.941 25.3039 175.941 26.958V32.3108C175.941 32.4908 175.856 32.6599 175.711 32.7666L172.676 34.9983C172.434 35.1763 172.56 35.5604 172.861 35.5604H175.375C175.688 35.5604 175.941 35.8139 175.941 36.1263V39.5804C175.941 41.2345 177.282 42.5755 178.936 42.5755H194.175C195.829 42.5755 197.17 41.2345 197.17 39.5804V26.9584C197.17 25.3039 195.829 23.9629 194.175 23.9629Z" stroke="#BEDCE0" stroke-width="1.1437" stroke-miterlimit="10"/>
<path d="M190.516 27.9777L192.074 29.5361L194.236 27.374" stroke="#4A75C9" stroke-width="1.144" stroke-miterlimit="10" stroke-linecap="round" stroke-linejoin="round"/>
<path d="M188.662 29.3936H179.255C178.914 29.3936 178.638 29.1171 178.638 28.7759C178.638 28.4346 178.914 28.1582 179.255 28.1582H188.662C189.004 28.1582 189.28 28.4346 189.28 28.7759C189.28 29.1168 189.004 29.3936 188.662 29.3936Z" fill="#EBBC3B"/>
<path d="M190.516 32.7915L192.074 34.3499L194.236 32.1875" stroke="#4A75C9" stroke-width="1.144" stroke-miterlimit="10" stroke-linecap="round" stroke-linejoin="round"/>
<path d="M188.662 34.2071H179.255C178.914 34.2071 178.638 33.9303 178.638 33.5894C178.638 33.2481 178.914 32.9717 179.255 32.9717H188.662C189.004 32.9717 189.28 33.2481 189.28 33.5894C189.28 33.9306 189.004 34.2071 188.662 34.2071Z" fill="#EBBC3B"/>
<path d="M190.516 37.6056L192.074 39.1644L194.236 37.002" stroke="#4A75C9" stroke-width="1.144" stroke-miterlimit="10" stroke-linecap="round" stroke-linejoin="round"/>
<path d="M188.662 39.0215H179.255C178.914 39.0215 178.638 38.7451 178.638 38.4038C178.638 38.0626 178.914 37.7861 179.255 37.7861H188.662C189.004 37.7861 189.28 38.0626 189.28 38.4038C189.28 38.7451 189.004 39.0215 188.662 39.0215Z" fill="#EBBC3B"/>
<path d="M148.252 22.5033H173.194C174.09 22.5033 174.817 21.7766 174.817 20.8801V16.9397C174.817 10.6496 169.426 6.04424 164.108 11.2673C159.541 6.88657 154.149 11.0989 154.149 15.1988C150.481 13.9586 147.333 16.1423 146.649 20.615C146.498 21.6051 147.25 22.5033 148.252 22.5033Z" fill="#BEDCE0"/>
<path d="M139.151 64.7351H92.2784C90.6242 64.7351 89.2832 63.3941 89.2832 61.74V31.0023C89.2832 29.3482 90.6242 28.0068 92.2784 28.0068H139.151C140.805 28.0068 142.146 29.3478 142.146 31.0023V61.74C142.146 63.3938 140.805 64.7351 139.151 64.7351Z" fill="#EBBC3B"/>
<path d="M106.196 59.6735C113.542 59.6735 119.498 53.7179 119.498 46.3714C119.498 39.0249 113.542 33.0693 106.196 33.0693C98.8491 33.0693 92.8936 39.0249 92.8936 46.3714C92.8936 53.7179 98.8491 59.6735 106.196 59.6735Z" fill="white"/>
<path d="M119.255 43.8458C118.075 37.7073 112.678 33.0693 106.195 33.0693V46.3714L119.255 43.8458Z" fill="#D65353"/>
<path d="M119.497 46.3713C119.497 45.5074 119.412 44.6637 119.255 43.8457L106.195 46.3713L107.505 59.6086C114.237 58.9508 119.497 53.276 119.497 46.3713Z" fill="#4A75C9"/>
<path d="M106.195 46.371L93.6419 41.9707C93.159 43.3484 92.8936 44.8283 92.8936 46.371C92.8936 53.7174 98.8492 59.6731 106.196 59.6731C106.638 59.6731 107.074 59.6504 107.505 59.6083L106.195 46.371Z" fill="#6E9296"/>
<path d="M93.6426 41.9713L106.196 46.3716L95.9117 37.9355C94.9345 39.1253 94.1622 40.489 93.6426 41.9713Z" fill="#415780"/>
<path d="M124.228 37.4385C124.228 38.2373 123.58 38.8848 122.781 38.8848C121.982 38.8848 121.335 38.2373 121.335 37.4385C121.335 36.6397 121.982 35.9922 122.781 35.9922C123.58 35.9922 124.228 36.6397 124.228 37.4385Z" fill="#D65353"/>
<path d="M125.167 37.4385H136.333" stroke="white" stroke-width="0.8416" stroke-miterlimit="10"/>
<path d="M124.228 41.9043C124.228 42.7031 123.58 43.3503 122.781 43.3503C121.982 43.3503 121.335 42.7027 121.335 41.9043C121.335 41.1055 121.982 40.458 122.781 40.458C123.58 40.458 124.228 41.1055 124.228 41.9043Z" fill="#4A75C9"/>
<path d="M125.167 41.9043H136.333" stroke="white" stroke-width="0.8416" stroke-miterlimit="10"/>
<path d="M124.228 46.3701C124.228 47.1689 123.58 47.8161 122.781 47.8161C121.982 47.8161 121.335 47.1686 121.335 46.3701C121.335 45.5714 121.982 44.9238 122.781 44.9238C123.58 44.9242 124.228 45.5714 124.228 46.3701Z" fill="#6E9296"/>
<path d="M125.167 46.3701H136.333" stroke="white" stroke-width="0.8416" stroke-miterlimit="10"/>
<path d="M124.228 50.8369C124.228 51.6357 123.58 52.2829 122.781 52.2829C121.982 52.2829 121.335 51.6354 121.335 50.8369C121.335 50.0381 121.982 49.3906 122.781 49.3906C123.58 49.3906 124.228 50.0381 124.228 50.8369Z" fill="#415780"/>
<path d="M125.167 50.8369H136.333" stroke="white" stroke-width="0.8416" stroke-miterlimit="10"/>
<path d="M124.228 55.3027C124.228 56.1015 123.58 56.7491 122.781 56.7491C121.982 56.7491 121.335 56.1015 121.335 55.3027C121.335 54.504 121.982 53.8564 122.781 53.8564C123.58 53.8564 124.228 54.504 124.228 55.3027Z" fill="white"/>
<path d="M125.167 55.3027H136.333" stroke="white" stroke-width="0.8416" stroke-miterlimit="10"/>
<path d="M51.9809 55.1563L55.1469 54.9341C55.4627 54.9118 55.7395 55.1437 55.7731 55.4585L55.9871 57.4649C56.0314 57.8809 55.7056 58.2434 55.2871 58.2434H52.4964C52.1462 58.2434 51.8492 57.9858 51.7995 57.6391L51.5254 55.7198C51.4853 55.4352 51.6945 55.1762 51.9809 55.1563Z" fill="#DE6767"/>
<path d="M52.3369 55.5889L52.8517 58.2431" stroke="#6E3C3C" stroke-width="0.5" stroke-miterlimit="10"/>
<path d="M53.4473 55.5889L53.9624 58.2431" stroke="#6E3C3C" stroke-width="0.5" stroke-miterlimit="10"/>
<path d="M54.5586 55.5889L55.0734 58.2431" stroke="#6E3C3C" stroke-width="0.5" stroke-miterlimit="10"/>
<path d="M86.3149 55.1563L83.149 54.9341C82.8331 54.9118 82.5563 55.1437 82.5227 55.4585L82.3087 57.4649C82.2645 57.8809 82.5903 58.2434 83.0087 58.2434H85.7995C86.1496 58.2434 86.4466 57.9858 86.4964 57.6391L86.7704 55.7198C86.8105 55.4352 86.6013 55.1762 86.3149 55.1563Z" fill="#DE6767"/>
<path d="M85.9591 55.5889L85.4443 58.2431" stroke="#6E3C3C" stroke-width="0.5" stroke-miterlimit="10"/>
<path d="M84.8488 55.5889L84.334 58.2431" stroke="#6E3C3C" stroke-width="0.5" stroke-miterlimit="10"/>
<path d="M83.7378 55.5889L83.2227 58.2431" stroke="#6E3C3C" stroke-width="0.5" stroke-miterlimit="10"/>
<path d="M142.395 30.0662L140.528 31.9326L150.695 42.099L152.561 40.2326L142.395 30.0662Z" fill="#4A75C9"/>
<path d="M140.529 31.9319L141.546 32.9484C142.35 32.5945 143.104 32.0907 143.762 31.4318L142.396 30.0654L140.529 31.9319Z" fill="#1B2536"/>
<path d="M146.153 33.826L144.287 35.6924L150.694 42.0994L152.56 40.233L146.153 33.826Z" fill="#1B2536"/>
<path d="M136.807 33.6298C140.831 33.6298 144.094 30.3673 144.094 26.3427C144.094 22.3182 140.831 19.0557 136.807 19.0557C132.782 19.0557 129.52 22.3182 129.52 26.3427C129.52 30.3673 132.782 33.6298 136.807 33.6298Z" fill="#4A75C9"/>
<path d="M140.67 22.4794C142.804 24.6133 142.804 28.0729 140.67 30.2065C138.536 32.3404 135.077 32.3404 132.943 30.2065C130.809 28.0725 130.809 24.613 132.943 22.4794C135.077 20.3454 138.536 20.3454 140.67 22.4794Z" fill="white"/>
<path d="M133.756 29.3944C133.618 29.2566 133.491 29.1118 133.376 28.9609" stroke="#BEDCE0" stroke-width="1.7467" stroke-miterlimit="10"/>
<path d="M132.824 28.0075C132.17 26.4405 132.48 24.5662 133.755 23.291" stroke="#BEDCE0" stroke-width="1.7467" stroke-miterlimit="10"/>
<path d="M93.2138 32.8948H80.7262C80.2368 32.8948 79.7659 33.081 79.4092 33.4154L76.6545 35.9969C76.2961 36.3327 75.71 36.0786 75.71 35.5878V18.1426C75.71 16.4885 77.051 15.1475 78.7051 15.1475H93.2138C94.8679 15.1475 96.2089 16.4885 96.2089 18.1426V29.8993C96.2093 31.5538 94.8682 32.8948 93.2138 32.8948Z" fill="#6E9296"/>
<path d="M92.2661 19.9879H79.6517C79.32 19.9879 79.0508 19.719 79.0508 19.387C79.0508 19.0554 79.3197 18.7861 79.6517 18.7861H92.2657C92.5974 18.7861 92.8666 19.055 92.8666 19.387C92.8666 19.719 92.5977 19.9879 92.2661 19.9879Z" stroke="white" stroke-width="0.6815" stroke-miterlimit="10"/>
<path d="M92.2661 23.0768H79.6517C79.32 23.0768 79.0508 22.8079 79.0508 22.4759C79.0508 22.1442 79.3197 21.875 79.6517 21.875H92.2657C92.5974 21.875 92.8666 22.1439 92.8666 22.4759C92.8666 22.8075 92.5977 23.0768 92.2661 23.0768Z" stroke="white" stroke-width="0.6815" stroke-miterlimit="10"/>
<path d="M92.2661 26.1656H79.6517C79.32 26.1656 79.0508 25.8967 79.0508 25.5648C79.0508 25.2328 79.3197 24.9639 79.6517 24.9639H92.2657C92.5974 24.9639 92.8666 25.2328 92.8666 25.5648C92.8666 25.8967 92.5977 26.1656 92.2661 26.1656Z" stroke="white" stroke-width="0.6815" stroke-miterlimit="10"/>
<path d="M92.2661 29.2545H79.6517C79.32 29.2545 79.0508 28.9856 79.0508 28.6536C79.0508 28.322 79.3197 28.0527 79.6517 28.0527H92.2657C92.5974 28.0527 92.8666 28.3216 92.8666 28.6536C92.8666 28.9856 92.5977 29.2545 92.2661 29.2545Z" stroke="white" stroke-width="0.6815" stroke-miterlimit="10"/>
</svg>
